<?xml version="1.0" encoding="utf-8" standalone="no"?>
<!DOCTYPE svg PUBLIC "-//W3C//DTD SVG 1.1//EN"
  "http://www.w3.org/Graphics/SVG/1.1/DTD/svg11.dtd">
<!-- Created with matplotlib (http://matplotlib.org/) -->
<svg height="500pt" version="1.1" viewBox="0 0 673 500" width="673pt" xmlns="http://www.w3.org/2000/svg" xmlns:xlink="http://www.w3.org/1999/xlink">
 <defs>
  <style type="text/css">
*{stroke-linecap:butt;stroke-linejoin:round;}
  </style>
 </defs>
 <g id="figure_1">
  <g id="patch_1">
   <path d="M 0 500 
L 673 500 
L 673 0 
L 0 0 
z
" style="fill:#ffffff;"/>
  </g>
  <g id="axes_1">
   <g id="patch_2">
    <path d="M 195.971875 472.521875 
L 658.7 472.521875 
L 658.7 14.3 
L 195.971875 14.3 
z
" style="fill:#ffffff;"/>
   </g>
   <g id="patch_3">
    <path clip-path="url(#p07415ccbfe)" d="M 195.971875 462.975586 
L 372.992911 462.975586 
L 372.992911 443.883008 
L 195.971875 443.883008 
z
" style="fill:#1f77b4;"/>
   </g>
   <g id="patch_4">
    <path clip-path="url(#p07415ccbfe)" d="M 195.971875 424.79043 
L 389.824197 424.79043 
L 389.824197 405.697852 
L 195.971875 405.697852 
z
" style="fill:#1f77b4;"/>
   </g>
   <g id="patch_5">
    <path clip-path="url(#p07415ccbfe)" d="M 195.971875 386.605273 
L 405.654219 386.605273 
L 405.654219 367.512695 
L 195.971875 367.512695 
z
" style="fill:#1f77b4;"/>
   </g>
   <g id="patch_6">
    <path clip-path="url(#p07415ccbfe)" d="M 195.971875 348.420117 
L 438.785403 348.420117 
L 438.785403 329.327539 
L 195.971875 329.327539 
z
" style="fill:#1f77b4;"/>
   </g>
   <g id="patch_7">
    <path clip-path="url(#p07415ccbfe)" d="M 195.971875 310.234961 
L 447.630696 310.234961 
L 447.630696 291.142383 
L 195.971875 291.142383 
z
" style="fill:#1f77b4;"/>
   </g>
   <g id="patch_8">
    <path clip-path="url(#p07415ccbfe)" d="M 195.971875 272.049805 
L 449.600436 272.049805 
L 449.600436 252.957227 
L 195.971875 252.957227 
z
" style="fill:#1f77b4;"/>
   </g>
   <g id="patch_9">
    <path clip-path="url(#p07415ccbfe)" d="M 195.971875 233.864648 
L 469.13348 233.864648 
L 469.13348 214.77207 
L 195.971875 214.77207 
z
" style="fill:#1f77b4;"/>
   </g>
   <g id="patch_10">
    <path clip-path="url(#p07415ccbfe)" d="M 195.971875 195.679492 
L 473.034093 195.679492 
L 473.034093 176.586914 
L 195.971875 176.586914 
z
" style="fill:#1f77b4;"/>
   </g>
   <g id="patch_11">
    <path clip-path="url(#p07415ccbfe)" d="M 195.971875 157.494336 
L 520.992295 157.494336 
L 520.992295 138.401758 
L 195.971875 138.401758 
z
" style="fill:#1f77b4;"/>
   </g>
   <g id="patch_12">
    <path clip-path="url(#p07415ccbfe)" d="M 195.971875 119.30918 
L 525.124688 119.30918 
L 525.124688 100.216602 
L 195.971875 100.216602 
z
" style="fill:#1f77b4;"/>
   </g>
   <g id="patch_13">
    <path clip-path="url(#p07415ccbfe)" d="M 195.971875 81.124023 
L 601.286373 81.124023 
L 601.286373 62.031445 
L 195.971875 62.031445 
z
" style="fill:#1f77b4;"/>
   </g>
   <g id="patch_14">
    <path clip-path="url(#p07415ccbfe)" d="M 195.971875 42.938867 
L 636.665327 42.938867 
L 636.665327 23.846289 
L 195.971875 23.846289 
z
" style="fill:#1f77b4;"/>
   </g>
   <g id="matplotlib.axis_1">
    <g id="xtick_1">
     <g id="line2d_1">
      <defs>
       <path d="M 0 0 
L 0 3.5 
" id="m1499046cc0" style="stroke:#000000;stroke-width:0.8;"/>
      </defs>
      <g>
       <use style="stroke:#000000;stroke-width:0.8;" x="195.971875" xlink:href="#m1499046cc0" y="472.521875"/>
      </g>
     </g>
     <g id="text_1">
      <!-- 0 -->
      <defs>
       <path d="M 31.78125 66.40625 
Q 24.171875 66.40625 20.328125 58.90625 
Q 16.5 51.421875 16.5 36.375 
Q 16.5 21.390625 20.328125 13.890625 
Q 24.171875 6.390625 31.78125 6.390625 
Q 39.453125 6.390625 43.28125 13.890625 
Q 47.125 21.390625 47.125 36.375 
Q 47.125 51.421875 43.28125 58.90625 
Q 39.453125 66.40625 31.78125 66.40625 
z
M 31.78125 74.21875 
Q 44.046875 74.21875 50.515625 64.515625 
Q 56.984375 54.828125 56.984375 36.375 
Q 56.984375 17.96875 50.515625 8.265625 
Q 44.046875 -1.421875 31.78125 -1.421875 
Q 19.53125 -1.421875 13.0625 8.265625 
Q 6.59375 17.96875 6.59375 36.375 
Q 6.59375 54.828125 13.0625 64.515625 
Q 19.53125 74.21875 31.78125 74.21875 
z
" id="DejaVuSans-30"/>
      </defs>
      <g transform="translate(192.790625 487.120312)scale(0.1 -0.1)">
       <use xlink:href="#DejaVuSans-30"/>
      </g>
     </g>
    </g>
    <g id="xtick_2">
     <g id="line2d_2">
      <g>
       <use style="stroke:#000000;stroke-width:0.8;" x="287.570976" xlink:href="#m1499046cc0" y="472.521875"/>
      </g>
     </g>
     <g id="text_2">
      <!-- 5 -->
      <defs>
       <path d="M 10.796875 72.90625 
L 49.515625 72.90625 
L 49.515625 64.59375 
L 19.828125 64.59375 
L 19.828125 46.734375 
Q 21.96875 47.46875 24.109375 47.828125 
Q 26.265625 48.1875 28.421875 48.1875 
Q 40.625 48.1875 47.75 41.5 
Q 54.890625 34.8125 54.890625 23.390625 
Q 54.890625 11.625 47.5625 5.09375 
Q 40.234375 -1.421875 26.90625 -1.421875 
Q 22.3125 -1.421875 17.546875 -0.640625 
Q 12.796875 0.140625 7.71875 1.703125 
L 7.71875 11.625 
Q 12.109375 9.234375 16.796875 8.0625 
Q 21.484375 6.890625 26.703125 6.890625 
Q 35.15625 6.890625 40.078125 11.328125 
Q 45.015625 15.765625 45.015625 23.390625 
Q 45.015625 31 40.078125 35.4375 
Q 35.15625 39.890625 26.703125 39.890625 
Q 22.75 39.890625 18.8125 39.015625 
Q 14.890625 38.140625 10.796875 36.28125 
z
" id="DejaVuSans-35"/>
      </defs>
      <g transform="translate(284.389726 487.120312)scale(0.1 -0.1)">
       <use xlink:href="#DejaVuSans-35"/>
      </g>
     </g>
    </g>
    <g id="xtick_3">
     <g id="line2d_3">
      <g>
       <use style="stroke:#000000;stroke-width:0.8;" x="379.170077" xlink:href="#m1499046cc0" y="472.521875"/>
      </g>
     </g>
     <g id="text_3">
      <!-- 10 -->
      <defs>
       <path d="M 12.40625 8.296875 
L 28.515625 8.296875 
L 28.515625 63.921875 
L 10.984375 60.40625 
L 10.984375 69.390625 
L 28.421875 72.90625 
L 38.28125 72.90625 
L 38.28125 8.296875 
L 54.390625 8.296875 
L 54.390625 0 
L 12.40625 0 
z
" id="DejaVuSans-31"/>
      </defs>
      <g transform="translate(372.807577 487.120312)scale(0.1 -0.1)">
       <use xlink:href="#DejaVuSans-31"/>
       <use x="63.623047" xlink:href="#DejaVuSans-30"/>
      </g>
     </g>
    </g>
    <g id="xtick_4">
     <g id="line2d_4">
      <g>
       <use style="stroke:#000000;stroke-width:0.8;" x="470.769178" xlink:href="#m1499046cc0" y="472.521875"/>
      </g>
     </g>
     <g id="text_4">
      <!-- 15 -->
      <g transform="translate(464.406678 487.120312)scale(0.1 -0.1)">
       <use xlink:href="#DejaVuSans-31"/>
       <use x="63.623047" xlink:href="#DejaVuSans-35"/>
      </g>
     </g>
    </g>
    <g id="xtick_5">
     <g id="line2d_5">
      <g>
       <use style="stroke:#000000;stroke-width:0.8;" x="562.368279" xlink:href="#m1499046cc0" y="472.521875"/>
      </g>
     </g>
     <g id="text_5">
      <!-- 20 -->
      <defs>
       <path d="M 19.1875 8.296875 
L 53.609375 8.296875 
L 53.609375 0 
L 7.328125 0 
L 7.328125 8.296875 
Q 12.9375 14.109375 22.625 23.890625 
Q 32.328125 33.6875 34.8125 36.53125 
Q 39.546875 41.84375 41.421875 45.53125 
Q 43.3125 49.21875 43.3125 52.78125 
Q 43.3125 58.59375 39.234375 62.25 
Q 35.15625 65.921875 28.609375 65.921875 
Q 23.96875 65.921875 18.8125 64.3125 
Q 13.671875 62.703125 7.8125 59.421875 
L 7.8125 69.390625 
Q 13.765625 71.78125 18.9375 73 
Q 24.125 74.21875 28.421875 74.21875 
Q 39.75 74.21875 46.484375 68.546875 
Q 53.21875 62.890625 53.21875 53.421875 
Q 53.21875 48.921875 51.53125 44.890625 
Q 49.859375 40.875 45.40625 35.40625 
Q 44.1875 33.984375 37.640625 27.21875 
Q 31.109375 20.453125 19.1875 8.296875 
z
" id="DejaVuSans-32"/>
      </defs>
      <g transform="translate(556.005779 487.120312)scale(0.1 -0.1)">
       <use xlink:href="#DejaVuSans-32"/>
       <use x="63.623047" xlink:href="#DejaVuSans-30"/>
      </g>
     </g>
    </g>
    <g id="xtick_6">
     <g id="line2d_6">
      <g>
       <use style="stroke:#000000;stroke-width:0.8;" x="653.96738" xlink:href="#m1499046cc0" y="472.521875"/>
      </g>
     </g>
     <g id="text_6">
      <!-- 25 -->
      <g transform="translate(647.60488 487.120312)scale(0.1 -0.1)">
       <use xlink:href="#DejaVuSans-32"/>
       <use x="63.623047" xlink:href="#DejaVuSans-35"/>
      </g>
     </g>
    </g>
   </g>
   <g id="matplotlib.axis_2">
    <g id="ytick_1">
     <g id="line2d_7">
      <defs>
       <path d="M 0 0 
L -3.5 0 
" id="m5c6606f4fe" style="stroke:#000000;stroke-width:0.8;"/>
      </defs>
      <g>
       <use style="stroke:#000000;stroke-width:0.8;" x="195.971875" xlink:href="#m5c6606f4fe" y="453.429297"/>
      </g>
     </g>
     <g id="text_7">
      <!-- Seatbelt Violation -->
      <defs>
       <path d="M 53.515625 70.515625 
L 53.515625 60.890625 
Q 47.90625 63.578125 42.921875 64.890625 
Q 37.9375 66.21875 33.296875 66.21875 
Q 25.25 66.21875 20.875 63.09375 
Q 16.5 59.96875 16.5 54.203125 
Q 16.5 49.359375 19.40625 46.890625 
Q 22.3125 44.4375 30.421875 42.921875 
L 36.375 41.703125 
Q 47.40625 39.59375 52.65625 34.296875 
Q 57.90625 29 57.90625 20.125 
Q 57.90625 9.515625 50.796875 4.046875 
Q 43.703125 -1.421875 29.984375 -1.421875 
Q 24.8125 -1.421875 18.96875 -0.25 
Q 13.140625 0.921875 6.890625 3.21875 
L 6.890625 13.375 
Q 12.890625 10.015625 18.65625 8.296875 
Q 24.421875 6.59375 29.984375 6.59375 
Q 38.421875 6.59375 43.015625 9.90625 
Q 47.609375 13.234375 47.609375 19.390625 
Q 47.609375 24.75 44.3125 27.78125 
Q 41.015625 30.8125 33.5 32.328125 
L 27.484375 33.5 
Q 16.453125 35.6875 11.515625 40.375 
Q 6.59375 45.0625 6.59375 53.421875 
Q 6.59375 63.09375 13.40625 68.65625 
Q 20.21875 74.21875 32.171875 74.21875 
Q 37.3125 74.21875 42.625 73.28125 
Q 47.953125 72.359375 53.515625 70.515625 
z
" id="DejaVuSans-53"/>
       <path d="M 56.203125 29.59375 
L 56.203125 25.203125 
L 14.890625 25.203125 
Q 15.484375 15.921875 20.484375 11.0625 
Q 25.484375 6.203125 34.421875 6.203125 
Q 39.59375 6.203125 44.453125 7.46875 
Q 49.3125 8.734375 54.109375 11.28125 
L 54.109375 2.78125 
Q 49.265625 0.734375 44.1875 -0.34375 
Q 39.109375 -1.421875 33.890625 -1.421875 
Q 20.796875 -1.421875 13.15625 6.1875 
Q 5.515625 13.8125 5.515625 26.8125 
Q 5.515625 40.234375 12.765625 48.109375 
Q 20.015625 56 32.328125 56 
Q 43.359375 56 49.78125 48.890625 
Q 56.203125 41.796875 56.203125 29.59375 
z
M 47.21875 32.234375 
Q 47.125 39.59375 43.09375 43.984375 
Q 39.0625 48.390625 32.421875 48.390625 
Q 24.90625 48.390625 20.390625 44.140625 
Q 15.875 39.890625 15.1875 32.171875 
z
" id="DejaVuSans-65"/>
       <path d="M 34.28125 27.484375 
Q 23.390625 27.484375 19.1875 25 
Q 14.984375 22.515625 14.984375 16.5 
Q 14.984375 11.71875 18.140625 8.90625 
Q 21.296875 6.109375 26.703125 6.109375 
Q 34.1875 6.109375 38.703125 11.40625 
Q 43.21875 16.703125 43.21875 25.484375 
L 43.21875 27.484375 
z
M 52.203125 31.203125 
L 52.203125 0 
L 43.21875 0 
L 43.21875 8.296875 
Q 40.140625 3.328125 35.546875 0.953125 
Q 30.953125 -1.421875 24.3125 -1.421875 
Q 15.921875 -1.421875 10.953125 3.296875 
Q 6 8.015625 6 15.921875 
Q 6 25.140625 12.171875 29.828125 
Q 18.359375 34.515625 30.609375 34.515625 
L 43.21875 34.515625 
L 43.21875 35.40625 
Q 43.21875 41.609375 39.140625 45 
Q 35.0625 48.390625 27.6875 48.390625 
Q 23 48.390625 18.546875 47.265625 
Q 14.109375 46.140625 10.015625 43.890625 
L 10.015625 52.203125 
Q 14.9375 54.109375 19.578125 55.046875 
Q 24.21875 56 28.609375 56 
Q 40.484375 56 46.34375 49.84375 
Q 52.203125 43.703125 52.203125 31.203125 
z
" id="DejaVuSans-61"/>
       <path d="M 18.3125 70.21875 
L 18.3125 54.6875 
L 36.8125 54.6875 
L 36.8125 47.703125 
L 18.3125 47.703125 
L 18.3125 18.015625 
Q 18.3125 11.328125 20.140625 9.421875 
Q 21.96875 7.515625 27.59375 7.515625 
L 36.8125 7.515625 
L 36.8125 0 
L 27.59375 0 
Q 17.1875 0 13.234375 3.875 
Q 9.28125 7.765625 9.28125 18.015625 
L 9.28125 47.703125 
L 2.6875 47.703125 
L 2.6875 54.6875 
L 9.28125 54.6875 
L 9.28125 70.21875 
z
" id="DejaVuSans-74"/>
       <path d="M 48.6875 27.296875 
Q 48.6875 37.203125 44.609375 42.84375 
Q 40.53125 48.484375 33.40625 48.484375 
Q 26.265625 48.484375 22.1875 42.84375 
Q 18.109375 37.203125 18.109375 27.296875 
Q 18.109375 17.390625 22.1875 11.75 
Q 26.265625 6.109375 33.40625 6.109375 
Q 40.53125 6.109375 44.609375 11.75 
Q 48.6875 17.390625 48.6875 27.296875 
z
M 18.109375 46.390625 
Q 20.953125 51.265625 25.265625 53.625 
Q 29.59375 56 35.59375 56 
Q 45.5625 56 51.78125 48.09375 
Q 58.015625 40.1875 58.015625 27.296875 
Q 58.015625 14.40625 51.78125 6.484375 
Q 45.5625 -1.421875 35.59375 -1.421875 
Q 29.59375 -1.421875 25.265625 0.953125 
Q 20.953125 3.328125 18.109375 8.203125 
L 18.109375 0 
L 9.078125 0 
L 9.078125 75.984375 
L 18.109375 75.984375 
z
" id="DejaVuSans-62"/>
       <path d="M 9.421875 75.984375 
L 18.40625 75.984375 
L 18.40625 0 
L 9.421875 0 
z
" id="DejaVuSans-6c"/>
       <path id="DejaVuSans-20"/>
       <path d="M 28.609375 0 
L 0.78125 72.90625 
L 11.078125 72.90625 
L 34.1875 11.53125 
L 57.328125 72.90625 
L 67.578125 72.90625 
L 39.796875 0 
z
" id="DejaVuSans-56"/>
       <path d="M 9.421875 54.6875 
L 18.40625 54.6875 
L 18.40625 0 
L 9.421875 0 
z
M 9.421875 75.984375 
L 18.40625 75.984375 
L 18.40625 64.59375 
L 9.421875 64.59375 
z
" id="DejaVuSans-69"/>
       <path d="M 30.609375 48.390625 
Q 23.390625 48.390625 19.1875 42.75 
Q 14.984375 37.109375 14.984375 27.296875 
Q 14.984375 17.484375 19.15625 11.84375 
Q 23.34375 6.203125 30.609375 6.203125 
Q 37.796875 6.203125 41.984375 11.859375 
Q 46.1875 17.53125 46.1875 27.296875 
Q 46.1875 37.015625 41.984375 42.703125 
Q 37.796875 48.390625 30.609375 48.390625 
z
M 30.609375 56 
Q 42.328125 56 49.015625 48.375 
Q 55.71875 40.765625 55.71875 27.296875 
Q 55.71875 13.875 49.015625 6.21875 
Q 42.328125 -1.421875 30.609375 -1.421875 
Q 18.84375 -1.421875 12.171875 6.21875 
Q 5.515625 13.875 5.515625 27.296875 
Q 5.515625 40.765625 12.171875 48.375 
Q 18.84375 56 30.609375 56 
z
" id="DejaVuSans-6f"/>
       <path d="M 54.890625 33.015625 
L 54.890625 0 
L 45.90625 0 
L 45.90625 32.71875 
Q 45.90625 40.484375 42.875 44.328125 
Q 39.84375 48.1875 33.796875 48.1875 
Q 26.515625 48.1875 22.3125 43.546875 
Q 18.109375 38.921875 18.109375 30.90625 
L 18.109375 0 
L 9.078125 0 
L 9.078125 54.6875 
L 18.109375 54.6875 
L 18.109375 46.1875 
Q 21.34375 51.125 25.703125 53.5625 
Q 30.078125 56 35.796875 56 
Q 45.21875 56 50.046875 50.171875 
Q 54.890625 44.34375 54.890625 33.015625 
z
" id="DejaVuSans-6e"/>
      </defs>
      <g transform="translate(100.248438 457.228516)scale(0.1 -0.1)">
       <use xlink:href="#DejaVuSans-53"/>
       <use x="63.476562" xlink:href="#DejaVuSans-65"/>
       <use x="125" xlink:href="#DejaVuSans-61"/>
       <use x="186.279297" xlink:href="#DejaVuSans-74"/>
       <use x="225.488281" xlink:href="#DejaVuSans-62"/>
       <use x="288.964844" xlink:href="#DejaVuSans-65"/>
       <use x="350.488281" xlink:href="#DejaVuSans-6c"/>
       <use x="378.271484" xlink:href="#DejaVuSans-74"/>
       <use x="417.480469" xlink:href="#DejaVuSans-20"/>
       <use x="449.267578" xlink:href="#DejaVuSans-56"/>
       <use x="517.644531" xlink:href="#DejaVuSans-69"/>
       <use x="545.427734" xlink:href="#DejaVuSans-6f"/>
       <use x="606.609375" xlink:href="#DejaVuSans-6c"/>
       <use x="634.392578" xlink:href="#DejaVuSans-61"/>
       <use x="695.671875" xlink:href="#DejaVuSans-74"/>
       <use x="734.880859" xlink:href="#DejaVuSans-69"/>
       <use x="762.664062" xlink:href="#DejaVuSans-6f"/>
       <use x="823.845703" xlink:href="#DejaVuSans-6e"/>
      </g>
     </g>
    </g>
    <g id="ytick_2">
     <g id="line2d_8">
      <g>
       <use style="stroke:#000000;stroke-width:0.8;" x="195.971875" xlink:href="#m5c6606f4fe" y="415.244141"/>
      </g>
     </g>
     <g id="text_8">
      <!-- Speeding -->
      <defs>
       <path d="M 18.109375 8.203125 
L 18.109375 -20.796875 
L 9.078125 -20.796875 
L 9.078125 54.6875 
L 18.109375 54.6875 
L 18.109375 46.390625 
Q 20.953125 51.265625 25.265625 53.625 
Q 29.59375 56 35.59375 56 
Q 45.5625 56 51.78125 48.09375 
Q 58.015625 40.1875 58.015625 27.296875 
Q 58.015625 14.40625 51.78125 6.484375 
Q 45.5625 -1.421875 35.59375 -1.421875 
Q 29.59375 -1.421875 25.265625 0.953125 
Q 20.953125 3.328125 18.109375 8.203125 
z
M 48.6875 27.296875 
Q 48.6875 37.203125 44.609375 42.84375 
Q 40.53125 48.484375 33.40625 48.484375 
Q 26.265625 48.484375 22.1875 42.84375 
Q 18.109375 37.203125 18.109375 27.296875 
Q 18.109375 17.390625 22.1875 11.75 
Q 26.265625 6.109375 33.40625 6.109375 
Q 40.53125 6.109375 44.609375 11.75 
Q 48.6875 17.390625 48.6875 27.296875 
z
" id="DejaVuSans-70"/>
       <path d="M 45.40625 46.390625 
L 45.40625 75.984375 
L 54.390625 75.984375 
L 54.390625 0 
L 45.40625 0 
L 45.40625 8.203125 
Q 42.578125 3.328125 38.25 0.953125 
Q 33.9375 -1.421875 27.875 -1.421875 
Q 17.96875 -1.421875 11.734375 6.484375 
Q 5.515625 14.40625 5.515625 27.296875 
Q 5.515625 40.1875 11.734375 48.09375 
Q 17.96875 56 27.875 56 
Q 33.9375 56 38.25 53.625 
Q 42.578125 51.265625 45.40625 46.390625 
z
M 14.796875 27.296875 
Q 14.796875 17.390625 18.875 11.75 
Q 22.953125 6.109375 30.078125 6.109375 
Q 37.203125 6.109375 41.296875 11.75 
Q 45.40625 17.390625 45.40625 27.296875 
Q 45.40625 37.203125 41.296875 42.84375 
Q 37.203125 48.484375 30.078125 48.484375 
Q 22.953125 48.484375 18.875 42.84375 
Q 14.796875 37.203125 14.796875 27.296875 
z
" id="DejaVuSans-64"/>
       <path d="M 45.40625 27.984375 
Q 45.40625 37.75 41.375 43.109375 
Q 37.359375 48.484375 30.078125 48.484375 
Q 22.859375 48.484375 18.828125 43.109375 
Q 14.796875 37.75 14.796875 27.984375 
Q 14.796875 18.265625 18.828125 12.890625 
Q 22.859375 7.515625 30.078125 7.515625 
Q 37.359375 7.515625 41.375 12.890625 
Q 45.40625 18.265625 45.40625 27.984375 
z
M 54.390625 6.78125 
Q 54.390625 -7.171875 48.1875 -13.984375 
Q 42 -20.796875 29.203125 -20.796875 
Q 24.46875 -20.796875 20.265625 -20.09375 
Q 16.0625 -19.390625 12.109375 -17.921875 
L 12.109375 -9.1875 
Q 16.0625 -11.328125 19.921875 -12.34375 
Q 23.78125 -13.375 27.78125 -13.375 
Q 36.625 -13.375 41.015625 -8.765625 
Q 45.40625 -4.15625 45.40625 5.171875 
L 45.40625 9.625 
Q 42.625 4.78125 38.28125 2.390625 
Q 33.9375 0 27.875 0 
Q 17.828125 0 11.671875 7.65625 
Q 5.515625 15.328125 5.515625 27.984375 
Q 5.515625 40.671875 11.671875 48.328125 
Q 17.828125 56 27.875 56 
Q 33.9375 56 38.28125 53.609375 
Q 42.625 51.21875 45.40625 46.390625 
L 45.40625 54.6875 
L 54.390625 54.6875 
z
" id="DejaVuSans-67"/>
      </defs>
      <g transform="translate(142.15625 419.043359)scale(0.1 -0.1)">
       <use xlink:href="#DejaVuSans-53"/>
       <use x="63.476562" xlink:href="#DejaVuSans-70"/>
       <use x="126.953125" xlink:href="#DejaVuSans-65"/>
       <use x="188.476562" xlink:href="#DejaVuSans-65"/>
       <use x="250" xlink:href="#DejaVuSans-64"/>
       <use x="313.476562" xlink:href="#DejaVuSans-69"/>
       <use x="341.259766" xlink:href="#DejaVuSans-6e"/>
       <use x="404.638672" xlink:href="#DejaVuSans-67"/>
      </g>
     </g>
    </g>
    <g id="ytick_3">
     <g id="line2d_9">
      <g>
       <use style="stroke:#000000;stroke-width:0.8;" x="195.971875" xlink:href="#m5c6606f4fe" y="377.058984"/>
      </g>
     </g>
     <g id="text_9">
      <!-- Equipment/Inspection Violation -->
      <defs>
       <path d="M 9.8125 72.90625 
L 55.90625 72.90625 
L 55.90625 64.59375 
L 19.671875 64.59375 
L 19.671875 43.015625 
L 54.390625 43.015625 
L 54.390625 34.71875 
L 19.671875 34.71875 
L 19.671875 8.296875 
L 56.78125 8.296875 
L 56.78125 0 
L 9.8125 0 
z
" id="DejaVuSans-45"/>
       <path d="M 14.796875 27.296875 
Q 14.796875 17.390625 18.875 11.75 
Q 22.953125 6.109375 30.078125 6.109375 
Q 37.203125 6.109375 41.296875 11.75 
Q 45.40625 17.390625 45.40625 27.296875 
Q 45.40625 37.203125 41.296875 42.84375 
Q 37.203125 48.484375 30.078125 48.484375 
Q 22.953125 48.484375 18.875 42.84375 
Q 14.796875 37.203125 14.796875 27.296875 
z
M 45.40625 8.203125 
Q 42.578125 3.328125 38.25 0.953125 
Q 33.9375 -1.421875 27.875 -1.421875 
Q 17.96875 -1.421875 11.734375 6.484375 
Q 5.515625 14.40625 5.515625 27.296875 
Q 5.515625 40.1875 11.734375 48.09375 
Q 17.96875 56 27.875 56 
Q 33.9375 56 38.25 53.625 
Q 42.578125 51.265625 45.40625 46.390625 
L 45.40625 54.6875 
L 54.390625 54.6875 
L 54.390625 -20.796875 
L 45.40625 -20.796875 
z
" id="DejaVuSans-71"/>
       <path d="M 8.5 21.578125 
L 8.5 54.6875 
L 17.484375 54.6875 
L 17.484375 21.921875 
Q 17.484375 14.15625 20.5 10.265625 
Q 23.53125 6.390625 29.59375 6.390625 
Q 36.859375 6.390625 41.078125 11.03125 
Q 45.3125 15.671875 45.3125 23.6875 
L 45.3125 54.6875 
L 54.296875 54.6875 
L 54.296875 0 
L 45.3125 0 
L 45.3125 8.40625 
Q 42.046875 3.421875 37.71875 1 
Q 33.40625 -1.421875 27.6875 -1.421875 
Q 18.265625 -1.421875 13.375 4.4375 
Q 8.5 10.296875 8.5 21.578125 
z
M 31.109375 56 
z
" id="DejaVuSans-75"/>
       <path d="M 52 44.1875 
Q 55.375 50.25 60.0625 53.125 
Q 64.75 56 71.09375 56 
Q 79.640625 56 84.28125 50.015625 
Q 88.921875 44.046875 88.921875 33.015625 
L 88.921875 0 
L 79.890625 0 
L 79.890625 32.71875 
Q 79.890625 40.578125 77.09375 44.375 
Q 74.3125 48.1875 68.609375 48.1875 
Q 61.625 48.1875 57.5625 43.546875 
Q 53.515625 38.921875 53.515625 30.90625 
L 53.515625 0 
L 44.484375 0 
L 44.484375 32.71875 
Q 44.484375 40.625 41.703125 44.40625 
Q 38.921875 48.1875 33.109375 48.1875 
Q 26.21875 48.1875 22.15625 43.53125 
Q 18.109375 38.875 18.109375 30.90625 
L 18.109375 0 
L 9.078125 0 
L 9.078125 54.6875 
L 18.109375 54.6875 
L 18.109375 46.1875 
Q 21.1875 51.21875 25.484375 53.609375 
Q 29.78125 56 35.6875 56 
Q 41.65625 56 45.828125 52.96875 
Q 50 49.953125 52 44.1875 
z
" id="DejaVuSans-6d"/>
       <path d="M 25.390625 72.90625 
L 33.6875 72.90625 
L 8.296875 -9.28125 
L 0 -9.28125 
z
" id="DejaVuSans-2f"/>
       <path d="M 9.8125 72.90625 
L 19.671875 72.90625 
L 19.671875 0 
L 9.8125 0 
z
" id="DejaVuSans-49"/>
       <path d="M 44.28125 53.078125 
L 44.28125 44.578125 
Q 40.484375 46.53125 36.375 47.5 
Q 32.28125 48.484375 27.875 48.484375 
Q 21.1875 48.484375 17.84375 46.4375 
Q 14.5 44.390625 14.5 40.28125 
Q 14.5 37.15625 16.890625 35.375 
Q 19.28125 33.59375 26.515625 31.984375 
L 29.59375 31.296875 
Q 39.15625 29.25 43.1875 25.515625 
Q 47.21875 21.78125 47.21875 15.09375 
Q 47.21875 7.46875 41.1875 3.015625 
Q 35.15625 -1.421875 24.609375 -1.421875 
Q 20.21875 -1.421875 15.453125 -0.5625 
Q 10.6875 0.296875 5.421875 2 
L 5.421875 11.28125 
Q 10.40625 8.6875 15.234375 7.390625 
Q 20.0625 6.109375 24.8125 6.109375 
Q 31.15625 6.109375 34.5625 8.28125 
Q 37.984375 10.453125 37.984375 14.40625 
Q 37.984375 18.0625 35.515625 20.015625 
Q 33.0625 21.96875 24.703125 23.78125 
L 21.578125 24.515625 
Q 13.234375 26.265625 9.515625 29.90625 
Q 5.8125 33.546875 5.8125 39.890625 
Q 5.8125 47.609375 11.28125 51.796875 
Q 16.75 56 26.8125 56 
Q 31.78125 56 36.171875 55.265625 
Q 40.578125 54.546875 44.28125 53.078125 
z
" id="DejaVuSans-73"/>
       <path d="M 48.78125 52.59375 
L 48.78125 44.1875 
Q 44.96875 46.296875 41.140625 47.34375 
Q 37.3125 48.390625 33.40625 48.390625 
Q 24.65625 48.390625 19.8125 42.84375 
Q 14.984375 37.3125 14.984375 27.296875 
Q 14.984375 17.28125 19.8125 11.734375 
Q 24.65625 6.203125 33.40625 6.203125 
Q 37.3125 6.203125 41.140625 7.25 
Q 44.96875 8.296875 48.78125 10.40625 
L 48.78125 2.09375 
Q 45.015625 0.34375 40.984375 -0.53125 
Q 36.96875 -1.421875 32.421875 -1.421875 
Q 20.0625 -1.421875 12.78125 6.34375 
Q 5.515625 14.109375 5.515625 27.296875 
Q 5.515625 40.671875 12.859375 48.328125 
Q 20.21875 56 33.015625 56 
Q 37.15625 56 41.109375 55.140625 
Q 45.0625 54.296875 48.78125 52.59375 
z
" id="DejaVuSans-63"/>
      </defs>
      <g transform="translate(32.695312 380.858203)scale(0.1 -0.1)">
       <use xlink:href="#DejaVuSans-45"/>
       <use x="63.183594" xlink:href="#DejaVuSans-71"/>
       <use x="126.660156" xlink:href="#DejaVuSans-75"/>
       <use x="190.039062" xlink:href="#DejaVuSans-69"/>
       <use x="217.822266" xlink:href="#DejaVuSans-70"/>
       <use x="281.298828" xlink:href="#DejaVuSans-6d"/>
       <use x="378.710938" xlink:href="#DejaVuSans-65"/>
       <use x="440.234375" xlink:href="#DejaVuSans-6e"/>
       <use x="503.613281" xlink:href="#DejaVuSans-74"/>
       <use x="542.822266" xlink:href="#DejaVuSans-2f"/>
       <use x="576.513672" xlink:href="#DejaVuSans-49"/>
       <use x="606.005859" xlink:href="#DejaVuSans-6e"/>
       <use x="669.384766" xlink:href="#DejaVuSans-73"/>
       <use x="721.484375" xlink:href="#DejaVuSans-70"/>
       <use x="784.960938" xlink:href="#DejaVuSans-65"/>
       <use x="846.484375" xlink:href="#DejaVuSans-63"/>
       <use x="901.464844" xlink:href="#DejaVuSans-74"/>
       <use x="940.673828" xlink:href="#DejaVuSans-69"/>
       <use x="968.457031" xlink:href="#DejaVuSans-6f"/>
       <use x="1029.638672" xlink:href="#DejaVuSans-6e"/>
       <use x="1093.017578" xlink:href="#DejaVuSans-20"/>
       <use x="1124.804688" xlink:href="#DejaVuSans-56"/>
       <use x="1193.181641" xlink:href="#DejaVuSans-69"/>
       <use x="1220.964844" xlink:href="#DejaVuSans-6f"/>
       <use x="1282.146484" xlink:href="#DejaVuSans-6c"/>
       <use x="1309.929688" xlink:href="#DejaVuSans-61"/>
       <use x="1371.208984" xlink:href="#DejaVuSans-74"/>
       <use x="1410.417969" xlink:href="#DejaVuSans-69"/>
       <use x="1438.201172" xlink:href="#DejaVuSans-6f"/>
       <use x="1499.382812" xlink:href="#DejaVuSans-6e"/>
      </g>
     </g>
    </g>
    <g id="ytick_4">
     <g id="line2d_10">
      <g>
       <use style="stroke:#000000;stroke-width:0.8;" x="195.971875" xlink:href="#m5c6606f4fe" y="338.873828"/>
      </g>
     </g>
     <g id="text_10">
      <!-- Violation of City/Town Ordinance -->
      <defs>
       <path d="M 37.109375 75.984375 
L 37.109375 68.5 
L 28.515625 68.5 
Q 23.6875 68.5 21.796875 66.546875 
Q 19.921875 64.59375 19.921875 59.515625 
L 19.921875 54.6875 
L 34.71875 54.6875 
L 34.71875 47.703125 
L 19.921875 47.703125 
L 19.921875 0 
L 10.890625 0 
L 10.890625 47.703125 
L 2.296875 47.703125 
L 2.296875 54.6875 
L 10.890625 54.6875 
L 10.890625 58.5 
Q 10.890625 67.625 15.140625 71.796875 
Q 19.390625 75.984375 28.609375 75.984375 
z
" id="DejaVuSans-66"/>
       <path d="M 64.40625 67.28125 
L 64.40625 56.890625 
Q 59.421875 61.53125 53.78125 63.8125 
Q 48.140625 66.109375 41.796875 66.109375 
Q 29.296875 66.109375 22.65625 58.46875 
Q 16.015625 50.828125 16.015625 36.375 
Q 16.015625 21.96875 22.65625 14.328125 
Q 29.296875 6.6875 41.796875 6.6875 
Q 48.140625 6.6875 53.78125 8.984375 
Q 59.421875 11.28125 64.40625 15.921875 
L 64.40625 5.609375 
Q 59.234375 2.09375 53.4375 0.328125 
Q 47.65625 -1.421875 41.21875 -1.421875 
Q 24.65625 -1.421875 15.125 8.703125 
Q 5.609375 18.84375 5.609375 36.375 
Q 5.609375 53.953125 15.125 64.078125 
Q 24.65625 74.21875 41.21875 74.21875 
Q 47.75 74.21875 53.53125 72.484375 
Q 59.328125 70.75 64.40625 67.28125 
z
" id="DejaVuSans-43"/>
       <path d="M 32.171875 -5.078125 
Q 28.375 -14.84375 24.75 -17.8125 
Q 21.140625 -20.796875 15.09375 -20.796875 
L 7.90625 -20.796875 
L 7.90625 -13.28125 
L 13.1875 -13.28125 
Q 16.890625 -13.28125 18.9375 -11.515625 
Q 21 -9.765625 23.484375 -3.21875 
L 25.09375 0.875 
L 2.984375 54.6875 
L 12.5 54.6875 
L 29.59375 11.921875 
L 46.6875 54.6875 
L 56.203125 54.6875 
z
" id="DejaVuSans-79"/>
       <path d="M -0.296875 72.90625 
L 61.375 72.90625 
L 61.375 64.59375 
L 35.5 64.59375 
L 35.5 0 
L 25.59375 0 
L 25.59375 64.59375 
L -0.296875 64.59375 
z
" id="DejaVuSans-54"/>
       <path d="M 4.203125 54.6875 
L 13.1875 54.6875 
L 24.421875 12.015625 
L 35.59375 54.6875 
L 46.1875 54.6875 
L 57.421875 12.015625 
L 68.609375 54.6875 
L 77.59375 54.6875 
L 63.28125 0 
L 52.6875 0 
L 40.921875 44.828125 
L 29.109375 0 
L 18.5 0 
z
" id="DejaVuSans-77"/>
       <path d="M 39.40625 66.21875 
Q 28.65625 66.21875 22.328125 58.203125 
Q 16.015625 50.203125 16.015625 36.375 
Q 16.015625 22.609375 22.328125 14.59375 
Q 28.65625 6.59375 39.40625 6.59375 
Q 50.140625 6.59375 56.421875 14.59375 
Q 62.703125 22.609375 62.703125 36.375 
Q 62.703125 50.203125 56.421875 58.203125 
Q 50.140625 66.21875 39.40625 66.21875 
z
M 39.40625 74.21875 
Q 54.734375 74.21875 63.90625 63.9375 
Q 73.09375 53.65625 73.09375 36.375 
Q 73.09375 19.140625 63.90625 8.859375 
Q 54.734375 -1.421875 39.40625 -1.421875 
Q 24.03125 -1.421875 14.8125 8.828125 
Q 5.609375 19.09375 5.609375 36.375 
Q 5.609375 53.65625 14.8125 63.9375 
Q 24.03125 74.21875 39.40625 74.21875 
z
" id="DejaVuSans-4f"/>
       <path d="M 41.109375 46.296875 
Q 39.59375 47.171875 37.8125 47.578125 
Q 36.03125 48 33.890625 48 
Q 26.265625 48 22.1875 43.046875 
Q 18.109375 38.09375 18.109375 28.8125 
L 18.109375 0 
L 9.078125 0 
L 9.078125 54.6875 
L 18.109375 54.6875 
L 18.109375 46.1875 
Q 20.953125 51.171875 25.484375 53.578125 
Q 30.03125 56 36.53125 56 
Q 37.453125 56 38.578125 55.875 
Q 39.703125 55.765625 41.0625 55.515625 
z
" id="DejaVuSans-72"/>
      </defs>
      <g transform="translate(24.75625 342.673047)scale(0.1 -0.1)">
       <use xlink:href="#DejaVuSans-56"/>
       <use x="68.376953" xlink:href="#DejaVuSans-69"/>
       <use x="96.160156" xlink:href="#DejaVuSans-6f"/>
       <use x="157.341797" xlink:href="#DejaVuSans-6c"/>
       <use x="185.125" xlink:href="#DejaVuSans-61"/>
       <use x="246.404297" xlink:href="#DejaVuSans-74"/>
       <use x="285.613281" xlink:href="#DejaVuSans-69"/>
       <use x="313.396484" xlink:href="#DejaVuSans-6f"/>
       <use x="374.578125" xlink:href="#DejaVuSans-6e"/>
       <use x="437.957031" xlink:href="#DejaVuSans-20"/>
       <use x="469.744141" xlink:href="#DejaVuSans-6f"/>
       <use x="530.925781" xlink:href="#DejaVuSans-66"/>
       <use x="566.130859" xlink:href="#DejaVuSans-20"/>
       <use x="597.917969" xlink:href="#DejaVuSans-43"/>
       <use x="667.742188" xlink:href="#DejaVuSans-69"/>
       <use x="695.525391" xlink:href="#DejaVuSans-74"/>
       <use x="734.734375" xlink:href="#DejaVuSans-79"/>
       <use x="793.914062" xlink:href="#DejaVuSans-2f"/>
       <use x="827.605469" xlink:href="#DejaVuSans-54"/>
       <use x="888.423828" xlink:href="#DejaVuSans-6f"/>
       <use x="949.605469" xlink:href="#DejaVuSans-77"/>
       <use x="1031.392578" xlink:href="#DejaVuSans-6e"/>
       <use x="1094.771484" xlink:href="#DejaVuSans-20"/>
       <use x="1126.558594" xlink:href="#DejaVuSans-4f"/>
       <use x="1205.269531" xlink:href="#DejaVuSans-72"/>
       <use x="1246.367188" xlink:href="#DejaVuSans-64"/>
       <use x="1309.84375" xlink:href="#DejaVuSans-69"/>
       <use x="1337.626953" xlink:href="#DejaVuSans-6e"/>
       <use x="1401.005859" xlink:href="#DejaVuSans-61"/>
       <use x="1462.285156" xlink:href="#DejaVuSans-6e"/>
       <use x="1525.664062" xlink:href="#DejaVuSans-63"/>
       <use x="1580.644531" xlink:href="#DejaVuSans-65"/>
      </g>
     </g>
    </g>
    <g id="ytick_5">
     <g id="line2d_11">
      <g>
       <use style="stroke:#000000;stroke-width:0.8;" x="195.971875" xlink:href="#m5c6606f4fe" y="300.688672"/>
      </g>
     </g>
     <g id="text_11">
      <!-- Registration Violation -->
      <defs>
       <path d="M 44.390625 34.1875 
Q 47.5625 33.109375 50.5625 29.59375 
Q 53.5625 26.078125 56.59375 19.921875 
L 66.609375 0 
L 56 0 
L 46.6875 18.703125 
Q 43.0625 26.03125 39.671875 28.421875 
Q 36.28125 30.8125 30.421875 30.8125 
L 19.671875 30.8125 
L 19.671875 0 
L 9.8125 0 
L 9.8125 72.90625 
L 32.078125 72.90625 
Q 44.578125 72.90625 50.734375 67.671875 
Q 56.890625 62.453125 56.890625 51.90625 
Q 56.890625 45.015625 53.6875 40.46875 
Q 50.484375 35.9375 44.390625 34.1875 
z
M 19.671875 64.796875 
L 19.671875 38.921875 
L 32.078125 38.921875 
Q 39.203125 38.921875 42.84375 42.21875 
Q 46.484375 45.515625 46.484375 51.90625 
Q 46.484375 58.296875 42.84375 61.546875 
Q 39.203125 64.796875 32.078125 64.796875 
z
" id="DejaVuSans-52"/>
      </defs>
      <g transform="translate(81.253125 304.487891)scale(0.1 -0.1)">
       <use xlink:href="#DejaVuSans-52"/>
       <use x="69.419922" xlink:href="#DejaVuSans-65"/>
       <use x="130.943359" xlink:href="#DejaVuSans-67"/>
       <use x="194.419922" xlink:href="#DejaVuSans-69"/>
       <use x="222.203125" xlink:href="#DejaVuSans-73"/>
       <use x="274.302734" xlink:href="#DejaVuSans-74"/>
       <use x="313.511719" xlink:href="#DejaVuSans-72"/>
       <use x="354.625" xlink:href="#DejaVuSans-61"/>
       <use x="415.904297" xlink:href="#DejaVuSans-74"/>
       <use x="455.113281" xlink:href="#DejaVuSans-69"/>
       <use x="482.896484" xlink:href="#DejaVuSans-6f"/>
       <use x="544.078125" xlink:href="#DejaVuSans-6e"/>
       <use x="607.457031" xlink:href="#DejaVuSans-20"/>
       <use x="639.244141" xlink:href="#DejaVuSans-56"/>
       <use x="707.621094" xlink:href="#DejaVuSans-69"/>
       <use x="735.404297" xlink:href="#DejaVuSans-6f"/>
       <use x="796.585938" xlink:href="#DejaVuSans-6c"/>
       <use x="824.369141" xlink:href="#DejaVuSans-61"/>
       <use x="885.648438" xlink:href="#DejaVuSans-74"/>
       <use x="924.857422" xlink:href="#DejaVuSans-69"/>
       <use x="952.640625" xlink:href="#DejaVuSans-6f"/>
       <use x="1013.822266" xlink:href="#DejaVuSans-6e"/>
      </g>
     </g>
    </g>
    <g id="ytick_6">
     <g id="line2d_12">
      <g>
       <use style="stroke:#000000;stroke-width:0.8;" x="195.971875" xlink:href="#m5c6606f4fe" y="262.503516"/>
      </g>
     </g>
     <g id="text_12">
      <!-- Other Traffic Violation -->
      <defs>
       <path d="M 54.890625 33.015625 
L 54.890625 0 
L 45.90625 0 
L 45.90625 32.71875 
Q 45.90625 40.484375 42.875 44.328125 
Q 39.84375 48.1875 33.796875 48.1875 
Q 26.515625 48.1875 22.3125 43.546875 
Q 18.109375 38.921875 18.109375 30.90625 
L 18.109375 0 
L 9.078125 0 
L 9.078125 75.984375 
L 18.109375 75.984375 
L 18.109375 46.1875 
Q 21.34375 51.125 25.703125 53.5625 
Q 30.078125 56 35.796875 56 
Q 45.21875 56 50.046875 50.171875 
Q 54.890625 44.34375 54.890625 33.015625 
z
" id="DejaVuSans-68"/>
      </defs>
      <g transform="translate(78.784375 266.302734)scale(0.1 -0.1)">
       <use xlink:href="#DejaVuSans-4f"/>
       <use x="78.710938" xlink:href="#DejaVuSans-74"/>
       <use x="117.919922" xlink:href="#DejaVuSans-68"/>
       <use x="181.298828" xlink:href="#DejaVuSans-65"/>
       <use x="242.822266" xlink:href="#DejaVuSans-72"/>
       <use x="283.935547" xlink:href="#DejaVuSans-20"/>
       <use x="315.722656" xlink:href="#DejaVuSans-54"/>
       <use x="376.587891" xlink:href="#DejaVuSans-72"/>
       <use x="417.701172" xlink:href="#DejaVuSans-61"/>
       <use x="478.980469" xlink:href="#DejaVuSans-66"/>
       <use x="514.185547" xlink:href="#DejaVuSans-66"/>
       <use x="549.390625" xlink:href="#DejaVuSans-69"/>
       <use x="577.173828" xlink:href="#DejaVuSans-63"/>
       <use x="632.154297" xlink:href="#DejaVuSans-20"/>
       <use x="663.941406" xlink:href="#DejaVuSans-56"/>
       <use x="732.318359" xlink:href="#DejaVuSans-69"/>
       <use x="760.101562" xlink:href="#DejaVuSans-6f"/>
       <use x="821.283203" xlink:href="#DejaVuSans-6c"/>
       <use x="849.066406" xlink:href="#DejaVuSans-61"/>
       <use x="910.345703" xlink:href="#DejaVuSans-74"/>
       <use x="949.554688" xlink:href="#DejaVuSans-69"/>
       <use x="977.337891" xlink:href="#DejaVuSans-6f"/>
       <use x="1038.519531" xlink:href="#DejaVuSans-6e"/>
      </g>
     </g>
    </g>
    <g id="ytick_7">
     <g id="line2d_13">
      <g>
       <use style="stroke:#000000;stroke-width:0.8;" x="195.971875" xlink:href="#m5c6606f4fe" y="224.318359"/>
      </g>
     </g>
     <g id="text_13">
      <!-- Suspicious Person -->
      <defs>
       <path d="M 19.671875 64.796875 
L 19.671875 37.40625 
L 32.078125 37.40625 
Q 38.96875 37.40625 42.71875 40.96875 
Q 46.484375 44.53125 46.484375 51.125 
Q 46.484375 57.671875 42.71875 61.234375 
Q 38.96875 64.796875 32.078125 64.796875 
z
M 9.8125 72.90625 
L 32.078125 72.90625 
Q 44.34375 72.90625 50.609375 67.359375 
Q 56.890625 61.8125 56.890625 51.125 
Q 56.890625 40.328125 50.609375 34.8125 
Q 44.34375 29.296875 32.078125 29.296875 
L 19.671875 29.296875 
L 19.671875 0 
L 9.8125 0 
z
" id="DejaVuSans-50"/>
      </defs>
      <g transform="translate(98.875 228.117578)scale(0.1 -0.1)">
       <use xlink:href="#DejaVuSans-53"/>
       <use x="63.476562" xlink:href="#DejaVuSans-75"/>
       <use x="126.855469" xlink:href="#DejaVuSans-73"/>
       <use x="178.955078" xlink:href="#DejaVuSans-70"/>
       <use x="242.431641" xlink:href="#DejaVuSans-69"/>
       <use x="270.214844" xlink:href="#DejaVuSans-63"/>
       <use x="325.195312" xlink:href="#DejaVuSans-69"/>
       <use x="352.978516" xlink:href="#DejaVuSans-6f"/>
       <use x="414.160156" xlink:href="#DejaVuSans-75"/>
       <use x="477.539062" xlink:href="#DejaVuSans-73"/>
       <use x="529.638672" xlink:href="#DejaVuSans-20"/>
       <use x="561.425781" xlink:href="#DejaVuSans-50"/>
       <use x="621.681641" xlink:href="#DejaVuSans-65"/>
       <use x="683.205078" xlink:href="#DejaVuSans-72"/>
       <use x="724.318359" xlink:href="#DejaVuSans-73"/>
       <use x="776.417969" xlink:href="#DejaVuSans-6f"/>
       <use x="837.599609" xlink:href="#DejaVuSans-6e"/>
      </g>
     </g>
    </g>
    <g id="ytick_8">
     <g id="line2d_14">
      <g>
       <use style="stroke:#000000;stroke-width:0.8;" x="195.971875" xlink:href="#m5c6606f4fe" y="186.133203"/>
      </g>
     </g>
     <g id="text_14">
      <!-- Special Detail/Directed Patrol -->
      <defs>
       <path d="M 19.671875 64.796875 
L 19.671875 8.109375 
L 31.59375 8.109375 
Q 46.6875 8.109375 53.6875 14.9375 
Q 60.6875 21.78125 60.6875 36.53125 
Q 60.6875 51.171875 53.6875 57.984375 
Q 46.6875 64.796875 31.59375 64.796875 
z
M 9.8125 72.90625 
L 30.078125 72.90625 
Q 51.265625 72.90625 61.171875 64.09375 
Q 71.09375 55.28125 71.09375 36.53125 
Q 71.09375 17.671875 61.125 8.828125 
Q 51.171875 0 30.078125 0 
L 9.8125 0 
z
" id="DejaVuSans-44"/>
      </defs>
      <g transform="translate(42.020313 189.932422)scale(0.1 -0.1)">
       <use xlink:href="#DejaVuSans-53"/>
       <use x="63.476562" xlink:href="#DejaVuSans-70"/>
       <use x="126.953125" xlink:href="#DejaVuSans-65"/>
       <use x="188.476562" xlink:href="#DejaVuSans-63"/>
       <use x="243.457031" xlink:href="#DejaVuSans-69"/>
       <use x="271.240234" xlink:href="#DejaVuSans-61"/>
       <use x="332.519531" xlink:href="#DejaVuSans-6c"/>
       <use x="360.302734" xlink:href="#DejaVuSans-20"/>
       <use x="392.089844" xlink:href="#DejaVuSans-44"/>
       <use x="469.091797" xlink:href="#DejaVuSans-65"/>
       <use x="530.615234" xlink:href="#DejaVuSans-74"/>
       <use x="569.824219" xlink:href="#DejaVuSans-61"/>
       <use x="631.103516" xlink:href="#DejaVuSans-69"/>
       <use x="658.886719" xlink:href="#DejaVuSans-6c"/>
       <use x="686.669922" xlink:href="#DejaVuSans-2f"/>
       <use x="720.361328" xlink:href="#DejaVuSans-44"/>
       <use x="797.363281" xlink:href="#DejaVuSans-69"/>
       <use x="825.146484" xlink:href="#DejaVuSans-72"/>
       <use x="866.228516" xlink:href="#DejaVuSans-65"/>
       <use x="927.751953" xlink:href="#DejaVuSans-63"/>
       <use x="982.732422" xlink:href="#DejaVuSans-74"/>
       <use x="1021.941406" xlink:href="#DejaVuSans-65"/>
       <use x="1083.464844" xlink:href="#DejaVuSans-64"/>
       <use x="1146.941406" xlink:href="#DejaVuSans-20"/>
       <use x="1178.728516" xlink:href="#DejaVuSans-50"/>
       <use x="1238.96875" xlink:href="#DejaVuSans-61"/>
       <use x="1300.248047" xlink:href="#DejaVuSans-74"/>
       <use x="1339.457031" xlink:href="#DejaVuSans-72"/>
       <use x="1380.539062" xlink:href="#DejaVuSans-6f"/>
       <use x="1441.720703" xlink:href="#DejaVuSans-6c"/>
      </g>
     </g>
    </g>
    <g id="ytick_9">
     <g id="line2d_15">
      <g>
       <use style="stroke:#000000;stroke-width:0.8;" x="195.971875" xlink:href="#m5c6606f4fe" y="147.948047"/>
      </g>
     </g>
     <g id="text_15">
      <!-- Motorist Assist/Courtesy -->
      <defs>
       <path d="M 9.8125 72.90625 
L 24.515625 72.90625 
L 43.109375 23.296875 
L 61.8125 72.90625 
L 76.515625 72.90625 
L 76.515625 0 
L 66.890625 0 
L 66.890625 64.015625 
L 48.09375 14.015625 
L 38.1875 14.015625 
L 19.390625 64.015625 
L 19.390625 0 
L 9.8125 0 
z
" id="DejaVuSans-4d"/>
       <path d="M 34.1875 63.1875 
L 20.796875 26.90625 
L 47.609375 26.90625 
z
M 28.609375 72.90625 
L 39.796875 72.90625 
L 67.578125 0 
L 57.328125 0 
L 50.6875 18.703125 
L 17.828125 18.703125 
L 11.1875 0 
L 0.78125 0 
z
" id="DejaVuSans-41"/>
      </defs>
      <g transform="translate(67.701563 151.747266)scale(0.1 -0.1)">
       <use xlink:href="#DejaVuSans-4d"/>
       <use x="86.279297" xlink:href="#DejaVuSans-6f"/>
       <use x="147.460938" xlink:href="#DejaVuSans-74"/>
       <use x="186.669922" xlink:href="#DejaVuSans-6f"/>
       <use x="247.851562" xlink:href="#DejaVuSans-72"/>
       <use x="288.964844" xlink:href="#DejaVuSans-69"/>
       <use x="316.748047" xlink:href="#DejaVuSans-73"/>
       <use x="368.847656" xlink:href="#DejaVuSans-74"/>
       <use x="408.056641" xlink:href="#DejaVuSans-20"/>
       <use x="439.84375" xlink:href="#DejaVuSans-41"/>
       <use x="508.251953" xlink:href="#DejaVuSans-73"/>
       <use x="560.351562" xlink:href="#DejaVuSans-73"/>
       <use x="612.451172" xlink:href="#DejaVuSans-69"/>
       <use x="640.234375" xlink:href="#DejaVuSans-73"/>
       <use x="692.333984" xlink:href="#DejaVuSans-74"/>
       <use x="731.542969" xlink:href="#DejaVuSans-2f"/>
       <use x="765.234375" xlink:href="#DejaVuSans-43"/>
       <use x="835.058594" xlink:href="#DejaVuSans-6f"/>
       <use x="896.240234" xlink:href="#DejaVuSans-75"/>
       <use x="959.619141" xlink:href="#DejaVuSans-72"/>
       <use x="1000.732422" xlink:href="#DejaVuSans-74"/>
       <use x="1039.941406" xlink:href="#DejaVuSans-65"/>
       <use x="1101.464844" xlink:href="#DejaVuSans-73"/>
       <use x="1153.564453" xlink:href="#DejaVuSans-79"/>
      </g>
     </g>
    </g>
    <g id="ytick_10">
     <g id="line2d_16">
      <g>
       <use style="stroke:#000000;stroke-width:0.8;" x="195.971875" xlink:href="#m5c6606f4fe" y="109.762891"/>
      </g>
     </g>
     <g id="text_16">
      <!-- APB -->
      <defs>
       <path d="M 19.671875 34.8125 
L 19.671875 8.109375 
L 35.5 8.109375 
Q 43.453125 8.109375 47.28125 11.40625 
Q 51.125 14.703125 51.125 21.484375 
Q 51.125 28.328125 47.28125 31.5625 
Q 43.453125 34.8125 35.5 34.8125 
z
M 19.671875 64.796875 
L 19.671875 42.828125 
L 34.28125 42.828125 
Q 41.5 42.828125 45.03125 45.53125 
Q 48.578125 48.25 48.578125 53.8125 
Q 48.578125 59.328125 45.03125 62.0625 
Q 41.5 64.796875 34.28125 64.796875 
z
M 9.8125 72.90625 
L 35.015625 72.90625 
Q 46.296875 72.90625 52.390625 68.21875 
Q 58.5 63.53125 58.5 54.890625 
Q 58.5 48.1875 55.375 44.234375 
Q 52.25 40.28125 46.1875 39.3125 
Q 53.46875 37.75 57.5 32.78125 
Q 61.53125 27.828125 61.53125 20.40625 
Q 61.53125 10.640625 54.890625 5.3125 
Q 48.25 0 35.984375 0 
L 9.8125 0 
z
" id="DejaVuSans-42"/>
      </defs>
      <g transform="translate(169.240625 113.562109)scale(0.1 -0.1)">
       <use xlink:href="#DejaVuSans-41"/>
       <use x="68.408203" xlink:href="#DejaVuSans-50"/>
       <use x="128.710938" xlink:href="#DejaVuSans-42"/>
      </g>
     </g>
    </g>
    <g id="ytick_11">
     <g id="line2d_17">
      <g>
       <use style="stroke:#000000;stroke-width:0.8;" x="195.971875" xlink:href="#m5c6606f4fe" y="71.577734"/>
      </g>
     </g>
     <g id="text_17">
      <!-- Call for Service -->
      <defs>
       <path d="M 2.984375 54.6875 
L 12.5 54.6875 
L 29.59375 8.796875 
L 46.6875 54.6875 
L 56.203125 54.6875 
L 35.6875 0 
L 23.484375 0 
z
" id="DejaVuSans-76"/>
      </defs>
      <g transform="translate(113.2375 75.376953)scale(0.1 -0.1)">
       <use xlink:href="#DejaVuSans-43"/>
       <use x="69.824219" xlink:href="#DejaVuSans-61"/>
       <use x="131.103516" xlink:href="#DejaVuSans-6c"/>
       <use x="158.886719" xlink:href="#DejaVuSans-6c"/>
       <use x="186.669922" xlink:href="#DejaVuSans-20"/>
       <use x="218.457031" xlink:href="#DejaVuSans-66"/>
       <use x="253.662109" xlink:href="#DejaVuSans-6f"/>
       <use x="314.84375" xlink:href="#DejaVuSans-72"/>
       <use x="355.957031" xlink:href="#DejaVuSans-20"/>
       <use x="387.744141" xlink:href="#DejaVuSans-53"/>
       <use x="451.220703" xlink:href="#DejaVuSans-65"/>
       <use x="512.744141" xlink:href="#DejaVuSans-72"/>
       <use x="553.857422" xlink:href="#DejaVuSans-76"/>
       <use x="613.037109" xlink:href="#DejaVuSans-69"/>
       <use x="640.820312" xlink:href="#DejaVuSans-63"/>
       <use x="695.800781" xlink:href="#DejaVuSans-65"/>
      </g>
     </g>
    </g>
    <g id="ytick_12">
     <g id="line2d_18">
      <g>
       <use style="stroke:#000000;stroke-width:0.8;" x="195.971875" xlink:href="#m5c6606f4fe" y="33.392578"/>
      </g>
     </g>
     <g id="text_18">
      <!-- Warrant -->
      <defs>
       <path d="M 3.328125 72.90625 
L 13.28125 72.90625 
L 28.609375 11.28125 
L 43.890625 72.90625 
L 54.984375 72.90625 
L 70.3125 11.28125 
L 85.59375 72.90625 
L 95.609375 72.90625 
L 77.296875 0 
L 64.890625 0 
L 49.515625 63.28125 
L 33.984375 0 
L 21.578125 0 
z
" id="DejaVuSans-57"/>
      </defs>
      <g transform="translate(148.359375 37.191797)scale(0.1 -0.1)">
       <use xlink:href="#DejaVuSans-57"/>
       <use x="98.783203" xlink:href="#DejaVuSans-61"/>
       <use x="160.0625" xlink:href="#DejaVuSans-72"/>
       <use x="201.160156" xlink:href="#DejaVuSans-72"/>
       <use x="242.273438" xlink:href="#DejaVuSans-61"/>
       <use x="303.552734" xlink:href="#DejaVuSans-6e"/>
       <use x="366.931641" xlink:href="#DejaVuSans-74"/>
      </g>
     </g>
    </g>
    <g id="text_19">
     <!-- violation_raw -->
     <defs>
      <path d="M 50.984375 -16.609375 
L 50.984375 -23.578125 
L -0.984375 -23.578125 
L -0.984375 -16.609375 
z
" id="DejaVuSans-5f"/>
     </defs>
     <g transform="translate(18.398437 276.557812)rotate(-90)scale(0.1 -0.1)">
      <use xlink:href="#DejaVuSans-76"/>
      <use x="59.179688" xlink:href="#DejaVuSans-69"/>
      <use x="86.962891" xlink:href="#DejaVuSans-6f"/>
      <use x="148.144531" xlink:href="#DejaVuSans-6c"/>
      <use x="175.927734" xlink:href="#DejaVuSans-61"/>
      <use x="237.207031" xlink:href="#DejaVuSans-74"/>
      <use x="276.416016" xlink:href="#DejaVuSans-69"/>
      <use x="304.199219" xlink:href="#DejaVuSans-6f"/>
      <use x="365.380859" xlink:href="#DejaVuSans-6e"/>
      <use x="428.759766" xlink:href="#DejaVuSans-5f"/>
      <use x="478.759766" xlink:href="#DejaVuSans-72"/>
      <use x="519.873047" xlink:href="#DejaVuSans-61"/>
      <use x="581.152344" xlink:href="#DejaVuSans-77"/>
     </g>
    </g>
   </g>
   <g id="patch_15">
    <path d="M 195.971875 472.521875 
L 195.971875 14.3 
" style="fill:none;stroke:#000000;stroke-linecap:square;stroke-linejoin:miter;stroke-width:0.8;"/>
   </g>
   <g id="patch_16">
    <path d="M 658.7 472.521875 
L 658.7 14.3 
" style="fill:none;stroke:#000000;stroke-linecap:square;stroke-linejoin:miter;stroke-width:0.8;"/>
   </g>
   <g id="patch_17">
    <path d="M 195.971875 472.521875 
L 658.7 472.521875 
" style="fill:none;stroke:#000000;stroke-linecap:square;stroke-linejoin:miter;stroke-width:0.8;"/>
   </g>
   <g id="patch_18">
    <path d="M 195.971875 14.3 
L 658.7 14.3 
" style="fill:none;stroke:#000000;stroke-linecap:square;stroke-linejoin:miter;stroke-width:0.8;"/>
   </g>
  </g>
 </g>
 <defs>
  <clipPath id="p07415ccbfe">
   <rect height="458.221875" width="462.728125" x="195.971875" y="14.3"/>
  </clipPath>
 </defs>
</svg>
