<?xml version="1.0" encoding="utf-8" standalone="no"?>
<!DOCTYPE svg PUBLIC "-//W3C//DTD SVG 1.1//EN"
  "http://www.w3.org/Graphics/SVG/1.1/DTD/svg11.dtd">
<!-- Created with matplotlib (http://matplotlib.org/) -->
<svg height="425.133331pt" version="1.1" viewBox="0 0 739 425.133331" width="739pt" xmlns="http://www.w3.org/2000/svg" xmlns:xlink="http://www.w3.org/1999/xlink">
 <defs>
  <style type="text/css">
*{stroke-linecap:butt;stroke-linejoin:round;}
  </style>
 </defs>
 <g id="figure_1">
  <g id="patch_1">
   <path d="M 0 425.133331 
L 739 425.133331 
L 739 0 
L 0 0 
z
" style="fill:#ffffff;"/>
  </g>
  <g id="axes_1">
   <g id="patch_2">
    <path d="M 50.565625 383.977081 
L 676.876562 383.977081 
L 676.876562 14.3 
L 50.565625 14.3 
z
" style="fill:#ffffff;"/>
   </g>
   <g id="matplotlib.axis_1">
    <g id="xtick_1">
     <g id="line2d_1">
      <defs>
       <path d="M 0 0 
L 0 3.5 
" id="mb24594f318" style="stroke:#000000;stroke-width:0.8;"/>
      </defs>
      <g>
       <use style="stroke:#000000;stroke-width:0.8;" x="96.704519" xlink:href="#mb24594f318" y="383.977081"/>
      </g>
     </g>
     <g id="text_1">
      <!-- 1960 -->
      <defs>
       <path d="M 12.40625 8.296875 
L 28.515625 8.296875 
L 28.515625 63.921875 
L 10.984375 60.40625 
L 10.984375 69.390625 
L 28.421875 72.90625 
L 38.28125 72.90625 
L 38.28125 8.296875 
L 54.390625 8.296875 
L 54.390625 0 
L 12.40625 0 
z
" id="DejaVuSans-31"/>
       <path d="M 10.984375 1.515625 
L 10.984375 10.5 
Q 14.703125 8.734375 18.5 7.8125 
Q 22.3125 6.890625 25.984375 6.890625 
Q 35.75 6.890625 40.890625 13.453125 
Q 46.046875 20.015625 46.78125 33.40625 
Q 43.953125 29.203125 39.59375 26.953125 
Q 35.25 24.703125 29.984375 24.703125 
Q 19.046875 24.703125 12.671875 31.3125 
Q 6.296875 37.9375 6.296875 49.421875 
Q 6.296875 60.640625 12.9375 67.421875 
Q 19.578125 74.21875 30.609375 74.21875 
Q 43.265625 74.21875 49.921875 64.515625 
Q 56.59375 54.828125 56.59375 36.375 
Q 56.59375 19.140625 48.40625 8.859375 
Q 40.234375 -1.421875 26.421875 -1.421875 
Q 22.703125 -1.421875 18.890625 -0.6875 
Q 15.09375 0.046875 10.984375 1.515625 
z
M 30.609375 32.421875 
Q 37.25 32.421875 41.125 36.953125 
Q 45.015625 41.5 45.015625 49.421875 
Q 45.015625 57.28125 41.125 61.84375 
Q 37.25 66.40625 30.609375 66.40625 
Q 23.96875 66.40625 20.09375 61.84375 
Q 16.21875 57.28125 16.21875 49.421875 
Q 16.21875 41.5 20.09375 36.953125 
Q 23.96875 32.421875 30.609375 32.421875 
z
" id="DejaVuSans-39"/>
       <path d="M 33.015625 40.375 
Q 26.375 40.375 22.484375 35.828125 
Q 18.609375 31.296875 18.609375 23.390625 
Q 18.609375 15.53125 22.484375 10.953125 
Q 26.375 6.390625 33.015625 6.390625 
Q 39.65625 6.390625 43.53125 10.953125 
Q 47.40625 15.53125 47.40625 23.390625 
Q 47.40625 31.296875 43.53125 35.828125 
Q 39.65625 40.375 33.015625 40.375 
z
M 52.59375 71.296875 
L 52.59375 62.3125 
Q 48.875 64.0625 45.09375 64.984375 
Q 41.3125 65.921875 37.59375 65.921875 
Q 27.828125 65.921875 22.671875 59.328125 
Q 17.53125 52.734375 16.796875 39.40625 
Q 19.671875 43.65625 24.015625 45.921875 
Q 28.375 48.1875 33.59375 48.1875 
Q 44.578125 48.1875 50.953125 41.515625 
Q 57.328125 34.859375 57.328125 23.390625 
Q 57.328125 12.15625 50.6875 5.359375 
Q 44.046875 -1.421875 33.015625 -1.421875 
Q 20.359375 -1.421875 13.671875 8.265625 
Q 6.984375 17.96875 6.984375 36.375 
Q 6.984375 53.65625 15.1875 63.9375 
Q 23.390625 74.21875 37.203125 74.21875 
Q 40.921875 74.21875 44.703125 73.484375 
Q 48.484375 72.75 52.59375 71.296875 
z
" id="DejaVuSans-36"/>
       <path d="M 31.78125 66.40625 
Q 24.171875 66.40625 20.328125 58.90625 
Q 16.5 51.421875 16.5 36.375 
Q 16.5 21.390625 20.328125 13.890625 
Q 24.171875 6.390625 31.78125 6.390625 
Q 39.453125 6.390625 43.28125 13.890625 
Q 47.125 21.390625 47.125 36.375 
Q 47.125 51.421875 43.28125 58.90625 
Q 39.453125 66.40625 31.78125 66.40625 
z
M 31.78125 74.21875 
Q 44.046875 74.21875 50.515625 64.515625 
Q 56.984375 54.828125 56.984375 36.375 
Q 56.984375 17.96875 50.515625 8.265625 
Q 44.046875 -1.421875 31.78125 -1.421875 
Q 19.53125 -1.421875 13.0625 8.265625 
Q 6.59375 17.96875 6.59375 36.375 
Q 6.59375 54.828125 13.0625 64.515625 
Q 19.53125 74.21875 31.78125 74.21875 
z
" id="DejaVuSans-30"/>
      </defs>
      <g transform="translate(83.979519 398.575519)scale(0.1 -0.1)">
       <use xlink:href="#DejaVuSans-31"/>
       <use x="63.623047" xlink:href="#DejaVuSans-39"/>
       <use x="127.246094" xlink:href="#DejaVuSans-36"/>
       <use x="190.869141" xlink:href="#DejaVuSans-30"/>
      </g>
     </g>
    </g>
    <g id="xtick_2">
     <g id="line2d_2">
      <g>
       <use style="stroke:#000000;stroke-width:0.8;" x="193.62538" xlink:href="#mb24594f318" y="383.977081"/>
      </g>
     </g>
     <g id="text_2">
      <!-- 1970 -->
      <defs>
       <path d="M 8.203125 72.90625 
L 55.078125 72.90625 
L 55.078125 68.703125 
L 28.609375 0 
L 18.3125 0 
L 43.21875 64.59375 
L 8.203125 64.59375 
z
" id="DejaVuSans-37"/>
      </defs>
      <g transform="translate(180.90038 398.575519)scale(0.1 -0.1)">
       <use xlink:href="#DejaVuSans-31"/>
       <use x="63.623047" xlink:href="#DejaVuSans-39"/>
       <use x="127.246094" xlink:href="#DejaVuSans-37"/>
       <use x="190.869141" xlink:href="#DejaVuSans-30"/>
      </g>
     </g>
    </g>
    <g id="xtick_3">
     <g id="line2d_3">
      <g>
       <use style="stroke:#000000;stroke-width:0.8;" x="290.51971" xlink:href="#mb24594f318" y="383.977081"/>
      </g>
     </g>
     <g id="text_3">
      <!-- 1980 -->
      <defs>
       <path d="M 31.78125 34.625 
Q 24.75 34.625 20.71875 30.859375 
Q 16.703125 27.09375 16.703125 20.515625 
Q 16.703125 13.921875 20.71875 10.15625 
Q 24.75 6.390625 31.78125 6.390625 
Q 38.8125 6.390625 42.859375 10.171875 
Q 46.921875 13.96875 46.921875 20.515625 
Q 46.921875 27.09375 42.890625 30.859375 
Q 38.875 34.625 31.78125 34.625 
z
M 21.921875 38.8125 
Q 15.578125 40.375 12.03125 44.71875 
Q 8.5 49.078125 8.5 55.328125 
Q 8.5 64.0625 14.71875 69.140625 
Q 20.953125 74.21875 31.78125 74.21875 
Q 42.671875 74.21875 48.875 69.140625 
Q 55.078125 64.0625 55.078125 55.328125 
Q 55.078125 49.078125 51.53125 44.71875 
Q 48 40.375 41.703125 38.8125 
Q 48.828125 37.15625 52.796875 32.3125 
Q 56.78125 27.484375 56.78125 20.515625 
Q 56.78125 9.90625 50.3125 4.234375 
Q 43.84375 -1.421875 31.78125 -1.421875 
Q 19.734375 -1.421875 13.25 4.234375 
Q 6.78125 9.90625 6.78125 20.515625 
Q 6.78125 27.484375 10.78125 32.3125 
Q 14.796875 37.15625 21.921875 38.8125 
z
M 18.3125 54.390625 
Q 18.3125 48.734375 21.84375 45.5625 
Q 25.390625 42.390625 31.78125 42.390625 
Q 38.140625 42.390625 41.71875 45.5625 
Q 45.3125 48.734375 45.3125 54.390625 
Q 45.3125 60.0625 41.71875 63.234375 
Q 38.140625 66.40625 31.78125 66.40625 
Q 25.390625 66.40625 21.84375 63.234375 
Q 18.3125 60.0625 18.3125 54.390625 
z
" id="DejaVuSans-38"/>
      </defs>
      <g transform="translate(277.79471 398.575519)scale(0.1 -0.1)">
       <use xlink:href="#DejaVuSans-31"/>
       <use x="63.623047" xlink:href="#DejaVuSans-39"/>
       <use x="127.246094" xlink:href="#DejaVuSans-38"/>
       <use x="190.869141" xlink:href="#DejaVuSans-30"/>
      </g>
     </g>
    </g>
    <g id="xtick_4">
     <g id="line2d_4">
      <g>
       <use style="stroke:#000000;stroke-width:0.8;" x="387.440571" xlink:href="#mb24594f318" y="383.977081"/>
      </g>
     </g>
     <g id="text_4">
      <!-- 1990 -->
      <g transform="translate(374.715571 398.575519)scale(0.1 -0.1)">
       <use xlink:href="#DejaVuSans-31"/>
       <use x="63.623047" xlink:href="#DejaVuSans-39"/>
       <use x="127.246094" xlink:href="#DejaVuSans-39"/>
       <use x="190.869141" xlink:href="#DejaVuSans-30"/>
      </g>
     </g>
    </g>
    <g id="xtick_5">
     <g id="line2d_5">
      <g>
       <use style="stroke:#000000;stroke-width:0.8;" x="484.3349" xlink:href="#mb24594f318" y="383.977081"/>
      </g>
     </g>
     <g id="text_5">
      <!-- 2000 -->
      <defs>
       <path d="M 19.1875 8.296875 
L 53.609375 8.296875 
L 53.609375 0 
L 7.328125 0 
L 7.328125 8.296875 
Q 12.9375 14.109375 22.625 23.890625 
Q 32.328125 33.6875 34.8125 36.53125 
Q 39.546875 41.84375 41.421875 45.53125 
Q 43.3125 49.21875 43.3125 52.78125 
Q 43.3125 58.59375 39.234375 62.25 
Q 35.15625 65.921875 28.609375 65.921875 
Q 23.96875 65.921875 18.8125 64.3125 
Q 13.671875 62.703125 7.8125 59.421875 
L 7.8125 69.390625 
Q 13.765625 71.78125 18.9375 73 
Q 24.125 74.21875 28.421875 74.21875 
Q 39.75 74.21875 46.484375 68.546875 
Q 53.21875 62.890625 53.21875 53.421875 
Q 53.21875 48.921875 51.53125 44.890625 
Q 49.859375 40.875 45.40625 35.40625 
Q 44.1875 33.984375 37.640625 27.21875 
Q 31.109375 20.453125 19.1875 8.296875 
z
" id="DejaVuSans-32"/>
      </defs>
      <g transform="translate(471.6099 398.575519)scale(0.1 -0.1)">
       <use xlink:href="#DejaVuSans-32"/>
       <use x="63.623047" xlink:href="#DejaVuSans-30"/>
       <use x="127.246094" xlink:href="#DejaVuSans-30"/>
       <use x="190.869141" xlink:href="#DejaVuSans-30"/>
      </g>
     </g>
    </g>
    <g id="xtick_6">
     <g id="line2d_6">
      <g>
       <use style="stroke:#000000;stroke-width:0.8;" x="581.255762" xlink:href="#mb24594f318" y="383.977081"/>
      </g>
     </g>
     <g id="text_6">
      <!-- 2010 -->
      <g transform="translate(568.530762 398.575519)scale(0.1 -0.1)">
       <use xlink:href="#DejaVuSans-32"/>
       <use x="63.623047" xlink:href="#DejaVuSans-30"/>
       <use x="127.246094" xlink:href="#DejaVuSans-31"/>
       <use x="190.869141" xlink:href="#DejaVuSans-30"/>
      </g>
     </g>
    </g>
    <g id="text_7">
     <!-- Time (years) -->
     <defs>
      <path d="M -0.296875 72.90625 
L 61.375 72.90625 
L 61.375 64.59375 
L 35.5 64.59375 
L 35.5 0 
L 25.59375 0 
L 25.59375 64.59375 
L -0.296875 64.59375 
z
" id="DejaVuSans-54"/>
      <path d="M 9.421875 54.6875 
L 18.40625 54.6875 
L 18.40625 0 
L 9.421875 0 
z
M 9.421875 75.984375 
L 18.40625 75.984375 
L 18.40625 64.59375 
L 9.421875 64.59375 
z
" id="DejaVuSans-69"/>
      <path d="M 52 44.1875 
Q 55.375 50.25 60.0625 53.125 
Q 64.75 56 71.09375 56 
Q 79.640625 56 84.28125 50.015625 
Q 88.921875 44.046875 88.921875 33.015625 
L 88.921875 0 
L 79.890625 0 
L 79.890625 32.71875 
Q 79.890625 40.578125 77.09375 44.375 
Q 74.3125 48.1875 68.609375 48.1875 
Q 61.625 48.1875 57.5625 43.546875 
Q 53.515625 38.921875 53.515625 30.90625 
L 53.515625 0 
L 44.484375 0 
L 44.484375 32.71875 
Q 44.484375 40.625 41.703125 44.40625 
Q 38.921875 48.1875 33.109375 48.1875 
Q 26.21875 48.1875 22.15625 43.53125 
Q 18.109375 38.875 18.109375 30.90625 
L 18.109375 0 
L 9.078125 0 
L 9.078125 54.6875 
L 18.109375 54.6875 
L 18.109375 46.1875 
Q 21.1875 51.21875 25.484375 53.609375 
Q 29.78125 56 35.6875 56 
Q 41.65625 56 45.828125 52.96875 
Q 50 49.953125 52 44.1875 
z
" id="DejaVuSans-6d"/>
      <path d="M 56.203125 29.59375 
L 56.203125 25.203125 
L 14.890625 25.203125 
Q 15.484375 15.921875 20.484375 11.0625 
Q 25.484375 6.203125 34.421875 6.203125 
Q 39.59375 6.203125 44.453125 7.46875 
Q 49.3125 8.734375 54.109375 11.28125 
L 54.109375 2.78125 
Q 49.265625 0.734375 44.1875 -0.34375 
Q 39.109375 -1.421875 33.890625 -1.421875 
Q 20.796875 -1.421875 13.15625 6.1875 
Q 5.515625 13.8125 5.515625 26.8125 
Q 5.515625 40.234375 12.765625 48.109375 
Q 20.015625 56 32.328125 56 
Q 43.359375 56 49.78125 48.890625 
Q 56.203125 41.796875 56.203125 29.59375 
z
M 47.21875 32.234375 
Q 47.125 39.59375 43.09375 43.984375 
Q 39.0625 48.390625 32.421875 48.390625 
Q 24.90625 48.390625 20.390625 44.140625 
Q 15.875 39.890625 15.1875 32.171875 
z
" id="DejaVuSans-65"/>
      <path id="DejaVuSans-20"/>
      <path d="M 31 75.875 
Q 24.46875 64.65625 21.28125 53.65625 
Q 18.109375 42.671875 18.109375 31.390625 
Q 18.109375 20.125 21.3125 9.0625 
Q 24.515625 -2 31 -13.1875 
L 23.1875 -13.1875 
Q 15.875 -1.703125 12.234375 9.375 
Q 8.59375 20.453125 8.59375 31.390625 
Q 8.59375 42.28125 12.203125 53.3125 
Q 15.828125 64.359375 23.1875 75.875 
z
" id="DejaVuSans-28"/>
      <path d="M 32.171875 -5.078125 
Q 28.375 -14.84375 24.75 -17.8125 
Q 21.140625 -20.796875 15.09375 -20.796875 
L 7.90625 -20.796875 
L 7.90625 -13.28125 
L 13.1875 -13.28125 
Q 16.890625 -13.28125 18.9375 -11.515625 
Q 21 -9.765625 23.484375 -3.21875 
L 25.09375 0.875 
L 2.984375 54.6875 
L 12.5 54.6875 
L 29.59375 11.921875 
L 46.6875 54.6875 
L 56.203125 54.6875 
z
" id="DejaVuSans-79"/>
      <path d="M 34.28125 27.484375 
Q 23.390625 27.484375 19.1875 25 
Q 14.984375 22.515625 14.984375 16.5 
Q 14.984375 11.71875 18.140625 8.90625 
Q 21.296875 6.109375 26.703125 6.109375 
Q 34.1875 6.109375 38.703125 11.40625 
Q 43.21875 16.703125 43.21875 25.484375 
L 43.21875 27.484375 
z
M 52.203125 31.203125 
L 52.203125 0 
L 43.21875 0 
L 43.21875 8.296875 
Q 40.140625 3.328125 35.546875 0.953125 
Q 30.953125 -1.421875 24.3125 -1.421875 
Q 15.921875 -1.421875 10.953125 3.296875 
Q 6 8.015625 6 15.921875 
Q 6 25.140625 12.171875 29.828125 
Q 18.359375 34.515625 30.609375 34.515625 
L 43.21875 34.515625 
L 43.21875 35.40625 
Q 43.21875 41.609375 39.140625 45 
Q 35.0625 48.390625 27.6875 48.390625 
Q 23 48.390625 18.546875 47.265625 
Q 14.109375 46.140625 10.015625 43.890625 
L 10.015625 52.203125 
Q 14.9375 54.109375 19.578125 55.046875 
Q 24.21875 56 28.609375 56 
Q 40.484375 56 46.34375 49.84375 
Q 52.203125 43.703125 52.203125 31.203125 
z
" id="DejaVuSans-61"/>
      <path d="M 41.109375 46.296875 
Q 39.59375 47.171875 37.8125 47.578125 
Q 36.03125 48 33.890625 48 
Q 26.265625 48 22.1875 43.046875 
Q 18.109375 38.09375 18.109375 28.8125 
L 18.109375 0 
L 9.078125 0 
L 9.078125 54.6875 
L 18.109375 54.6875 
L 18.109375 46.1875 
Q 20.953125 51.171875 25.484375 53.578125 
Q 30.03125 56 36.53125 56 
Q 37.453125 56 38.578125 55.875 
Q 39.703125 55.765625 41.0625 55.515625 
z
" id="DejaVuSans-72"/>
      <path d="M 44.28125 53.078125 
L 44.28125 44.578125 
Q 40.484375 46.53125 36.375 47.5 
Q 32.28125 48.484375 27.875 48.484375 
Q 21.1875 48.484375 17.84375 46.4375 
Q 14.5 44.390625 14.5 40.28125 
Q 14.5 37.15625 16.890625 35.375 
Q 19.28125 33.59375 26.515625 31.984375 
L 29.59375 31.296875 
Q 39.15625 29.25 43.1875 25.515625 
Q 47.21875 21.78125 47.21875 15.09375 
Q 47.21875 7.46875 41.1875 3.015625 
Q 35.15625 -1.421875 24.609375 -1.421875 
Q 20.21875 -1.421875 15.453125 -0.5625 
Q 10.6875 0.296875 5.421875 2 
L 5.421875 11.28125 
Q 10.40625 8.6875 15.234375 7.390625 
Q 20.0625 6.109375 24.8125 6.109375 
Q 31.15625 6.109375 34.5625 8.28125 
Q 37.984375 10.453125 37.984375 14.40625 
Q 37.984375 18.0625 35.515625 20.015625 
Q 33.0625 21.96875 24.703125 23.78125 
L 21.578125 24.515625 
Q 13.234375 26.265625 9.515625 29.90625 
Q 5.8125 33.546875 5.8125 39.890625 
Q 5.8125 47.609375 11.28125 51.796875 
Q 16.75 56 26.8125 56 
Q 31.78125 56 36.171875 55.265625 
Q 40.578125 54.546875 44.28125 53.078125 
z
" id="DejaVuSans-73"/>
      <path d="M 8.015625 75.875 
L 15.828125 75.875 
Q 23.140625 64.359375 26.78125 53.3125 
Q 30.421875 42.28125 30.421875 31.390625 
Q 30.421875 20.453125 26.78125 9.375 
Q 23.140625 -1.703125 15.828125 -13.1875 
L 8.015625 -13.1875 
Q 14.5 -2 17.703125 9.0625 
Q 20.90625 20.125 20.90625 31.390625 
Q 20.90625 42.671875 17.703125 53.65625 
Q 14.5 64.65625 8.015625 75.875 
z
" id="DejaVuSans-29"/>
     </defs>
     <g transform="translate(332.082812 412.253644)scale(0.1 -0.1)">
      <use xlink:href="#DejaVuSans-54"/>
      <use x="61.037109" xlink:href="#DejaVuSans-69"/>
      <use x="88.820312" xlink:href="#DejaVuSans-6d"/>
      <use x="186.232422" xlink:href="#DejaVuSans-65"/>
      <use x="247.755859" xlink:href="#DejaVuSans-20"/>
      <use x="279.542969" xlink:href="#DejaVuSans-28"/>
      <use x="318.556641" xlink:href="#DejaVuSans-79"/>
      <use x="377.736328" xlink:href="#DejaVuSans-65"/>
      <use x="439.259766" xlink:href="#DejaVuSans-61"/>
      <use x="500.539062" xlink:href="#DejaVuSans-72"/>
      <use x="541.652344" xlink:href="#DejaVuSans-73"/>
      <use x="593.751953" xlink:href="#DejaVuSans-29"/>
     </g>
    </g>
   </g>
   <g id="matplotlib.axis_2">
    <g id="ytick_1">
     <g id="line2d_7">
      <defs>
       <path d="M 0 0 
L -3.5 0 
" id="m9c75f159e7" style="stroke:#0000ff;stroke-width:0.8;"/>
      </defs>
      <g>
       <use style="fill:#0000ff;stroke:#0000ff;stroke-width:0.8;" x="50.565625" xlink:href="#m9c75f159e7" y="342.995874"/>
      </g>
     </g>
     <g id="text_8">
      <!-- 320 -->
      <defs>
       <path d="M 40.578125 39.3125 
Q 47.65625 37.796875 51.625 33 
Q 55.609375 28.21875 55.609375 21.1875 
Q 55.609375 10.40625 48.1875 4.484375 
Q 40.765625 -1.421875 27.09375 -1.421875 
Q 22.515625 -1.421875 17.65625 -0.515625 
Q 12.796875 0.390625 7.625 2.203125 
L 7.625 11.71875 
Q 11.71875 9.328125 16.59375 8.109375 
Q 21.484375 6.890625 26.8125 6.890625 
Q 36.078125 6.890625 40.9375 10.546875 
Q 45.796875 14.203125 45.796875 21.1875 
Q 45.796875 27.640625 41.28125 31.265625 
Q 36.765625 34.90625 28.71875 34.90625 
L 20.21875 34.90625 
L 20.21875 43.015625 
L 29.109375 43.015625 
Q 36.375 43.015625 40.234375 45.921875 
Q 44.09375 48.828125 44.09375 54.296875 
Q 44.09375 59.90625 40.109375 62.90625 
Q 36.140625 65.921875 28.71875 65.921875 
Q 24.65625 65.921875 20.015625 65.03125 
Q 15.375 64.15625 9.8125 62.3125 
L 9.8125 71.09375 
Q 15.4375 72.65625 20.34375 73.4375 
Q 25.25 74.21875 29.59375 74.21875 
Q 40.828125 74.21875 47.359375 69.109375 
Q 53.90625 64.015625 53.90625 55.328125 
Q 53.90625 49.265625 50.4375 45.09375 
Q 46.96875 40.921875 40.578125 39.3125 
z
" id="DejaVuSans-33"/>
      </defs>
      <g style="fill:#0000ff;" transform="translate(24.478125 346.795093)scale(0.1 -0.1)">
       <use xlink:href="#DejaVuSans-33"/>
       <use x="63.623047" xlink:href="#DejaVuSans-32"/>
       <use x="127.246094" xlink:href="#DejaVuSans-30"/>
      </g>
     </g>
    </g>
    <g id="ytick_2">
     <g id="line2d_8">
      <g>
       <use style="fill:#0000ff;stroke:#0000ff;stroke-width:0.8;" x="50.565625" xlink:href="#m9c75f159e7" y="271.884983"/>
      </g>
     </g>
     <g id="text_9">
      <!-- 340 -->
      <defs>
       <path d="M 37.796875 64.3125 
L 12.890625 25.390625 
L 37.796875 25.390625 
z
M 35.203125 72.90625 
L 47.609375 72.90625 
L 47.609375 25.390625 
L 58.015625 25.390625 
L 58.015625 17.1875 
L 47.609375 17.1875 
L 47.609375 0 
L 37.796875 0 
L 37.796875 17.1875 
L 4.890625 17.1875 
L 4.890625 26.703125 
z
" id="DejaVuSans-34"/>
      </defs>
      <g style="fill:#0000ff;" transform="translate(24.478125 275.684202)scale(0.1 -0.1)">
       <use xlink:href="#DejaVuSans-33"/>
       <use x="63.623047" xlink:href="#DejaVuSans-34"/>
       <use x="127.246094" xlink:href="#DejaVuSans-30"/>
      </g>
     </g>
    </g>
    <g id="ytick_3">
     <g id="line2d_9">
      <g>
       <use style="fill:#0000ff;stroke:#0000ff;stroke-width:0.8;" x="50.565625" xlink:href="#m9c75f159e7" y="200.774091"/>
      </g>
     </g>
     <g id="text_10">
      <!-- 360 -->
      <g style="fill:#0000ff;" transform="translate(24.478125 204.57331)scale(0.1 -0.1)">
       <use xlink:href="#DejaVuSans-33"/>
       <use x="63.623047" xlink:href="#DejaVuSans-36"/>
       <use x="127.246094" xlink:href="#DejaVuSans-30"/>
      </g>
     </g>
    </g>
    <g id="ytick_4">
     <g id="line2d_10">
      <g>
       <use style="fill:#0000ff;stroke:#0000ff;stroke-width:0.8;" x="50.565625" xlink:href="#m9c75f159e7" y="129.6632"/>
      </g>
     </g>
     <g id="text_11">
      <!-- 380 -->
      <g style="fill:#0000ff;" transform="translate(24.478125 133.462418)scale(0.1 -0.1)">
       <use xlink:href="#DejaVuSans-33"/>
       <use x="63.623047" xlink:href="#DejaVuSans-38"/>
       <use x="127.246094" xlink:href="#DejaVuSans-30"/>
      </g>
     </g>
    </g>
    <g id="ytick_5">
     <g id="line2d_11">
      <g>
       <use style="fill:#0000ff;stroke:#0000ff;stroke-width:0.8;" x="50.565625" xlink:href="#m9c75f159e7" y="58.552308"/>
      </g>
     </g>
     <g id="text_12">
      <!-- 400 -->
      <g style="fill:#0000ff;" transform="translate(24.478125 62.351527)scale(0.1 -0.1)">
       <use xlink:href="#DejaVuSans-34"/>
       <use x="63.623047" xlink:href="#DejaVuSans-30"/>
       <use x="127.246094" xlink:href="#DejaVuSans-30"/>
      </g>
     </g>
    </g>
    <g id="text_13">
     <!-- CO2 levels -->
     <defs>
      <path d="M 64.40625 67.28125 
L 64.40625 56.890625 
Q 59.421875 61.53125 53.78125 63.8125 
Q 48.140625 66.109375 41.796875 66.109375 
Q 29.296875 66.109375 22.65625 58.46875 
Q 16.015625 50.828125 16.015625 36.375 
Q 16.015625 21.96875 22.65625 14.328125 
Q 29.296875 6.6875 41.796875 6.6875 
Q 48.140625 6.6875 53.78125 8.984375 
Q 59.421875 11.28125 64.40625 15.921875 
L 64.40625 5.609375 
Q 59.234375 2.09375 53.4375 0.328125 
Q 47.65625 -1.421875 41.21875 -1.421875 
Q 24.65625 -1.421875 15.125 8.703125 
Q 5.609375 18.84375 5.609375 36.375 
Q 5.609375 53.953125 15.125 64.078125 
Q 24.65625 74.21875 41.21875 74.21875 
Q 47.75 74.21875 53.53125 72.484375 
Q 59.328125 70.75 64.40625 67.28125 
z
" id="DejaVuSans-43"/>
      <path d="M 39.40625 66.21875 
Q 28.65625 66.21875 22.328125 58.203125 
Q 16.015625 50.203125 16.015625 36.375 
Q 16.015625 22.609375 22.328125 14.59375 
Q 28.65625 6.59375 39.40625 6.59375 
Q 50.140625 6.59375 56.421875 14.59375 
Q 62.703125 22.609375 62.703125 36.375 
Q 62.703125 50.203125 56.421875 58.203125 
Q 50.140625 66.21875 39.40625 66.21875 
z
M 39.40625 74.21875 
Q 54.734375 74.21875 63.90625 63.9375 
Q 73.09375 53.65625 73.09375 36.375 
Q 73.09375 19.140625 63.90625 8.859375 
Q 54.734375 -1.421875 39.40625 -1.421875 
Q 24.03125 -1.421875 14.8125 8.828125 
Q 5.609375 19.09375 5.609375 36.375 
Q 5.609375 53.65625 14.8125 63.9375 
Q 24.03125 74.21875 39.40625 74.21875 
z
" id="DejaVuSans-4f"/>
      <path d="M 9.421875 75.984375 
L 18.40625 75.984375 
L 18.40625 0 
L 9.421875 0 
z
" id="DejaVuSans-6c"/>
      <path d="M 2.984375 54.6875 
L 12.5 54.6875 
L 29.59375 8.796875 
L 46.6875 54.6875 
L 56.203125 54.6875 
L 35.6875 0 
L 23.484375 0 
z
" id="DejaVuSans-76"/>
     </defs>
     <g style="fill:#0000ff;" transform="translate(18.398438 225.831509)rotate(-90)scale(0.1 -0.1)">
      <use xlink:href="#DejaVuSans-43"/>
      <use x="69.824219" xlink:href="#DejaVuSans-4f"/>
      <use x="148.535156" xlink:href="#DejaVuSans-32"/>
      <use x="212.158203" xlink:href="#DejaVuSans-20"/>
      <use x="243.945312" xlink:href="#DejaVuSans-6c"/>
      <use x="271.728516" xlink:href="#DejaVuSans-65"/>
      <use x="333.251953" xlink:href="#DejaVuSans-76"/>
      <use x="392.431641" xlink:href="#DejaVuSans-65"/>
      <use x="453.955078" xlink:href="#DejaVuSans-6c"/>
      <use x="481.738281" xlink:href="#DejaVuSans-73"/>
     </g>
    </g>
   </g>
   <g id="line2d_12">
    <path clip-path="url(#p376c72979d)" d="M 79.034304 358.249161 
L 79.856791 352.062513 
L 80.652747 351.884736 
M 82.27119 357.715829 
L 83.093678 361.022485 
L 83.916165 367.173578 
M 85.534608 366.711357 
L 86.330564 361.946927 
L 87.153051 358.56916 
L 87.975539 355.866946 
L 88.718431 354.693616 
L 89.540918 351.102516 
L 90.336874 349.075856 
L 91.159361 349.573632 
L 92.777804 361.484706 
L 93.600292 364.898029 
L 94.396247 366.960245 
L 95.218735 361.484706 
L 96.837178 355.689169 
L 97.659665 353.769175 
L 98.429089 351.600292 
L 99.251576 346.480308 
L 100.047532 342.889208 
L 100.87002 344.453648 
L 101.665975 349.466966 
L 102.488463 357.538052 
L 103.31095 363.760255 
L 104.106906 364.933585 
L 105.725349 356.542499 
L 107.370324 351.173627 
L 108.935703 344.844758 
L 109.731659 340.933659 
L 110.554146 343.81365 
L 111.350102 348.080303 
L 112.995077 361.484706 
L 113.791032 359.42249 
L 114.61352 356.862498 
L 116.231963 350.320296 
L 117.05445 348.115859 
L 117.797342 344.133649 
L 118.61983 340.755881 
L 119.415785 339.404774 
L 120.238273 341.040325 
L 121.034228 344.489203 
L 121.856716 352.24029 
L 122.679203 356.293611 
L 123.475159 359.280269 
L 124.297646 354.764727 
L 125.916089 347.475861 
L 126.738577 346.266975 
L 127.481469 343.493651 
L 128.303956 338.053667 
L 129.099912 334.995899 
L 129.922399 337.769224 
L 132.36333 356.471388 
L 133.159285 357.253608 
L 134.777729 349.004745 
L 135.600216 344.524759 
M 138.81057 334.995899 
L 139.633058 336.275895 
L 140.429013 341.431435 
L 141.251501 347.618082 
L 142.073988 354.729172 
L 142.869944 354.409173 
L 144.488387 347.582527 
L 145.310874 344.986979 
L 146.133362 341.431435 
L 146.876254 339.83144 
L 147.698741 335.422564 
L 148.494697 335.315898 
L 149.317184 336.347006 
L 150.11314 338.053667 
L 150.935627 347.226972 
L 151.758115 350.782517 
L 152.55407 352.595845 
L 153.376558 347.01364 
L 154.172514 345.05809 
L 154.995001 340.791437 
L 156.56038 334.498123 
L 157.382868 329.235917 
L 158.178823 328.738141 
L 159.001311 329.662582 
L 159.797267 334.498123 
L 160.619754 341.680323 
L 161.442241 347.831415 
L 162.238197 349.751409 
L 163.060685 343.742539 
L 163.85664 339.155886 
L 164.679128 335.635897 
L 165.501615 334.107013 
L 166.244507 332.187019 
L 167.066994 327.280367 
L 167.86295 325.218152 
L 168.685437 328.453697 
L 171.126368 345.4492 
L 171.922324 345.4492 
L 173.540767 336.027007 
L 175.185742 331.795909 
L 175.955165 329.164806 
L 176.777653 325.147041 
L 177.573608 323.191491 
L 178.396096 323.938155 
L 179.192052 328.27592 
L 180.014539 335.778119 
L 180.837026 341.538101 
L 181.632982 342.106988 
L 182.45547 338.338111 
L 183.251425 332.898128 
L 184.073913 328.773696 
L 184.8964 327.280367 
L 185.639292 322.942603 
L 186.461779 319.315948 
L 187.257735 316.898177 
L 188.080223 318.960393 
L 188.876178 322.089272 
L 189.698666 329.947026 
L 190.521153 334.533678 
L 191.317109 336.667005 
L 192.139596 332.862572 
L 192.935552 328.382586 
L 195.323419 318.569283 
L 196.145906 314.089297 
L 196.941862 314.30263 
L 197.764349 315.760403 
L 198.560305 320.418166 
L 200.20528 331.973686 
L 201.001235 331.760354 
L 201.823723 328.844807 
L 203.442166 321.058164 
L 205.007545 317.467064 
L 205.830033 315.333738 
L 206.625988 311.280417 
L 207.448476 312.524857 
L 208.244431 316.898177 
L 209.889406 331.049245 
L 210.685362 330.30258 
L 212.303805 321.627052 
L 213.94878 315.867069 
L 214.718204 315.440404 
L 215.540691 308.435981 
L 216.336647 307.191541 
L 217.95509 314.373741 
L 218.777577 320.524833 
L 219.600065 325.46704 
L 220.39602 325.004819 
L 221.218508 319.884835 
L 222.836951 312.631524 
L 223.659438 309.004868 
L 224.40233 306.373765 
L 225.224818 302.107112 
L 226.020773 298.622678 
L 226.843261 300.080451 
L 227.639216 304.347105 
L 228.461704 309.893754 
L 229.284191 316.293735 
L 230.080147 317.467064 
L 230.902634 313.982631 
L 231.69859 312.275969 
L 232.521077 309.751533 
L 233.343565 304.915992 
L 234.086457 302.178223 
L 234.908944 298.018235 
L 235.7049 296.062686 
L 237.323343 303.635996 
L 238.968318 316.969288 
L 239.764273 317.11151 
L 240.586761 313.484854 
L 242.205204 304.844881 
L 243.027691 302.249334 
L 243.770583 300.684894 
L 244.593071 296.169352 
L 245.389026 293.431583 
L 246.211514 295.1738 
L 247.007469 300.40045 
L 247.829957 307.618206 
L 248.652444 312.773745 
L 249.4484 313.307077 
L 250.270887 309.680422 
M 251.889331 301.787113 
L 252.711818 297.662681 
L 253.481242 294.924912 
L 254.303729 290.942702 
L 255.099685 290.480481 
L 255.922172 293.21825 
L 256.718128 296.560462 
L 257.540615 305.022658 
L 258.363103 311.17375 
L 259.159058 311.884859 
L 260.777502 301.680446 
L 261.599989 297.98268 
L 262.422476 296.311574 
L 263.165368 289.840483 
L 263.987856 285.64494 
L 264.783811 282.800505 
L 265.606299 285.502719 
L 266.402255 290.089371 
L 267.224742 298.338234 
L 268.047229 302.853776 
L 268.843185 302.924887 
L 270.461628 294.640468 
L 271.284116 289.840483 
L 272.106603 288.77382 
L 272.849495 283.760502 
L 273.671982 280.098291 
L 274.467938 278.889406 
L 275.290426 278.960517 
L 276.086381 284.649388 
L 277.731356 299.013788 
L 278.527312 298.871566 
L 280.145755 290.01826 
L 280.968242 285.609385 
L 281.79073 283.653835 
L 282.533622 278.036075 
L 283.356109 275.618305 
L 284.152065 274.693863 
L 284.974552 274.516086 
L 287.415483 293.289361 
L 288.211438 292.542697 
L 289.033926 288.560487 
L 289.829881 283.22717 
L 290.652369 279.351626 
L 291.474856 277.787187 
L 292.24428 271.849427 
L 293.066767 268.578326 
L 293.862723 266.622777 
L 294.685211 267.156109 
L 295.481166 274.01831 
L 297.126141 285.431608 
L 297.922097 285.573829 
L 299.54054 277.858298 
L 300.363027 274.409419 
L 301.928407 266.160556 
L 302.750894 262.889455 
L 303.54685 261.111683 
L 304.369337 262.8539 
L 305.165293 269.111658 
L 305.98778 277.431632 
L 306.810268 282.729394 
L 307.606223 282.267173 
L 309.224666 272.311648 
L 310.047154 268.47166 
L 310.869641 265.733891 
L 312.435021 257.769471 
L 313.230976 255.422811 
L 314.053464 258.409469 
L 314.849419 263.636119 
L 315.671907 271.564984 
L 316.494394 278.000519 
L 317.29035 277.964964 
L 318.908793 268.684993 
L 319.73128 265.911668 
L 320.553768 261.573904 
L 321.29666 260.045019 
L 322.119147 253.218374 
L 322.915103 250.445049 
L 323.73759 251.867267 
L 324.533546 256.987251 
L 326.178521 270.640542 
L 326.974476 270.533876 
L 327.796964 266.231667 
L 328.59292 261.040572 
L 329.415407 257.30725 
L 331.007318 252.258377 
M 332.625761 244.756178 
L 333.448249 247.102837 
L 334.244204 252.222821 
L 335.889179 266.90722 
L 336.685135 265.947223 
L 337.507622 260.862795 
L 338.303578 255.173923 
L 339.126065 253.360596 
L 339.948553 249.982828 
L 340.691445 244.365068 
L 341.513932 242.231741 
L 342.309888 239.671749 
L 343.132375 242.089519 
L 345.573306 260.258352 
L 346.369261 260.756128 
L 347.987705 250.978381 
L 349.632679 246.000618 
L 350.375571 243.405071 
L 351.198059 237.147312 
L 351.994014 234.97843 
L 352.816502 236.578425 
L 353.612458 242.871739 
L 354.434945 250.267272 
L 355.257432 253.32504 
L 356.053388 255.849477 
L 357.671831 246.213951 
L 358.494319 241.591743 
L 359.316806 240.845079 
L 360.059698 237.289534 
L 360.882185 231.671774 
L 361.678141 228.898449 
L 362.500628 230.889554 
L 363.296584 235.938427 
L 364.119072 243.156183 
L 364.941559 248.702832 
L 365.737515 248.453944 
L 367.355958 239.316194 
L 369.000933 230.498444 
L 369.770356 227.760675 
L 370.592844 223.209577 
L 371.388799 221.360694 
L 372.211287 223.102911 
L 373.007243 226.765122 
L 373.82973 234.907319 
L 374.652217 240.169525 
L 375.448173 239.422861 
L 376.270661 235.618428 
L 377.066616 231.316219 
L 377.889104 225.982902 
L 378.711591 224.702906 
L 379.454483 222.24958 
L 380.27697 216.276266 
L 381.072926 215.494046 
L 381.895414 217.236263 
L 382.691369 222.142914 
L 383.513857 229.894001 
L 384.336344 236.15176 
L 385.1323 235.440651 
L 388.395718 218.409592 
L 389.13861 215.956267 
L 389.961097 213.858495 
L 390.757053 210.302951 
L 391.57954 213.787384 
L 392.375496 219.120701 
L 394.020471 231.671774 
L 394.816426 230.569555 
L 396.434869 220.934029 
L 397.257357 219.120701 
L 398.079844 215.956267 
L 398.822736 210.62295 
L 399.645224 205.538521 
L 400.441179 203.867415 
L 401.263667 207.42296 
L 402.059622 214.320716 
L 402.88211 222.64069 
L 403.704597 228.329562 
L 404.500553 227.974007 
L 406.118996 218.125149 
L 406.941483 214.107383 
L 408.533395 208.382957 
L 409.355882 204.009637 
L 410.151838 202.231864 
L 410.974325 203.156306 
L 411.770281 211.405169 
L 413.415256 225.805125 
L 414.211211 224.525129 
L 415.033699 220.969584 
L 416.652142 211.440725 
L 417.474629 210.338506 
L 418.217521 206.214074 
L 419.040009 203.369639 
L 419.835964 200.098538 
L 420.658452 202.480753 
L 421.454407 210.267395 
L 423.099382 222.000692 
L 423.895338 221.680693 
L 424.717825 217.094041 
L 425.513781 211.760724 
L 426.336268 207.03185 
L 427.158756 204.614079 
L 428.724135 196.400771 
L 429.520091 194.907443 
L 430.342578 197.8941 
L 431.138534 202.978529 
L 432.783509 215.956267 
L 433.579464 214.747381 
L 435.197908 204.400747 
L 437.585774 194.267445 
L 438.408262 189.040794 
L 439.204217 187.654132 
L 440.026705 189.431904 
L 440.82266 194.942998 
L 441.645148 203.90297 
L 442.467635 207.280738 
L 443.263591 207.920736 
L 444.882034 198.356321 
L 445.704522 193.414114 
L 446.527009 189.254127 
L 447.296433 185.94747 
L 448.11892 184.525252 
L 448.914876 182.534147 
L 449.737363 183.280812 
L 450.533319 188.151908 
L 451.355806 195.86744 
L 452.178294 202.409642 
L 452.974249 202.26742 
L 454.592693 192.809671 
L 456.237667 186.445246 
L 456.980559 184.738585 
L 457.803047 178.196383 
L 458.599002 177.165275 
L 459.42149 180.898597 
L 460.217446 185.449694 
L 461.86242 199.742983 
L 462.658376 197.858545 
L 463.480864 191.920785 
L 464.276819 185.200806 
L 465.099307 182.071927 
L 465.921794 179.511935 
L 467.487173 169.983075 
L 468.283129 167.280861 
L 469.105616 168.809745 
L 469.901572 172.969733 
L 471.546547 186.480802 
L 472.342503 185.129695 
L 473.16499 181.147485 
L 473.960946 175.423058 
L 474.783433 171.689736 
L 475.605921 168.525302 
L 476.348813 166.35642 
L 477.1713 161.698656 
L 477.967256 161.805323 
L 478.789743 164.151982 
L 479.585699 167.174195 
L 480.408186 176.240834 
L 481.230674 183.671922 
L 482.026629 181.680817 
L 484.46756 167.743082 
L 485.290047 166.854196 
L 486.881958 158.78311 
L 487.677914 159.600885 
L 488.500402 159.17422 
L 490.118845 171.867514 
L 490.941332 175.885279 
L 491.737288 175.778613 
L 493.355731 166.391975 
L 496.566085 153.23646 
L 497.362041 151.529799 
L 498.184528 153.805347 
L 500.625459 171.689736 
L 501.421414 170.729739 
L 502.243902 166.071976 
L 503.039857 160.80977 
L 503.862345 156.223118 
L 504.684832 153.840903 
L 506.250212 147.369812 
L 507.046167 144.738709 
L 507.868655 145.592039 
L 508.66461 150.960912 
L 509.487098 158.640888 
L 510.309585 162.551987 
L 511.105541 163.263096 
L 512.723984 151.743131 
L 513.546471 147.867588 
L 514.368959 145.165374 
L 515.111851 142.285383 
L 515.934338 137.734286 
L 516.730294 134.640962 
L 517.552781 135.778736 
L 518.348737 141.396497 
L 519.171224 149.64536 
L 519.993712 153.947569 
L 520.789667 154.054235 
L 522.40811 143.920933 
L 523.230598 140.329833 
L 524.053085 137.236509 
L 524.822509 133.645409 
L 525.644997 128.418759 
L 526.440952 127.458762 
L 527.26344 130.765418 
L 528.059395 138.658727 
L 528.881883 143.849822 
L 529.70437 150.107581 
L 530.500326 149.360916 
L 531.322813 143.316491 
L 532.118769 138.516506 
L 532.941256 135.138738 
L 535.329123 121.521002 
L 536.125079 120.952115 
L 536.947566 121.805446 
L 537.743522 127.032097 
L 539.388497 141.396497 
L 540.184452 140.329833 
L 541.00694 135.529848 
L 541.802896 129.27209 
L 542.625383 124.756548 
L 543.44787 121.876557 
L 544.190762 120.169895 
L 545.01325 113.272139 
L 545.809205 111.77881 
L 546.631693 115.263244 
L 547.427648 120.91656 
L 548.250136 128.205426 
L 549.072623 133.752076 
L 549.868579 132.756523 
L 550.691066 129.129868 
L 551.487022 123.192108 
L 553.131997 115.796576 
L 553.874889 113.378805 
L 554.697376 106.55216 
L 555.493332 106.338827 
L 556.315819 107.974378 
L 557.111775 113.663249 
L 557.934263 122.587666 
L 558.75675 126.249877 
L 559.552706 125.68099 
L 560.375193 120.952115 
L 561.993636 110.036593 
L 562.816124 108.96993 
L 563.585547 108.223266 
L 564.408035 104.027723 
L 565.20399 99.298849 
L 566.026478 102.072174 
L 566.822434 107.049936 
L 567.644921 115.121022 
L 568.467408 118.356568 
L 569.263364 119.032121 
L 570.085852 114.765468 
L 571.704295 104.98772 
L 572.526782 103.067726 
L 573.269674 98.303296 
L 574.092161 95.707749 
L 574.888117 93.609977 
L 575.710604 95.956637 
L 576.50656 101.112177 
L 577.329048 107.938822 
L 578.151535 112.809918 
L 578.947491 113.912137 
L 580.565934 103.281059 
L 581.388421 98.694406 
L 582.210909 93.396645 
L 582.953801 89.947767 
L 583.776288 85.361114 
L 584.572244 83.44112 
L 585.394731 86.463333 
L 587.013174 99.974402 
L 587.835662 105.307719 
L 588.631617 103.921057 
L 589.454105 98.836628 
L 590.25006 94.854418 
L 591.072548 89.378879 
L 591.895035 87.494441 
L 592.637927 84.863338 
L 593.460415 82.552234 
L 594.25637 79.210022 
L 595.078858 80.845572 
L 595.874813 85.183337 
L 596.697301 93.645533 
L 597.519788 97.378855 
L 598.315744 97.663298 
L 599.138231 93.112201 
L 599.934187 87.494441 
L 600.756674 83.014455 
L 601.579162 80.383352 
L 602.348586 78.463358 
L 603.171073 72.134488 
L 603.967029 70.143383 
L 604.789516 73.805594 
L 605.585472 78.605579 
L 606.407959 85.610002 
L 607.230447 90.161099 
L 608.026402 90.374432 
L 608.84889 83.512231 
L 609.644845 78.67669 
L 611.28982 69.930051 
L 612.032712 67.690057 
L 612.8552 64.205624 
L 613.651155 59.334528 
L 615.269598 68.081167 
L 616.092086 75.618922 
L 616.914573 81.841125 
L 617.710529 80.952239 
L 618.533016 75.761144 
L 619.328972 69.787829 
L 620.151459 66.196729 
L 620.973947 65.627842 
L 621.716839 59.370083 
L 622.539326 53.645656 
L 623.335282 52.223439 
L 624.157769 54.107877 
L 625.776212 69.112275 
L 626.5987 74.978924 
L 627.394655 72.66782 
L 628.217143 68.223389 
L 629.013098 62.427851 
L 629.835586 58.623419 
L 630.658073 57.556755 
L 631.400965 53.076769 
L 632.223453 46.890122 
L 633.019408 44.472351 
L 633.841896 48.596783 
L 634.637851 53.894544 
L 635.460339 62.356741 
L 636.282826 66.978949 
L 637.078782 64.632289 
L 638.697225 51.97455 
L 639.519713 49.450114 
L 640.3422 43.903464 
L 641.111624 41.236806 
L 641.934111 32.063501 
L 642.730067 31.103504 
L 643.552554 34.267938 
L 644.34851 42.872356 
L 645.170997 50.481222 
L 645.993485 54.818986 
L 646.78944 52.898992 
L 647.611928 45.930125 
L 648.407884 42.730134 
L 648.407884 42.730134 
" style="fill:none;stroke:#0000ff;stroke-linecap:square;stroke-width:1.5;"/>
   </g>
   <g id="patch_3">
    <path d="M 50.565625 383.977081 
L 50.565625 14.3 
" style="fill:none;stroke:#000000;stroke-linecap:square;stroke-linejoin:miter;stroke-width:0.8;"/>
   </g>
   <g id="patch_4">
    <path d="M 676.876562 383.977081 
L 676.876562 14.3 
" style="fill:none;stroke:#000000;stroke-linecap:square;stroke-linejoin:miter;stroke-width:0.8;"/>
   </g>
   <g id="patch_5">
    <path d="M 50.565625 383.977081 
L 676.876562 383.977081 
" style="fill:none;stroke:#000000;stroke-linecap:square;stroke-linejoin:miter;stroke-width:0.8;"/>
   </g>
   <g id="patch_6">
    <path d="M 50.565625 14.3 
L 676.876562 14.3 
" style="fill:none;stroke:#000000;stroke-linecap:square;stroke-linejoin:miter;stroke-width:0.8;"/>
   </g>
  </g>
  <g id="axes_2">
   <g id="matplotlib.axis_3">
    <g id="ytick_6">
     <g id="line2d_13">
      <defs>
       <path d="M 0 0 
L 3.5 0 
" id="ma7c4fadedf" style="stroke:#ff0000;stroke-width:0.8;"/>
      </defs>
      <g>
       <use style="fill:#ff0000;stroke:#ff0000;stroke-width:0.8;" x="676.876562" xlink:href="#ma7c4fadedf" y="345.555035"/>
      </g>
     </g>
     <g id="text_14">
      <!-- −0.25 -->
      <defs>
       <path d="M 10.59375 35.5 
L 73.1875 35.5 
L 73.1875 27.203125 
L 10.59375 27.203125 
z
" id="DejaVuSans-2212"/>
       <path d="M 10.6875 12.40625 
L 21 12.40625 
L 21 0 
L 10.6875 0 
z
" id="DejaVuSans-2e"/>
       <path d="M 10.796875 72.90625 
L 49.515625 72.90625 
L 49.515625 64.59375 
L 19.828125 64.59375 
L 19.828125 46.734375 
Q 21.96875 47.46875 24.109375 47.828125 
Q 26.265625 48.1875 28.421875 48.1875 
Q 40.625 48.1875 47.75 41.5 
Q 54.890625 34.8125 54.890625 23.390625 
Q 54.890625 11.625 47.5625 5.09375 
Q 40.234375 -1.421875 26.90625 -1.421875 
Q 22.3125 -1.421875 17.546875 -0.640625 
Q 12.796875 0.140625 7.71875 1.703125 
L 7.71875 11.625 
Q 12.109375 9.234375 16.796875 8.0625 
Q 21.484375 6.890625 26.703125 6.890625 
Q 35.15625 6.890625 40.078125 11.328125 
Q 45.015625 15.765625 45.015625 23.390625 
Q 45.015625 31 40.078125 35.4375 
Q 35.15625 39.890625 26.703125 39.890625 
Q 22.75 39.890625 18.8125 39.015625 
Q 14.890625 38.140625 10.796875 36.28125 
z
" id="DejaVuSans-35"/>
      </defs>
      <g style="fill:#ff0000;" transform="translate(683.876562 349.354254)scale(0.1 -0.1)">
       <use xlink:href="#DejaVuSans-2212"/>
       <use x="83.789062" xlink:href="#DejaVuSans-30"/>
       <use x="147.412109" xlink:href="#DejaVuSans-2e"/>
       <use x="179.199219" xlink:href="#DejaVuSans-32"/>
       <use x="242.822266" xlink:href="#DejaVuSans-35"/>
      </g>
     </g>
    </g>
    <g id="ytick_7">
     <g id="line2d_14">
      <g>
       <use style="fill:#ff0000;stroke:#ff0000;stroke-width:0.8;" x="676.876562" xlink:href="#ma7c4fadedf" y="296.421983"/>
      </g>
     </g>
     <g id="text_15">
      <!-- 0.00 -->
      <g style="fill:#ff0000;" transform="translate(683.876562 300.221202)scale(0.1 -0.1)">
       <use xlink:href="#DejaVuSans-30"/>
       <use x="63.623047" xlink:href="#DejaVuSans-2e"/>
       <use x="95.410156" xlink:href="#DejaVuSans-30"/>
       <use x="159.033203" xlink:href="#DejaVuSans-30"/>
      </g>
     </g>
    </g>
    <g id="ytick_8">
     <g id="line2d_15">
      <g>
       <use style="fill:#ff0000;stroke:#ff0000;stroke-width:0.8;" x="676.876562" xlink:href="#ma7c4fadedf" y="247.288931"/>
      </g>
     </g>
     <g id="text_16">
      <!-- 0.25 -->
      <g style="fill:#ff0000;" transform="translate(683.876562 251.08815)scale(0.1 -0.1)">
       <use xlink:href="#DejaVuSans-30"/>
       <use x="63.623047" xlink:href="#DejaVuSans-2e"/>
       <use x="95.410156" xlink:href="#DejaVuSans-32"/>
       <use x="159.033203" xlink:href="#DejaVuSans-35"/>
      </g>
     </g>
    </g>
    <g id="ytick_9">
     <g id="line2d_16">
      <g>
       <use style="fill:#ff0000;stroke:#ff0000;stroke-width:0.8;" x="676.876562" xlink:href="#ma7c4fadedf" y="198.15588"/>
      </g>
     </g>
     <g id="text_17">
      <!-- 0.50 -->
      <g style="fill:#ff0000;" transform="translate(683.876562 201.955098)scale(0.1 -0.1)">
       <use xlink:href="#DejaVuSans-30"/>
       <use x="63.623047" xlink:href="#DejaVuSans-2e"/>
       <use x="95.410156" xlink:href="#DejaVuSans-35"/>
       <use x="159.033203" xlink:href="#DejaVuSans-30"/>
      </g>
     </g>
    </g>
    <g id="ytick_10">
     <g id="line2d_17">
      <g>
       <use style="fill:#ff0000;stroke:#ff0000;stroke-width:0.8;" x="676.876562" xlink:href="#ma7c4fadedf" y="149.022828"/>
      </g>
     </g>
     <g id="text_18">
      <!-- 0.75 -->
      <g style="fill:#ff0000;" transform="translate(683.876562 152.822047)scale(0.1 -0.1)">
       <use xlink:href="#DejaVuSans-30"/>
       <use x="63.623047" xlink:href="#DejaVuSans-2e"/>
       <use x="95.410156" xlink:href="#DejaVuSans-37"/>
       <use x="159.033203" xlink:href="#DejaVuSans-35"/>
      </g>
     </g>
    </g>
    <g id="ytick_11">
     <g id="line2d_18">
      <g>
       <use style="fill:#ff0000;stroke:#ff0000;stroke-width:0.8;" x="676.876562" xlink:href="#ma7c4fadedf" y="99.889776"/>
      </g>
     </g>
     <g id="text_19">
      <!-- 1.00 -->
      <g style="fill:#ff0000;" transform="translate(683.876562 103.688995)scale(0.1 -0.1)">
       <use xlink:href="#DejaVuSans-31"/>
       <use x="63.623047" xlink:href="#DejaVuSans-2e"/>
       <use x="95.410156" xlink:href="#DejaVuSans-30"/>
       <use x="159.033203" xlink:href="#DejaVuSans-30"/>
      </g>
     </g>
    </g>
    <g id="ytick_12">
     <g id="line2d_19">
      <g>
       <use style="fill:#ff0000;stroke:#ff0000;stroke-width:0.8;" x="676.876562" xlink:href="#ma7c4fadedf" y="50.756724"/>
      </g>
     </g>
     <g id="text_20">
      <!-- 1.25 -->
      <g style="fill:#ff0000;" transform="translate(683.876562 54.555943)scale(0.1 -0.1)">
       <use xlink:href="#DejaVuSans-31"/>
       <use x="63.623047" xlink:href="#DejaVuSans-2e"/>
       <use x="95.410156" xlink:href="#DejaVuSans-32"/>
       <use x="159.033203" xlink:href="#DejaVuSans-35"/>
      </g>
     </g>
    </g>
    <g id="text_21">
     <!-- Relative temperature (Celsius) -->
     <defs>
      <path d="M 44.390625 34.1875 
Q 47.5625 33.109375 50.5625 29.59375 
Q 53.5625 26.078125 56.59375 19.921875 
L 66.609375 0 
L 56 0 
L 46.6875 18.703125 
Q 43.0625 26.03125 39.671875 28.421875 
Q 36.28125 30.8125 30.421875 30.8125 
L 19.671875 30.8125 
L 19.671875 0 
L 9.8125 0 
L 9.8125 72.90625 
L 32.078125 72.90625 
Q 44.578125 72.90625 50.734375 67.671875 
Q 56.890625 62.453125 56.890625 51.90625 
Q 56.890625 45.015625 53.6875 40.46875 
Q 50.484375 35.9375 44.390625 34.1875 
z
M 19.671875 64.796875 
L 19.671875 38.921875 
L 32.078125 38.921875 
Q 39.203125 38.921875 42.84375 42.21875 
Q 46.484375 45.515625 46.484375 51.90625 
Q 46.484375 58.296875 42.84375 61.546875 
Q 39.203125 64.796875 32.078125 64.796875 
z
" id="DejaVuSans-52"/>
      <path d="M 18.3125 70.21875 
L 18.3125 54.6875 
L 36.8125 54.6875 
L 36.8125 47.703125 
L 18.3125 47.703125 
L 18.3125 18.015625 
Q 18.3125 11.328125 20.140625 9.421875 
Q 21.96875 7.515625 27.59375 7.515625 
L 36.8125 7.515625 
L 36.8125 0 
L 27.59375 0 
Q 17.1875 0 13.234375 3.875 
Q 9.28125 7.765625 9.28125 18.015625 
L 9.28125 47.703125 
L 2.6875 47.703125 
L 2.6875 54.6875 
L 9.28125 54.6875 
L 9.28125 70.21875 
z
" id="DejaVuSans-74"/>
      <path d="M 18.109375 8.203125 
L 18.109375 -20.796875 
L 9.078125 -20.796875 
L 9.078125 54.6875 
L 18.109375 54.6875 
L 18.109375 46.390625 
Q 20.953125 51.265625 25.265625 53.625 
Q 29.59375 56 35.59375 56 
Q 45.5625 56 51.78125 48.09375 
Q 58.015625 40.1875 58.015625 27.296875 
Q 58.015625 14.40625 51.78125 6.484375 
Q 45.5625 -1.421875 35.59375 -1.421875 
Q 29.59375 -1.421875 25.265625 0.953125 
Q 20.953125 3.328125 18.109375 8.203125 
z
M 48.6875 27.296875 
Q 48.6875 37.203125 44.609375 42.84375 
Q 40.53125 48.484375 33.40625 48.484375 
Q 26.265625 48.484375 22.1875 42.84375 
Q 18.109375 37.203125 18.109375 27.296875 
Q 18.109375 17.390625 22.1875 11.75 
Q 26.265625 6.109375 33.40625 6.109375 
Q 40.53125 6.109375 44.609375 11.75 
Q 48.6875 17.390625 48.6875 27.296875 
z
" id="DejaVuSans-70"/>
      <path d="M 8.5 21.578125 
L 8.5 54.6875 
L 17.484375 54.6875 
L 17.484375 21.921875 
Q 17.484375 14.15625 20.5 10.265625 
Q 23.53125 6.390625 29.59375 6.390625 
Q 36.859375 6.390625 41.078125 11.03125 
Q 45.3125 15.671875 45.3125 23.6875 
L 45.3125 54.6875 
L 54.296875 54.6875 
L 54.296875 0 
L 45.3125 0 
L 45.3125 8.40625 
Q 42.046875 3.421875 37.71875 1 
Q 33.40625 -1.421875 27.6875 -1.421875 
Q 18.265625 -1.421875 13.375 4.4375 
Q 8.5 10.296875 8.5 21.578125 
z
M 31.109375 56 
z
" id="DejaVuSans-75"/>
     </defs>
     <g style="fill:#ff0000;" transform="translate(726.120312 275.865103)rotate(-90)scale(0.1 -0.1)">
      <use xlink:href="#DejaVuSans-52"/>
      <use x="69.419922" xlink:href="#DejaVuSans-65"/>
      <use x="130.943359" xlink:href="#DejaVuSans-6c"/>
      <use x="158.726562" xlink:href="#DejaVuSans-61"/>
      <use x="220.005859" xlink:href="#DejaVuSans-74"/>
      <use x="259.214844" xlink:href="#DejaVuSans-69"/>
      <use x="286.998047" xlink:href="#DejaVuSans-76"/>
      <use x="346.177734" xlink:href="#DejaVuSans-65"/>
      <use x="407.701172" xlink:href="#DejaVuSans-20"/>
      <use x="439.488281" xlink:href="#DejaVuSans-74"/>
      <use x="478.697266" xlink:href="#DejaVuSans-65"/>
      <use x="540.220703" xlink:href="#DejaVuSans-6d"/>
      <use x="637.632812" xlink:href="#DejaVuSans-70"/>
      <use x="701.109375" xlink:href="#DejaVuSans-65"/>
      <use x="762.632812" xlink:href="#DejaVuSans-72"/>
      <use x="803.746094" xlink:href="#DejaVuSans-61"/>
      <use x="865.025391" xlink:href="#DejaVuSans-74"/>
      <use x="904.234375" xlink:href="#DejaVuSans-75"/>
      <use x="967.613281" xlink:href="#DejaVuSans-72"/>
      <use x="1008.695312" xlink:href="#DejaVuSans-65"/>
      <use x="1070.21875" xlink:href="#DejaVuSans-20"/>
      <use x="1102.005859" xlink:href="#DejaVuSans-28"/>
      <use x="1141.019531" xlink:href="#DejaVuSans-43"/>
      <use x="1210.84375" xlink:href="#DejaVuSans-65"/>
      <use x="1272.367188" xlink:href="#DejaVuSans-6c"/>
      <use x="1300.150391" xlink:href="#DejaVuSans-73"/>
      <use x="1352.25" xlink:href="#DejaVuSans-69"/>
      <use x="1380.033203" xlink:href="#DejaVuSans-75"/>
      <use x="1443.412109" xlink:href="#DejaVuSans-73"/>
      <use x="1495.511719" xlink:href="#DejaVuSans-29"/>
     </g>
    </g>
   </g>
   <g id="line2d_20">
    <path clip-path="url(#p376c72979d)" d="M 79.034304 276.768762 
L 79.856791 294.456661 
L 80.652747 280.699407 
L 81.475235 306.248593 
L 82.27119 284.630051 
L 83.093678 308.213916 
L 83.916165 302.317949 
L 84.712121 288.560695 
L 85.534608 292.491339 
L 86.330564 294.456661 
L 87.153051 284.630051 
L 87.975539 278.734084 
L 88.718431 259.080864 
L 89.540918 264.97683 
L 90.336874 284.630051 
L 91.159361 292.491339 
L 91.955317 284.630051 
L 92.777804 298.387305 
L 93.600292 308.213916 
L 94.396247 314.109882 
L 95.218735 314.109882 
L 96.01469 302.317949 
L 96.837178 298.387305 
L 97.659665 268.907474 
L 98.429089 367.173578 
L 99.251576 327.867136 
L 100.87002 294.456661 
L 101.665975 300.352627 
L 102.488463 298.387305 
L 103.31095 286.595373 
L 104.106906 282.664729 
L 104.929393 318.040526 
L 105.725349 261.046186 
L 106.547836 282.664729 
L 107.370324 261.046186 
L 108.113216 278.734084 
L 108.935703 266.942152 
L 109.731659 270.872796 
L 110.554146 272.838118 
L 111.350102 302.317949 
L 112.172589 292.491339 
L 112.995077 286.595373 
L 113.791032 296.421983 
L 114.61352 290.526017 
L 115.409475 325.901814 
L 116.231963 280.699407 
L 117.05445 268.907474 
L 117.797342 272.838118 
L 118.61983 286.595373 
L 119.415785 308.213916 
L 120.238273 284.630051 
L 121.034228 300.352627 
L 121.856716 300.352627 
L 122.679203 298.387305 
L 123.475159 302.317949 
L 124.297646 284.630051 
L 125.093602 298.387305 
L 125.916089 302.317949 
L 126.738577 259.080864 
L 127.481469 321.97117 
L 128.303956 306.248593 
L 129.099912 314.109882 
L 129.922399 290.526017 
L 130.718355 280.699407 
L 131.540842 247.288931 
L 133.159285 266.942152 
L 133.981773 266.942152 
L 134.777729 296.421983 
L 136.422703 320.005848 
L 137.192127 339.659069 
L 138.014615 355.381645 
L 138.81057 345.555035 
L 139.633058 310.179238 
L 140.429013 310.179238 
L 141.251501 335.728424 
L 142.073988 351.451001 
L 142.869944 355.381645 
L 143.692431 337.693747 
L 144.488387 355.381645 
L 145.310874 314.109882 
L 146.133362 329.832458 
L 146.876254 318.040526 
L 147.698741 335.728424 
L 149.317184 312.14456 
L 150.11314 320.005848 
L 150.935627 298.387305 
L 151.758115 325.901814 
L 152.55407 304.283271 
L 153.376558 308.213916 
L 154.172514 306.248593 
L 154.995001 327.867136 
L 155.817488 296.421983 
L 156.56038 288.560695 
L 157.382868 321.97117 
L 158.178823 316.075204 
L 159.001311 292.491339 
L 159.797267 278.734084 
L 160.619754 316.075204 
L 161.442241 298.387305 
L 162.238197 325.901814 
L 163.060685 300.352627 
L 163.85664 308.213916 
L 164.679128 308.213916 
L 165.501615 335.728424 
L 166.244507 290.526017 
L 167.066994 306.248593 
L 167.86295 268.907474 
L 168.685437 312.14456 
L 169.481393 294.456661 
L 170.303881 292.491339 
L 171.126368 304.283271 
L 171.922324 284.630051 
L 172.744811 308.213916 
L 173.540767 300.352627 
L 174.363254 341.624391 
L 175.185742 325.901814 
L 175.955165 255.15022 
L 176.777653 306.248593 
L 177.573608 316.075204 
L 178.396096 308.213916 
L 179.192052 318.040526 
L 180.014539 318.040526 
L 180.837026 331.79778 
L 181.632982 272.838118 
L 182.45547 304.283271 
L 183.251425 323.936492 
L 184.073913 318.040526 
L 184.8964 323.936492 
L 185.639292 296.421983 
L 186.461779 259.080864 
L 187.257735 257.115542 
L 188.080223 286.595373 
L 188.876178 298.387305 
L 189.698666 290.526017 
L 190.521153 276.768762 
L 192.139596 272.838118 
L 192.935552 243.358287 
L 193.758039 278.734084 
L 194.580527 253.184898 
L 195.323419 280.699407 
L 196.145906 278.734084 
L 196.941862 306.248593 
L 197.764349 302.317949 
L 198.560305 304.283271 
L 199.382792 318.040526 
L 200.20528 274.80344 
L 201.001235 286.595373 
L 201.823723 294.456661 
L 202.619678 321.97117 
L 203.442166 300.352627 
L 204.264653 335.728424 
L 205.007545 331.79778 
L 205.830033 314.109882 
L 206.625988 308.213916 
L 207.448476 331.79778 
L 208.244431 320.005848 
L 209.066919 302.317949 
L 209.889406 298.387305 
L 210.685362 306.248593 
L 211.507849 304.283271 
L 212.303805 312.14456 
L 213.126292 343.589713 
L 213.94878 329.832458 
L 214.718204 292.491339 
L 215.540691 298.387305 
L 216.336647 302.317949 
L 217.159134 288.560695 
L 217.95509 292.491339 
L 218.777577 261.046186 
L 219.600065 290.526017 
L 220.39602 278.734084 
L 221.218508 290.526017 
L 222.014463 261.046186 
L 222.836951 241.392965 
L 223.659438 237.462321 
L 224.40233 245.323609 
L 225.224818 247.288931 
L 226.020773 245.323609 
L 226.843261 264.97683 
L 228.461704 292.491339 
L 229.284191 284.630051 
L 230.080147 272.838118 
L 230.902634 284.630051 
L 231.69859 308.213916 
L 232.521077 323.936492 
L 233.343565 351.451001 
L 234.086457 306.248593 
L 234.908944 316.075204 
L 235.7049 298.387305 
L 236.527387 306.248593 
L 237.323343 302.317949 
L 238.14583 272.838118 
L 238.968318 320.005848 
L 239.764273 310.179238 
L 240.586761 310.179238 
L 241.382717 314.109882 
L 242.205204 282.664729 
L 243.027691 282.664729 
L 243.770583 268.907474 
L 244.593071 284.630051 
L 245.389026 264.97683 
L 246.211514 300.352627 
L 247.007469 302.317949 
L 247.829957 335.728424 
L 248.652444 302.317949 
L 250.270887 327.867136 
L 251.066843 329.832458 
L 251.889331 296.421983 
L 252.711818 308.213916 
L 253.481242 337.693747 
L 254.303729 316.075204 
L 255.099685 341.624391 
L 255.922172 325.901814 
L 256.718128 320.005848 
L 257.540615 331.79778 
L 258.363103 314.109882 
L 259.159058 347.520357 
L 259.981546 308.213916 
L 260.777502 278.734084 
L 261.599989 261.046186 
L 262.422476 257.115542 
L 263.165368 247.288931 
L 263.987856 243.358287 
L 264.783811 237.462321 
L 265.606299 247.288931 
L 266.402255 251.219575 
L 267.224742 259.080864 
L 268.047229 292.491339 
L 268.843185 288.560695 
L 269.665673 257.115542 
L 270.461628 286.595373 
L 271.284116 280.699407 
L 272.106603 268.907474 
L 272.849495 255.15022 
L 273.671982 266.942152 
L 274.467938 282.664729 
L 275.290426 302.317949 
L 276.086381 282.664729 
L 276.908869 331.79778 
L 277.731356 286.595373 
L 278.527312 296.421983 
L 279.349799 264.97683 
L 280.145755 274.80344 
L 280.968242 268.907474 
L 281.79073 314.109882 
L 282.533622 259.080864 
L 283.356109 270.872796 
L 284.152065 284.630051 
L 284.974552 268.907474 
L 285.770508 290.526017 
L 286.592995 268.907474 
L 287.415483 243.358287 
L 288.211438 245.323609 
L 289.033926 239.427643 
L 289.829881 204.051846 
L 290.652369 237.462321 
L 291.474856 213.878456 
L 292.24428 239.427643 
L 293.066767 233.531677 
L 293.862723 229.601033 
L 294.685211 264.97683 
L 295.481166 241.392965 
L 296.303654 249.254253 
L 297.126141 255.15022 
L 297.922097 257.115542 
L 298.744584 237.462321 
L 299.54054 255.15022 
L 300.363027 186.363947 
L 301.185515 215.843778 
L 301.928407 202.086524 
L 302.750894 233.531677 
L 303.54685 247.288931 
L 304.369337 235.496999 
L 305.165293 227.635711 
L 305.98778 227.635711 
L 306.810268 263.011508 
L 307.606223 270.872796 
L 308.428711 255.15022 
L 309.224666 217.8091 
L 310.047154 278.734084 
L 310.869641 268.907474 
L 311.612533 298.387305 
L 312.435021 276.768762 
L 313.230976 264.97683 
L 314.053464 286.595373 
L 314.849419 270.872796 
L 315.671907 280.699407 
L 316.494394 266.942152 
L 317.29035 270.872796 
L 318.112837 268.907474 
L 318.908793 211.913134 
L 319.73128 194.225235 
L 320.553768 217.8091 
L 321.29666 213.878456 
L 322.119147 237.462321 
L 322.915103 227.635711 
L 323.73759 261.046186 
L 324.533546 266.942152 
L 325.356033 237.462321 
L 326.178521 221.739744 
L 326.974476 266.942152 
L 327.796964 237.462321 
L 328.59292 263.011508 
L 329.415407 237.462321 
L 330.237894 263.011508 
L 331.007318 239.427643 
L 331.829806 280.699407 
L 332.625761 231.566355 
L 333.448249 288.560695 
L 334.244204 264.97683 
L 335.066692 266.942152 
L 335.889179 257.115542 
L 336.685135 266.942152 
L 338.303578 308.213916 
L 339.126065 255.15022 
L 339.948553 308.213916 
L 340.691445 263.011508 
L 341.513932 274.80344 
L 342.309888 263.011508 
L 343.132375 263.011508 
L 343.928331 296.421983 
L 344.750818 266.942152 
L 345.573306 268.907474 
L 346.369261 274.80344 
L 347.191749 278.734084 
L 347.987705 266.942152 
L 348.810192 237.462321 
L 349.632679 219.774422 
L 350.375571 239.427643 
L 351.198059 245.323609 
L 351.994014 245.323609 
L 352.816502 272.838118 
L 353.612458 270.872796 
L 354.434945 272.838118 
L 355.257432 292.491339 
L 356.053388 268.907474 
L 356.875876 274.80344 
L 357.671831 264.97683 
L 358.494319 225.670389 
L 359.316806 206.017168 
L 360.059698 263.011508 
L 360.882185 249.254253 
L 361.678141 245.323609 
L 363.296584 206.017168 
L 364.119072 241.392965 
L 364.941559 219.774422 
L 366.560002 247.288931 
L 367.355958 204.051846 
L 368.178445 184.398625 
L 369.000933 213.878456 
L 369.770356 200.121202 
L 370.592844 207.98249 
L 371.388799 209.947812 
L 372.211287 213.878456 
L 373.007243 227.635711 
L 373.82973 206.017168 
L 374.652217 213.878456 
L 375.448173 217.8091 
L 376.270661 270.872796 
L 377.066616 229.601033 
L 377.889104 264.97683 
L 378.711591 227.635711 
L 379.454483 225.670389 
L 380.27697 231.566355 
L 381.072926 263.011508 
L 381.895414 266.942152 
L 382.691369 229.601033 
L 383.513857 225.670389 
L 384.336344 223.705067 
L 385.1323 233.531677 
L 385.954787 255.15022 
L 386.750743 223.705067 
L 387.57323 215.843778 
L 388.395718 215.843778 
L 389.13861 147.057506 
L 389.961097 188.329269 
L 390.757053 206.017168 
L 391.57954 221.739744 
L 392.375496 209.947812 
L 393.197983 237.462321 
L 394.020471 237.462321 
L 394.816426 211.913134 
L 395.638914 206.017168 
L 396.434869 213.878456 
L 397.257357 213.878456 
L 398.079844 196.190558 
L 398.822736 225.670389 
L 399.645224 192.259913 
L 400.441179 219.774422 
L 401.263667 190.294591 
L 402.059622 196.190558 
L 402.88211 213.878456 
L 403.704597 198.15588 
L 404.500553 233.531677 
L 405.32304 235.496999 
L 406.118996 231.566355 
L 406.941483 207.98249 
L 407.763971 213.878456 
L 408.533395 204.051846 
L 409.355882 249.254253 
L 410.151838 233.531677 
L 410.974325 249.254253 
L 411.770281 270.872796 
L 412.592768 276.768762 
L 413.415256 294.456661 
L 414.211211 274.80344 
L 415.033699 288.560695 
L 415.829654 253.184898 
L 416.652142 223.705067 
L 417.474629 219.774422 
L 418.217521 225.670389 
L 419.040009 241.392965 
L 420.658452 249.254253 
L 421.454407 241.392965 
L 422.276895 270.872796 
L 423.099382 274.80344 
L 423.895338 249.254253 
L 424.717825 282.664729 
L 426.336268 237.462321 
L 427.158756 288.560695 
L 427.901648 245.323609 
L 428.724135 215.843778 
L 429.520091 239.427643 
L 430.342578 213.878456 
L 431.961021 251.219575 
L 432.783509 233.531677 
L 433.579464 213.878456 
L 434.401952 206.017168 
L 435.197908 225.670389 
L 436.020395 198.15588 
L 436.842882 145.092184 
L 437.585774 207.98249 
L 438.408262 204.051846 
L 439.204217 239.427643 
L 440.026705 207.98249 
L 440.82266 200.121202 
L 441.645148 202.086524 
L 442.467635 229.601033 
L 443.263591 200.121202 
L 444.086078 207.98249 
L 444.882034 237.462321 
L 445.704522 243.358287 
L 446.527009 198.15588 
L 447.296433 229.601033 
L 448.11892 221.739744 
L 448.914876 237.462321 
L 449.737363 243.358287 
L 450.533319 223.705067 
L 451.355806 200.121202 
L 452.178294 243.358287 
L 452.974249 257.115542 
L 453.796737 213.878456 
L 454.592693 215.843778 
L 455.41518 231.566355 
L 456.237667 223.705067 
L 456.980559 194.225235 
L 457.803047 221.739744 
L 458.599002 219.774422 
L 459.42149 188.329269 
L 460.217446 227.635711 
L 461.039933 211.913134 
L 461.86242 186.363947 
L 462.658376 170.641371 
L 463.480864 166.710727 
L 464.276819 178.502659 
L 465.099307 176.537337 
L 465.921794 119.542997 
L 466.664686 172.606693 
L 467.487173 170.641371 
L 469.105616 143.126862 
L 469.901572 156.884116 
L 470.72406 162.780082 
L 471.546547 207.98249 
L 472.342503 204.051846 
L 473.16499 198.15588 
L 473.960946 186.363947 
L 474.783433 202.086524 
L 475.605921 166.710727 
L 476.348813 229.601033 
L 477.1713 229.601033 
L 477.967256 231.566355 
L 479.585699 215.843778 
L 480.408186 229.601033 
L 481.230674 211.913134 
L 482.026629 211.913134 
L 482.849117 213.878456 
L 483.645072 206.017168 
L 484.46756 245.323609 
L 485.290047 182.433303 
L 486.059471 178.502659 
L 486.881958 180.467981 
L 487.677914 217.8091 
L 488.500402 209.947812 
L 489.296357 213.878456 
L 490.118845 211.913134 
L 490.941332 213.878456 
L 491.737288 237.462321 
L 492.559775 229.601033 
L 493.355731 237.462321 
L 494.178218 209.947812 
L 495.000706 206.017168 
L 495.743598 182.433303 
L 496.566085 194.225235 
L 497.362041 180.467981 
L 498.184528 188.329269 
L 498.980484 176.537337 
L 499.802971 200.121202 
L 500.625459 186.363947 
L 501.421414 194.225235 
L 502.243902 158.849438 
L 503.039857 188.329269 
L 503.862345 149.022828 
L 504.684832 147.057506 
L 505.427724 117.577675 
L 506.250212 182.433303 
L 507.046167 168.676049 
L 507.868655 190.294591 
L 508.66461 174.572015 
L 509.487098 188.329269 
L 510.309585 168.676049 
L 511.105541 184.398625 
L 511.928028 180.467981 
L 512.723984 211.913134 
L 513.546471 152.953472 
L 514.368959 188.329269 
L 515.111851 184.398625 
L 515.934338 188.329269 
L 516.730294 174.572015 
L 517.552781 200.121202 
L 518.348737 188.329269 
L 519.171224 166.710727 
L 519.993712 166.710727 
L 520.789667 149.022828 
L 521.612155 188.329269 
L 522.40811 149.022828 
L 523.230598 180.467981 
L 524.053085 156.884116 
L 524.822509 170.641371 
L 525.644997 174.572015 
L 526.440952 213.878456 
L 527.26344 211.913134 
L 528.059395 245.323609 
L 528.881883 207.98249 
L 529.70437 192.259913 
L 530.500326 166.710727 
L 531.322813 154.918794 
L 532.118769 194.225235 
L 532.941256 154.918794 
L 533.763744 182.433303 
L 534.506636 160.81476 
L 535.329123 160.81476 
L 536.125079 168.676049 
L 536.947566 164.745404 
L 537.743522 166.710727 
L 538.566009 172.606693 
L 539.388497 143.126862 
L 540.184452 139.196218 
L 541.00694 147.057506 
L 541.802896 162.780082 
L 542.625383 184.398625 
L 543.44787 158.849438 
L 544.190762 172.606693 
L 545.01325 198.15588 
L 545.809205 204.051846 
L 546.631693 170.641371 
L 547.427648 190.294591 
L 548.250136 154.918794 
L 549.072623 170.641371 
L 549.868579 160.81476 
L 550.691066 154.918794 
L 551.487022 145.092184 
L 552.30951 107.751064 
L 553.131997 158.849438 
L 553.874889 158.849438 
L 554.697376 147.057506 
L 556.315819 182.433303 
L 557.111775 174.572015 
L 557.934263 178.502659 
L 558.75675 170.641371 
L 559.552706 178.502659 
L 560.375193 184.398625 
L 561.171149 198.15588 
L 561.993636 249.254253 
L 562.816124 225.670389 
L 563.585547 152.953472 
L 564.408035 192.259913 
L 565.20399 196.190558 
L 566.026478 202.086524 
L 566.822434 178.502659 
L 567.644921 209.947812 
L 568.467408 168.676049 
L 569.263364 164.745404 
L 570.085852 166.710727 
L 570.881807 190.294591 
L 571.704295 174.572015 
L 572.526782 192.259913 
L 573.269674 192.259913 
L 574.092161 176.537337 
L 574.888117 168.676049 
L 575.710604 168.676049 
L 576.50656 154.918794 
L 577.329048 166.710727 
L 578.151535 158.849438 
L 578.947491 170.641371 
L 579.769978 145.092184 
L 580.565934 168.676049 
L 581.388421 152.953472 
L 582.210909 143.126862 
L 582.953801 115.612353 
L 583.776288 125.438963 
L 585.394731 170.641371 
L 586.190687 174.572015 
L 587.013174 168.676049 
L 587.835662 176.537337 
L 588.631617 156.884116 
L 589.454105 141.16154 
L 590.25006 200.121202 
L 591.895035 192.259913 
L 592.637927 170.641371 
L 593.460415 168.676049 
L 594.25637 192.259913 
L 595.078858 180.467981 
L 595.874813 152.953472 
L 596.697301 152.953472 
L 597.519788 186.363947 
L 598.315744 166.710727 
L 599.138231 186.363947 
L 599.934187 190.294591 
L 600.756674 206.017168 
L 601.579162 200.121202 
L 602.348586 182.433303 
L 603.171073 160.81476 
L 603.967029 147.057506 
L 604.789516 174.572015 
L 605.585472 184.398625 
L 606.407959 172.606693 
L 607.230447 147.057506 
L 608.026402 143.126862 
L 608.84889 149.022828 
L 609.644845 192.259913 
L 610.467333 162.780082 
L 611.28982 188.329269 
L 612.032712 166.710727 
L 612.8552 194.225235 
L 613.651155 176.537337 
L 614.473643 168.676049 
L 615.269598 180.467981 
L 616.092086 166.710727 
L 616.914573 143.126862 
L 617.710529 160.81476 
L 618.533016 137.230895 
L 619.328972 164.745404 
L 620.151459 152.953472 
L 620.973947 196.190558 
L 621.716839 145.092184 
L 622.539326 143.126862 
L 623.335282 125.438963 
L 624.157769 166.710727 
L 624.953725 184.398625 
L 625.776212 135.265573 
L 626.5987 119.542997 
L 627.394655 129.369607 
L 628.217143 164.745404 
L 629.013098 141.16154 
L 629.835586 137.230895 
L 631.400965 119.542997 
L 632.223453 150.98815 
L 633.019408 143.126862 
L 633.841896 143.126862 
L 634.637851 156.884116 
L 635.460339 143.126862 
L 636.282826 137.230895 
L 637.078782 88.097844 
L 637.901269 92.028488 
L 638.697225 78.271233 
L 639.519713 66.479301 
L 640.3422 31.103504 
L 641.111624 40.930114 
L 641.934111 82.201878 
L 643.552554 147.057506 
L 644.34851 133.300251 
L 645.170997 103.82042 
L 645.993485 125.438963 
L 646.78944 121.508319 
L 647.611928 113.647031 
L 648.407884 137.230895 
L 648.407884 137.230895 
" style="fill:none;stroke:#ff0000;stroke-linecap:square;stroke-width:1.5;"/>
   </g>
   <g id="patch_7">
    <path d="M 50.565625 383.977081 
L 50.565625 14.3 
" style="fill:none;stroke:#000000;stroke-linecap:square;stroke-linejoin:miter;stroke-width:0.8;"/>
   </g>
   <g id="patch_8">
    <path d="M 676.876562 383.977081 
L 676.876562 14.3 
" style="fill:none;stroke:#000000;stroke-linecap:square;stroke-linejoin:miter;stroke-width:0.8;"/>
   </g>
   <g id="patch_9">
    <path d="M 50.565625 383.977081 
L 676.876562 383.977081 
" style="fill:none;stroke:#000000;stroke-linecap:square;stroke-linejoin:miter;stroke-width:0.8;"/>
   </g>
   <g id="patch_10">
    <path d="M 50.565625 14.3 
L 676.876562 14.3 
" style="fill:none;stroke:#000000;stroke-linecap:square;stroke-linejoin:miter;stroke-width:0.8;"/>
   </g>
  </g>
 </g>
 <defs>
  <clipPath id="p376c72979d">
   <rect height="369.677081" width="626.310937" x="50.565625" y="14.3"/>
  </clipPath>
 </defs>
</svg>
