<?xml version="1.0" encoding="utf-8" standalone="no"?>
<!DOCTYPE svg PUBLIC "-//W3C//DTD SVG 1.1//EN"
  "http://www.w3.org/Graphics/SVG/1.1/DTD/svg11.dtd">
<!-- Created with matplotlib (http://matplotlib.org/) -->
<svg height="425.133331pt" version="1.1" viewBox="0 0 668 425.133331" width="668pt" xmlns="http://www.w3.org/2000/svg" xmlns:xlink="http://www.w3.org/1999/xlink">
 <defs>
  <style type="text/css">
*{stroke-linecap:butt;stroke-linejoin:round;}
  </style>
 </defs>
 <g id="figure_1">
  <g id="patch_1">
   <path d="M 0 425.133331 
L 668 425.133331 
L 668 0 
L 0 0 
z
" style="fill:#ffffff;"/>
  </g>
  <g id="axes_1">
   <g id="patch_2">
    <path d="M 36.8875 397.655206 
L 619.554687 397.655206 
L 619.554687 14.3 
L 36.8875 14.3 
z
" style="fill:#ffffff;"/>
   </g>
   <g id="matplotlib.axis_1">
    <g id="xtick_1">
     <g id="line2d_1">
      <defs>
       <path d="M 0 0 
L 0 3.5 
" id="m2fdec04664" style="stroke:#000000;stroke-width:0.8;"/>
      </defs>
      <g>
       <use style="stroke:#000000;stroke-width:0.8;" x="79.811258" xlink:href="#m2fdec04664" y="397.655206"/>
      </g>
     </g>
     <g id="text_1">
      <!-- 1960 -->
      <defs>
       <path d="M 12.40625 8.296875 
L 28.515625 8.296875 
L 28.515625 63.921875 
L 10.984375 60.40625 
L 10.984375 69.390625 
L 28.421875 72.90625 
L 38.28125 72.90625 
L 38.28125 8.296875 
L 54.390625 8.296875 
L 54.390625 0 
L 12.40625 0 
z
" id="DejaVuSans-31"/>
       <path d="M 10.984375 1.515625 
L 10.984375 10.5 
Q 14.703125 8.734375 18.5 7.8125 
Q 22.3125 6.890625 25.984375 6.890625 
Q 35.75 6.890625 40.890625 13.453125 
Q 46.046875 20.015625 46.78125 33.40625 
Q 43.953125 29.203125 39.59375 26.953125 
Q 35.25 24.703125 29.984375 24.703125 
Q 19.046875 24.703125 12.671875 31.3125 
Q 6.296875 37.9375 6.296875 49.421875 
Q 6.296875 60.640625 12.9375 67.421875 
Q 19.578125 74.21875 30.609375 74.21875 
Q 43.265625 74.21875 49.921875 64.515625 
Q 56.59375 54.828125 56.59375 36.375 
Q 56.59375 19.140625 48.40625 8.859375 
Q 40.234375 -1.421875 26.421875 -1.421875 
Q 22.703125 -1.421875 18.890625 -0.6875 
Q 15.09375 0.046875 10.984375 1.515625 
z
M 30.609375 32.421875 
Q 37.25 32.421875 41.125 36.953125 
Q 45.015625 41.5 45.015625 49.421875 
Q 45.015625 57.28125 41.125 61.84375 
Q 37.25 66.40625 30.609375 66.40625 
Q 23.96875 66.40625 20.09375 61.84375 
Q 16.21875 57.28125 16.21875 49.421875 
Q 16.21875 41.5 20.09375 36.953125 
Q 23.96875 32.421875 30.609375 32.421875 
z
" id="DejaVuSans-39"/>
       <path d="M 33.015625 40.375 
Q 26.375 40.375 22.484375 35.828125 
Q 18.609375 31.296875 18.609375 23.390625 
Q 18.609375 15.53125 22.484375 10.953125 
Q 26.375 6.390625 33.015625 6.390625 
Q 39.65625 6.390625 43.53125 10.953125 
Q 47.40625 15.53125 47.40625 23.390625 
Q 47.40625 31.296875 43.53125 35.828125 
Q 39.65625 40.375 33.015625 40.375 
z
M 52.59375 71.296875 
L 52.59375 62.3125 
Q 48.875 64.0625 45.09375 64.984375 
Q 41.3125 65.921875 37.59375 65.921875 
Q 27.828125 65.921875 22.671875 59.328125 
Q 17.53125 52.734375 16.796875 39.40625 
Q 19.671875 43.65625 24.015625 45.921875 
Q 28.375 48.1875 33.59375 48.1875 
Q 44.578125 48.1875 50.953125 41.515625 
Q 57.328125 34.859375 57.328125 23.390625 
Q 57.328125 12.15625 50.6875 5.359375 
Q 44.046875 -1.421875 33.015625 -1.421875 
Q 20.359375 -1.421875 13.671875 8.265625 
Q 6.984375 17.96875 6.984375 36.375 
Q 6.984375 53.65625 15.1875 63.9375 
Q 23.390625 74.21875 37.203125 74.21875 
Q 40.921875 74.21875 44.703125 73.484375 
Q 48.484375 72.75 52.59375 71.296875 
z
" id="DejaVuSans-36"/>
       <path d="M 31.78125 66.40625 
Q 24.171875 66.40625 20.328125 58.90625 
Q 16.5 51.421875 16.5 36.375 
Q 16.5 21.390625 20.328125 13.890625 
Q 24.171875 6.390625 31.78125 6.390625 
Q 39.453125 6.390625 43.28125 13.890625 
Q 47.125 21.390625 47.125 36.375 
Q 47.125 51.421875 43.28125 58.90625 
Q 39.453125 66.40625 31.78125 66.40625 
z
M 31.78125 74.21875 
Q 44.046875 74.21875 50.515625 64.515625 
Q 56.984375 54.828125 56.984375 36.375 
Q 56.984375 17.96875 50.515625 8.265625 
Q 44.046875 -1.421875 31.78125 -1.421875 
Q 19.53125 -1.421875 13.0625 8.265625 
Q 6.59375 17.96875 6.59375 36.375 
Q 6.59375 54.828125 13.0625 64.515625 
Q 19.53125 74.21875 31.78125 74.21875 
z
" id="DejaVuSans-30"/>
      </defs>
      <g transform="translate(67.086258 412.253644)scale(0.1 -0.1)">
       <use xlink:href="#DejaVuSans-31"/>
       <use x="63.623047" xlink:href="#DejaVuSans-39"/>
       <use x="127.246094" xlink:href="#DejaVuSans-36"/>
       <use x="190.869141" xlink:href="#DejaVuSans-30"/>
      </g>
     </g>
    </g>
    <g id="xtick_2">
     <g id="line2d_2">
      <g>
       <use style="stroke:#000000;stroke-width:0.8;" x="169.978302" xlink:href="#m2fdec04664" y="397.655206"/>
      </g>
     </g>
     <g id="text_2">
      <!-- 1970 -->
      <defs>
       <path d="M 8.203125 72.90625 
L 55.078125 72.90625 
L 55.078125 68.703125 
L 28.609375 0 
L 18.3125 0 
L 43.21875 64.59375 
L 8.203125 64.59375 
z
" id="DejaVuSans-37"/>
      </defs>
      <g transform="translate(157.253302 412.253644)scale(0.1 -0.1)">
       <use xlink:href="#DejaVuSans-31"/>
       <use x="63.623047" xlink:href="#DejaVuSans-39"/>
       <use x="127.246094" xlink:href="#DejaVuSans-37"/>
       <use x="190.869141" xlink:href="#DejaVuSans-30"/>
      </g>
     </g>
    </g>
    <g id="xtick_3">
     <g id="line2d_3">
      <g>
       <use style="stroke:#000000;stroke-width:0.8;" x="260.120663" xlink:href="#m2fdec04664" y="397.655206"/>
      </g>
     </g>
     <g id="text_3">
      <!-- 1980 -->
      <defs>
       <path d="M 31.78125 34.625 
Q 24.75 34.625 20.71875 30.859375 
Q 16.703125 27.09375 16.703125 20.515625 
Q 16.703125 13.921875 20.71875 10.15625 
Q 24.75 6.390625 31.78125 6.390625 
Q 38.8125 6.390625 42.859375 10.171875 
Q 46.921875 13.96875 46.921875 20.515625 
Q 46.921875 27.09375 42.890625 30.859375 
Q 38.875 34.625 31.78125 34.625 
z
M 21.921875 38.8125 
Q 15.578125 40.375 12.03125 44.71875 
Q 8.5 49.078125 8.5 55.328125 
Q 8.5 64.0625 14.71875 69.140625 
Q 20.953125 74.21875 31.78125 74.21875 
Q 42.671875 74.21875 48.875 69.140625 
Q 55.078125 64.0625 55.078125 55.328125 
Q 55.078125 49.078125 51.53125 44.71875 
Q 48 40.375 41.703125 38.8125 
Q 48.828125 37.15625 52.796875 32.3125 
Q 56.78125 27.484375 56.78125 20.515625 
Q 56.78125 9.90625 50.3125 4.234375 
Q 43.84375 -1.421875 31.78125 -1.421875 
Q 19.734375 -1.421875 13.25 4.234375 
Q 6.78125 9.90625 6.78125 20.515625 
Q 6.78125 27.484375 10.78125 32.3125 
Q 14.796875 37.15625 21.921875 38.8125 
z
M 18.3125 54.390625 
Q 18.3125 48.734375 21.84375 45.5625 
Q 25.390625 42.390625 31.78125 42.390625 
Q 38.140625 42.390625 41.71875 45.5625 
Q 45.3125 48.734375 45.3125 54.390625 
Q 45.3125 60.0625 41.71875 63.234375 
Q 38.140625 66.40625 31.78125 66.40625 
Q 25.390625 66.40625 21.84375 63.234375 
Q 18.3125 60.0625 18.3125 54.390625 
z
" id="DejaVuSans-38"/>
      </defs>
      <g transform="translate(247.395663 412.253644)scale(0.1 -0.1)">
       <use xlink:href="#DejaVuSans-31"/>
       <use x="63.623047" xlink:href="#DejaVuSans-39"/>
       <use x="127.246094" xlink:href="#DejaVuSans-38"/>
       <use x="190.869141" xlink:href="#DejaVuSans-30"/>
      </g>
     </g>
    </g>
    <g id="xtick_4">
     <g id="line2d_4">
      <g>
       <use style="stroke:#000000;stroke-width:0.8;" x="350.287707" xlink:href="#m2fdec04664" y="397.655206"/>
      </g>
     </g>
     <g id="text_4">
      <!-- 1990 -->
      <g transform="translate(337.562707 412.253644)scale(0.1 -0.1)">
       <use xlink:href="#DejaVuSans-31"/>
       <use x="63.623047" xlink:href="#DejaVuSans-39"/>
       <use x="127.246094" xlink:href="#DejaVuSans-39"/>
       <use x="190.869141" xlink:href="#DejaVuSans-30"/>
      </g>
     </g>
    </g>
    <g id="xtick_5">
     <g id="line2d_5">
      <g>
       <use style="stroke:#000000;stroke-width:0.8;" x="440.430068" xlink:href="#m2fdec04664" y="397.655206"/>
      </g>
     </g>
     <g id="text_5">
      <!-- 2000 -->
      <defs>
       <path d="M 19.1875 8.296875 
L 53.609375 8.296875 
L 53.609375 0 
L 7.328125 0 
L 7.328125 8.296875 
Q 12.9375 14.109375 22.625 23.890625 
Q 32.328125 33.6875 34.8125 36.53125 
Q 39.546875 41.84375 41.421875 45.53125 
Q 43.3125 49.21875 43.3125 52.78125 
Q 43.3125 58.59375 39.234375 62.25 
Q 35.15625 65.921875 28.609375 65.921875 
Q 23.96875 65.921875 18.8125 64.3125 
Q 13.671875 62.703125 7.8125 59.421875 
L 7.8125 69.390625 
Q 13.765625 71.78125 18.9375 73 
Q 24.125 74.21875 28.421875 74.21875 
Q 39.75 74.21875 46.484375 68.546875 
Q 53.21875 62.890625 53.21875 53.421875 
Q 53.21875 48.921875 51.53125 44.890625 
Q 49.859375 40.875 45.40625 35.40625 
Q 44.1875 33.984375 37.640625 27.21875 
Q 31.109375 20.453125 19.1875 8.296875 
z
" id="DejaVuSans-32"/>
      </defs>
      <g transform="translate(427.705068 412.253644)scale(0.1 -0.1)">
       <use xlink:href="#DejaVuSans-32"/>
       <use x="63.623047" xlink:href="#DejaVuSans-30"/>
       <use x="127.246094" xlink:href="#DejaVuSans-30"/>
       <use x="190.869141" xlink:href="#DejaVuSans-30"/>
      </g>
     </g>
    </g>
    <g id="xtick_6">
     <g id="line2d_6">
      <g>
       <use style="stroke:#000000;stroke-width:0.8;" x="530.597111" xlink:href="#m2fdec04664" y="397.655206"/>
      </g>
     </g>
     <g id="text_6">
      <!-- 2010 -->
      <g transform="translate(517.872111 412.253644)scale(0.1 -0.1)">
       <use xlink:href="#DejaVuSans-32"/>
       <use x="63.623047" xlink:href="#DejaVuSans-30"/>
       <use x="127.246094" xlink:href="#DejaVuSans-31"/>
       <use x="190.869141" xlink:href="#DejaVuSans-30"/>
      </g>
     </g>
    </g>
   </g>
   <g id="matplotlib.axis_2">
    <g id="ytick_1">
     <g id="line2d_7">
      <defs>
       <path d="M 0 0 
L -3.5 0 
" id="mfd48f0fb99" style="stroke:#000000;stroke-width:0.8;"/>
      </defs>
      <g>
       <use style="stroke:#000000;stroke-width:0.8;" x="36.8875" xlink:href="#mfd48f0fb99" y="355.157687"/>
      </g>
     </g>
     <g id="text_7">
      <!-- 320 -->
      <defs>
       <path d="M 40.578125 39.3125 
Q 47.65625 37.796875 51.625 33 
Q 55.609375 28.21875 55.609375 21.1875 
Q 55.609375 10.40625 48.1875 4.484375 
Q 40.765625 -1.421875 27.09375 -1.421875 
Q 22.515625 -1.421875 17.65625 -0.515625 
Q 12.796875 0.390625 7.625 2.203125 
L 7.625 11.71875 
Q 11.71875 9.328125 16.59375 8.109375 
Q 21.484375 6.890625 26.8125 6.890625 
Q 36.078125 6.890625 40.9375 10.546875 
Q 45.796875 14.203125 45.796875 21.1875 
Q 45.796875 27.640625 41.28125 31.265625 
Q 36.765625 34.90625 28.71875 34.90625 
L 20.21875 34.90625 
L 20.21875 43.015625 
L 29.109375 43.015625 
Q 36.375 43.015625 40.234375 45.921875 
Q 44.09375 48.828125 44.09375 54.296875 
Q 44.09375 59.90625 40.109375 62.90625 
Q 36.140625 65.921875 28.71875 65.921875 
Q 24.65625 65.921875 20.015625 65.03125 
Q 15.375 64.15625 9.8125 62.3125 
L 9.8125 71.09375 
Q 15.4375 72.65625 20.34375 73.4375 
Q 25.25 74.21875 29.59375 74.21875 
Q 40.828125 74.21875 47.359375 69.109375 
Q 53.90625 64.015625 53.90625 55.328125 
Q 53.90625 49.265625 50.4375 45.09375 
Q 46.96875 40.921875 40.578125 39.3125 
z
" id="DejaVuSans-33"/>
      </defs>
      <g transform="translate(10.8 358.956905)scale(0.1 -0.1)">
       <use xlink:href="#DejaVuSans-33"/>
       <use x="63.623047" xlink:href="#DejaVuSans-32"/>
       <use x="127.246094" xlink:href="#DejaVuSans-30"/>
      </g>
     </g>
    </g>
    <g id="ytick_2">
     <g id="line2d_8">
      <g>
       <use style="stroke:#000000;stroke-width:0.8;" x="36.8875" xlink:href="#mfd48f0fb99" y="281.415678"/>
      </g>
     </g>
     <g id="text_8">
      <!-- 340 -->
      <defs>
       <path d="M 37.796875 64.3125 
L 12.890625 25.390625 
L 37.796875 25.390625 
z
M 35.203125 72.90625 
L 47.609375 72.90625 
L 47.609375 25.390625 
L 58.015625 25.390625 
L 58.015625 17.1875 
L 47.609375 17.1875 
L 47.609375 0 
L 37.796875 0 
L 37.796875 17.1875 
L 4.890625 17.1875 
L 4.890625 26.703125 
z
" id="DejaVuSans-34"/>
      </defs>
      <g transform="translate(10.8 285.214897)scale(0.1 -0.1)">
       <use xlink:href="#DejaVuSans-33"/>
       <use x="63.623047" xlink:href="#DejaVuSans-34"/>
       <use x="127.246094" xlink:href="#DejaVuSans-30"/>
      </g>
     </g>
    </g>
    <g id="ytick_3">
     <g id="line2d_9">
      <g>
       <use style="stroke:#000000;stroke-width:0.8;" x="36.8875" xlink:href="#mfd48f0fb99" y="207.673669"/>
      </g>
     </g>
     <g id="text_9">
      <!-- 360 -->
      <g transform="translate(10.8 211.472888)scale(0.1 -0.1)">
       <use xlink:href="#DejaVuSans-33"/>
       <use x="63.623047" xlink:href="#DejaVuSans-36"/>
       <use x="127.246094" xlink:href="#DejaVuSans-30"/>
      </g>
     </g>
    </g>
    <g id="ytick_4">
     <g id="line2d_10">
      <g>
       <use style="stroke:#000000;stroke-width:0.8;" x="36.8875" xlink:href="#mfd48f0fb99" y="133.931661"/>
      </g>
     </g>
     <g id="text_10">
      <!-- 380 -->
      <g transform="translate(10.8 137.730879)scale(0.1 -0.1)">
       <use xlink:href="#DejaVuSans-33"/>
       <use x="63.623047" xlink:href="#DejaVuSans-38"/>
       <use x="127.246094" xlink:href="#DejaVuSans-30"/>
      </g>
     </g>
    </g>
    <g id="ytick_5">
     <g id="line2d_11">
      <g>
       <use style="stroke:#000000;stroke-width:0.8;" x="36.8875" xlink:href="#mfd48f0fb99" y="60.189652"/>
      </g>
     </g>
     <g id="text_11">
      <!-- 400 -->
      <g transform="translate(10.8 63.988871)scale(0.1 -0.1)">
       <use xlink:href="#DejaVuSans-34"/>
       <use x="63.623047" xlink:href="#DejaVuSans-30"/>
       <use x="127.246094" xlink:href="#DejaVuSans-30"/>
      </g>
     </g>
    </g>
   </g>
   <g id="line2d_12">
    <path clip-path="url(#p88beead3e8)" d="M 63.372372 370.975348 
L 64.137546 364.559793 
L 64.878036 364.375438 
M 66.3837 370.422282 
L 67.148873 373.851286 
L 67.914046 380.22997 
M 69.41971 379.750647 
L 70.160201 374.809932 
L 70.925374 371.307187 
L 71.690547 368.50499 
L 72.381672 367.288247 
L 73.146845 363.564276 
L 73.887335 361.462628 
L 74.652509 361.978823 
L 76.158173 374.330609 
L 76.923346 377.870225 
L 77.663836 380.008744 
L 78.42901 374.330609 
L 79.934673 368.320635 
L 80.699847 366.329601 
L 81.415654 364.08047 
L 82.180828 358.771045 
L 82.921318 355.047074 
L 83.686491 356.669398 
L 84.426982 361.868209 
L 85.192155 370.237927 
L 85.957328 376.690353 
L 86.697819 377.907096 
L 88.203482 369.205539 
L 89.733829 363.638018 
L 91.190127 357.074979 
L 91.930617 353.019168 
L 92.695791 356.00572 
L 93.436281 360.43024 
L 94.966628 374.330609 
L 95.707118 372.192091 
L 96.472292 369.537378 
L 97.977955 362.753114 
L 98.743129 360.467111 
L 99.434253 356.337559 
L 100.199426 352.834813 
L 100.939917 351.433715 
L 101.70509 353.129781 
L 102.445581 356.706269 
L 103.210754 364.744148 
L 103.975927 368.947442 
L 104.716418 372.044607 
L 105.481591 367.361989 
L 106.987255 359.803433 
L 107.752428 358.549819 
L 108.443553 355.673881 
L 109.208726 350.032617 
L 109.949216 346.861711 
L 110.71439 349.737649 
L 112.985227 369.131797 
L 113.725717 369.942959 
L 115.231381 361.388886 
L 115.996554 356.74314 
M 118.983199 346.861711 
L 119.748372 348.189067 
L 120.488863 353.535363 
L 121.254036 359.950917 
L 122.019209 367.325118 
L 122.7597 366.993279 
L 124.265363 359.914046 
L 125.030537 357.222463 
L 125.79571 353.535363 
L 126.486835 351.876167 
L 127.252008 347.304163 
L 127.992498 347.19355 
L 128.757672 348.262809 
L 129.498162 350.032617 
L 130.263335 359.545336 
L 131.028509 363.232437 
L 131.768999 365.112858 
L 132.534173 359.32411 
L 133.274663 357.296205 
L 134.039836 352.871684 
L 135.496134 346.345517 
L 136.261307 340.888608 
L 137.001798 340.372414 
L 137.766971 341.33106 
L 138.507461 346.345517 
L 140.037808 360.172143 
L 140.778299 362.163178 
L 141.543472 355.931978 
L 142.283962 351.175618 
L 143.049136 347.525389 
L 143.814309 345.939936 
L 144.505433 343.948901 
L 145.270607 338.860703 
L 146.011097 336.722185 
L 146.776271 340.077446 
L 149.047108 357.701786 
L 149.787598 357.701786 
L 151.293262 347.93097 
L 152.823609 343.54332 
L 153.539416 340.814866 
L 154.304589 336.648443 
L 155.04508 334.620537 
L 155.810253 335.394828 
L 156.550743 339.893091 
L 157.315917 347.672873 
L 158.08109 353.645976 
L 158.821581 354.235912 
L 159.586754 350.327585 
L 160.327244 344.686321 
L 161.092418 340.409285 
L 161.857591 338.860703 
L 162.548715 334.36244 
L 163.313889 330.601598 
L 164.054379 328.09437 
L 164.819553 330.232888 
L 165.560043 333.477536 
L 166.325216 341.626028 
L 167.09039 346.382388 
L 167.83088 348.594648 
L 168.596053 344.64945 
L 169.336544 340.003704 
L 171.558015 329.827307 
L 172.323188 325.18156 
L 173.063679 325.402786 
L 173.828852 326.914497 
L 174.569342 331.744599 
L 176.099689 343.727675 
L 176.84018 343.506449 
L 177.605353 340.483027 
L 179.111017 332.408277 
L 180.567314 328.684306 
L 181.332488 326.472045 
L 182.072978 322.268751 
L 182.838152 323.559236 
L 183.578642 328.09437 
L 185.108989 342.769029 
L 185.849479 341.994738 
L 187.355143 332.998213 
L 188.88549 327.02511 
L 189.601297 326.582658 
L 190.36647 319.31907 
L 191.106961 318.028585 
L 192.612624 325.476528 
L 193.377798 331.855212 
L 194.142971 336.980282 
L 194.883462 336.500959 
L 195.648635 331.191534 
L 197.919472 319.909007 
L 198.610596 317.180552 
L 199.37577 312.756032 
L 200.11626 309.142673 
L 200.881433 310.654384 
L 201.621924 315.078905 
L 202.387097 320.830782 
L 203.152271 327.467562 
L 203.892761 328.684306 
L 204.657934 325.070947 
L 205.398425 323.301139 
L 206.163598 320.683298 
L 206.928771 315.668841 
L 207.619896 312.829774 
L 208.385069 308.515866 
L 209.12556 306.487961 
L 210.631223 314.341485 
L 212.16157 328.168112 
L 212.90206 328.315596 
L 213.667234 324.554753 
L 215.172898 315.595099 
L 215.938071 312.903516 
L 216.629195 311.281192 
L 217.394369 306.598574 
L 218.134859 303.759507 
L 218.900032 305.566186 
L 219.640523 310.986224 
L 220.405696 318.471037 
L 221.17087 323.817333 
L 221.91136 324.370398 
L 222.676533 320.609556 
M 224.182197 312.424193 
L 224.94737 308.147156 
L 225.663178 305.308089 
L 226.428351 301.178536 
L 227.168842 300.699213 
L 227.934015 303.538281 
L 228.674505 307.004155 
L 229.439679 315.779454 
L 230.204852 322.158138 
L 230.945342 322.895558 
L 232.451006 312.31358 
L 233.21618 308.478995 
L 233.981353 306.746058 
L 234.672477 300.035535 
L 235.437651 295.684757 
L 236.178141 292.735076 
L 236.943314 295.537273 
L 237.683805 300.293632 
L 238.448978 308.847705 
L 239.214152 313.530323 
L 239.954642 313.604065 
L 241.460306 305.013121 
L 242.225479 300.035535 
L 242.990652 298.929405 
L 243.681777 293.730593 
L 244.44695 289.93288 
L 245.18744 288.679266 
L 245.952614 288.753008 
L 246.693104 294.652369 
L 248.223451 309.548254 
L 248.963941 309.40077 
L 250.469605 300.21989 
L 251.234778 295.647886 
L 251.999952 293.61998 
L 252.691076 287.794362 
L 253.45625 285.287133 
L 254.19674 284.328487 
L 254.961913 284.144132 
L 257.23275 303.612023 
L 257.973241 302.837732 
L 258.738414 298.708179 
L 259.478905 293.177528 
L 260.244078 289.158589 
L 261.009251 287.536265 
L 261.725059 281.378807 
L 262.490232 277.986675 
L 263.230722 275.958769 
L 263.995896 276.511834 
L 264.736386 283.627938 
L 266.266733 295.463531 
L 267.007223 295.611015 
L 268.512887 287.610007 
L 269.27806 284.033519 
L 270.734358 275.479446 
L 271.499532 272.087314 
L 272.240022 270.243764 
L 273.005195 272.050443 
L 273.745686 278.53974 
L 274.510859 287.167555 
L 275.276032 292.661334 
L 276.016523 292.182011 
L 277.522187 281.85813 
L 278.28736 277.876062 
L 279.052533 275.036994 
L 280.508831 266.777889 
L 281.249321 264.344403 
L 282.014495 267.441567 
L 282.754985 272.861605 
L 283.520159 281.083839 
L 284.285332 287.757491 
L 285.025822 287.72062 
L 286.531486 278.097288 
L 287.296659 275.221349 
L 288.061833 270.723087 
L 288.752957 269.137634 
L 289.518131 262.058401 
L 290.258621 259.182462 
L 291.023794 260.657303 
L 291.764285 265.966727 
L 293.294631 280.125193 
L 294.035122 280.01458 
L 294.800295 275.553188 
L 295.540786 270.170022 
L 296.305959 266.298566 
L 297.78694 261.062884 
M 299.292603 253.283102 
L 300.057777 255.716588 
L 300.798267 261.026013 
L 302.328614 276.253737 
L 303.069104 275.25822 
L 303.834278 269.985667 
L 304.574768 264.086306 
L 305.339941 262.205885 
L 306.105115 258.703139 
L 306.796239 252.877521 
L 307.561412 250.66526 
L 308.301903 248.010548 
L 309.067076 250.517776 
L 311.337913 269.35886 
L 312.078404 269.875054 
L 313.584067 259.735527 
L 315.114414 254.573587 
L 315.805539 251.882004 
L 316.570712 245.392707 
L 317.311202 243.143576 
L 318.076376 244.802771 
L 319.582039 258.998107 
L 321.087703 264.786855 
L 323.35854 250.001582 
L 324.123714 249.227291 
L 324.814838 245.540191 
L 325.580011 239.714572 
L 326.320502 236.838634 
L 327.085675 238.90341 
L 327.826166 244.139093 
L 328.591339 251.623907 
L 329.356512 257.375783 
L 330.097003 257.117686 
L 331.602666 247.641838 
L 333.133013 238.497829 
L 333.848821 235.658762 
L 334.613994 230.939273 
L 335.354484 229.021981 
L 336.119658 230.82866 
L 336.860148 234.626374 
L 337.625321 243.069834 
L 338.390495 248.526742 
L 339.130985 247.752451 
L 339.896159 243.807254 
L 340.636649 239.345862 
L 341.401822 233.815211 
L 342.166996 232.487855 
L 342.85812 229.943756 
L 343.623293 223.749427 
L 344.363784 222.938265 
L 345.128957 224.744944 
L 345.869448 229.833143 
L 346.634621 237.871022 
L 347.399794 244.360319 
L 348.140285 243.622899 
L 351.176295 225.961688 
L 351.867419 223.417588 
L 352.632593 221.242199 
L 353.373083 217.555099 
L 354.138257 221.168457 
L 354.878747 226.699108 
L 356.409094 239.714572 
L 357.149584 238.571571 
L 358.655248 228.579529 
L 359.420421 226.699108 
L 360.185595 223.417588 
L 361.641892 212.614384 
L 362.382383 210.881447 
L 363.147556 214.568547 
L 363.888046 221.721522 
L 364.65322 230.349337 
L 365.418393 236.248698 
L 366.158884 235.879988 
L 367.664547 225.666719 
L 368.429721 221.500296 
L 369.910701 215.564064 
L 370.675875 211.028931 
L 371.416365 209.185381 
L 372.181539 210.144027 
L 373.687202 226.330398 
L 374.452376 233.630856 
L 375.192866 232.3035 
L 375.958039 228.6164 
L 377.463703 218.734971 
L 378.228877 217.59197 
L 378.920001 213.314933 
L 379.685174 210.365253 
L 380.425665 206.97312 
L 381.190838 209.443478 
L 381.931328 217.518228 
L 383.461675 229.685659 
L 384.202166 229.35382 
L 384.967339 224.59746 
L 386.473003 214.162966 
L 387.238176 211.655738 
L 388.694474 203.138536 
L 389.434964 201.589954 
L 390.200138 204.687118 
L 390.940628 209.959672 
L 392.470975 223.417588 
L 393.211465 222.163974 
L 394.717129 211.434512 
L 396.9386 200.926276 
L 397.703773 195.506238 
L 398.444264 194.068269 
L 399.209437 195.911819 
L 399.949927 201.626825 
L 400.715101 210.918318 
L 401.480274 214.421063 
L 402.220765 215.084741 
L 403.726428 205.166441 
L 404.491602 200.041371 
L 405.972582 192.298461 
L 406.737756 190.82362 
L 407.478246 188.758844 
L 408.24342 189.533135 
L 408.98391 194.584463 
L 409.749083 202.585471 
L 410.514257 209.369736 
L 411.254747 209.222252 
L 412.760411 199.414564 
L 414.290758 192.814655 
L 414.981882 191.044846 
L 415.747055 184.260582 
L 416.487546 183.191322 
L 417.252719 187.062778 
L 417.993209 191.782266 
L 419.523556 206.60441 
L 420.264046 204.650247 
L 421.02922 198.492789 
L 421.76971 191.524169 
L 422.534884 188.279521 
L 423.300057 185.624809 
L 424.756355 175.74338 
L 425.496845 172.941183 
L 426.262018 174.526636 
L 427.002509 178.840544 
L 428.532856 192.851526 
L 429.273346 191.450427 
L 430.038519 187.320875 
L 430.77901 181.384643 
L 431.544183 177.513188 
L 432.309356 174.231668 
L 433.000481 171.982537 
L 433.765654 167.152436 
L 434.506145 167.263049 
L 435.271318 169.696535 
L 436.011808 172.83057 
L 436.776982 182.232676 
L 437.542155 189.938716 
L 438.282645 187.87394 
L 440.553483 173.420506 
L 441.318656 172.498731 
L 442.799637 164.129013 
L 443.540127 164.977046 
L 444.3053 164.534594 
L 445.810964 177.697543 
L 446.576138 181.863966 
L 447.316628 181.753353 
L 448.822292 172.019408 
L 451.808936 158.377137 
L 452.549427 156.607328 
L 453.3146 158.967073 
L 455.585437 177.513188 
L 456.325927 176.517671 
L 457.091101 171.687569 
L 457.831591 166.23066 
L 458.596765 161.474301 
L 459.361938 159.003944 
L 460.818236 152.293421 
L 461.558726 149.564967 
L 462.323899 150.449871 
L 463.06439 156.017392 
L 463.829563 163.981529 
L 464.594737 168.03734 
L 465.335227 168.77476 
L 466.840891 156.828554 
L 467.606064 152.809615 
L 468.371237 150.007419 
L 469.062362 147.020867 
L 469.827535 142.301379 
L 470.568025 139.093601 
L 471.333199 140.273473 
L 472.073689 146.099092 
L 472.838863 154.653165 
L 473.604036 159.114557 
L 474.344526 159.22517 
L 475.85019 148.716933 
L 478.096344 138.061213 
L 478.861518 132.641176 
L 479.602008 131.645658 
L 480.367181 135.074662 
L 481.107672 143.260025 
L 481.872845 148.643191 
L 482.638018 155.132488 
L 483.378509 154.358197 
L 484.143682 148.090126 
L 484.884173 143.112541 
L 485.649346 139.609795 
L 487.870817 125.488201 
L 488.611307 124.898265 
L 489.376481 125.783169 
L 490.116971 131.203206 
L 491.647318 146.099092 
L 492.387808 144.992962 
L 493.152982 140.015376 
L 493.893472 133.52608 
L 494.658645 128.843462 
L 495.423819 125.856911 
L 496.114943 124.087103 
L 496.880117 116.934128 
L 497.620607 115.385545 
L 498.38578 118.998904 
L 499.126271 124.861394 
L 499.891444 132.419949 
L 500.656617 138.171826 
L 501.397108 137.139438 
L 502.162281 133.378596 
L 502.902772 127.221138 
L 504.433118 119.551969 
L 505.124243 117.044741 
L 505.889416 109.965508 
L 506.629906 109.744282 
L 507.39508 111.440348 
L 508.13557 117.339709 
L 508.900744 126.594331 
L 509.665917 130.392044 
L 510.406407 129.802108 
L 511.171581 124.898265 
L 512.677244 113.578866 
L 513.442418 112.472736 
L 514.158225 111.698445 
L 514.923399 107.347667 
L 515.663889 102.443823 
L 516.429062 105.319761 
L 517.169553 110.481702 
L 517.934726 118.85142 
L 518.699899 122.206681 
L 519.44039 122.90723 
L 520.205563 118.48271 
L 521.711227 108.343184 
L 522.4764 106.352149 
L 523.167525 101.411435 
L 523.932698 98.719852 
L 524.673188 96.544462 
L 525.438362 98.977949 
L 526.178852 104.324244 
L 526.944025 111.403477 
L 527.709199 116.454805 
L 528.449689 117.597806 
L 529.955353 106.573375 
L 530.720526 101.817016 
L 531.4857 96.323236 
L 532.176824 92.746749 
L 532.941997 87.990389 
L 533.682488 85.999355 
L 534.447661 89.13339 
L 535.953325 103.144372 
L 536.718498 108.675023 
L 537.458989 107.237054 
L 538.224162 101.9645 
L 538.964652 97.834947 
L 539.729826 92.156813 
L 540.494999 90.20265 
L 541.186124 87.474195 
L 541.951297 85.07758 
L 542.691787 81.611706 
L 543.456961 83.307772 
L 544.197451 87.806034 
L 544.962624 96.581333 
L 545.727798 100.452789 
L 546.468288 100.747757 
L 547.233462 96.028268 
L 547.973952 90.20265 
L 548.739125 85.556903 
L 549.504299 82.828449 
L 550.220106 80.837414 
L 550.985279 74.274376 
L 551.72577 72.209599 
L 552.490943 76.007313 
L 553.231434 80.984898 
L 553.996607 88.248486 
L 554.76178 92.967975 
L 555.502271 93.189201 
L 556.267444 86.073097 
L 557.773108 76.597249 
L 558.538281 71.988373 
L 559.229406 69.6655 
L 559.994579 66.052142 
L 560.735069 61.000814 
L 562.240733 70.071081 
L 563.005906 77.887734 
L 563.77108 84.34016 
L 564.51157 83.418385 
L 565.276744 78.035218 
L 566.017234 71.840889 
L 566.782407 68.116918 
L 567.547581 67.526982 
L 568.238705 61.037685 
L 569.003878 55.101453 
L 569.744369 53.626613 
L 570.509542 55.580776 
L 572.015206 71.14034 
L 572.780379 77.224056 
L 573.52087 74.827441 
L 574.286043 70.218565 
L 575.026533 64.208591 
L 575.791707 60.263394 
L 576.55688 59.157264 
L 577.248004 54.511517 
L 578.013178 48.095963 
L 578.753668 45.588734 
L 579.518842 49.865771 
L 580.259332 55.35955 
L 581.024505 64.134849 
L 581.789679 68.92808 
L 582.530169 66.494594 
L 584.035833 53.368516 
L 584.801006 50.750675 
L 585.56618 44.998798 
L 586.281987 42.233473 
L 587.04716 32.720754 
L 587.787651 31.725237 
L 588.552824 35.006756 
L 590.058488 51.819934 
L 590.823661 56.318197 
L 591.564152 54.327162 
L 592.329325 47.100445 
L 593.069815 43.782055 
L 593.069815 43.782055 
" style="fill:none;stroke:#0000ff;stroke-linecap:square;stroke-width:1.5;"/>
   </g>
   <g id="patch_3">
    <path d="M 36.8875 397.655206 
L 36.8875 14.3 
" style="fill:none;stroke:#000000;stroke-linecap:square;stroke-linejoin:miter;stroke-width:0.8;"/>
   </g>
   <g id="patch_4">
    <path d="M 619.554687 397.655206 
L 619.554687 14.3 
" style="fill:none;stroke:#000000;stroke-linecap:square;stroke-linejoin:miter;stroke-width:0.8;"/>
   </g>
   <g id="patch_5">
    <path d="M 36.8875 397.655206 
L 619.554688 397.655206 
" style="fill:none;stroke:#000000;stroke-linecap:square;stroke-linejoin:miter;stroke-width:0.8;"/>
   </g>
   <g id="patch_6">
    <path d="M 36.8875 14.3 
L 619.554688 14.3 
" style="fill:none;stroke:#000000;stroke-linecap:square;stroke-linejoin:miter;stroke-width:0.8;"/>
   </g>
  </g>
  <g id="axes_2">
   <g id="matplotlib.axis_3">
    <g id="ytick_6">
     <g id="line2d_13">
      <defs>
       <path d="M 0 0 
L 3.5 0 
" id="ma95bc2c8bb" style="stroke:#000000;stroke-width:0.8;"/>
      </defs>
      <g>
       <use style="stroke:#000000;stroke-width:0.8;" x="619.554687" xlink:href="#ma95bc2c8bb" y="357.811537"/>
      </g>
     </g>
     <g id="text_12">
      <!-- −0.25 -->
      <defs>
       <path d="M 10.59375 35.5 
L 73.1875 35.5 
L 73.1875 27.203125 
L 10.59375 27.203125 
z
" id="DejaVuSans-2212"/>
       <path d="M 10.6875 12.40625 
L 21 12.40625 
L 21 0 
L 10.6875 0 
z
" id="DejaVuSans-2e"/>
       <path d="M 10.796875 72.90625 
L 49.515625 72.90625 
L 49.515625 64.59375 
L 19.828125 64.59375 
L 19.828125 46.734375 
Q 21.96875 47.46875 24.109375 47.828125 
Q 26.265625 48.1875 28.421875 48.1875 
Q 40.625 48.1875 47.75 41.5 
Q 54.890625 34.8125 54.890625 23.390625 
Q 54.890625 11.625 47.5625 5.09375 
Q 40.234375 -1.421875 26.90625 -1.421875 
Q 22.3125 -1.421875 17.546875 -0.640625 
Q 12.796875 0.140625 7.71875 1.703125 
L 7.71875 11.625 
Q 12.109375 9.234375 16.796875 8.0625 
Q 21.484375 6.890625 26.703125 6.890625 
Q 35.15625 6.890625 40.078125 11.328125 
Q 45.015625 15.765625 45.015625 23.390625 
Q 45.015625 31 40.078125 35.4375 
Q 35.15625 39.890625 26.703125 39.890625 
Q 22.75 39.890625 18.8125 39.015625 
Q 14.890625 38.140625 10.796875 36.28125 
z
" id="DejaVuSans-35"/>
      </defs>
      <g transform="translate(626.554687 361.610755)scale(0.1 -0.1)">
       <use xlink:href="#DejaVuSans-2212"/>
       <use x="83.789062" xlink:href="#DejaVuSans-30"/>
       <use x="147.412109" xlink:href="#DejaVuSans-2e"/>
       <use x="179.199219" xlink:href="#DejaVuSans-32"/>
       <use x="242.822266" xlink:href="#DejaVuSans-35"/>
      </g>
     </g>
    </g>
    <g id="ytick_7">
     <g id="line2d_14">
      <g>
       <use style="stroke:#000000;stroke-width:0.8;" x="619.554687" xlink:href="#ma95bc2c8bb" y="306.860552"/>
      </g>
     </g>
     <g id="text_13">
      <!-- 0.00 -->
      <g transform="translate(626.554687 310.659771)scale(0.1 -0.1)">
       <use xlink:href="#DejaVuSans-30"/>
       <use x="63.623047" xlink:href="#DejaVuSans-2e"/>
       <use x="95.410156" xlink:href="#DejaVuSans-30"/>
       <use x="159.033203" xlink:href="#DejaVuSans-30"/>
      </g>
     </g>
    </g>
    <g id="ytick_8">
     <g id="line2d_15">
      <g>
       <use style="stroke:#000000;stroke-width:0.8;" x="619.554687" xlink:href="#ma95bc2c8bb" y="255.909568"/>
      </g>
     </g>
     <g id="text_14">
      <!-- 0.25 -->
      <g transform="translate(626.554687 259.708787)scale(0.1 -0.1)">
       <use xlink:href="#DejaVuSans-30"/>
       <use x="63.623047" xlink:href="#DejaVuSans-2e"/>
       <use x="95.410156" xlink:href="#DejaVuSans-32"/>
       <use x="159.033203" xlink:href="#DejaVuSans-35"/>
      </g>
     </g>
    </g>
    <g id="ytick_9">
     <g id="line2d_16">
      <g>
       <use style="stroke:#000000;stroke-width:0.8;" x="619.554687" xlink:href="#ma95bc2c8bb" y="204.958583"/>
      </g>
     </g>
     <g id="text_15">
      <!-- 0.50 -->
      <g transform="translate(626.554687 208.757802)scale(0.1 -0.1)">
       <use xlink:href="#DejaVuSans-30"/>
       <use x="63.623047" xlink:href="#DejaVuSans-2e"/>
       <use x="95.410156" xlink:href="#DejaVuSans-35"/>
       <use x="159.033203" xlink:href="#DejaVuSans-30"/>
      </g>
     </g>
    </g>
    <g id="ytick_10">
     <g id="line2d_17">
      <g>
       <use style="stroke:#000000;stroke-width:0.8;" x="619.554687" xlink:href="#ma95bc2c8bb" y="154.007599"/>
      </g>
     </g>
     <g id="text_16">
      <!-- 0.75 -->
      <g transform="translate(626.554687 157.806818)scale(0.1 -0.1)">
       <use xlink:href="#DejaVuSans-30"/>
       <use x="63.623047" xlink:href="#DejaVuSans-2e"/>
       <use x="95.410156" xlink:href="#DejaVuSans-37"/>
       <use x="159.033203" xlink:href="#DejaVuSans-35"/>
      </g>
     </g>
    </g>
    <g id="ytick_11">
     <g id="line2d_18">
      <g>
       <use style="stroke:#000000;stroke-width:0.8;" x="619.554687" xlink:href="#ma95bc2c8bb" y="103.056615"/>
      </g>
     </g>
     <g id="text_17">
      <!-- 1.00 -->
      <g transform="translate(626.554687 106.855833)scale(0.1 -0.1)">
       <use xlink:href="#DejaVuSans-31"/>
       <use x="63.623047" xlink:href="#DejaVuSans-2e"/>
       <use x="95.410156" xlink:href="#DejaVuSans-30"/>
       <use x="159.033203" xlink:href="#DejaVuSans-30"/>
      </g>
     </g>
    </g>
    <g id="ytick_12">
     <g id="line2d_19">
      <g>
       <use style="stroke:#000000;stroke-width:0.8;" x="619.554687" xlink:href="#ma95bc2c8bb" y="52.10563"/>
      </g>
     </g>
     <g id="text_18">
      <!-- 1.25 -->
      <g transform="translate(626.554687 55.904849)scale(0.1 -0.1)">
       <use xlink:href="#DejaVuSans-31"/>
       <use x="63.623047" xlink:href="#DejaVuSans-2e"/>
       <use x="95.410156" xlink:href="#DejaVuSans-32"/>
       <use x="159.033203" xlink:href="#DejaVuSans-35"/>
      </g>
     </g>
    </g>
   </g>
   <g id="line2d_20">
    <path clip-path="url(#p88beead3e8)" d="M 63.372372 286.480158 
L 64.137546 304.822513 
L 64.878036 290.556237 
L 65.643209 317.050749 
L 66.3837 294.632316 
L 67.148873 319.088788 
L 67.914046 312.97467 
L 68.654537 298.708395 
L 69.41971 302.784473 
L 70.160201 304.822513 
L 70.925374 294.632316 
L 71.690547 288.518198 
L 72.381672 268.137804 
L 73.146845 274.251922 
L 73.887335 294.632316 
L 74.652509 302.784473 
L 75.392999 294.632316 
L 76.158173 308.898592 
L 76.923346 319.088788 
L 77.663836 325.202907 
L 78.42901 325.202907 
L 79.1695 312.97467 
L 79.934673 308.898592 
L 80.699847 278.328001 
L 81.415654 380.22997 
L 82.180828 339.469182 
L 83.686491 304.822513 
L 84.426982 310.936631 
L 85.192155 308.898592 
L 85.957328 296.670355 
L 86.697819 292.594277 
L 87.462992 329.278985 
L 88.203482 270.175843 
L 88.968656 292.594277 
L 89.733829 270.175843 
L 90.424954 288.518198 
L 91.190127 276.289962 
L 91.930617 280.36604 
L 92.695791 282.40408 
L 93.436281 312.97467 
L 94.201454 302.784473 
L 94.966628 296.670355 
L 95.707118 306.860552 
L 96.472292 300.746434 
L 97.212782 337.431143 
L 97.977955 290.556237 
L 98.743129 278.328001 
L 99.434253 282.40408 
L 100.199426 296.670355 
L 100.939917 319.088788 
L 101.70509 294.632316 
L 102.445581 310.936631 
L 103.210754 310.936631 
L 103.975927 308.898592 
L 104.716418 312.97467 
L 105.481591 294.632316 
L 106.222081 308.898592 
L 106.987255 312.97467 
L 107.752428 268.137804 
L 108.443553 333.355064 
L 109.208726 317.050749 
L 109.949216 325.202907 
L 110.71439 300.746434 
L 111.45488 290.556237 
L 112.220053 255.909568 
L 113.725717 276.289962 
L 114.490891 276.289962 
L 115.231381 306.860552 
L 116.761728 331.317025 
L 117.477535 351.697418 
L 118.242708 368.001733 
L 118.983199 357.811537 
L 119.748372 321.126828 
L 120.488863 321.126828 
L 121.254036 347.62134 
L 122.019209 363.925655 
L 122.7597 368.001733 
L 123.524873 349.659379 
L 124.265363 368.001733 
L 125.030537 325.202907 
L 125.79571 341.507222 
L 126.486835 329.278985 
L 127.252008 347.62134 
L 128.757672 323.164867 
L 129.498162 331.317025 
L 130.263335 308.898592 
L 131.028509 337.431143 
L 131.768999 315.01271 
L 132.534173 319.088788 
L 133.274663 317.050749 
L 134.039836 339.469182 
L 134.80501 306.860552 
L 135.496134 298.708395 
L 136.261307 333.355064 
L 137.001798 327.240946 
L 137.766971 302.784473 
L 138.507461 288.518198 
L 139.272635 327.240946 
L 140.037808 308.898592 
L 140.778299 337.431143 
L 141.543472 310.936631 
L 142.283962 319.088788 
L 143.049136 319.088788 
L 143.814309 347.62134 
L 144.505433 300.746434 
L 145.270607 317.050749 
L 146.011097 278.328001 
L 146.776271 323.164867 
L 147.516761 304.822513 
L 148.281934 302.784473 
L 149.047108 315.01271 
L 149.787598 294.632316 
L 150.552771 319.088788 
L 151.293262 310.936631 
L 152.058435 353.735458 
L 152.823609 337.431143 
L 153.539416 264.061725 
L 154.304589 317.050749 
L 155.04508 327.240946 
L 155.810253 319.088788 
L 156.550743 329.278985 
L 157.315917 329.278985 
L 158.08109 343.545261 
L 158.821581 282.40408 
L 159.586754 315.01271 
L 160.327244 335.393103 
L 161.092418 329.278985 
L 161.857591 335.393103 
L 162.548715 306.860552 
L 163.313889 268.137804 
L 164.054379 266.099765 
L 164.819553 296.670355 
L 165.560043 308.898592 
L 166.325216 300.746434 
L 167.09039 286.480158 
L 168.596053 282.40408 
L 169.336544 251.833489 
L 170.101717 288.518198 
L 170.866891 262.023686 
L 171.558015 290.556237 
L 172.323188 288.518198 
L 173.063679 317.050749 
L 173.828852 312.97467 
L 174.569342 315.01271 
L 175.334516 329.278985 
L 176.099689 284.442119 
L 176.84018 296.670355 
L 177.605353 304.822513 
L 178.345843 333.355064 
L 179.111017 310.936631 
L 179.87619 347.62134 
L 180.567314 343.545261 
L 181.332488 325.202907 
L 182.072978 319.088788 
L 182.838152 343.545261 
L 183.578642 331.317025 
L 184.343815 312.97467 
L 185.108989 308.898592 
L 185.849479 317.050749 
L 186.614652 315.01271 
L 187.355143 323.164867 
L 188.120316 355.773497 
L 188.88549 341.507222 
L 189.601297 302.784473 
L 190.36647 308.898592 
L 191.106961 312.97467 
L 191.872134 298.708395 
L 192.612624 302.784473 
L 193.377798 270.175843 
L 194.142971 300.746434 
L 194.883462 288.518198 
L 195.648635 300.746434 
L 196.389125 270.175843 
L 197.154299 249.79545 
L 197.919472 245.719371 
L 198.610596 253.871528 
L 199.37577 255.909568 
L 200.11626 253.871528 
L 200.881433 274.251922 
L 202.387097 302.784473 
L 203.152271 294.632316 
L 203.892761 282.40408 
L 204.657934 294.632316 
L 205.398425 319.088788 
L 206.163598 335.393103 
L 206.928771 363.925655 
L 207.619896 317.050749 
L 208.385069 327.240946 
L 209.12556 308.898592 
L 209.890733 317.050749 
L 210.631223 312.97467 
L 211.396397 282.40408 
L 212.16157 331.317025 
L 212.90206 321.126828 
L 213.667234 321.126828 
L 214.407724 325.202907 
L 215.172898 292.594277 
L 215.938071 292.594277 
L 216.629195 278.328001 
L 217.394369 294.632316 
L 218.134859 274.251922 
L 218.900032 310.936631 
L 219.640523 312.97467 
L 220.405696 347.62134 
L 221.17087 312.97467 
L 222.676533 339.469182 
L 223.417024 341.507222 
L 224.182197 306.860552 
L 224.94737 319.088788 
L 225.663178 349.659379 
L 226.428351 327.240946 
L 227.168842 353.735458 
L 227.934015 337.431143 
L 228.674505 331.317025 
L 229.439679 343.545261 
L 230.204852 325.202907 
L 230.945342 359.849576 
L 231.710516 319.088788 
L 232.451006 288.518198 
L 233.21618 270.175843 
L 233.981353 266.099765 
L 234.672477 255.909568 
L 235.437651 251.833489 
L 236.178141 245.719371 
L 236.943314 255.909568 
L 237.683805 259.985647 
L 238.448978 268.137804 
L 239.214152 302.784473 
L 239.954642 298.708395 
L 240.719815 266.099765 
L 241.460306 296.670355 
L 242.225479 290.556237 
L 242.990652 278.328001 
L 243.681777 264.061725 
L 244.44695 276.289962 
L 245.18744 292.594277 
L 245.952614 312.97467 
L 246.693104 292.594277 
L 247.458278 343.545261 
L 248.223451 296.670355 
L 248.963941 306.860552 
L 249.729115 274.251922 
L 250.469605 284.442119 
L 251.234778 278.328001 
L 251.999952 325.202907 
L 252.691076 268.137804 
L 253.45625 280.36604 
L 254.19674 294.632316 
L 254.961913 278.328001 
L 255.702404 300.746434 
L 256.467577 278.328001 
L 257.23275 251.833489 
L 257.973241 253.871528 
L 258.738414 247.75741 
L 259.478905 211.072702 
L 260.244078 245.719371 
L 261.009251 221.262898 
L 261.725059 247.75741 
L 262.490232 241.643292 
L 263.230722 237.567213 
L 263.995896 274.251922 
L 264.736386 249.79545 
L 265.50156 257.947607 
L 266.266733 264.061725 
L 267.007223 266.099765 
L 267.772397 245.719371 
L 268.512887 264.061725 
L 269.27806 192.730347 
L 270.043234 223.300938 
L 270.734358 209.034662 
L 271.499532 241.643292 
L 272.240022 255.909568 
L 273.005195 243.681332 
L 273.745686 235.529174 
L 274.510859 235.529174 
L 275.276032 272.213883 
L 276.016523 280.36604 
L 276.781696 264.061725 
L 277.522187 225.338977 
L 278.28736 288.518198 
L 279.052533 278.328001 
L 279.743658 308.898592 
L 280.508831 286.480158 
L 281.249321 274.251922 
L 282.014495 296.670355 
L 282.754985 280.36604 
L 283.520159 290.556237 
L 284.285332 276.289962 
L 285.025822 280.36604 
L 285.790996 278.328001 
L 286.531486 219.224859 
L 287.296659 200.882505 
L 288.061833 225.338977 
L 288.752957 221.262898 
L 289.518131 245.719371 
L 290.258621 235.529174 
L 291.023794 270.175843 
L 291.764285 276.289962 
L 292.529458 245.719371 
L 293.294631 229.415056 
L 294.035122 276.289962 
L 294.800295 245.719371 
L 295.540786 272.213883 
L 296.305959 245.719371 
L 297.071132 272.213883 
L 297.78694 247.75741 
L 298.552113 290.556237 
L 299.292603 239.605253 
L 300.057777 298.708395 
L 300.798267 274.251922 
L 301.563441 276.289962 
L 302.328614 266.099765 
L 303.069104 276.289962 
L 304.574768 319.088788 
L 305.339941 264.061725 
L 306.105115 319.088788 
L 306.796239 272.213883 
L 307.561412 284.442119 
L 308.301903 272.213883 
L 309.067076 272.213883 
L 309.807567 306.860552 
L 310.57274 276.289962 
L 311.337913 278.328001 
L 312.078404 284.442119 
L 312.843577 288.518198 
L 313.584067 276.289962 
L 314.349241 245.719371 
L 315.114414 227.377017 
L 315.805539 247.75741 
L 316.570712 253.871528 
L 317.311202 253.871528 
L 318.076376 282.40408 
L 318.816866 280.36604 
L 319.582039 282.40408 
L 320.347213 302.784473 
L 321.087703 278.328001 
L 321.852877 284.442119 
L 322.593367 274.251922 
L 323.35854 233.491135 
L 324.123714 213.110741 
L 324.814838 272.213883 
L 325.580011 257.947607 
L 326.320502 253.871528 
L 327.826166 213.110741 
L 328.591339 249.79545 
L 329.356512 227.377017 
L 330.862176 255.909568 
L 331.602666 211.072702 
L 332.36784 190.692308 
L 333.133013 221.262898 
L 333.848821 206.996623 
L 334.613994 215.14878 
L 335.354484 217.18682 
L 336.119658 221.262898 
L 336.860148 235.529174 
L 337.625321 213.110741 
L 338.390495 221.262898 
L 339.130985 225.338977 
L 339.896159 280.36604 
L 340.636649 237.567213 
L 341.401822 274.251922 
L 342.166996 235.529174 
L 342.85812 233.491135 
L 343.623293 239.605253 
L 344.363784 272.213883 
L 345.128957 276.289962 
L 345.869448 237.567213 
L 346.634621 233.491135 
L 347.399794 231.453095 
L 348.140285 241.643292 
L 348.905458 264.061725 
L 349.645948 231.453095 
L 350.411122 223.300938 
L 351.176295 223.300938 
L 351.867419 151.96956 
L 352.632593 194.768387 
L 354.138257 229.415056 
L 354.878747 217.18682 
L 355.64392 245.719371 
L 356.409094 245.719371 
L 357.149584 219.224859 
L 357.914758 213.110741 
L 358.655248 221.262898 
L 359.420421 221.262898 
L 360.185595 202.920544 
L 360.876719 233.491135 
L 361.641892 198.844465 
L 362.382383 227.377017 
L 363.147556 196.806426 
L 363.888046 202.920544 
L 364.65322 221.262898 
L 365.418393 204.958583 
L 366.158884 241.643292 
L 366.924057 243.681332 
L 367.664547 239.605253 
L 368.429721 215.14878 
L 369.194894 221.262898 
L 369.910701 211.072702 
L 370.675875 257.947607 
L 371.416365 241.643292 
L 372.181539 257.947607 
L 372.922029 280.36604 
L 373.687202 286.480158 
L 374.452376 304.822513 
L 375.192866 284.442119 
L 375.958039 298.708395 
L 376.69853 262.023686 
L 377.463703 231.453095 
L 378.228877 227.377017 
L 378.920001 233.491135 
L 379.685174 249.79545 
L 381.190838 257.947607 
L 381.931328 249.79545 
L 382.696502 280.36604 
L 383.461675 284.442119 
L 384.202166 257.947607 
L 384.967339 292.594277 
L 386.473003 245.719371 
L 387.238176 298.708395 
L 387.9293 253.871528 
L 388.694474 223.300938 
L 389.434964 247.75741 
L 390.200138 221.262898 
L 391.705801 259.985647 
L 393.211465 221.262898 
L 393.976638 213.110741 
L 394.717129 233.491135 
L 395.482302 204.958583 
L 396.247476 149.93152 
L 396.9386 215.14878 
L 397.703773 211.072702 
L 398.444264 247.75741 
L 399.209437 215.14878 
L 399.949927 206.996623 
L 400.715101 209.034662 
L 401.480274 237.567213 
L 402.220765 206.996623 
L 402.985938 215.14878 
L 403.726428 245.719371 
L 404.491602 251.833489 
L 405.256775 204.958583 
L 405.972582 237.567213 
L 406.737756 229.415056 
L 407.478246 245.719371 
L 408.24342 251.833489 
L 408.98391 231.453095 
L 409.749083 206.996623 
L 410.514257 251.833489 
L 411.254747 266.099765 
L 412.01992 221.262898 
L 412.760411 223.300938 
L 413.525584 239.605253 
L 414.290758 231.453095 
L 414.981882 200.882505 
L 415.747055 229.415056 
L 416.487546 227.377017 
L 417.252719 194.768387 
L 417.993209 235.529174 
L 418.758383 219.224859 
L 419.523556 192.730347 
L 420.264046 176.426032 
L 421.02922 172.349953 
L 421.76971 184.57819 
L 422.534884 182.54015 
L 423.300057 123.437008 
L 423.991181 178.464072 
L 424.756355 176.426032 
L 426.262018 147.893481 
L 427.002509 162.159757 
L 427.767682 168.273875 
L 428.532856 215.14878 
L 429.273346 211.072702 
L 430.038519 204.958583 
L 430.77901 192.730347 
L 431.544183 209.034662 
L 432.309356 172.349953 
L 433.000481 237.567213 
L 433.765654 237.567213 
L 434.506145 239.605253 
L 436.011808 223.300938 
L 436.776982 237.567213 
L 437.542155 219.224859 
L 438.282645 219.224859 
L 439.047819 221.262898 
L 439.788309 213.110741 
L 440.553483 253.871528 
L 441.318656 188.654268 
L 442.034463 184.57819 
L 442.799637 186.616229 
L 443.540127 225.338977 
L 444.3053 217.18682 
L 445.045791 221.262898 
L 445.810964 219.224859 
L 446.576138 221.262898 
L 447.316628 245.719371 
L 448.081801 237.567213 
L 448.822292 245.719371 
L 449.587465 217.18682 
L 450.352638 213.110741 
L 451.043763 188.654268 
L 451.808936 200.882505 
L 452.549427 186.616229 
L 453.3146 194.768387 
L 454.05509 182.54015 
L 454.820264 206.996623 
L 455.585437 192.730347 
L 456.325927 200.882505 
L 457.091101 164.197796 
L 457.831591 194.768387 
L 458.596765 154.007599 
L 459.361938 151.96956 
L 460.053062 121.398969 
L 460.818236 188.654268 
L 461.558726 174.387993 
L 462.323899 196.806426 
L 463.06439 180.502111 
L 463.829563 194.768387 
L 464.594737 174.387993 
L 465.335227 190.692308 
L 466.1004 186.616229 
L 466.840891 219.224859 
L 467.606064 158.083678 
L 468.371237 194.768387 
L 469.062362 190.692308 
L 469.827535 194.768387 
L 470.568025 180.502111 
L 471.333199 206.996623 
L 472.073689 194.768387 
L 472.838863 172.349953 
L 473.604036 172.349953 
L 474.344526 154.007599 
L 475.1097 194.768387 
L 475.85019 154.007599 
L 476.615363 186.616229 
L 477.380537 162.159757 
L 478.096344 176.426032 
L 478.861518 180.502111 
L 479.602008 221.262898 
L 480.367181 219.224859 
L 481.107672 253.871528 
L 481.872845 215.14878 
L 482.638018 198.844465 
L 483.378509 172.349953 
L 484.143682 160.121717 
L 484.884173 200.882505 
L 485.649346 160.121717 
L 486.414519 188.654268 
L 487.105644 166.235835 
L 487.870817 166.235835 
L 488.611307 174.387993 
L 489.376481 170.311914 
L 490.116971 172.349953 
L 490.882145 178.464072 
L 491.647318 147.893481 
L 492.387808 143.817402 
L 493.152982 151.96956 
L 493.893472 168.273875 
L 494.658645 190.692308 
L 495.423819 164.197796 
L 496.114943 178.464072 
L 496.880117 204.958583 
L 497.620607 211.072702 
L 498.38578 176.426032 
L 499.126271 196.806426 
L 499.891444 160.121717 
L 500.656617 176.426032 
L 501.397108 166.235835 
L 502.162281 160.121717 
L 502.902772 149.93152 
L 503.667945 111.208772 
L 504.433118 164.197796 
L 505.124243 164.197796 
L 505.889416 151.96956 
L 507.39508 188.654268 
L 508.13557 180.502111 
L 508.900744 184.57819 
L 509.665917 176.426032 
L 510.406407 184.57819 
L 511.171581 190.692308 
L 511.912071 204.958583 
L 512.677244 257.947607 
L 513.442418 233.491135 
L 514.158225 158.083678 
L 514.923399 198.844465 
L 515.663889 202.920544 
L 516.429062 209.034662 
L 517.169553 184.57819 
L 517.934726 217.18682 
L 518.699899 174.387993 
L 519.44039 170.311914 
L 520.205563 172.349953 
L 520.946054 196.806426 
L 521.711227 180.502111 
L 522.4764 198.844465 
L 523.167525 198.844465 
L 523.932698 182.54015 
L 524.673188 174.387993 
L 525.438362 174.387993 
L 526.178852 160.121717 
L 526.944025 172.349953 
L 527.709199 164.197796 
L 528.449689 176.426032 
L 529.214863 149.93152 
L 529.955353 174.387993 
L 530.720526 158.083678 
L 531.4857 147.893481 
L 532.176824 119.36093 
L 532.941997 129.551127 
L 534.447661 176.426032 
L 535.188152 180.502111 
L 535.953325 174.387993 
L 536.718498 182.54015 
L 537.458989 162.159757 
L 538.224162 145.855442 
L 538.964652 206.996623 
L 540.494999 198.844465 
L 541.186124 176.426032 
L 541.951297 174.387993 
L 542.691787 198.844465 
L 543.456961 186.616229 
L 544.197451 158.083678 
L 544.962624 158.083678 
L 545.727798 192.730347 
L 546.468288 172.349953 
L 547.233462 192.730347 
L 547.973952 196.806426 
L 548.739125 213.110741 
L 549.504299 206.996623 
L 551.72577 151.96956 
L 552.490943 180.502111 
L 553.231434 190.692308 
L 553.996607 178.464072 
L 554.76178 151.96956 
L 555.502271 147.893481 
L 556.267444 154.007599 
L 557.007934 198.844465 
L 557.773108 168.273875 
L 558.538281 194.768387 
L 559.229406 172.349953 
L 559.994579 200.882505 
L 560.735069 182.54015 
L 561.500243 174.387993 
L 562.240733 186.616229 
L 563.005906 172.349953 
L 563.77108 147.893481 
L 564.51157 166.235835 
L 565.276744 141.779363 
L 566.017234 170.311914 
L 566.782407 158.083678 
L 567.547581 202.920544 
L 568.238705 149.93152 
L 569.003878 147.893481 
L 569.744369 129.551127 
L 570.509542 172.349953 
L 571.250032 190.692308 
L 572.015206 139.741323 
L 572.780379 123.437008 
L 573.52087 133.627205 
L 574.286043 170.311914 
L 575.026533 145.855442 
L 575.791707 141.779363 
L 577.248004 123.437008 
L 578.013178 156.045638 
L 578.753668 147.893481 
L 579.518842 147.893481 
L 580.259332 162.159757 
L 581.024505 147.893481 
L 581.789679 141.779363 
L 582.530169 90.828379 
L 583.295342 94.904457 
L 584.035833 80.638182 
L 584.801006 68.409945 
L 585.56618 31.725237 
L 586.281987 41.915434 
L 587.04716 84.71426 
L 588.552824 151.96956 
L 589.293314 137.703284 
L 590.058488 107.132693 
L 590.823661 129.551127 
L 591.564152 125.475048 
L 592.329325 117.32289 
L 593.069815 141.779363 
L 593.069815 141.779363 
" style="fill:none;stroke:#ff0000;stroke-linecap:square;stroke-width:1.5;"/>
   </g>
   <g id="patch_7">
    <path d="M 36.8875 397.655206 
L 36.8875 14.3 
" style="fill:none;stroke:#000000;stroke-linecap:square;stroke-linejoin:miter;stroke-width:0.8;"/>
   </g>
   <g id="patch_8">
    <path d="M 619.554687 397.655206 
L 619.554687 14.3 
" style="fill:none;stroke:#000000;stroke-linecap:square;stroke-linejoin:miter;stroke-width:0.8;"/>
   </g>
   <g id="patch_9">
    <path d="M 36.8875 397.655206 
L 619.554688 397.655206 
" style="fill:none;stroke:#000000;stroke-linecap:square;stroke-linejoin:miter;stroke-width:0.8;"/>
   </g>
   <g id="patch_10">
    <path d="M 36.8875 14.3 
L 619.554688 14.3 
" style="fill:none;stroke:#000000;stroke-linecap:square;stroke-linejoin:miter;stroke-width:0.8;"/>
   </g>
  </g>
 </g>
 <defs>
  <clipPath id="p88beead3e8">
   <rect height="383.355206" width="582.667187" x="36.8875" y="14.3"/>
  </clipPath>
 </defs>
</svg>
