<?xml version="1.0" encoding="utf-8" standalone="no"?>
<!DOCTYPE svg PUBLIC "-//W3C//DTD SVG 1.1//EN"
  "http://www.w3.org/Graphics/SVG/1.1/DTD/svg11.dtd">
<!-- Created with matplotlib (https://matplotlib.org/) -->
<svg height="411pt" version="1.1" viewBox="0 0 577 411" width="577pt" xmlns="http://www.w3.org/2000/svg" xmlns:xlink="http://www.w3.org/1999/xlink">
 <defs>
  <style type="text/css">
*{stroke-linecap:butt;stroke-linejoin:round;}
  </style>
 </defs>
 <g id="figure_1">
  <g id="patch_1">
   <path d="M 0 411 
L 577 411 
L 577 0 
L 0 0 
z
" style="fill:#ffffff;"/>
  </g>
  <g id="axes_1">
   <g id="patch_2">
    <path d="M 47.38125 369.84375 
L 562.7 369.84375 
L 562.7 14.3 
L 47.38125 14.3 
z
" style="fill:#ffffff;"/>
   </g>
   <g id="matplotlib.axis_1">
    <g id="xtick_1">
     <g id="line2d_1">
      <defs>
       <path d="M 0 0 
L 0 3.5 
" id="mdeb2872eea" style="stroke:#000000;stroke-width:0.8;"/>
      </defs>
      <g>
       <use style="stroke:#000000;stroke-width:0.8;" x="70.129703" xlink:href="#mdeb2872eea" y="369.84375"/>
      </g>
     </g>
     <g id="text_1">
      <!-- 0 -->
      <defs>
       <path d="M 31.78125 66.40625 
Q 24.171875 66.40625 20.328125 58.90625 
Q 16.5 51.421875 16.5 36.375 
Q 16.5 21.390625 20.328125 13.890625 
Q 24.171875 6.390625 31.78125 6.390625 
Q 39.453125 6.390625 43.28125 13.890625 
Q 47.125 21.390625 47.125 36.375 
Q 47.125 51.421875 43.28125 58.90625 
Q 39.453125 66.40625 31.78125 66.40625 
z
M 31.78125 74.21875 
Q 44.046875 74.21875 50.515625 64.515625 
Q 56.984375 54.828125 56.984375 36.375 
Q 56.984375 17.96875 50.515625 8.265625 
Q 44.046875 -1.421875 31.78125 -1.421875 
Q 19.53125 -1.421875 13.0625 8.265625 
Q 6.59375 17.96875 6.59375 36.375 
Q 6.59375 54.828125 13.0625 64.515625 
Q 19.53125 74.21875 31.78125 74.21875 
z
" id="DejaVuSans-48"/>
      </defs>
      <g transform="translate(66.948453 384.442187)scale(0.1 -0.1)">
       <use xlink:href="#DejaVuSans-48"/>
      </g>
     </g>
    </g>
    <g id="xtick_2">
     <g id="line2d_2">
      <g>
       <use style="stroke:#000000;stroke-width:0.8;" x="127.832842" xlink:href="#mdeb2872eea" y="369.84375"/>
      </g>
     </g>
     <g id="text_2">
      <!-- 20000 -->
      <defs>
       <path d="M 19.1875 8.296875 
L 53.609375 8.296875 
L 53.609375 0 
L 7.328125 0 
L 7.328125 8.296875 
Q 12.9375 14.109375 22.625 23.890625 
Q 32.328125 33.6875 34.8125 36.53125 
Q 39.546875 41.84375 41.421875 45.53125 
Q 43.3125 49.21875 43.3125 52.78125 
Q 43.3125 58.59375 39.234375 62.25 
Q 35.15625 65.921875 28.609375 65.921875 
Q 23.96875 65.921875 18.8125 64.3125 
Q 13.671875 62.703125 7.8125 59.421875 
L 7.8125 69.390625 
Q 13.765625 71.78125 18.9375 73 
Q 24.125 74.21875 28.421875 74.21875 
Q 39.75 74.21875 46.484375 68.546875 
Q 53.21875 62.890625 53.21875 53.421875 
Q 53.21875 48.921875 51.53125 44.890625 
Q 49.859375 40.875 45.40625 35.40625 
Q 44.1875 33.984375 37.640625 27.21875 
Q 31.109375 20.453125 19.1875 8.296875 
z
" id="DejaVuSans-50"/>
      </defs>
      <g transform="translate(111.926592 384.442187)scale(0.1 -0.1)">
       <use xlink:href="#DejaVuSans-50"/>
       <use x="63.623047" xlink:href="#DejaVuSans-48"/>
       <use x="127.246094" xlink:href="#DejaVuSans-48"/>
       <use x="190.869141" xlink:href="#DejaVuSans-48"/>
       <use x="254.492188" xlink:href="#DejaVuSans-48"/>
      </g>
     </g>
    </g>
    <g id="xtick_3">
     <g id="line2d_3">
      <g>
       <use style="stroke:#000000;stroke-width:0.8;" x="185.535981" xlink:href="#mdeb2872eea" y="369.84375"/>
      </g>
     </g>
     <g id="text_3">
      <!-- 40000 -->
      <defs>
       <path d="M 37.796875 64.3125 
L 12.890625 25.390625 
L 37.796875 25.390625 
z
M 35.203125 72.90625 
L 47.609375 72.90625 
L 47.609375 25.390625 
L 58.015625 25.390625 
L 58.015625 17.1875 
L 47.609375 17.1875 
L 47.609375 0 
L 37.796875 0 
L 37.796875 17.1875 
L 4.890625 17.1875 
L 4.890625 26.703125 
z
" id="DejaVuSans-52"/>
      </defs>
      <g transform="translate(169.629731 384.442187)scale(0.1 -0.1)">
       <use xlink:href="#DejaVuSans-52"/>
       <use x="63.623047" xlink:href="#DejaVuSans-48"/>
       <use x="127.246094" xlink:href="#DejaVuSans-48"/>
       <use x="190.869141" xlink:href="#DejaVuSans-48"/>
       <use x="254.492188" xlink:href="#DejaVuSans-48"/>
      </g>
     </g>
    </g>
    <g id="xtick_4">
     <g id="line2d_4">
      <g>
       <use style="stroke:#000000;stroke-width:0.8;" x="243.23912" xlink:href="#mdeb2872eea" y="369.84375"/>
      </g>
     </g>
     <g id="text_4">
      <!-- 60000 -->
      <defs>
       <path d="M 33.015625 40.375 
Q 26.375 40.375 22.484375 35.828125 
Q 18.609375 31.296875 18.609375 23.390625 
Q 18.609375 15.53125 22.484375 10.953125 
Q 26.375 6.390625 33.015625 6.390625 
Q 39.65625 6.390625 43.53125 10.953125 
Q 47.40625 15.53125 47.40625 23.390625 
Q 47.40625 31.296875 43.53125 35.828125 
Q 39.65625 40.375 33.015625 40.375 
z
M 52.59375 71.296875 
L 52.59375 62.3125 
Q 48.875 64.0625 45.09375 64.984375 
Q 41.3125 65.921875 37.59375 65.921875 
Q 27.828125 65.921875 22.671875 59.328125 
Q 17.53125 52.734375 16.796875 39.40625 
Q 19.671875 43.65625 24.015625 45.921875 
Q 28.375 48.1875 33.59375 48.1875 
Q 44.578125 48.1875 50.953125 41.515625 
Q 57.328125 34.859375 57.328125 23.390625 
Q 57.328125 12.15625 50.6875 5.359375 
Q 44.046875 -1.421875 33.015625 -1.421875 
Q 20.359375 -1.421875 13.671875 8.265625 
Q 6.984375 17.96875 6.984375 36.375 
Q 6.984375 53.65625 15.1875 63.9375 
Q 23.390625 74.21875 37.203125 74.21875 
Q 40.921875 74.21875 44.703125 73.484375 
Q 48.484375 72.75 52.59375 71.296875 
z
" id="DejaVuSans-54"/>
      </defs>
      <g transform="translate(227.33287 384.442187)scale(0.1 -0.1)">
       <use xlink:href="#DejaVuSans-54"/>
       <use x="63.623047" xlink:href="#DejaVuSans-48"/>
       <use x="127.246094" xlink:href="#DejaVuSans-48"/>
       <use x="190.869141" xlink:href="#DejaVuSans-48"/>
       <use x="254.492188" xlink:href="#DejaVuSans-48"/>
      </g>
     </g>
    </g>
    <g id="xtick_5">
     <g id="line2d_5">
      <g>
       <use style="stroke:#000000;stroke-width:0.8;" x="300.94226" xlink:href="#mdeb2872eea" y="369.84375"/>
      </g>
     </g>
     <g id="text_5">
      <!-- 80000 -->
      <defs>
       <path d="M 31.78125 34.625 
Q 24.75 34.625 20.71875 30.859375 
Q 16.703125 27.09375 16.703125 20.515625 
Q 16.703125 13.921875 20.71875 10.15625 
Q 24.75 6.390625 31.78125 6.390625 
Q 38.8125 6.390625 42.859375 10.171875 
Q 46.921875 13.96875 46.921875 20.515625 
Q 46.921875 27.09375 42.890625 30.859375 
Q 38.875 34.625 31.78125 34.625 
z
M 21.921875 38.8125 
Q 15.578125 40.375 12.03125 44.71875 
Q 8.5 49.078125 8.5 55.328125 
Q 8.5 64.0625 14.71875 69.140625 
Q 20.953125 74.21875 31.78125 74.21875 
Q 42.671875 74.21875 48.875 69.140625 
Q 55.078125 64.0625 55.078125 55.328125 
Q 55.078125 49.078125 51.53125 44.71875 
Q 48 40.375 41.703125 38.8125 
Q 48.828125 37.15625 52.796875 32.3125 
Q 56.78125 27.484375 56.78125 20.515625 
Q 56.78125 9.90625 50.3125 4.234375 
Q 43.84375 -1.421875 31.78125 -1.421875 
Q 19.734375 -1.421875 13.25 4.234375 
Q 6.78125 9.90625 6.78125 20.515625 
Q 6.78125 27.484375 10.78125 32.3125 
Q 14.796875 37.15625 21.921875 38.8125 
z
M 18.3125 54.390625 
Q 18.3125 48.734375 21.84375 45.5625 
Q 25.390625 42.390625 31.78125 42.390625 
Q 38.140625 42.390625 41.71875 45.5625 
Q 45.3125 48.734375 45.3125 54.390625 
Q 45.3125 60.0625 41.71875 63.234375 
Q 38.140625 66.40625 31.78125 66.40625 
Q 25.390625 66.40625 21.84375 63.234375 
Q 18.3125 60.0625 18.3125 54.390625 
z
" id="DejaVuSans-56"/>
      </defs>
      <g transform="translate(285.03601 384.442187)scale(0.1 -0.1)">
       <use xlink:href="#DejaVuSans-56"/>
       <use x="63.623047" xlink:href="#DejaVuSans-48"/>
       <use x="127.246094" xlink:href="#DejaVuSans-48"/>
       <use x="190.869141" xlink:href="#DejaVuSans-48"/>
       <use x="254.492188" xlink:href="#DejaVuSans-48"/>
      </g>
     </g>
    </g>
    <g id="xtick_6">
     <g id="line2d_6">
      <g>
       <use style="stroke:#000000;stroke-width:0.8;" x="358.645399" xlink:href="#mdeb2872eea" y="369.84375"/>
      </g>
     </g>
     <g id="text_6">
      <!-- 100000 -->
      <defs>
       <path d="M 12.40625 8.296875 
L 28.515625 8.296875 
L 28.515625 63.921875 
L 10.984375 60.40625 
L 10.984375 69.390625 
L 28.421875 72.90625 
L 38.28125 72.90625 
L 38.28125 8.296875 
L 54.390625 8.296875 
L 54.390625 0 
L 12.40625 0 
z
" id="DejaVuSans-49"/>
      </defs>
      <g transform="translate(339.557899 384.442187)scale(0.1 -0.1)">
       <use xlink:href="#DejaVuSans-49"/>
       <use x="63.623047" xlink:href="#DejaVuSans-48"/>
       <use x="127.246094" xlink:href="#DejaVuSans-48"/>
       <use x="190.869141" xlink:href="#DejaVuSans-48"/>
       <use x="254.492188" xlink:href="#DejaVuSans-48"/>
       <use x="318.115234" xlink:href="#DejaVuSans-48"/>
      </g>
     </g>
    </g>
    <g id="xtick_7">
     <g id="line2d_7">
      <g>
       <use style="stroke:#000000;stroke-width:0.8;" x="416.348538" xlink:href="#mdeb2872eea" y="369.84375"/>
      </g>
     </g>
     <g id="text_7">
      <!-- 120000 -->
      <g transform="translate(397.261038 384.442187)scale(0.1 -0.1)">
       <use xlink:href="#DejaVuSans-49"/>
       <use x="63.623047" xlink:href="#DejaVuSans-50"/>
       <use x="127.246094" xlink:href="#DejaVuSans-48"/>
       <use x="190.869141" xlink:href="#DejaVuSans-48"/>
       <use x="254.492188" xlink:href="#DejaVuSans-48"/>
       <use x="318.115234" xlink:href="#DejaVuSans-48"/>
      </g>
     </g>
    </g>
    <g id="xtick_8">
     <g id="line2d_8">
      <g>
       <use style="stroke:#000000;stroke-width:0.8;" x="474.051677" xlink:href="#mdeb2872eea" y="369.84375"/>
      </g>
     </g>
     <g id="text_8">
      <!-- 140000 -->
      <g transform="translate(454.964177 384.442187)scale(0.1 -0.1)">
       <use xlink:href="#DejaVuSans-49"/>
       <use x="63.623047" xlink:href="#DejaVuSans-52"/>
       <use x="127.246094" xlink:href="#DejaVuSans-48"/>
       <use x="190.869141" xlink:href="#DejaVuSans-48"/>
       <use x="254.492188" xlink:href="#DejaVuSans-48"/>
       <use x="318.115234" xlink:href="#DejaVuSans-48"/>
      </g>
     </g>
    </g>
    <g id="xtick_9">
     <g id="line2d_9">
      <g>
       <use style="stroke:#000000;stroke-width:0.8;" x="531.754816" xlink:href="#mdeb2872eea" y="369.84375"/>
      </g>
     </g>
     <g id="text_9">
      <!-- 160000 -->
      <g transform="translate(512.667316 384.442187)scale(0.1 -0.1)">
       <use xlink:href="#DejaVuSans-49"/>
       <use x="63.623047" xlink:href="#DejaVuSans-54"/>
       <use x="127.246094" xlink:href="#DejaVuSans-48"/>
       <use x="190.869141" xlink:href="#DejaVuSans-48"/>
       <use x="254.492188" xlink:href="#DejaVuSans-48"/>
       <use x="318.115234" xlink:href="#DejaVuSans-48"/>
      </g>
     </g>
    </g>
    <g id="text_10">
     <!-- Income (1986 USD) -->
     <defs>
      <path d="M 9.8125 72.90625 
L 19.671875 72.90625 
L 19.671875 0 
L 9.8125 0 
z
" id="DejaVuSans-73"/>
      <path d="M 54.890625 33.015625 
L 54.890625 0 
L 45.90625 0 
L 45.90625 32.71875 
Q 45.90625 40.484375 42.875 44.328125 
Q 39.84375 48.1875 33.796875 48.1875 
Q 26.515625 48.1875 22.3125 43.546875 
Q 18.109375 38.921875 18.109375 30.90625 
L 18.109375 0 
L 9.078125 0 
L 9.078125 54.6875 
L 18.109375 54.6875 
L 18.109375 46.1875 
Q 21.34375 51.125 25.703125 53.5625 
Q 30.078125 56 35.796875 56 
Q 45.21875 56 50.046875 50.171875 
Q 54.890625 44.34375 54.890625 33.015625 
z
" id="DejaVuSans-110"/>
      <path d="M 48.78125 52.59375 
L 48.78125 44.1875 
Q 44.96875 46.296875 41.140625 47.34375 
Q 37.3125 48.390625 33.40625 48.390625 
Q 24.65625 48.390625 19.8125 42.84375 
Q 14.984375 37.3125 14.984375 27.296875 
Q 14.984375 17.28125 19.8125 11.734375 
Q 24.65625 6.203125 33.40625 6.203125 
Q 37.3125 6.203125 41.140625 7.25 
Q 44.96875 8.296875 48.78125 10.40625 
L 48.78125 2.09375 
Q 45.015625 0.34375 40.984375 -0.53125 
Q 36.96875 -1.421875 32.421875 -1.421875 
Q 20.0625 -1.421875 12.78125 6.34375 
Q 5.515625 14.109375 5.515625 27.296875 
Q 5.515625 40.671875 12.859375 48.328125 
Q 20.21875 56 33.015625 56 
Q 37.15625 56 41.109375 55.140625 
Q 45.0625 54.296875 48.78125 52.59375 
z
" id="DejaVuSans-99"/>
      <path d="M 30.609375 48.390625 
Q 23.390625 48.390625 19.1875 42.75 
Q 14.984375 37.109375 14.984375 27.296875 
Q 14.984375 17.484375 19.15625 11.84375 
Q 23.34375 6.203125 30.609375 6.203125 
Q 37.796875 6.203125 41.984375 11.859375 
Q 46.1875 17.53125 46.1875 27.296875 
Q 46.1875 37.015625 41.984375 42.703125 
Q 37.796875 48.390625 30.609375 48.390625 
z
M 30.609375 56 
Q 42.328125 56 49.015625 48.375 
Q 55.71875 40.765625 55.71875 27.296875 
Q 55.71875 13.875 49.015625 6.21875 
Q 42.328125 -1.421875 30.609375 -1.421875 
Q 18.84375 -1.421875 12.171875 6.21875 
Q 5.515625 13.875 5.515625 27.296875 
Q 5.515625 40.765625 12.171875 48.375 
Q 18.84375 56 30.609375 56 
z
" id="DejaVuSans-111"/>
      <path d="M 52 44.1875 
Q 55.375 50.25 60.0625 53.125 
Q 64.75 56 71.09375 56 
Q 79.640625 56 84.28125 50.015625 
Q 88.921875 44.046875 88.921875 33.015625 
L 88.921875 0 
L 79.890625 0 
L 79.890625 32.71875 
Q 79.890625 40.578125 77.09375 44.375 
Q 74.3125 48.1875 68.609375 48.1875 
Q 61.625 48.1875 57.5625 43.546875 
Q 53.515625 38.921875 53.515625 30.90625 
L 53.515625 0 
L 44.484375 0 
L 44.484375 32.71875 
Q 44.484375 40.625 41.703125 44.40625 
Q 38.921875 48.1875 33.109375 48.1875 
Q 26.21875 48.1875 22.15625 43.53125 
Q 18.109375 38.875 18.109375 30.90625 
L 18.109375 0 
L 9.078125 0 
L 9.078125 54.6875 
L 18.109375 54.6875 
L 18.109375 46.1875 
Q 21.1875 51.21875 25.484375 53.609375 
Q 29.78125 56 35.6875 56 
Q 41.65625 56 45.828125 52.96875 
Q 50 49.953125 52 44.1875 
z
" id="DejaVuSans-109"/>
      <path d="M 56.203125 29.59375 
L 56.203125 25.203125 
L 14.890625 25.203125 
Q 15.484375 15.921875 20.484375 11.0625 
Q 25.484375 6.203125 34.421875 6.203125 
Q 39.59375 6.203125 44.453125 7.46875 
Q 49.3125 8.734375 54.109375 11.28125 
L 54.109375 2.78125 
Q 49.265625 0.734375 44.1875 -0.34375 
Q 39.109375 -1.421875 33.890625 -1.421875 
Q 20.796875 -1.421875 13.15625 6.1875 
Q 5.515625 13.8125 5.515625 26.8125 
Q 5.515625 40.234375 12.765625 48.109375 
Q 20.015625 56 32.328125 56 
Q 43.359375 56 49.78125 48.890625 
Q 56.203125 41.796875 56.203125 29.59375 
z
M 47.21875 32.234375 
Q 47.125 39.59375 43.09375 43.984375 
Q 39.0625 48.390625 32.421875 48.390625 
Q 24.90625 48.390625 20.390625 44.140625 
Q 15.875 39.890625 15.1875 32.171875 
z
" id="DejaVuSans-101"/>
      <path id="DejaVuSans-32"/>
      <path d="M 31 75.875 
Q 24.46875 64.65625 21.28125 53.65625 
Q 18.109375 42.671875 18.109375 31.390625 
Q 18.109375 20.125 21.3125 9.0625 
Q 24.515625 -2 31 -13.1875 
L 23.1875 -13.1875 
Q 15.875 -1.703125 12.234375 9.375 
Q 8.59375 20.453125 8.59375 31.390625 
Q 8.59375 42.28125 12.203125 53.3125 
Q 15.828125 64.359375 23.1875 75.875 
z
" id="DejaVuSans-40"/>
      <path d="M 10.984375 1.515625 
L 10.984375 10.5 
Q 14.703125 8.734375 18.5 7.8125 
Q 22.3125 6.890625 25.984375 6.890625 
Q 35.75 6.890625 40.890625 13.453125 
Q 46.046875 20.015625 46.78125 33.40625 
Q 43.953125 29.203125 39.59375 26.953125 
Q 35.25 24.703125 29.984375 24.703125 
Q 19.046875 24.703125 12.671875 31.3125 
Q 6.296875 37.9375 6.296875 49.421875 
Q 6.296875 60.640625 12.9375 67.421875 
Q 19.578125 74.21875 30.609375 74.21875 
Q 43.265625 74.21875 49.921875 64.515625 
Q 56.59375 54.828125 56.59375 36.375 
Q 56.59375 19.140625 48.40625 8.859375 
Q 40.234375 -1.421875 26.421875 -1.421875 
Q 22.703125 -1.421875 18.890625 -0.6875 
Q 15.09375 0.046875 10.984375 1.515625 
z
M 30.609375 32.421875 
Q 37.25 32.421875 41.125 36.953125 
Q 45.015625 41.5 45.015625 49.421875 
Q 45.015625 57.28125 41.125 61.84375 
Q 37.25 66.40625 30.609375 66.40625 
Q 23.96875 66.40625 20.09375 61.84375 
Q 16.21875 57.28125 16.21875 49.421875 
Q 16.21875 41.5 20.09375 36.953125 
Q 23.96875 32.421875 30.609375 32.421875 
z
" id="DejaVuSans-57"/>
      <path d="M 8.6875 72.90625 
L 18.609375 72.90625 
L 18.609375 28.609375 
Q 18.609375 16.890625 22.84375 11.734375 
Q 27.09375 6.59375 36.625 6.59375 
Q 46.09375 6.59375 50.34375 11.734375 
Q 54.59375 16.890625 54.59375 28.609375 
L 54.59375 72.90625 
L 64.5 72.90625 
L 64.5 27.390625 
Q 64.5 13.140625 57.4375 5.859375 
Q 50.390625 -1.421875 36.625 -1.421875 
Q 22.796875 -1.421875 15.734375 5.859375 
Q 8.6875 13.140625 8.6875 27.390625 
z
" id="DejaVuSans-85"/>
      <path d="M 53.515625 70.515625 
L 53.515625 60.890625 
Q 47.90625 63.578125 42.921875 64.890625 
Q 37.9375 66.21875 33.296875 66.21875 
Q 25.25 66.21875 20.875 63.09375 
Q 16.5 59.96875 16.5 54.203125 
Q 16.5 49.359375 19.40625 46.890625 
Q 22.3125 44.4375 30.421875 42.921875 
L 36.375 41.703125 
Q 47.40625 39.59375 52.65625 34.296875 
Q 57.90625 29 57.90625 20.125 
Q 57.90625 9.515625 50.796875 4.046875 
Q 43.703125 -1.421875 29.984375 -1.421875 
Q 24.8125 -1.421875 18.96875 -0.25 
Q 13.140625 0.921875 6.890625 3.21875 
L 6.890625 13.375 
Q 12.890625 10.015625 18.65625 8.296875 
Q 24.421875 6.59375 29.984375 6.59375 
Q 38.421875 6.59375 43.015625 9.90625 
Q 47.609375 13.234375 47.609375 19.390625 
Q 47.609375 24.75 44.3125 27.78125 
Q 41.015625 30.8125 33.5 32.328125 
L 27.484375 33.5 
Q 16.453125 35.6875 11.515625 40.375 
Q 6.59375 45.0625 6.59375 53.421875 
Q 6.59375 63.09375 13.40625 68.65625 
Q 20.21875 74.21875 32.171875 74.21875 
Q 37.3125 74.21875 42.625 73.28125 
Q 47.953125 72.359375 53.515625 70.515625 
z
" id="DejaVuSans-83"/>
      <path d="M 19.671875 64.796875 
L 19.671875 8.109375 
L 31.59375 8.109375 
Q 46.6875 8.109375 53.6875 14.9375 
Q 60.6875 21.78125 60.6875 36.53125 
Q 60.6875 51.171875 53.6875 57.984375 
Q 46.6875 64.796875 31.59375 64.796875 
z
M 9.8125 72.90625 
L 30.078125 72.90625 
Q 51.265625 72.90625 61.171875 64.09375 
Q 71.09375 55.28125 71.09375 36.53125 
Q 71.09375 17.671875 61.125 8.828125 
Q 51.171875 0 30.078125 0 
L 9.8125 0 
z
" id="DejaVuSans-68"/>
      <path d="M 8.015625 75.875 
L 15.828125 75.875 
Q 23.140625 64.359375 26.78125 53.3125 
Q 30.421875 42.28125 30.421875 31.390625 
Q 30.421875 20.453125 26.78125 9.375 
Q 23.140625 -1.703125 15.828125 -13.1875 
L 8.015625 -13.1875 
Q 14.5 -2 17.703125 9.0625 
Q 20.90625 20.125 20.90625 31.390625 
Q 20.90625 42.671875 17.703125 53.65625 
Q 14.5 64.65625 8.015625 75.875 
z
" id="DejaVuSans-41"/>
     </defs>
     <g transform="translate(256.153125 398.120312)scale(0.1 -0.1)">
      <use xlink:href="#DejaVuSans-73"/>
      <use x="29.492188" xlink:href="#DejaVuSans-110"/>
      <use x="92.871094" xlink:href="#DejaVuSans-99"/>
      <use x="147.851562" xlink:href="#DejaVuSans-111"/>
      <use x="209.033203" xlink:href="#DejaVuSans-109"/>
      <use x="306.445312" xlink:href="#DejaVuSans-101"/>
      <use x="367.96875" xlink:href="#DejaVuSans-32"/>
      <use x="399.755859" xlink:href="#DejaVuSans-40"/>
      <use x="438.769531" xlink:href="#DejaVuSans-49"/>
      <use x="502.392578" xlink:href="#DejaVuSans-57"/>
      <use x="566.015625" xlink:href="#DejaVuSans-56"/>
      <use x="629.638672" xlink:href="#DejaVuSans-54"/>
      <use x="693.261719" xlink:href="#DejaVuSans-32"/>
      <use x="725.048828" xlink:href="#DejaVuSans-85"/>
      <use x="798.242188" xlink:href="#DejaVuSans-83"/>
      <use x="861.71875" xlink:href="#DejaVuSans-68"/>
      <use x="938.720703" xlink:href="#DejaVuSans-41"/>
     </g>
    </g>
   </g>
   <g id="matplotlib.axis_2">
    <g id="ytick_1">
     <g id="line2d_10">
      <defs>
       <path d="M 0 0 
L -3.5 0 
" id="m2687092b33" style="stroke:#000000;stroke-width:0.8;"/>
      </defs>
      <g>
       <use style="stroke:#000000;stroke-width:0.8;" x="47.38125" xlink:href="#m2687092b33" y="353.816676"/>
      </g>
     </g>
     <g id="text_11">
      <!-- 0.0 -->
      <defs>
       <path d="M 10.6875 12.40625 
L 21 12.40625 
L 21 0 
L 10.6875 0 
z
" id="DejaVuSans-46"/>
      </defs>
      <g transform="translate(24.478125 357.615895)scale(0.1 -0.1)">
       <use xlink:href="#DejaVuSans-48"/>
       <use x="63.623047" xlink:href="#DejaVuSans-46"/>
       <use x="95.410156" xlink:href="#DejaVuSans-48"/>
      </g>
     </g>
    </g>
    <g id="ytick_2">
     <g id="line2d_11">
      <g>
       <use style="stroke:#000000;stroke-width:0.8;" x="47.38125" xlink:href="#m2687092b33" y="289.145557"/>
      </g>
     </g>
     <g id="text_12">
      <!-- 0.2 -->
      <g transform="translate(24.478125 292.944776)scale(0.1 -0.1)">
       <use xlink:href="#DejaVuSans-48"/>
       <use x="63.623047" xlink:href="#DejaVuSans-46"/>
       <use x="95.410156" xlink:href="#DejaVuSans-50"/>
      </g>
     </g>
    </g>
    <g id="ytick_3">
     <g id="line2d_12">
      <g>
       <use style="stroke:#000000;stroke-width:0.8;" x="47.38125" xlink:href="#m2687092b33" y="224.474437"/>
      </g>
     </g>
     <g id="text_13">
      <!-- 0.4 -->
      <g transform="translate(24.478125 228.273656)scale(0.1 -0.1)">
       <use xlink:href="#DejaVuSans-48"/>
       <use x="63.623047" xlink:href="#DejaVuSans-46"/>
       <use x="95.410156" xlink:href="#DejaVuSans-52"/>
      </g>
     </g>
    </g>
    <g id="ytick_4">
     <g id="line2d_13">
      <g>
       <use style="stroke:#000000;stroke-width:0.8;" x="47.38125" xlink:href="#m2687092b33" y="159.803318"/>
      </g>
     </g>
     <g id="text_14">
      <!-- 0.6 -->
      <g transform="translate(24.478125 163.602537)scale(0.1 -0.1)">
       <use xlink:href="#DejaVuSans-48"/>
       <use x="63.623047" xlink:href="#DejaVuSans-46"/>
       <use x="95.410156" xlink:href="#DejaVuSans-54"/>
      </g>
     </g>
    </g>
    <g id="ytick_5">
     <g id="line2d_14">
      <g>
       <use style="stroke:#000000;stroke-width:0.8;" x="47.38125" xlink:href="#m2687092b33" y="95.132199"/>
      </g>
     </g>
     <g id="text_15">
      <!-- 0.8 -->
      <g transform="translate(24.478125 98.931418)scale(0.1 -0.1)">
       <use xlink:href="#DejaVuSans-48"/>
       <use x="63.623047" xlink:href="#DejaVuSans-46"/>
       <use x="95.410156" xlink:href="#DejaVuSans-56"/>
      </g>
     </g>
    </g>
    <g id="ytick_6">
     <g id="line2d_15">
      <g>
       <use style="stroke:#000000;stroke-width:0.8;" x="47.38125" xlink:href="#m2687092b33" y="30.46108"/>
      </g>
     </g>
     <g id="text_16">
      <!-- 1.0 -->
      <g transform="translate(24.478125 34.260298)scale(0.1 -0.1)">
       <use xlink:href="#DejaVuSans-49"/>
       <use x="63.623047" xlink:href="#DejaVuSans-46"/>
       <use x="95.410156" xlink:href="#DejaVuSans-48"/>
      </g>
     </g>
    </g>
    <g id="text_17">
     <!-- CDF -->
     <defs>
      <path d="M 64.40625 67.28125 
L 64.40625 56.890625 
Q 59.421875 61.53125 53.78125 63.8125 
Q 48.140625 66.109375 41.796875 66.109375 
Q 29.296875 66.109375 22.65625 58.46875 
Q 16.015625 50.828125 16.015625 36.375 
Q 16.015625 21.96875 22.65625 14.328125 
Q 29.296875 6.6875 41.796875 6.6875 
Q 48.140625 6.6875 53.78125 8.984375 
Q 59.421875 11.28125 64.40625 15.921875 
L 64.40625 5.609375 
Q 59.234375 2.09375 53.4375 0.328125 
Q 47.65625 -1.421875 41.21875 -1.421875 
Q 24.65625 -1.421875 15.125 8.703125 
Q 5.609375 18.84375 5.609375 36.375 
Q 5.609375 53.953125 15.125 64.078125 
Q 24.65625 74.21875 41.21875 74.21875 
Q 47.75 74.21875 53.53125 72.484375 
Q 59.328125 70.75 64.40625 67.28125 
z
" id="DejaVuSans-67"/>
      <path d="M 9.8125 72.90625 
L 51.703125 72.90625 
L 51.703125 64.59375 
L 19.671875 64.59375 
L 19.671875 43.109375 
L 48.578125 43.109375 
L 48.578125 34.8125 
L 19.671875 34.8125 
L 19.671875 0 
L 9.8125 0 
z
" id="DejaVuSans-70"/>
     </defs>
     <g transform="translate(18.398438 202.289062)rotate(-90)scale(0.1 -0.1)">
      <use xlink:href="#DejaVuSans-67"/>
      <use x="69.824219" xlink:href="#DejaVuSans-68"/>
      <use x="146.826172" xlink:href="#DejaVuSans-70"/>
     </g>
    </g>
   </g>
   <g id="line2d_16">
    <path clip-path="url(#pa9ae33493b)" d="M 70.80483 353.68267 
L 70.949809 352.861158 
L 71.335698 351.742502 
L 71.468416 351.672586 
L 71.768472 351.130737 
L 71.869452 351.054995 
L 72.74077 350.897684 
L 73.410126 349.720765 
L 73.689987 349.511017 
L 73.909258 349.202221 
L 74.105449 348.928384 
L 75.870444 347.634938 
L 76.009653 347.262053 
L 76.205843 347.209616 
L 76.270759 346.894994 
L 76.448052 346.778467 
L 76.491474 346.557066 
L 77.08221 346.195834 
L 77.085816 345.753033 
L 77.556097 345.525806 
L 77.905201 345.263621 
L 77.968963 344.616898 
L 78.349515 344.337234 
L 78.762092 344.098354 
L 79.150867 343.24771 
L 79.497807 343.07292 
L 79.54397 342.857346 
L 79.875763 342.531071 
L 80.172213 342.164012 
L 80.421058 341.394936 
L 80.790358 340.660819 
L 80.791079 340.474376 
L 81.061563 340.223844 
L 81.635709 339.210062 
L 81.717214 338.947877 
L 81.86378 338.819698 
L 81.883832 338.423507 
L 82.175233 338.312807 
L 82.281984 337.939922 
L 82.431291 337.135888 
L 82.602236 336.774655 
L 82.659939 336.529949 
L 82.853245 336.349333 
L 83.112909 335.452078 
L 83.669023 334.677176 
L 83.834198 334.251853 
L 84.206384 333.983842 
L 84.517981 333.051629 
L 84.86997 332.806923 
L 84.891608 332.206811 
L 85.253696 331.478519 
L 85.482344 330.208379 
L 85.801875 329.765578 
L 85.819186 329.439303 
L 85.998066 329.229555 
L 86.034131 328.932412 
L 86.303893 328.769275 
L 86.376887 328.518743 
L 86.765518 328.180816 
L 86.880924 327.994373 
L 86.942955 327.604009 
L 87.397367 327.102944 
L 87.593558 326.497006 
L 88.020561 326.205689 
L 88.401402 325.343392 
L 88.695688 324.230562 
L 88.883223 324.04412 
L 88.955352 323.51975 
L 89.243868 323.379918 
L 89.324652 322.99538 
L 89.568448 322.698237 
L 89.578546 322.29622 
L 89.727853 322.045688 
L 89.743 321.77185 
L 89.924765 321.492186 
L 89.968042 321.078517 
L 90.204625 320.927032 
L 90.679233 319.97734 
L 90.767231 319.418012 
L 91.433702 318.88199 
L 92.492554 316.60972 
L 92.737793 315.357059 
L 92.97149 315.170616 
L 93.620651 313.556722 
L 93.661043 313.032352 
L 93.943788 312.915826 
L 94.415512 311.546638 
L 94.71124 311.301932 
L 94.927627 310.725125 
L 95.045918 309.903612 
L 95.446955 308.633472 
L 96.508693 306.955488 
L 96.577937 306.664172 
L 96.637082 305.819354 
L 96.783143 305.184283 
L 97.253063 304.799745 
L 97.538694 304.036496 
L 98.15179 303.850053 
L 98.438142 303.348989 
L 98.459059 303.086804 
L 98.707182 302.853751 
L 98.842785 301.991453 
L 98.995698 300.593134 
L 99.098482 300.371733 
L 99.129137 299.987195 
L 99.464897 299.55022 
L 99.624662 299.078287 
L 100.1714 298.705402 
L 100.239201 298.239296 
L 100.438277 297.726578 
L 100.695056 297.429436 
L 100.883673 296.870108 
L 101.306709 296.252516 
L 101.312479 295.862152 
L 101.453852 294.959071 
L 102.163601 294.125905 
L 102.198222 293.432572 
L 102.43192 292.820807 
L 102.587719 291.276829 
L 102.793286 291.014644 
L 102.815646 290.769938 
L 103.280156 289.744504 
L 103.705717 289.424055 
L 104.062034 288.806464 
L 104.157244 287.804335 
L 104.393827 287.390666 
L 105.412287 285.887472 
L 105.850831 284.920301 
L 106.10184 283.760861 
L 106.251868 283.434586 
L 106.82349 283.108312 
L 106.981813 282.362541 
L 106.999124 281.768255 
L 107.658382 279.653297 
L 108.334951 279.292064 
L 108.49111 278.383156 
L 109.007193 277.823829 
L 109.350527 273.821139 
L 109.353412 273.442427 
L 109.800611 272.900578 
L 110.899856 272.014976 
L 111.228764 271.566348 
L 111.503575 270.54674 
L 111.80868 269.509653 
L 111.825991 269.095983 
L 112.007756 268.571613 
L 112.617245 267.348084 
L 112.651146 267.039288 
L 113.004217 266.555703 
L 113.623444 266.118728 
L 114.01294 264.819456 
L 114.212016 264.499007 
L 114.578431 263.275478 
L 115.192969 262.71615 
L 115.374734 260.985729 
L 115.694987 260.292396 
L 116.970226 258.725112 
L 117.111599 257.658894 
L 117.339526 257.064608 
L 117.916558 256.563543 
L 118.036292 255.095308 
L 118.32048 253.994131 
L 119.16006 252.951217 
L 119.281237 252.595811 
L 119.287007 251.861693 
L 119.621685 251.308192 
L 119.773877 250.5799 
L 120.314123 249.513682 
L 120.342253 249.047575 
L 121.72785 246.903485 
L 121.929811 246.122756 
L 122.333733 245.779003 
L 122.890568 244.7827 
L 123.421437 242.667742 
L 123.519532 241.106285 
L 124.226396 240.71592 
L 124.517797 240.296424 
L 124.794772 239.38169 
L 124.806312 238.519393 
L 125.267937 238.012502 
L 126.173877 237.511438 
L 126.652813 236.858889 
L 126.843233 235.483874 
L 127.653962 233.415526 
L 128.067261 232.343481 
L 128.800091 231.434574 
L 128.857073 230.694629 
L 129.664917 229.960512 
L 130.746851 228.399055 
L 130.91419 226.91334 
L 131.439288 226.371491 
L 131.637643 223.930258 
L 132.483715 222.764992 
L 132.49237 222.217316 
L 132.619317 221.768689 
L 132.648169 220.842302 
L 133.695481 220.498549 
L 133.747414 219.612946 
L 134.197498 218.884655 
L 134.849544 217.165887 
L 135.348676 216.723085 
L 135.456869 215.796699 
L 136.254615 215.359724 
L 136.43061 214.648911 
L 137.382712 213.740003 
L 137.601983 213.139891 
L 138.184785 210.168462 
L 139.654773 208.840058 
L 139.970697 207.954456 
L 140.429437 206.870758 
L 140.513107 206.387173 
L 140.94011 205.91524 
L 140.951651 205.285996 
L 141.76815 204.015855 
L 142.076862 202.291261 
L 143.600225 200.351093 
L 143.831037 198.946947 
L 144.044539 195.410363 
L 144.673503 193.266273 
L 145.187061 192.042743 
L 146.329583 191.6349 
L 146.695998 190.149185 
L 147.884683 189.397589 
L 148.484796 188.873219 
L 148.57135 186.554339 
L 149.471519 185.721173 
L 150.31687 183.880052 
L 150.997767 183.204198 
L 151.000652 182.545822 
L 151.365625 181.170808 
L 151.846003 180.640612 
L 152.327825 179.859883 
L 152.78945 178.828622 
L 153.308778 178.176073 
L 154.959088 177.459434 
L 155.169704 175.938762 
L 157.117185 174.167557 
L 158.005813 172.856632 
L 159.110829 170.829069 
L 159.583994 169.279264 
L 160.341348 167.327443 
L 160.619766 165.259095 
L 161.271811 163.522848 
L 161.496853 162.008002 
L 162.245552 160.528114 
L 162.743241 159.817301 
L 163.897304 159.205537 
L 164.65033 155.465031 
L 165.386045 154.020101 
L 166.107334 150.407775 
L 168.011538 149.790184 
L 168.450082 148.28699 
L 169.321399 146.393433 
L 169.418052 145.22234 
L 170.498543 144.63388 
L 171.009216 143.561835 
L 171.4593 142.909286 
L 172.177704 142.14021 
L 172.988434 140.835112 
L 174.324261 140.252479 
L 174.540648 137.059649 
L 175.654319 135.789508 
L 177.532556 134.665026 
L 178.323089 133.750292 
L 178.62026 132.765642 
L 179.462726 131.489675 
L 180.406172 130.872084 
L 181.061103 127.993876 
L 181.525613 126.65382 
L 182.39116 125.360374 
L 182.71574 124.276677 
L 185.175337 122.796788 
L 185.302283 122.150065 
L 186.762173 121.305247 
L 187.718602 119.761269 
L 188.219177 119.213594 
L 190.573465 118.374602 
L 191.363998 117.005414 
L 191.502486 116.277123 
L 191.983586 114.727318 
L 193.426885 113.859195 
L 194.70501 112.647318 
L 194.855038 111.878242 
L 195.420529 111.138298 
L 197.059298 110.538186 
L 197.592331 109.652583 
L 199.332802 109.221435 
L 199.566499 108.027037 
L 199.635743 106.617064 
L 199.961766 105.772246 
L 202.376642 104.869165 
L 202.460312 103.197008 
L 202.728631 102.544458 
L 204.309698 101.210228 
L 205.077149 100.213926 
L 205.155048 99.20597 
L 205.447171 97.096838 
L 206.597627 96.059751 
L 210.896511 94.364288 
L 211.502394 92.226024 
L 213.849469 91.0258 
L 214.46545 90.309161 
L 216.588926 89.813923 
L 217.339066 89.196332 
L 217.95649 88.095155 
L 218.917247 86.854146 
L 219.062226 85.543222 
L 219.580833 84.826583 
L 223.201705 84.074986 
L 223.265179 83.65549 
L 224.629858 82.729103 
L 228.415184 81.773585 
L 228.813336 81.190952 
L 230.299191 80.468487 
L 231.865832 80.06647 
L 232.160118 79.344005 
L 232.866981 78.807982 
L 234.127795 75.527757 
L 234.150876 74.117785 
L 239.776932 73.651678 
L 240.267409 72.952518 
L 245.879039 71.565851 
L 249.471059 71.192966 
L 250.653974 70.348148 
L 255.529889 69.724731 
L 259.165187 69.078008 
L 261.184797 68.56529 
L 261.992641 67.912741 
L 265.890488 66.619296 
L 266.955111 65.56473 
L 268.05147 65.250108 
L 268.917017 64.475205 
L 278.521705 63.22837 
L 279.361285 62.750611 
L 284.935409 62.511732 
L 286.170256 62.06893 
L 286.42992 61.795093 
L 299.038056 60.705569 
L 299.759345 60.09963 
L 319.684239 59.103327 
L 324.407241 57.95554 
L 330.558396 57.436996 
L 330.595903 56.574699 
L 331.876912 55.962934 
L 334.372573 55.123943 
L 338.039608 54.19173 
L 339.055183 53.53918 
L 343.463703 52.740973 
L 343.795496 50.567751 
L 356.501727 49.460748 
L 358.518452 47.648759 
L 358.610777 46.372792 
L 364.658066 45.720243 
L 385.636042 45.48719 
L 390.079184 43.494584 
L 404.34917 42.684724 
L 415.211975 41.863211 
L 439.836601 41.432063 
L 440.6837 39.346236 
L 450.037623 38.268364 
L 459.099178 36.753518 
L 466.082197 35.285282 
L 477.04647 34.149148 
L 484.9518 33.921921 
L 487.042723 32.54108 
L 491.805977 31.696262 
L 517.732876 30.659175 
L 539.27642 30.46108 
L 539.27642 30.46108 
" style="fill:none;stroke:#1f77b4;stroke-linecap:square;stroke-width:1.5;"/>
   </g>
   <g id="patch_3">
    <path d="M 47.38125 369.84375 
L 47.38125 14.3 
" style="fill:none;stroke:#000000;stroke-linecap:square;stroke-linejoin:miter;stroke-width:0.8;"/>
   </g>
   <g id="patch_4">
    <path d="M 562.7 369.84375 
L 562.7 14.3 
" style="fill:none;stroke:#000000;stroke-linecap:square;stroke-linejoin:miter;stroke-width:0.8;"/>
   </g>
   <g id="patch_5">
    <path d="M 47.38125 369.84375 
L 562.7 369.84375 
" style="fill:none;stroke:#000000;stroke-linecap:square;stroke-linejoin:miter;stroke-width:0.8;"/>
   </g>
   <g id="patch_6">
    <path d="M 47.38125 14.3 
L 562.7 14.3 
" style="fill:none;stroke:#000000;stroke-linecap:square;stroke-linejoin:miter;stroke-width:0.8;"/>
   </g>
  </g>
 </g>
 <defs>
  <clipPath id="pa9ae33493b">
   <rect height="355.54375" width="515.31875" x="47.38125" y="14.3"/>
  </clipPath>
 </defs>
</svg>
