<?xml version="1.0" encoding="utf-8" standalone="no"?>
<!DOCTYPE svg PUBLIC "-//W3C//DTD SVG 1.1//EN"
  "http://www.w3.org/Graphics/SVG/1.1/DTD/svg11.dtd">
<!-- Created with matplotlib (https://matplotlib.org/) -->
<svg height="411pt" version="1.1" viewBox="0 0 577 411" width="577pt" xmlns="http://www.w3.org/2000/svg" xmlns:xlink="http://www.w3.org/1999/xlink">
 <defs>
  <style type="text/css">
*{stroke-linecap:butt;stroke-linejoin:round;}
  </style>
 </defs>
 <g id="figure_1">
  <g id="patch_1">
   <path d="M 0 411 
L 577 411 
L 577 0 
L 0 0 
z
" style="fill:#ffffff;"/>
  </g>
  <g id="axes_1">
   <g id="patch_2">
    <path d="M 47.38125 369.84375 
L 562.7 369.84375 
L 562.7 14.3 
L 47.38125 14.3 
z
" style="fill:#ffffff;"/>
   </g>
   <g id="matplotlib.axis_1">
    <g id="xtick_1">
     <g id="line2d_1">
      <defs>
       <path d="M 0 0 
L 0 3.5 
" id="m06a5d31462" style="stroke:#000000;stroke-width:0.8;"/>
      </defs>
      <g>
       <use style="stroke:#000000;stroke-width:0.8;" x="70.80483" xlink:href="#m06a5d31462" y="369.84375"/>
      </g>
     </g>
     <g id="text_1">
      <!-- 2.0 -->
      <defs>
       <path d="M 19.1875 8.296875 
L 53.609375 8.296875 
L 53.609375 0 
L 7.328125 0 
L 7.328125 8.296875 
Q 12.9375 14.109375 22.625 23.890625 
Q 32.328125 33.6875 34.8125 36.53125 
Q 39.546875 41.84375 41.421875 45.53125 
Q 43.3125 49.21875 43.3125 52.78125 
Q 43.3125 58.59375 39.234375 62.25 
Q 35.15625 65.921875 28.609375 65.921875 
Q 23.96875 65.921875 18.8125 64.3125 
Q 13.671875 62.703125 7.8125 59.421875 
L 7.8125 69.390625 
Q 13.765625 71.78125 18.9375 73 
Q 24.125 74.21875 28.421875 74.21875 
Q 39.75 74.21875 46.484375 68.546875 
Q 53.21875 62.890625 53.21875 53.421875 
Q 53.21875 48.921875 51.53125 44.890625 
Q 49.859375 40.875 45.40625 35.40625 
Q 44.1875 33.984375 37.640625 27.21875 
Q 31.109375 20.453125 19.1875 8.296875 
z
" id="DejaVuSans-50"/>
       <path d="M 10.6875 12.40625 
L 21 12.40625 
L 21 0 
L 10.6875 0 
z
" id="DejaVuSans-46"/>
       <path d="M 31.78125 66.40625 
Q 24.171875 66.40625 20.328125 58.90625 
Q 16.5 51.421875 16.5 36.375 
Q 16.5 21.390625 20.328125 13.890625 
Q 24.171875 6.390625 31.78125 6.390625 
Q 39.453125 6.390625 43.28125 13.890625 
Q 47.125 21.390625 47.125 36.375 
Q 47.125 51.421875 43.28125 58.90625 
Q 39.453125 66.40625 31.78125 66.40625 
z
M 31.78125 74.21875 
Q 44.046875 74.21875 50.515625 64.515625 
Q 56.984375 54.828125 56.984375 36.375 
Q 56.984375 17.96875 50.515625 8.265625 
Q 44.046875 -1.421875 31.78125 -1.421875 
Q 19.53125 -1.421875 13.0625 8.265625 
Q 6.59375 17.96875 6.59375 36.375 
Q 6.59375 54.828125 13.0625 64.515625 
Q 19.53125 74.21875 31.78125 74.21875 
z
" id="DejaVuSans-48"/>
      </defs>
      <g transform="translate(62.853267 384.442187)scale(0.1 -0.1)">
       <use xlink:href="#DejaVuSans-50"/>
       <use x="63.623047" xlink:href="#DejaVuSans-46"/>
       <use x="95.410156" xlink:href="#DejaVuSans-48"/>
      </g>
     </g>
    </g>
    <g id="xtick_2">
     <g id="line2d_2">
      <g>
       <use style="stroke:#000000;stroke-width:0.8;" x="137.729343" xlink:href="#m06a5d31462" y="369.84375"/>
      </g>
     </g>
     <g id="text_2">
      <!-- 2.5 -->
      <defs>
       <path d="M 10.796875 72.90625 
L 49.515625 72.90625 
L 49.515625 64.59375 
L 19.828125 64.59375 
L 19.828125 46.734375 
Q 21.96875 47.46875 24.109375 47.828125 
Q 26.265625 48.1875 28.421875 48.1875 
Q 40.625 48.1875 47.75 41.5 
Q 54.890625 34.8125 54.890625 23.390625 
Q 54.890625 11.625 47.5625 5.09375 
Q 40.234375 -1.421875 26.90625 -1.421875 
Q 22.3125 -1.421875 17.546875 -0.640625 
Q 12.796875 0.140625 7.71875 1.703125 
L 7.71875 11.625 
Q 12.109375 9.234375 16.796875 8.0625 
Q 21.484375 6.890625 26.703125 6.890625 
Q 35.15625 6.890625 40.078125 11.328125 
Q 45.015625 15.765625 45.015625 23.390625 
Q 45.015625 31 40.078125 35.4375 
Q 35.15625 39.890625 26.703125 39.890625 
Q 22.75 39.890625 18.8125 39.015625 
Q 14.890625 38.140625 10.796875 36.28125 
z
" id="DejaVuSans-53"/>
      </defs>
      <g transform="translate(129.77778 384.442187)scale(0.1 -0.1)">
       <use xlink:href="#DejaVuSans-50"/>
       <use x="63.623047" xlink:href="#DejaVuSans-46"/>
       <use x="95.410156" xlink:href="#DejaVuSans-53"/>
      </g>
     </g>
    </g>
    <g id="xtick_3">
     <g id="line2d_3">
      <g>
       <use style="stroke:#000000;stroke-width:0.8;" x="204.653856" xlink:href="#m06a5d31462" y="369.84375"/>
      </g>
     </g>
     <g id="text_3">
      <!-- 3.0 -->
      <defs>
       <path d="M 40.578125 39.3125 
Q 47.65625 37.796875 51.625 33 
Q 55.609375 28.21875 55.609375 21.1875 
Q 55.609375 10.40625 48.1875 4.484375 
Q 40.765625 -1.421875 27.09375 -1.421875 
Q 22.515625 -1.421875 17.65625 -0.515625 
Q 12.796875 0.390625 7.625 2.203125 
L 7.625 11.71875 
Q 11.71875 9.328125 16.59375 8.109375 
Q 21.484375 6.890625 26.8125 6.890625 
Q 36.078125 6.890625 40.9375 10.546875 
Q 45.796875 14.203125 45.796875 21.1875 
Q 45.796875 27.640625 41.28125 31.265625 
Q 36.765625 34.90625 28.71875 34.90625 
L 20.21875 34.90625 
L 20.21875 43.015625 
L 29.109375 43.015625 
Q 36.375 43.015625 40.234375 45.921875 
Q 44.09375 48.828125 44.09375 54.296875 
Q 44.09375 59.90625 40.109375 62.90625 
Q 36.140625 65.921875 28.71875 65.921875 
Q 24.65625 65.921875 20.015625 65.03125 
Q 15.375 64.15625 9.8125 62.3125 
L 9.8125 71.09375 
Q 15.4375 72.65625 20.34375 73.4375 
Q 25.25 74.21875 29.59375 74.21875 
Q 40.828125 74.21875 47.359375 69.109375 
Q 53.90625 64.015625 53.90625 55.328125 
Q 53.90625 49.265625 50.4375 45.09375 
Q 46.96875 40.921875 40.578125 39.3125 
z
" id="DejaVuSans-51"/>
      </defs>
      <g transform="translate(196.702293 384.442187)scale(0.1 -0.1)">
       <use xlink:href="#DejaVuSans-51"/>
       <use x="63.623047" xlink:href="#DejaVuSans-46"/>
       <use x="95.410156" xlink:href="#DejaVuSans-48"/>
      </g>
     </g>
    </g>
    <g id="xtick_4">
     <g id="line2d_4">
      <g>
       <use style="stroke:#000000;stroke-width:0.8;" x="271.578369" xlink:href="#m06a5d31462" y="369.84375"/>
      </g>
     </g>
     <g id="text_4">
      <!-- 3.5 -->
      <g transform="translate(263.626806 384.442187)scale(0.1 -0.1)">
       <use xlink:href="#DejaVuSans-51"/>
       <use x="63.623047" xlink:href="#DejaVuSans-46"/>
       <use x="95.410156" xlink:href="#DejaVuSans-53"/>
      </g>
     </g>
    </g>
    <g id="xtick_5">
     <g id="line2d_5">
      <g>
       <use style="stroke:#000000;stroke-width:0.8;" x="338.502881" xlink:href="#m06a5d31462" y="369.84375"/>
      </g>
     </g>
     <g id="text_5">
      <!-- 4.0 -->
      <defs>
       <path d="M 37.796875 64.3125 
L 12.890625 25.390625 
L 37.796875 25.390625 
z
M 35.203125 72.90625 
L 47.609375 72.90625 
L 47.609375 25.390625 
L 58.015625 25.390625 
L 58.015625 17.1875 
L 47.609375 17.1875 
L 47.609375 0 
L 37.796875 0 
L 37.796875 17.1875 
L 4.890625 17.1875 
L 4.890625 26.703125 
z
" id="DejaVuSans-52"/>
      </defs>
      <g transform="translate(330.551319 384.442187)scale(0.1 -0.1)">
       <use xlink:href="#DejaVuSans-52"/>
       <use x="63.623047" xlink:href="#DejaVuSans-46"/>
       <use x="95.410156" xlink:href="#DejaVuSans-48"/>
      </g>
     </g>
    </g>
    <g id="xtick_6">
     <g id="line2d_6">
      <g>
       <use style="stroke:#000000;stroke-width:0.8;" x="405.427394" xlink:href="#m06a5d31462" y="369.84375"/>
      </g>
     </g>
     <g id="text_6">
      <!-- 4.5 -->
      <g transform="translate(397.475832 384.442187)scale(0.1 -0.1)">
       <use xlink:href="#DejaVuSans-52"/>
       <use x="63.623047" xlink:href="#DejaVuSans-46"/>
       <use x="95.410156" xlink:href="#DejaVuSans-53"/>
      </g>
     </g>
    </g>
    <g id="xtick_7">
     <g id="line2d_7">
      <g>
       <use style="stroke:#000000;stroke-width:0.8;" x="472.351907" xlink:href="#m06a5d31462" y="369.84375"/>
      </g>
     </g>
     <g id="text_7">
      <!-- 5.0 -->
      <g transform="translate(464.400345 384.442187)scale(0.1 -0.1)">
       <use xlink:href="#DejaVuSans-53"/>
       <use x="63.623047" xlink:href="#DejaVuSans-46"/>
       <use x="95.410156" xlink:href="#DejaVuSans-48"/>
      </g>
     </g>
    </g>
    <g id="xtick_8">
     <g id="line2d_8">
      <g>
       <use style="stroke:#000000;stroke-width:0.8;" x="539.27642" xlink:href="#m06a5d31462" y="369.84375"/>
      </g>
     </g>
     <g id="text_8">
      <!-- 5.5 -->
      <g transform="translate(531.324858 384.442187)scale(0.1 -0.1)">
       <use xlink:href="#DejaVuSans-53"/>
       <use x="63.623047" xlink:href="#DejaVuSans-46"/>
       <use x="95.410156" xlink:href="#DejaVuSans-53"/>
      </g>
     </g>
    </g>
    <g id="text_9">
     <!-- log10 of realinc -->
     <defs>
      <path d="M 9.421875 75.984375 
L 18.40625 75.984375 
L 18.40625 0 
L 9.421875 0 
z
" id="DejaVuSans-108"/>
      <path d="M 30.609375 48.390625 
Q 23.390625 48.390625 19.1875 42.75 
Q 14.984375 37.109375 14.984375 27.296875 
Q 14.984375 17.484375 19.15625 11.84375 
Q 23.34375 6.203125 30.609375 6.203125 
Q 37.796875 6.203125 41.984375 11.859375 
Q 46.1875 17.53125 46.1875 27.296875 
Q 46.1875 37.015625 41.984375 42.703125 
Q 37.796875 48.390625 30.609375 48.390625 
z
M 30.609375 56 
Q 42.328125 56 49.015625 48.375 
Q 55.71875 40.765625 55.71875 27.296875 
Q 55.71875 13.875 49.015625 6.21875 
Q 42.328125 -1.421875 30.609375 -1.421875 
Q 18.84375 -1.421875 12.171875 6.21875 
Q 5.515625 13.875 5.515625 27.296875 
Q 5.515625 40.765625 12.171875 48.375 
Q 18.84375 56 30.609375 56 
z
" id="DejaVuSans-111"/>
      <path d="M 45.40625 27.984375 
Q 45.40625 37.75 41.375 43.109375 
Q 37.359375 48.484375 30.078125 48.484375 
Q 22.859375 48.484375 18.828125 43.109375 
Q 14.796875 37.75 14.796875 27.984375 
Q 14.796875 18.265625 18.828125 12.890625 
Q 22.859375 7.515625 30.078125 7.515625 
Q 37.359375 7.515625 41.375 12.890625 
Q 45.40625 18.265625 45.40625 27.984375 
z
M 54.390625 6.78125 
Q 54.390625 -7.171875 48.1875 -13.984375 
Q 42 -20.796875 29.203125 -20.796875 
Q 24.46875 -20.796875 20.265625 -20.09375 
Q 16.0625 -19.390625 12.109375 -17.921875 
L 12.109375 -9.1875 
Q 16.0625 -11.328125 19.921875 -12.34375 
Q 23.78125 -13.375 27.78125 -13.375 
Q 36.625 -13.375 41.015625 -8.765625 
Q 45.40625 -4.15625 45.40625 5.171875 
L 45.40625 9.625 
Q 42.625 4.78125 38.28125 2.390625 
Q 33.9375 0 27.875 0 
Q 17.828125 0 11.671875 7.65625 
Q 5.515625 15.328125 5.515625 27.984375 
Q 5.515625 40.671875 11.671875 48.328125 
Q 17.828125 56 27.875 56 
Q 33.9375 56 38.28125 53.609375 
Q 42.625 51.21875 45.40625 46.390625 
L 45.40625 54.6875 
L 54.390625 54.6875 
z
" id="DejaVuSans-103"/>
      <path d="M 12.40625 8.296875 
L 28.515625 8.296875 
L 28.515625 63.921875 
L 10.984375 60.40625 
L 10.984375 69.390625 
L 28.421875 72.90625 
L 38.28125 72.90625 
L 38.28125 8.296875 
L 54.390625 8.296875 
L 54.390625 0 
L 12.40625 0 
z
" id="DejaVuSans-49"/>
      <path id="DejaVuSans-32"/>
      <path d="M 37.109375 75.984375 
L 37.109375 68.5 
L 28.515625 68.5 
Q 23.6875 68.5 21.796875 66.546875 
Q 19.921875 64.59375 19.921875 59.515625 
L 19.921875 54.6875 
L 34.71875 54.6875 
L 34.71875 47.703125 
L 19.921875 47.703125 
L 19.921875 0 
L 10.890625 0 
L 10.890625 47.703125 
L 2.296875 47.703125 
L 2.296875 54.6875 
L 10.890625 54.6875 
L 10.890625 58.5 
Q 10.890625 67.625 15.140625 71.796875 
Q 19.390625 75.984375 28.609375 75.984375 
z
" id="DejaVuSans-102"/>
      <path d="M 41.109375 46.296875 
Q 39.59375 47.171875 37.8125 47.578125 
Q 36.03125 48 33.890625 48 
Q 26.265625 48 22.1875 43.046875 
Q 18.109375 38.09375 18.109375 28.8125 
L 18.109375 0 
L 9.078125 0 
L 9.078125 54.6875 
L 18.109375 54.6875 
L 18.109375 46.1875 
Q 20.953125 51.171875 25.484375 53.578125 
Q 30.03125 56 36.53125 56 
Q 37.453125 56 38.578125 55.875 
Q 39.703125 55.765625 41.0625 55.515625 
z
" id="DejaVuSans-114"/>
      <path d="M 56.203125 29.59375 
L 56.203125 25.203125 
L 14.890625 25.203125 
Q 15.484375 15.921875 20.484375 11.0625 
Q 25.484375 6.203125 34.421875 6.203125 
Q 39.59375 6.203125 44.453125 7.46875 
Q 49.3125 8.734375 54.109375 11.28125 
L 54.109375 2.78125 
Q 49.265625 0.734375 44.1875 -0.34375 
Q 39.109375 -1.421875 33.890625 -1.421875 
Q 20.796875 -1.421875 13.15625 6.1875 
Q 5.515625 13.8125 5.515625 26.8125 
Q 5.515625 40.234375 12.765625 48.109375 
Q 20.015625 56 32.328125 56 
Q 43.359375 56 49.78125 48.890625 
Q 56.203125 41.796875 56.203125 29.59375 
z
M 47.21875 32.234375 
Q 47.125 39.59375 43.09375 43.984375 
Q 39.0625 48.390625 32.421875 48.390625 
Q 24.90625 48.390625 20.390625 44.140625 
Q 15.875 39.890625 15.1875 32.171875 
z
" id="DejaVuSans-101"/>
      <path d="M 34.28125 27.484375 
Q 23.390625 27.484375 19.1875 25 
Q 14.984375 22.515625 14.984375 16.5 
Q 14.984375 11.71875 18.140625 8.90625 
Q 21.296875 6.109375 26.703125 6.109375 
Q 34.1875 6.109375 38.703125 11.40625 
Q 43.21875 16.703125 43.21875 25.484375 
L 43.21875 27.484375 
z
M 52.203125 31.203125 
L 52.203125 0 
L 43.21875 0 
L 43.21875 8.296875 
Q 40.140625 3.328125 35.546875 0.953125 
Q 30.953125 -1.421875 24.3125 -1.421875 
Q 15.921875 -1.421875 10.953125 3.296875 
Q 6 8.015625 6 15.921875 
Q 6 25.140625 12.171875 29.828125 
Q 18.359375 34.515625 30.609375 34.515625 
L 43.21875 34.515625 
L 43.21875 35.40625 
Q 43.21875 41.609375 39.140625 45 
Q 35.0625 48.390625 27.6875 48.390625 
Q 23 48.390625 18.546875 47.265625 
Q 14.109375 46.140625 10.015625 43.890625 
L 10.015625 52.203125 
Q 14.9375 54.109375 19.578125 55.046875 
Q 24.21875 56 28.609375 56 
Q 40.484375 56 46.34375 49.84375 
Q 52.203125 43.703125 52.203125 31.203125 
z
" id="DejaVuSans-97"/>
      <path d="M 9.421875 54.6875 
L 18.40625 54.6875 
L 18.40625 0 
L 9.421875 0 
z
M 9.421875 75.984375 
L 18.40625 75.984375 
L 18.40625 64.59375 
L 9.421875 64.59375 
z
" id="DejaVuSans-105"/>
      <path d="M 54.890625 33.015625 
L 54.890625 0 
L 45.90625 0 
L 45.90625 32.71875 
Q 45.90625 40.484375 42.875 44.328125 
Q 39.84375 48.1875 33.796875 48.1875 
Q 26.515625 48.1875 22.3125 43.546875 
Q 18.109375 38.921875 18.109375 30.90625 
L 18.109375 0 
L 9.078125 0 
L 9.078125 54.6875 
L 18.109375 54.6875 
L 18.109375 46.1875 
Q 21.34375 51.125 25.703125 53.5625 
Q 30.078125 56 35.796875 56 
Q 45.21875 56 50.046875 50.171875 
Q 54.890625 44.34375 54.890625 33.015625 
z
" id="DejaVuSans-110"/>
      <path d="M 48.78125 52.59375 
L 48.78125 44.1875 
Q 44.96875 46.296875 41.140625 47.34375 
Q 37.3125 48.390625 33.40625 48.390625 
Q 24.65625 48.390625 19.8125 42.84375 
Q 14.984375 37.3125 14.984375 27.296875 
Q 14.984375 17.28125 19.8125 11.734375 
Q 24.65625 6.203125 33.40625 6.203125 
Q 37.3125 6.203125 41.140625 7.25 
Q 44.96875 8.296875 48.78125 10.40625 
L 48.78125 2.09375 
Q 45.015625 0.34375 40.984375 -0.53125 
Q 36.96875 -1.421875 32.421875 -1.421875 
Q 20.0625 -1.421875 12.78125 6.34375 
Q 5.515625 14.109375 5.515625 27.296875 
Q 5.515625 40.671875 12.859375 48.328125 
Q 20.21875 56 33.015625 56 
Q 37.15625 56 41.109375 55.140625 
Q 45.0625 54.296875 48.78125 52.59375 
z
" id="DejaVuSans-99"/>
     </defs>
     <g transform="translate(266.167187 398.120312)scale(0.1 -0.1)">
      <use xlink:href="#DejaVuSans-108"/>
      <use x="27.783203" xlink:href="#DejaVuSans-111"/>
      <use x="88.964844" xlink:href="#DejaVuSans-103"/>
      <use x="152.441406" xlink:href="#DejaVuSans-49"/>
      <use x="216.064453" xlink:href="#DejaVuSans-48"/>
      <use x="279.6875" xlink:href="#DejaVuSans-32"/>
      <use x="311.474609" xlink:href="#DejaVuSans-111"/>
      <use x="372.65625" xlink:href="#DejaVuSans-102"/>
      <use x="407.861328" xlink:href="#DejaVuSans-32"/>
      <use x="439.648438" xlink:href="#DejaVuSans-114"/>
      <use x="480.730469" xlink:href="#DejaVuSans-101"/>
      <use x="542.253906" xlink:href="#DejaVuSans-97"/>
      <use x="603.533203" xlink:href="#DejaVuSans-108"/>
      <use x="631.316406" xlink:href="#DejaVuSans-105"/>
      <use x="659.099609" xlink:href="#DejaVuSans-110"/>
      <use x="722.478516" xlink:href="#DejaVuSans-99"/>
     </g>
    </g>
   </g>
   <g id="matplotlib.axis_2">
    <g id="ytick_1">
     <g id="line2d_9">
      <defs>
       <path d="M 0 0 
L -3.5 0 
" id="mfa76ce5782" style="stroke:#000000;stroke-width:0.8;"/>
      </defs>
      <g>
       <use style="stroke:#000000;stroke-width:0.8;" x="47.38125" xlink:href="#mfa76ce5782" y="353.682676"/>
      </g>
     </g>
     <g id="text_10">
      <!-- 0.0 -->
      <g transform="translate(24.478125 357.481894)scale(0.1 -0.1)">
       <use xlink:href="#DejaVuSans-48"/>
       <use x="63.623047" xlink:href="#DejaVuSans-46"/>
       <use x="95.410156" xlink:href="#DejaVuSans-48"/>
      </g>
     </g>
    </g>
    <g id="ytick_2">
     <g id="line2d_10">
      <g>
       <use style="stroke:#000000;stroke-width:0.8;" x="47.38125" xlink:href="#mfa76ce5782" y="289.038356"/>
      </g>
     </g>
     <g id="text_11">
      <!-- 0.2 -->
      <g transform="translate(24.478125 292.837575)scale(0.1 -0.1)">
       <use xlink:href="#DejaVuSans-48"/>
       <use x="63.623047" xlink:href="#DejaVuSans-46"/>
       <use x="95.410156" xlink:href="#DejaVuSans-50"/>
      </g>
     </g>
    </g>
    <g id="ytick_3">
     <g id="line2d_11">
      <g>
       <use style="stroke:#000000;stroke-width:0.8;" x="47.38125" xlink:href="#mfa76ce5782" y="224.394037"/>
      </g>
     </g>
     <g id="text_12">
      <!-- 0.4 -->
      <g transform="translate(24.478125 228.193256)scale(0.1 -0.1)">
       <use xlink:href="#DejaVuSans-48"/>
       <use x="63.623047" xlink:href="#DejaVuSans-46"/>
       <use x="95.410156" xlink:href="#DejaVuSans-52"/>
      </g>
     </g>
    </g>
    <g id="ytick_4">
     <g id="line2d_12">
      <g>
       <use style="stroke:#000000;stroke-width:0.8;" x="47.38125" xlink:href="#mfa76ce5782" y="159.749718"/>
      </g>
     </g>
     <g id="text_13">
      <!-- 0.6 -->
      <defs>
       <path d="M 33.015625 40.375 
Q 26.375 40.375 22.484375 35.828125 
Q 18.609375 31.296875 18.609375 23.390625 
Q 18.609375 15.53125 22.484375 10.953125 
Q 26.375 6.390625 33.015625 6.390625 
Q 39.65625 6.390625 43.53125 10.953125 
Q 47.40625 15.53125 47.40625 23.390625 
Q 47.40625 31.296875 43.53125 35.828125 
Q 39.65625 40.375 33.015625 40.375 
z
M 52.59375 71.296875 
L 52.59375 62.3125 
Q 48.875 64.0625 45.09375 64.984375 
Q 41.3125 65.921875 37.59375 65.921875 
Q 27.828125 65.921875 22.671875 59.328125 
Q 17.53125 52.734375 16.796875 39.40625 
Q 19.671875 43.65625 24.015625 45.921875 
Q 28.375 48.1875 33.59375 48.1875 
Q 44.578125 48.1875 50.953125 41.515625 
Q 57.328125 34.859375 57.328125 23.390625 
Q 57.328125 12.15625 50.6875 5.359375 
Q 44.046875 -1.421875 33.015625 -1.421875 
Q 20.359375 -1.421875 13.671875 8.265625 
Q 6.984375 17.96875 6.984375 36.375 
Q 6.984375 53.65625 15.1875 63.9375 
Q 23.390625 74.21875 37.203125 74.21875 
Q 40.921875 74.21875 44.703125 73.484375 
Q 48.484375 72.75 52.59375 71.296875 
z
" id="DejaVuSans-54"/>
      </defs>
      <g transform="translate(24.478125 163.548937)scale(0.1 -0.1)">
       <use xlink:href="#DejaVuSans-48"/>
       <use x="63.623047" xlink:href="#DejaVuSans-46"/>
       <use x="95.410156" xlink:href="#DejaVuSans-54"/>
      </g>
     </g>
    </g>
    <g id="ytick_5">
     <g id="line2d_13">
      <g>
       <use style="stroke:#000000;stroke-width:0.8;" x="47.38125" xlink:href="#mfa76ce5782" y="95.105399"/>
      </g>
     </g>
     <g id="text_14">
      <!-- 0.8 -->
      <defs>
       <path d="M 31.78125 34.625 
Q 24.75 34.625 20.71875 30.859375 
Q 16.703125 27.09375 16.703125 20.515625 
Q 16.703125 13.921875 20.71875 10.15625 
Q 24.75 6.390625 31.78125 6.390625 
Q 38.8125 6.390625 42.859375 10.171875 
Q 46.921875 13.96875 46.921875 20.515625 
Q 46.921875 27.09375 42.890625 30.859375 
Q 38.875 34.625 31.78125 34.625 
z
M 21.921875 38.8125 
Q 15.578125 40.375 12.03125 44.71875 
Q 8.5 49.078125 8.5 55.328125 
Q 8.5 64.0625 14.71875 69.140625 
Q 20.953125 74.21875 31.78125 74.21875 
Q 42.671875 74.21875 48.875 69.140625 
Q 55.078125 64.0625 55.078125 55.328125 
Q 55.078125 49.078125 51.53125 44.71875 
Q 48 40.375 41.703125 38.8125 
Q 48.828125 37.15625 52.796875 32.3125 
Q 56.78125 27.484375 56.78125 20.515625 
Q 56.78125 9.90625 50.3125 4.234375 
Q 43.84375 -1.421875 31.78125 -1.421875 
Q 19.734375 -1.421875 13.25 4.234375 
Q 6.78125 9.90625 6.78125 20.515625 
Q 6.78125 27.484375 10.78125 32.3125 
Q 14.796875 37.15625 21.921875 38.8125 
z
M 18.3125 54.390625 
Q 18.3125 48.734375 21.84375 45.5625 
Q 25.390625 42.390625 31.78125 42.390625 
Q 38.140625 42.390625 41.71875 45.5625 
Q 45.3125 48.734375 45.3125 54.390625 
Q 45.3125 60.0625 41.71875 63.234375 
Q 38.140625 66.40625 31.78125 66.40625 
Q 25.390625 66.40625 21.84375 63.234375 
Q 18.3125 60.0625 18.3125 54.390625 
z
" id="DejaVuSans-56"/>
      </defs>
      <g transform="translate(24.478125 98.904618)scale(0.1 -0.1)">
       <use xlink:href="#DejaVuSans-48"/>
       <use x="63.623047" xlink:href="#DejaVuSans-46"/>
       <use x="95.410156" xlink:href="#DejaVuSans-56"/>
      </g>
     </g>
    </g>
    <g id="ytick_6">
     <g id="line2d_14">
      <g>
       <use style="stroke:#000000;stroke-width:0.8;" x="47.38125" xlink:href="#mfa76ce5782" y="30.46108"/>
      </g>
     </g>
     <g id="text_15">
      <!-- 1.0 -->
      <g transform="translate(24.478125 34.260298)scale(0.1 -0.1)">
       <use xlink:href="#DejaVuSans-49"/>
       <use x="63.623047" xlink:href="#DejaVuSans-46"/>
       <use x="95.410156" xlink:href="#DejaVuSans-48"/>
      </g>
     </g>
    </g>
    <g id="text_16">
     <!-- CDF -->
     <defs>
      <path d="M 64.40625 67.28125 
L 64.40625 56.890625 
Q 59.421875 61.53125 53.78125 63.8125 
Q 48.140625 66.109375 41.796875 66.109375 
Q 29.296875 66.109375 22.65625 58.46875 
Q 16.015625 50.828125 16.015625 36.375 
Q 16.015625 21.96875 22.65625 14.328125 
Q 29.296875 6.6875 41.796875 6.6875 
Q 48.140625 6.6875 53.78125 8.984375 
Q 59.421875 11.28125 64.40625 15.921875 
L 64.40625 5.609375 
Q 59.234375 2.09375 53.4375 0.328125 
Q 47.65625 -1.421875 41.21875 -1.421875 
Q 24.65625 -1.421875 15.125 8.703125 
Q 5.609375 18.84375 5.609375 36.375 
Q 5.609375 53.953125 15.125 64.078125 
Q 24.65625 74.21875 41.21875 74.21875 
Q 47.75 74.21875 53.53125 72.484375 
Q 59.328125 70.75 64.40625 67.28125 
z
" id="DejaVuSans-67"/>
      <path d="M 19.671875 64.796875 
L 19.671875 8.109375 
L 31.59375 8.109375 
Q 46.6875 8.109375 53.6875 14.9375 
Q 60.6875 21.78125 60.6875 36.53125 
Q 60.6875 51.171875 53.6875 57.984375 
Q 46.6875 64.796875 31.59375 64.796875 
z
M 9.8125 72.90625 
L 30.078125 72.90625 
Q 51.265625 72.90625 61.171875 64.09375 
Q 71.09375 55.28125 71.09375 36.53125 
Q 71.09375 17.671875 61.125 8.828125 
Q 51.171875 0 30.078125 0 
L 9.8125 0 
z
" id="DejaVuSans-68"/>
      <path d="M 9.8125 72.90625 
L 51.703125 72.90625 
L 51.703125 64.59375 
L 19.671875 64.59375 
L 19.671875 43.109375 
L 48.578125 43.109375 
L 48.578125 34.8125 
L 19.671875 34.8125 
L 19.671875 0 
L 9.8125 0 
z
" id="DejaVuSans-70"/>
     </defs>
     <g transform="translate(18.398438 202.289062)rotate(-90)scale(0.1 -0.1)">
      <use xlink:href="#DejaVuSans-67"/>
      <use x="69.824219" xlink:href="#DejaVuSans-68"/>
      <use x="146.826172" xlink:href="#DejaVuSans-70"/>
     </g>
    </g>
   </g>
   <g id="line2d_15">
    <path clip-path="url(#p0a4c24f354)" d="M 70.80483 353.68267 
L 80.365474 353.682662 
L 89.926119 353.682642 
L 99.486764 353.682595 
L 109.047408 353.682487 
L 118.608053 353.682244 
L 128.168698 353.681714 
L 137.729343 353.680589 
L 147.289987 353.678267 
L 156.850632 353.673607 
L 166.411277 353.664506 
L 175.971921 353.647221 
L 185.532566 353.615284 
L 195.093211 353.557886 
L 204.653856 353.457545 
L 214.2145 353.286917 
L 223.775145 353.004679 
L 233.33579 352.550565 
L 242.896434 351.839835 
L 252.457079 350.757824 
L 262.017724 349.155511 
L 271.578369 346.847426 
L 281.139013 343.613394 
L 290.699658 339.205559 
L 300.260303 333.361764 
L 309.820947 325.825555 
L 319.381592 316.371904 
L 328.942237 304.836451 
L 338.502881 291.14472 
L 348.063526 275.336951 
L 357.624171 257.583966 
L 367.184816 238.190259 
L 376.74546 217.582118 
L 386.306105 196.280851 
L 395.86675 174.863753 
L 405.427394 153.917591 
L 414.988039 133.990822 
L 424.548684 115.55095 
L 434.109329 98.952501 
L 443.669973 84.419153 
L 453.230618 72.041096 
L 462.791263 61.786282 
L 472.351907 53.522256 
L 481.912552 47.044209 
L 491.473197 42.104686 
L 501.033842 38.441033 
L 510.594486 35.797819 
L 520.155131 33.942842 
L 529.715776 32.676551 
L 539.27642 31.835705 
" style="fill:none;stroke:#808080;stroke-linecap:square;stroke-width:1.5;"/>
   </g>
   <g id="line2d_16">
    <path clip-path="url(#p0a4c24f354)" d="M 120.224012 353.548726 
L 120.841764 353.374008 
L 150.363693 351.655952 
L 162.350487 351.393876 
L 175.249542 350.922139 
L 198.85131 350.764893 
L 200.809156 350.584352 
L 201.426908 350.415458 
L 212.117339 349.588462 
L 216.876301 349.378801 
L 217.690235 349.227379 
L 242.875423 347.660745 
L 244.647745 347.503499 
L 244.946427 347.189008 
L 248.086289 346.932755 
L 248.149589 346.827925 
L 248.566195 346.763862 
L 250.220642 346.647383 
L 250.618761 346.426075 
L 255.780434 346.064992 
L 255.81058 345.622374 
L 259.613409 345.395241 
L 262.283727 345.133165 
L 262.541987 344.603188 
L 262.75847 344.48671 
L 265.513997 344.207162 
L 268.360851 343.968381 
L 269.324245 343.677185 
L 270.42214 343.438405 
L 270.921593 343.118089 
L 273.115262 342.943372 
L 273.401001 342.727887 
L 275.414434 342.401748 
L 277.156236 342.034841 
L 277.642682 341.702877 
L 280.628496 340.53227 
L 280.632429 340.345905 
L 282.08881 340.095476 
L 284.889169 339.262656 
L 285.122623 338.942341 
L 285.474673 338.820038 
L 286.205325 338.691912 
L 286.304575 338.295886 
L 287.728121 338.185231 
L 288.241015 337.812501 
L 288.351318 337.433946 
L 288.858766 337.200989 
L 288.950865 337.0088 
L 289.739642 336.816611 
L 289.75309 336.647717 
L 290.021403 336.403113 
L 290.911333 336.222571 
L 291.39701 335.727538 
L 291.800827 335.587764 
L 292.085714 335.325688 
L 293.198833 334.993725 
L 293.312776 334.830655 
L 294.523761 334.551107 
L 294.774062 334.34727 
L 295.228636 334.125961 
L 296.786265 333.858061 
L 298.058975 332.926234 
L 299.463926 332.681629 
L 299.549198 332.081766 
L 300.120129 331.860457 
L 300.95783 331.353776 
L 301.454717 330.666554 
L 301.685152 330.480188 
L 301.830077 330.084162 
L 303.027504 329.641544 
L 303.091677 329.315405 
L 303.75068 329.105744 
L 303.882644 328.808724 
L 304.860343 328.645654 
L 305.122094 328.395226 
L 306.496185 328.057439 
L 306.898052 327.871073 
L 307.112913 327.480871 
L 307.782363 327.317801 
L 309.044317 326.752881 
L 309.098568 326.595636 
L 309.319869 326.374327 
L 310.724086 326.083131 
L 311.339519 325.7104 
L 311.395146 325.524035 
L 311.948505 325.221191 
L 312.877292 324.108823 
L 313.461517 323.922457 
L 313.495043 323.706972 
L 313.684664 323.398305 
L 314.568786 323.258531 
L 314.621408 322.978983 
L 315.54761 322.577132 
L 315.5778 322.175282 
L 316.022353 321.924854 
L 316.067263 321.65113 
L 316.603497 321.371582 
L 316.730446 320.958083 
L 317.419575 320.806662 
L 318.77788 319.857363 
L 318.839058 319.455513 
L 319.026272 319.298267 
L 320.873852 318.762467 
L 321.632504 318.209194 
L 321.94249 317.807344 
L 322.885468 317.294839 
L 323.693522 316.491139 
L 324.185475 315.565136 
L 324.327524 315.238996 
L 324.925323 315.052631 
L 326.554326 313.439406 
L 326.654193 312.915253 
L 327.348501 312.798775 
L 328.488716 311.430154 
L 329.192289 311.18555 
L 329.701757 310.608982 
L 329.758371 310.16054 
L 330.420119 308.867631 
L 333.294645 306.840907 
L 333.447033 306.549712 
L 333.576883 305.705244 
L 333.896311 305.070437 
L 334.912255 304.686058 
L 335.521208 303.923125 
L 336.807152 303.736759 
L 337.398155 303.235903 
L 337.441092 302.973826 
L 337.948008 302.74087 
L 338.223186 301.87893 
L 338.386505 300.88304 
L 338.531939 300.48119 
L 338.738556 300.259881 
L 338.800036 299.875502 
L 339.469207 299.438708 
L 339.784936 298.966971 
L 340.852603 298.59424 
L 340.983649 298.128327 
L 341.366723 297.615822 
L 341.857134 297.318802 
L 342.214748 296.759706 
L 343.008904 296.142371 
L 343.019662 295.752169 
L 343.245117 295.228016 
L 343.282609 294.849461 
L 344.585027 294.016641 
L 344.647819 293.323595 
L 345.069902 292.712084 
L 345.349597 291.168745 
L 345.716592 290.906669 
L 345.756371 290.662065 
L 346.455111 289.974842 
L 346.576659 289.637055 
L 347.318137 289.31674 
L 347.931776 288.699404 
L 348.094653 287.697691 
L 348.497414 287.284193 
L 349.490468 286.49214 
L 350.047765 286.19512 
L 350.200074 285.781622 
L 350.918145 284.814852 
L 351.077559 284.162573 
L 351.567126 283.329753 
L 352.47981 283.003613 
L 352.652666 282.660002 
L 352.992312 281.204023 
L 353.386261 280.161541 
L 353.787615 279.55003 
L 354.82625 279.188947 
L 355.063364 278.280416 
L 355.840182 277.72132 
L 356.248565 274.698707 
L 356.355559 273.341734 
L 357.014563 272.80011 
L 358.124225 272.275957 
L 359.070451 271.466433 
L 359.395996 270.854921 
L 359.457846 270.447247 
L 359.884944 269.41059 
L 359.909082 268.997092 
L 360.161935 268.472939 
L 361.001855 267.249916 
L 361.048218 266.941249 
L 361.528899 266.457864 
L 362.36245 266.02107 
L 362.880699 264.722336 
L 363.143809 264.402021 
L 363.624991 263.178998 
L 364.423177 262.619902 
L 364.605257 261.274577 
L 364.657175 260.890199 
L 365.06718 260.197152 
L 366.671716 258.630519 
L 366.846898 257.564742 
L 367.128226 256.970702 
L 367.834423 256.469845 
L 367.979891 255.002218 
L 368.323706 253.901498 
L 369.327725 252.859016 
L 369.471214 252.503757 
L 369.478038 251.769944 
L 369.872463 251.216672 
L 370.050943 250.488682 
L 370.680116 249.422905 
L 370.712691 248.956992 
L 372.29503 246.81379 
L 372.522113 246.033385 
L 372.973635 245.689774 
L 373.590395 244.693884 
L 374.172363 242.579802 
L 374.279266 241.018992 
L 375.043836 240.62879 
L 375.356122 240.209468 
L 375.651401 239.295113 
L 375.663672 238.433173 
L 376.152392 237.926492 
L 377.099724 237.425635 
L 377.594374 236.773356 
L 377.789878 235.398912 
L 378.614971 233.331421 
L 379.031128 232.25982 
L 379.761779 231.351289 
L 379.818208 230.611652 
L 380.612384 229.877838 
L 381.659295 228.317028 
L 381.819546 226.831929 
L 382.319556 226.290305 
L 382.50732 223.850083 
L 383.301476 222.6853 
L 383.309544 222.137852 
L 383.427755 221.68941 
L 383.454587 220.763407 
L 384.420315 220.419796 
L 384.467787 219.534561 
L 384.877598 218.806571 
L 385.466221 217.088515 
L 385.91281 216.645897 
L 386.009164 215.719895 
L 386.71472 215.283101 
L 386.86923 214.572583 
L 387.698057 213.664052 
L 387.887275 213.064188 
L 388.387225 210.09399 
L 389.62946 208.766137 
L 389.893006 207.880902 
L 390.694317 205.842531 
L 390.70379 205.213547 
L 391.370131 203.943933 
L 391.620092 202.220054 
L 392.838048 200.280689 
L 393.02038 198.877125 
L 393.18853 195.342007 
L 394.080187 191.975783 
L 394.958372 191.568109 
L 395.237226 190.08301 
L 396.132753 189.331724 
L 396.579677 188.807572 
L 396.643855 186.489653 
L 397.307135 185.656833 
L 397.923206 183.816475 
L 398.414723 183.1409 
L 398.416797 182.482798 
L 398.678548 181.108353 
L 399.02128 180.578376 
L 399.363023 179.797972 
L 399.688567 178.767138 
L 400.052639 178.114859 
L 401.19467 177.398518 
L 401.338817 175.878475 
L 402.655022 174.108004 
L 403.24584 172.797623 
L 403.972248 170.770899 
L 404.897829 165.907928 
L 404.949747 165.203234 
L 405.367112 163.467707 
L 405.510466 161.953488 
L 406.298087 159.763695 
L 407.017971 159.152184 
L 407.482934 155.413229 
L 407.933645 153.968898 
L 408.372151 150.358069 
L 409.514161 149.740733 
L 409.774021 148.238163 
L 410.2869 146.34539 
L 410.343515 145.174782 
L 410.972688 144.586566 
L 411.526476 142.862687 
L 411.93715 142.09393 
L 412.397143 140.789372 
L 413.147217 140.206981 
L 413.267813 137.015474 
L 413.884556 135.74586 
L 414.910113 134.621844 
L 415.336408 133.707489 
L 415.495852 132.723247 
L 415.945507 131.447809 
L 416.444964 130.830473 
L 416.789176 127.953458 
L 417.032078 126.613957 
L 417.482003 125.321047 
L 417.64983 124.237799 
L 418.906085 122.758524 
L 418.970193 122.112069 
L 419.702397 121.267601 
L 420.424073 119.176815 
L 421.571577 118.33817 
L 421.951866 116.96955 
L 422.248192 114.692398 
L 422.932666 113.824634 
L 423.532151 112.61326 
L 423.602116 111.844502 
L 423.865075 111.104865 
L 424.620468 110.505001 
L 424.86407 109.619766 
L 425.652449 109.188796 
L 425.93474 105.741037 
L 427.006024 104.83833 
L 427.160537 102.514587 
L 427.849559 101.180909 
L 428.18109 100.18502 
L 428.340262 97.069224 
L 428.832388 96.032566 
L 430.635291 94.337806 
L 430.884955 92.200429 
L 431.842106 91.000702 
L 432.090717 90.28436 
L 432.939698 89.789327 
L 433.23667 89.171992 
L 433.856544 86.830777 
L 433.913158 85.520395 
L 434.115224 84.804054 
L 435.506793 84.052768 
L 435.530893 83.633446 
L 436.046627 82.707443 
L 437.45367 81.752321 
L 437.599706 81.169929 
L 438.141481 80.447763 
L 438.707295 80.045913 
L 438.812969 79.323747 
L 439.066011 78.787947 
L 439.514639 75.509081 
L 439.52282 74.099693 
L 441.483287 73.63378 
L 441.651107 72.93491 
L 443.537458 71.548817 
L 444.713557 71.176087 
L 445.095716 70.331619 
L 446.64496 69.708459 
L 447.773731 69.062005 
L 448.391483 68.5495 
L 448.636757 67.897221 
L 449.805876 66.604311 
L 450.121152 65.550182 
L 450.44405 65.235691 
L 450.697708 64.46111 
L 453.440593 63.214791 
L 453.674319 62.73723 
L 455.202684 62.49845 
L 455.605723 61.782108 
L 458.899036 60.693035 
L 459.081915 60.087348 
L 463.918887 59.091458 
L 465.008756 57.944146 
L 466.398221 57.425817 
L 466.406592 56.563878 
L 466.691782 55.952366 
L 467.243403 55.113722 
L 468.044556 54.181895 
L 468.264494 53.529617 
L 469.209696 52.73174 
L 469.280216 50.559419 
L 471.91839 49.452874 
L 472.326325 47.641636 
L 472.344931 46.366198 
L 473.550884 45.713919 
L 477.550422 45.480963 
L 478.36333 43.489183 
L 480.899814 42.679658 
L 482.759098 41.858486 
L 486.765856 41.427516 
L 486.898895 39.342554 
L 488.348058 38.265129 
L 489.718293 36.75091 
L 490.75262 35.283283 
L 492.340404 34.147619 
L 493.458887 33.920487 
L 493.751156 32.540218 
L 494.411528 31.69575 
L 497.880091 30.659093 
L 500.612689 30.46108 
L 500.612689 30.46108 
" style="fill:none;stroke:#1f77b4;stroke-linecap:square;stroke-width:1.5;"/>
   </g>
   <g id="patch_3">
    <path d="M 47.38125 369.84375 
L 47.38125 14.3 
" style="fill:none;stroke:#000000;stroke-linecap:square;stroke-linejoin:miter;stroke-width:0.8;"/>
   </g>
   <g id="patch_4">
    <path d="M 562.7 369.84375 
L 562.7 14.3 
" style="fill:none;stroke:#000000;stroke-linecap:square;stroke-linejoin:miter;stroke-width:0.8;"/>
   </g>
   <g id="patch_5">
    <path d="M 47.38125 369.84375 
L 562.7 369.84375 
" style="fill:none;stroke:#000000;stroke-linecap:square;stroke-linejoin:miter;stroke-width:0.8;"/>
   </g>
   <g id="patch_6">
    <path d="M 47.38125 14.3 
L 562.7 14.3 
" style="fill:none;stroke:#000000;stroke-linecap:square;stroke-linejoin:miter;stroke-width:0.8;"/>
   </g>
  </g>
 </g>
 <defs>
  <clipPath id="p0a4c24f354">
   <rect height="355.54375" width="515.31875" x="47.38125" y="14.3"/>
  </clipPath>
 </defs>
</svg>
