<?xml version="1.0" encoding="utf-8" standalone="no"?>
<!DOCTYPE svg PUBLIC "-//W3C//DTD SVG 1.1//EN"
  "http://www.w3.org/Graphics/SVG/1.1/DTD/svg11.dtd">
<!-- Created with matplotlib (https://matplotlib.org/) -->
<svg height="411pt" version="1.1" viewBox="0 0 577 411" width="577pt" xmlns="http://www.w3.org/2000/svg" xmlns:xlink="http://www.w3.org/1999/xlink">
 <defs>
  <style type="text/css">
*{stroke-linecap:butt;stroke-linejoin:round;}
  </style>
 </defs>
 <g id="figure_1">
  <g id="patch_1">
   <path d="M 0 411 
L 577 411 
L 577 0 
L 0 0 
z
" style="fill:#ffffff;"/>
  </g>
  <g id="axes_1">
   <g id="patch_2">
    <path d="M 50.565625 369.84375 
L 562.7 369.84375 
L 562.7 14.3 
L 50.565625 14.3 
z
" style="fill:#ffffff;"/>
   </g>
   <g id="PolyCollection_1">
    <defs>
     <path d="M 82.584436 -57.31733 
L 82.56361 -57.31733 
L 82.541752 -60.582194 
L 82.511189 -63.847059 
L 82.49716 -67.111923 
L 82.514952 -70.376788 
L 82.545498 -73.641652 
L 82.565316 -76.906517 
L 82.571844 -80.171381 
L 82.570537 -83.436246 
L 82.560619 -86.701111 
L 82.537212 -89.965975 
L 82.502158 -93.23084 
L 82.466466 -96.495704 
L 82.442479 -99.760569 
L 82.444318 -103.025433 
L 82.478543 -106.290298 
L 82.525174 -109.555162 
L 82.557346 -112.820027 
L 82.570293 -116.084892 
L 82.573444 -119.349756 
L 82.573583 -122.614621 
L 82.571434 -125.879485 
L 82.562403 -129.14435 
L 82.537915 -132.409214 
L 82.49555 -135.674079 
L 82.454549 -138.938943 
L 82.443643 -142.203808 
L 82.457449 -145.468673 
L 82.456454 -148.733537 
L 82.426996 -151.998402 
L 82.397802 -155.263266 
L 82.374241 -158.528131 
L 82.323293 -161.792995 
L 82.266311 -165.05786 
L 82.268485 -168.322724 
L 82.29546 -171.587589 
L 82.219914 -174.852454 
L 81.980915 -178.117318 
L 81.616907 -181.382183 
L 81.141135 -184.647047 
L 80.532233 -187.911912 
L 79.681958 -191.176776 
L 78.089784 -194.441641 
L 75.303844 -197.706505 
L 72.118029 -200.97137 
L 69.967971 -204.236235 
L 68.601446 -207.501099 
L 66.717598 -210.765964 
L 64.954573 -214.030828 
L 64.677503 -217.295693 
L 64.997683 -220.560557 
L 64.043221 -223.825422 
L 61.450489 -227.090286 
L 59.039216 -230.355151 
L 58.608503 -233.620015 
L 59.126456 -236.88488 
L 59.397874 -240.149745 
L 60.736787 -243.414609 
L 63.339444 -246.679474 
L 65.079509 -249.944338 
L 65.71966 -253.209203 
L 67.065885 -256.474067 
L 69.136837 -259.738932 
L 70.618524 -263.003796 
L 71.527484 -266.268661 
L 72.347997 -269.533526 
L 73.107504 -272.79839 
L 74.296607 -276.063255 
L 76.083962 -279.328119 
L 77.656494 -282.592984 
L 78.636506 -285.857848 
L 79.338868 -289.122713 
L 79.915449 -292.387577 
L 80.439071 -295.652442 
L 80.979849 -298.917307 
L 81.429175 -302.182171 
L 81.734437 -305.447036 
L 81.994573 -308.7119 
L 82.24116 -311.976765 
L 82.411341 -315.241629 
L 82.485265 -318.506494 
L 82.503117 -321.771358 
L 82.507512 -325.036223 
L 82.519493 -328.301088 
L 82.5346 -331.565952 
L 82.542086 -334.830817 
L 82.546815 -338.095681 
L 82.556232 -341.360546 
L 82.56635 -344.62541 
L 82.571922 -347.890275 
L 82.573651 -351.155139 
L 82.573853 -354.420004 
L 82.572922 -357.684869 
L 82.568255 -360.949733 
L 82.555009 -364.214598 
L 82.534642 -367.479462 
L 82.522781 -370.744327 
L 82.532134 -374.009191 
L 82.552509 -377.274056 
L 82.567081 -380.53892 
L 82.580965 -380.53892 
L 82.580965 -380.53892 
L 82.595538 -377.274056 
L 82.615913 -374.009191 
L 82.625266 -370.744327 
L 82.613405 -367.479462 
L 82.593038 -364.214598 
L 82.579791 -360.949733 
L 82.575125 -357.684869 
L 82.574194 -354.420004 
L 82.574395 -351.155139 
L 82.576125 -347.890275 
L 82.581697 -344.62541 
L 82.591815 -341.360546 
L 82.601232 -338.095681 
L 82.60596 -334.830817 
L 82.613446 -331.565952 
L 82.628554 -328.301088 
L 82.640535 -325.036223 
L 82.64493 -321.771358 
L 82.662782 -318.506494 
L 82.736705 -315.241629 
L 82.906886 -311.976765 
L 83.153474 -308.7119 
L 83.41361 -305.447036 
L 83.718872 -302.182171 
L 84.168198 -298.917307 
L 84.708976 -295.652442 
L 85.232598 -292.387577 
L 85.809179 -289.122713 
L 86.511541 -285.857848 
L 87.491553 -282.592984 
L 89.064085 -279.328119 
L 90.85144 -276.063255 
L 92.040543 -272.79839 
L 92.80005 -269.533526 
L 93.620563 -266.268661 
L 94.529523 -263.003796 
L 96.01121 -259.738932 
L 98.082162 -256.474067 
L 99.428387 -253.209203 
L 100.068538 -249.944338 
L 101.808603 -246.679474 
L 104.41126 -243.414609 
L 105.750173 -240.149745 
L 106.02159 -236.88488 
L 106.539543 -233.620015 
L 106.108831 -230.355151 
L 103.697558 -227.090286 
L 101.104826 -223.825422 
L 100.150363 -220.560557 
L 100.470544 -217.295693 
L 100.193474 -214.030828 
L 98.430449 -210.765964 
L 96.546601 -207.501099 
L 95.180075 -204.236235 
L 93.030018 -200.97137 
L 89.844203 -197.706505 
L 87.058263 -194.441641 
L 85.466089 -191.176776 
L 84.615814 -187.911912 
L 84.006911 -184.647047 
L 83.53114 -181.382183 
L 83.167132 -178.117318 
L 82.928133 -174.852454 
L 82.852587 -171.587589 
L 82.879562 -168.322724 
L 82.881736 -165.05786 
L 82.824754 -161.792995 
L 82.773806 -158.528131 
L 82.750245 -155.263266 
L 82.721051 -151.998402 
L 82.691593 -148.733537 
L 82.690598 -145.468673 
L 82.704404 -142.203808 
L 82.693498 -138.938943 
L 82.652496 -135.674079 
L 82.610132 -132.409214 
L 82.585644 -129.14435 
L 82.576613 -125.879485 
L 82.574464 -122.614621 
L 82.574603 -119.349756 
L 82.577754 -116.084892 
L 82.590701 -112.820027 
L 82.622873 -109.555162 
L 82.669504 -106.290298 
L 82.703729 -103.025433 
L 82.705568 -99.760569 
L 82.681581 -96.495704 
L 82.645889 -93.23084 
L 82.610835 -89.965975 
L 82.587428 -86.701111 
L 82.577509 -83.436246 
L 82.576203 -80.171381 
L 82.582731 -76.906517 
L 82.602549 -73.641652 
L 82.633095 -70.376788 
L 82.650887 -67.111923 
L 82.636858 -63.847059 
L 82.606295 -60.582194 
L 82.584436 -57.31733 
z
" id="mcbdc4759e4" style="stroke:#3d3d3d;stroke-width:1.5;"/>
    </defs>
    <g clip-path="url(#pbd6d6e3463)">
     <use style="fill:#3274a1;stroke:#3d3d3d;stroke-width:1.5;" x="0" xlink:href="#mcbdc4759e4" y="411"/>
    </g>
   </g>
   <g id="PolyCollection_2">
    <defs>
     <path d="M 146.599238 -89.496407 
L 146.582403 -89.496407 
L 146.567782 -92.13394 
L 146.546336 -94.771473 
L 146.530221 -97.409006 
L 146.532578 -100.046539 
L 146.551328 -102.684072 
L 146.571928 -105.321605 
L 146.584444 -107.959139 
L 146.589302 -110.596672 
L 146.590565 -113.234205 
L 146.590784 -115.871738 
L 146.59075 -118.509271 
L 146.590311 -121.146804 
L 146.588071 -123.784337 
L 146.580062 -126.42187 
L 146.560055 -129.059404 
L 146.525698 -131.696937 
L 146.486806 -134.33447 
L 146.462236 -136.972003 
L 146.464262 -139.609536 
L 146.48824 -142.247069 
L 146.51747 -144.884602 
L 146.538143 -147.522135 
L 146.550132 -150.159669 
L 146.559014 -152.797202 
L 146.559268 -155.434735 
L 146.531317 -158.072268 
L 146.45981 -160.709801 
L 146.364513 -163.347334 
L 146.30414 -165.984867 
L 146.320846 -168.6224 
L 146.387321 -171.259933 
L 146.43019 -173.897467 
L 146.393525 -176.535 
L 146.274009 -179.172533 
L 146.099977 -181.810066 
L 145.88458 -184.447599 
L 145.634102 -187.085132 
L 145.367898 -189.722665 
L 145.004565 -192.360198 
L 144.217833 -194.997732 
L 142.610952 -197.635265 
L 140.263043 -200.272798 
L 137.92495 -202.910331 
L 136.135166 -205.547864 
L 134.373045 -208.185397 
L 132.011707 -210.82293 
L 129.655297 -213.460463 
L 128.306505 -216.097996 
L 127.821476 -218.73553 
L 127.356845 -221.373063 
L 126.357011 -224.010596 
L 124.502259 -226.648129 
L 122.269254 -229.285662 
L 121.079109 -231.923195 
L 121.326441 -234.560728 
L 121.658077 -237.198261 
L 121.455265 -239.835795 
L 122.079618 -242.473328 
L 124.370121 -245.110861 
L 126.934242 -247.748394 
L 128.236095 -250.385927 
L 128.797608 -253.02346 
L 129.984186 -255.660993 
L 131.717738 -258.298526 
L 132.832191 -260.93606 
L 133.120043 -263.573593 
L 133.587688 -266.211126 
L 134.782189 -268.848659 
L 136.17481 -271.486192 
L 137.35491 -274.123725 
L 138.630435 -276.761258 
L 140.166911 -279.398791 
L 141.571575 -282.036324 
L 142.548518 -284.673858 
L 143.222289 -287.311391 
L 143.743696 -289.948924 
L 144.132894 -292.586457 
L 144.473751 -295.22399 
L 144.871954 -297.861523 
L 145.298233 -300.499056 
L 145.666282 -303.136589 
L 145.962798 -305.774123 
L 146.205512 -308.411656 
L 146.382707 -311.049189 
L 146.486673 -313.686722 
L 146.538155 -316.324255 
L 146.561258 -318.961788 
L 146.562824 -321.599321 
L 146.539392 -324.236854 
L 146.496993 -326.874387 
L 146.460952 -329.511921 
L 146.455714 -332.149454 
L 146.477319 -334.786987 
L 146.50368 -337.42452 
L 146.524375 -340.062053 
L 146.543212 -342.699586 
L 146.562254 -345.337119 
L 146.577575 -347.974652 
L 146.586271 -350.612186 
L 146.59537 -350.612186 
L 146.59537 -350.612186 
L 146.604065 -347.974652 
L 146.619387 -345.337119 
L 146.638428 -342.699586 
L 146.657266 -340.062053 
L 146.677961 -337.42452 
L 146.704321 -334.786987 
L 146.725926 -332.149454 
L 146.720689 -329.511921 
L 146.684648 -326.874387 
L 146.642249 -324.236854 
L 146.618816 -321.599321 
L 146.620382 -318.961788 
L 146.643486 -316.324255 
L 146.694967 -313.686722 
L 146.798934 -311.049189 
L 146.976128 -308.411656 
L 147.218842 -305.774123 
L 147.515358 -303.136589 
L 147.883408 -300.499056 
L 148.309687 -297.861523 
L 148.70789 -295.22399 
L 149.048746 -292.586457 
L 149.437945 -289.948924 
L 149.959352 -287.311391 
L 150.633122 -284.673858 
L 151.610065 -282.036324 
L 153.01473 -279.398791 
L 154.551205 -276.761258 
L 155.82673 -274.123725 
L 157.006831 -271.486192 
L 158.399452 -268.848659 
L 159.593953 -266.211126 
L 160.061598 -263.573593 
L 160.349449 -260.93606 
L 161.463903 -258.298526 
L 163.197455 -255.660993 
L 164.384033 -253.02346 
L 164.945546 -250.385927 
L 166.247399 -247.748394 
L 168.811519 -245.110861 
L 171.102022 -242.473328 
L 171.726376 -239.835795 
L 171.523564 -237.198261 
L 171.8552 -234.560728 
L 172.102532 -231.923195 
L 170.912386 -229.285662 
L 168.679382 -226.648129 
L 166.824629 -224.010596 
L 165.824795 -221.373063 
L 165.360164 -218.73553 
L 164.875135 -216.097996 
L 163.526343 -213.460463 
L 161.169934 -210.82293 
L 158.808596 -208.185397 
L 157.046475 -205.547864 
L 155.256691 -202.910331 
L 152.918598 -200.272798 
L 150.570688 -197.635265 
L 148.963808 -194.997732 
L 148.177076 -192.360198 
L 147.813742 -189.722665 
L 147.547539 -187.085132 
L 147.297061 -184.447599 
L 147.081663 -181.810066 
L 146.907632 -179.172533 
L 146.788115 -176.535 
L 146.75145 -173.897467 
L 146.794319 -171.259933 
L 146.860795 -168.6224 
L 146.877501 -165.984867 
L 146.817128 -163.347334 
L 146.721831 -160.709801 
L 146.650324 -158.072268 
L 146.622372 -155.434735 
L 146.622627 -152.797202 
L 146.631509 -150.159669 
L 146.643498 -147.522135 
L 146.664171 -144.884602 
L 146.693401 -142.247069 
L 146.717378 -139.609536 
L 146.719404 -136.972003 
L 146.694835 -134.33447 
L 146.655942 -131.696937 
L 146.621585 -129.059404 
L 146.601579 -126.42187 
L 146.59357 -123.784337 
L 146.59133 -121.146804 
L 146.590891 -118.509271 
L 146.590857 -115.871738 
L 146.591076 -113.234205 
L 146.592339 -110.596672 
L 146.597197 -107.959139 
L 146.609713 -105.321605 
L 146.630313 -102.684072 
L 146.649063 -100.046539 
L 146.65142 -97.409006 
L 146.635304 -94.771473 
L 146.613858 -92.13394 
L 146.599238 -89.496407 
z
" id="m53e7e04dc6" style="stroke:#3d3d3d;stroke-width:1.5;"/>
    </defs>
    <g clip-path="url(#pbd6d6e3463)">
     <use style="fill:#e1812c;stroke:#3d3d3d;stroke-width:1.5;" x="0" xlink:href="#m53e7e04dc6" y="411"/>
    </g>
   </g>
   <g id="PolyCollection_3">
    <defs>
     <path d="M 210.621162 -87.367454 
L 210.594072 -87.367454 
L 210.560421 -90.321008 
L 210.499686 -93.274561 
L 210.445527 -96.228115 
L 210.447924 -99.181668 
L 210.504659 -102.135221 
L 210.564326 -105.088775 
L 210.595791 -108.042328 
L 210.605526 -110.995882 
L 210.607379 -113.949435 
L 210.6076 -116.902989 
L 210.607616 -119.856542 
L 210.607617 -122.810096 
L 210.607617 -125.763649 
L 210.607611 -128.717203 
L 210.607525 -131.670756 
L 210.606734 -134.624309 
L 210.602196 -137.577863 
L 210.586207 -140.531416 
L 210.552314 -143.48497 
L 210.510524 -146.438523 
L 210.482574 -149.392077 
L 210.477738 -152.34563 
L 210.493066 -155.299184 
L 210.514073 -158.252737 
L 210.511671 -161.206291 
L 210.482307 -164.159844 
L 210.46307 -167.113397 
L 210.470676 -170.066951 
L 210.462511 -173.020504 
L 210.38075 -175.974058 
L 210.224364 -178.927611 
L 210.049319 -181.881165 
L 209.874546 -184.834718 
L 209.66254 -187.788272 
L 209.315198 -190.741825 
L 208.472085 -193.695379 
L 206.587816 -196.648932 
L 203.709787 -199.602485 
L 200.877758 -202.556039 
L 198.728357 -205.509592 
L 196.153967 -208.463146 
L 192.473247 -211.416699 
L 189.699329 -214.370253 
L 189.653016 -217.323806 
L 191.053933 -220.27736 
L 191.789306 -223.230913 
L 190.883031 -226.184467 
L 188.802613 -229.13802 
L 187.698373 -232.091573 
L 188.40968 -235.045127 
L 188.933306 -237.99868 
L 188.522372 -240.952234 
L 189.214284 -243.905787 
L 191.500784 -246.859341 
L 193.267748 -249.812894 
L 193.893464 -252.766448 
L 194.856706 -255.720001 
L 196.261076 -258.673555 
L 196.93076 -261.627108 
L 197.208448 -264.580661 
L 198.11323 -267.534215 
L 199.192611 -270.487768 
L 199.95075 -273.441322 
L 201.23988 -276.394875 
L 203.345086 -279.348429 
L 205.209828 -282.301982 
L 206.242146 -285.255536 
L 206.803425 -288.209089 
L 207.283339 -291.162643 
L 207.898464 -294.116196 
L 208.624166 -297.069749 
L 209.163081 -300.023303 
L 209.440274 -302.976856 
L 209.681966 -305.93041 
L 209.976248 -308.883963 
L 210.206816 -311.837517 
L 210.318302 -314.79107 
L 210.375376 -317.744624 
L 210.437371 -320.698177 
L 210.500149 -323.651731 
L 210.541505 -326.605284 
L 210.563492 -329.558837 
L 210.579834 -332.512391 
L 210.59408 -335.465944 
L 210.603023 -338.419498 
L 210.606579 -341.373051 
L 210.607464 -344.326605 
L 210.607603 -347.280158 
L 210.607616 -350.233712 
L 210.607611 -353.187265 
L 210.607541 -356.140819 
L 210.607038 -359.094372 
L 210.604797 -362.047925 
L 210.598866 -365.001479 
L 210.590297 -367.955032 
L 210.585754 -370.908586 
L 210.590017 -373.862139 
L 210.598581 -376.815693 
L 210.604658 -379.769246 
L 210.610576 -379.769246 
L 210.610576 -379.769246 
L 210.616654 -376.815693 
L 210.625218 -373.862139 
L 210.62948 -370.908586 
L 210.624938 -367.955032 
L 210.616369 -365.001479 
L 210.610437 -362.047925 
L 210.608197 -359.094372 
L 210.607693 -356.140819 
L 210.607624 -353.187265 
L 210.607618 -350.233712 
L 210.607632 -347.280158 
L 210.60777 -344.326605 
L 210.608655 -341.373051 
L 210.612212 -338.419498 
L 210.621154 -335.465944 
L 210.6354 -332.512391 
L 210.651742 -329.558837 
L 210.673729 -326.605284 
L 210.715085 -323.651731 
L 210.777863 -320.698177 
L 210.839859 -317.744624 
L 210.896932 -314.79107 
L 211.008419 -311.837517 
L 211.238986 -308.883963 
L 211.533268 -305.93041 
L 211.77496 -302.976856 
L 212.052153 -300.023303 
L 212.591068 -297.069749 
L 213.31677 -294.116196 
L 213.931896 -291.162643 
L 214.411809 -288.209089 
L 214.973088 -285.255536 
L 216.005407 -282.301982 
L 217.870148 -279.348429 
L 219.975354 -276.394875 
L 221.264484 -273.441322 
L 222.022624 -270.487768 
L 223.102004 -267.534215 
L 224.006787 -264.580661 
L 224.284475 -261.627108 
L 224.954159 -258.673555 
L 226.358528 -255.720001 
L 227.32177 -252.766448 
L 227.947486 -249.812894 
L 229.714451 -246.859341 
L 232.000951 -243.905787 
L 232.692862 -240.952234 
L 232.281928 -237.99868 
L 232.805554 -235.045127 
L 233.516862 -232.091573 
L 232.412622 -229.13802 
L 230.332203 -226.184467 
L 229.425928 -223.230913 
L 230.161302 -220.27736 
L 231.562218 -217.323806 
L 231.515906 -214.370253 
L 228.741987 -211.416699 
L 225.061267 -208.463146 
L 222.486877 -205.509592 
L 220.337477 -202.556039 
L 217.505447 -199.602485 
L 214.627418 -196.648932 
L 212.743149 -193.695379 
L 211.900036 -190.741825 
L 211.552694 -187.788272 
L 211.340688 -184.834718 
L 211.165915 -181.881165 
L 210.99087 -178.927611 
L 210.834484 -175.974058 
L 210.752723 -173.020504 
L 210.744558 -170.066951 
L 210.752165 -167.113397 
L 210.732927 -164.159844 
L 210.703564 -161.206291 
L 210.701162 -158.252737 
L 210.722168 -155.299184 
L 210.737497 -152.34563 
L 210.732661 -149.392077 
L 210.704711 -146.438523 
L 210.66292 -143.48497 
L 210.629028 -140.531416 
L 210.613038 -137.577863 
L 210.608501 -134.624309 
L 210.607709 -131.670756 
L 210.607623 -128.717203 
L 210.607617 -125.763649 
L 210.607617 -122.810096 
L 210.607618 -119.856542 
L 210.607635 -116.902989 
L 210.607856 -113.949435 
L 210.609708 -110.995882 
L 210.619443 -108.042328 
L 210.650908 -105.088775 
L 210.710576 -102.135221 
L 210.76731 -99.181668 
L 210.769707 -96.228115 
L 210.715549 -93.274561 
L 210.654814 -90.321008 
L 210.621162 -87.367454 
z
" id="m312b741300" style="stroke:#3d3d3d;stroke-width:1.5;"/>
    </defs>
    <g clip-path="url(#pbd6d6e3463)">
     <use style="fill:#3a923a;stroke:#3d3d3d;stroke-width:1.5;" x="0" xlink:href="#m312b741300" y="411"/>
    </g>
   </g>
   <g id="PolyCollection_4">
    <defs>
     <path d="M 274.629562 -90.078835 
L 274.619266 -90.078835 
L 274.610104 -92.590847 
L 274.596717 -95.102859 
L 274.587092 -97.614871 
L 274.589401 -100.126884 
L 274.601546 -102.638896 
L 274.614016 -105.150908 
L 274.621122 -107.66292 
L 274.623689 -110.174932 
L 274.624302 -112.686945 
L 274.624397 -115.198957 
L 274.624366 -117.710969 
L 274.624083 -120.222981 
L 274.62276 -122.734994 
L 274.618378 -125.247006 
L 274.607929 -127.759018 
L 274.589901 -130.27103 
L 274.56824 -132.783043 
L 274.55312 -135.295055 
L 274.552978 -137.807067 
L 274.564379 -140.319079 
L 274.576458 -142.831092 
L 274.584745 -145.343104 
L 274.592795 -147.855116 
L 274.603108 -150.367128 
L 274.613185 -152.879141 
L 274.619321 -155.391153 
L 274.619732 -157.903165 
L 274.613268 -160.415177 
L 274.598287 -162.927189 
L 274.574235 -165.439202 
L 274.540946 -167.951214 
L 274.490767 -170.463226 
L 274.404239 -172.975238 
L 274.270751 -175.487251 
L 274.117784 -177.999263 
L 273.993985 -180.511275 
L 273.904799 -183.023287 
L 273.796547 -185.5353 
L 273.635136 -188.047312 
L 273.41643 -190.559324 
L 273.007266 -193.071336 
L 272.071425 -195.583349 
L 270.358571 -198.095361 
L 268.144364 -200.607373 
L 266.131837 -203.119385 
L 264.529753 -205.631397 
L 262.591098 -208.14341 
L 259.897648 -210.655422 
L 257.511135 -213.167434 
L 256.712264 -215.679446 
L 257.177572 -218.191459 
L 257.612588 -220.703471 
L 257.354186 -223.215483 
L 256.081479 -225.727495 
L 253.78835 -228.239508 
L 251.814103 -230.75152 
L 251.593727 -233.263532 
L 252.387163 -235.775544 
L 252.297307 -238.287557 
L 251.392231 -240.799569 
L 251.603925 -243.311581 
L 253.501644 -245.823593 
L 255.348957 -248.335606 
L 255.837448 -250.847618 
L 255.973538 -253.35963 
L 257.186965 -255.871642 
L 259.029676 -258.383654 
L 260.077199 -260.895667 
L 260.249388 -263.407679 
L 260.688216 -265.919691 
L 261.694478 -268.431703 
L 262.418854 -270.943716 
L 262.657579 -273.455728 
L 263.412427 -275.96774 
L 265.223031 -278.479752 
L 267.32501 -280.991765 
L 268.854011 -283.503777 
L 269.82088 -286.015789 
L 270.561489 -288.527801 
L 271.11772 -291.039814 
L 271.533116 -293.551826 
L 272.011041 -296.063838 
L 272.586282 -298.57585 
L 273.075578 -301.087863 
L 273.378538 -303.599875 
L 273.590914 -306.111887 
L 273.817619 -308.623899 
L 274.045778 -311.135911 
L 274.221699 -313.647924 
L 274.340609 -316.159936 
L 274.420677 -318.671948 
L 274.460151 -321.18396 
L 274.464011 -323.695973 
L 274.466892 -326.207985 
L 274.497282 -328.719997 
L 274.545958 -331.232009 
L 274.587546 -333.744022 
L 274.611061 -336.256034 
L 274.620677 -338.768046 
L 274.628151 -338.768046 
L 274.628151 -338.768046 
L 274.637767 -336.256034 
L 274.661282 -333.744022 
L 274.70287 -331.232009 
L 274.751546 -328.719997 
L 274.781936 -326.207985 
L 274.784817 -323.695973 
L 274.788677 -321.18396 
L 274.828151 -318.671948 
L 274.908219 -316.159936 
L 275.027129 -313.647924 
L 275.203051 -311.135911 
L 275.431209 -308.623899 
L 275.657914 -306.111887 
L 275.87029 -303.599875 
L 276.17325 -301.087863 
L 276.662546 -298.57585 
L 277.237787 -296.063838 
L 277.715712 -293.551826 
L 278.131108 -291.039814 
L 278.687339 -288.527801 
L 279.427948 -286.015789 
L 280.394818 -283.503777 
L 281.923819 -280.991765 
L 284.025797 -278.479752 
L 285.836401 -275.96774 
L 286.591249 -273.455728 
L 286.829974 -270.943716 
L 287.55435 -268.431703 
L 288.560612 -265.919691 
L 288.999441 -263.407679 
L 289.171629 -260.895667 
L 290.219152 -258.383654 
L 292.061863 -255.871642 
L 293.275291 -253.35963 
L 293.41138 -250.847618 
L 293.899871 -248.335606 
L 295.747184 -245.823593 
L 297.644903 -243.311581 
L 297.856597 -240.799569 
L 296.951522 -238.287557 
L 296.861665 -235.775544 
L 297.655101 -233.263532 
L 297.434725 -230.75152 
L 295.460478 -228.239508 
L 293.16735 -225.727495 
L 291.894642 -223.215483 
L 291.636241 -220.703471 
L 292.071256 -218.191459 
L 292.536564 -215.679446 
L 291.737693 -213.167434 
L 289.35118 -210.655422 
L 286.65773 -208.14341 
L 284.719075 -205.631397 
L 283.116991 -203.119385 
L 281.104464 -200.607373 
L 278.890257 -198.095361 
L 277.177403 -195.583349 
L 276.241562 -193.071336 
L 275.832398 -190.559324 
L 275.613693 -188.047312 
L 275.452281 -185.5353 
L 275.34403 -183.023287 
L 275.254843 -180.511275 
L 275.131044 -177.999263 
L 274.978077 -175.487251 
L 274.844589 -172.975238 
L 274.758061 -170.463226 
L 274.707882 -167.951214 
L 274.674594 -165.439202 
L 274.650541 -162.927189 
L 274.63556 -160.415177 
L 274.629096 -157.903165 
L 274.629508 -155.391153 
L 274.635643 -152.879141 
L 274.64572 -150.367128 
L 274.656033 -147.855116 
L 274.664084 -145.343104 
L 274.67237 -142.831092 
L 274.684449 -140.319079 
L 274.69585 -137.807067 
L 274.695708 -135.295055 
L 274.680589 -132.783043 
L 274.658928 -130.27103 
L 274.640899 -127.759018 
L 274.63045 -125.247006 
L 274.626068 -122.734994 
L 274.624745 -120.222981 
L 274.624462 -117.710969 
L 274.624431 -115.198957 
L 274.624526 -112.686945 
L 274.62514 -110.174932 
L 274.627706 -107.66292 
L 274.634812 -105.150908 
L 274.647282 -102.638896 
L 274.659427 -100.126884 
L 274.661736 -97.614871 
L 274.652112 -95.102859 
L 274.638725 -92.590847 
L 274.629562 -90.078835 
z
" id="mc733a796f8" style="stroke:#3d3d3d;stroke-width:1.5;"/>
    </defs>
    <g clip-path="url(#pbd6d6e3463)">
     <use style="fill:#c03d3e;stroke:#3d3d3d;stroke-width:1.5;" x="0" xlink:href="#mc733a796f8" y="411"/>
    </g>
   </g>
   <g id="PolyCollection_5">
    <defs>
     <path d="M 338.646018 -65.922909 
L 338.636404 -65.922909 
L 338.625959 -68.627157 
L 338.611554 -71.331406 
L 338.605869 -74.035654 
L 338.6154 -76.739903 
L 338.629659 -79.444152 
L 338.63804 -82.1484 
L 338.640641 -84.852649 
L 338.640816 -87.556897 
L 338.639293 -90.261146 
L 338.634548 -92.965395 
L 338.626539 -95.669643 
L 338.619208 -98.373892 
L 338.61411 -101.078141 
L 338.606741 -103.782389 
L 338.597219 -106.486638 
L 338.59522 -109.190886 
L 338.606813 -111.895135 
L 338.622959 -114.599384 
L 338.630444 -117.303632 
L 338.627578 -120.007881 
L 338.623473 -122.71213 
L 338.626129 -125.416378 
L 338.633306 -128.120627 
L 338.63867 -130.824875 
L 338.640694 -133.529124 
L 338.640975 -136.233373 
L 338.640056 -138.937621 
L 338.636582 -141.64187 
L 338.629785 -144.346118 
L 338.623835 -147.050367 
L 338.624348 -149.754616 
L 338.628179 -152.458864 
L 338.626484 -155.163113 
L 338.6161 -157.867362 
L 338.597882 -160.57161 
L 338.575477 -163.275859 
L 338.566215 -165.980107 
L 338.583427 -168.684356 
L 338.605034 -171.388605 
L 338.58592 -174.092853 
L 338.488584 -176.797102 
L 338.333113 -179.50135 
L 338.203075 -182.205599 
L 338.101442 -184.909848 
L 337.925209 -187.614096 
L 337.649248 -190.318345 
L 337.253934 -193.022594 
L 336.402028 -195.726842 
L 334.62702 -198.431091 
L 332.223681 -201.135339 
L 330.403329 -203.839588 
L 329.437711 -206.543837 
L 327.734473 -209.248085 
L 324.787891 -211.952334 
L 322.575758 -214.656583 
L 322.153793 -217.360831 
L 321.997546 -220.06508 
L 321.288325 -222.769328 
L 319.895688 -225.473577 
L 317.303758 -228.177826 
L 315.399959 -230.882074 
L 315.909188 -233.586323 
L 316.438422 -236.290571 
L 314.580246 -238.99482 
L 313.034492 -241.699069 
L 314.97423 -244.403317 
L 318.296868 -247.107566 
L 319.132056 -249.811815 
L 318.080582 -252.516063 
L 318.643353 -255.220312 
L 321.164196 -257.92456 
L 322.773612 -260.628809 
L 322.732183 -263.333058 
L 323.274661 -266.037306 
L 324.982864 -268.741555 
L 326.093391 -271.445803 
L 326.474877 -274.150052 
L 327.962747 -276.854301 
L 330.535119 -279.558549 
L 332.484625 -282.262798 
L 333.449987 -284.967047 
L 334.334879 -287.671295 
L 335.244905 -290.375544 
L 335.872437 -293.079792 
L 336.452307 -295.784041 
L 337.12937 -298.48829 
L 337.676857 -301.192538 
L 337.955907 -303.896787 
L 338.095624 -306.601036 
L 338.227283 -309.305284 
L 338.345907 -312.009533 
L 338.428646 -314.713781 
L 338.498754 -317.41803 
L 338.558449 -320.122279 
L 338.588758 -322.826527 
L 338.598599 -325.530776 
L 338.610133 -328.235024 
L 338.625769 -330.939273 
L 338.636388 -333.643522 
L 338.646034 -333.643522 
L 338.646034 -333.643522 
L 338.656653 -330.939273 
L 338.672289 -328.235024 
L 338.683823 -325.530776 
L 338.693664 -322.826527 
L 338.723973 -320.122279 
L 338.783668 -317.41803 
L 338.853776 -314.713781 
L 338.936515 -312.009533 
L 339.055139 -309.305284 
L 339.186798 -306.601036 
L 339.326515 -303.896787 
L 339.605565 -301.192538 
L 340.153052 -298.48829 
L 340.830115 -295.784041 
L 341.409985 -293.079792 
L 342.037517 -290.375544 
L 342.947543 -287.671295 
L 343.832435 -284.967047 
L 344.797797 -282.262798 
L 346.747303 -279.558549 
L 349.319674 -276.854301 
L 350.807545 -274.150052 
L 351.189031 -271.445803 
L 352.299558 -268.741555 
L 354.007761 -266.037306 
L 354.550239 -263.333058 
L 354.50881 -260.628809 
L 356.118226 -257.92456 
L 358.639069 -255.220312 
L 359.20184 -252.516063 
L 358.150366 -249.811815 
L 358.985554 -247.107566 
L 362.308192 -244.403317 
L 364.24793 -241.699069 
L 362.702175 -238.99482 
L 360.844 -236.290571 
L 361.373234 -233.586323 
L 361.882463 -230.882074 
L 359.978664 -228.177826 
L 357.386733 -225.473577 
L 355.994097 -222.769328 
L 355.284876 -220.06508 
L 355.128629 -217.360831 
L 354.706664 -214.656583 
L 352.494531 -211.952334 
L 349.547949 -209.248085 
L 347.84471 -206.543837 
L 346.879093 -203.839588 
L 345.058741 -201.135339 
L 342.655401 -198.431091 
L 340.880394 -195.726842 
L 340.028488 -193.022594 
L 339.633174 -190.318345 
L 339.357213 -187.614096 
L 339.18098 -184.909848 
L 339.079347 -182.205599 
L 338.949309 -179.50135 
L 338.793838 -176.797102 
L 338.696502 -174.092853 
L 338.677388 -171.388605 
L 338.698995 -168.684356 
L 338.716207 -165.980107 
L 338.706945 -163.275859 
L 338.68454 -160.57161 
L 338.666322 -157.867362 
L 338.655938 -155.163113 
L 338.654243 -152.458864 
L 338.658074 -149.754616 
L 338.658587 -147.050367 
L 338.652637 -144.346118 
L 338.64584 -141.64187 
L 338.642366 -138.937621 
L 338.641446 -136.233373 
L 338.641728 -133.529124 
L 338.643752 -130.824875 
L 338.649116 -128.120627 
L 338.656293 -125.416378 
L 338.658948 -122.71213 
L 338.654844 -120.007881 
L 338.651978 -117.303632 
L 338.659463 -114.599384 
L 338.675609 -111.895135 
L 338.687202 -109.190886 
L 338.685203 -106.486638 
L 338.675681 -103.782389 
L 338.668311 -101.078141 
L 338.663214 -98.373892 
L 338.655883 -95.669643 
L 338.647874 -92.965395 
L 338.643129 -90.261146 
L 338.641606 -87.556897 
L 338.641781 -84.852649 
L 338.644382 -82.1484 
L 338.652763 -79.444152 
L 338.667022 -76.739903 
L 338.676553 -74.035654 
L 338.670868 -71.331406 
L 338.656463 -68.627157 
L 338.646018 -65.922909 
z
" id="mec90b50297" style="stroke:#3d3d3d;stroke-width:1.5;"/>
    </defs>
    <g clip-path="url(#pbd6d6e3463)">
     <use style="fill:#9372b2;stroke:#3d3d3d;stroke-width:1.5;" x="0" xlink:href="#mec90b50297" y="411"/>
    </g>
   </g>
   <g id="PolyCollection_6">
    <defs>
     <path d="M 402.659997 -158.61326 
L 402.656019 -158.61326 
L 402.652857 -160.650775 
L 402.648166 -162.688291 
L 402.644108 -164.725807 
L 402.643333 -166.763323 
L 402.645675 -168.800838 
L 402.647065 -170.838354 
L 402.641629 -172.87587 
L 402.623855 -174.913385 
L 402.590804 -176.950901 
L 402.545763 -178.988417 
L 402.495363 -181.025932 
L 402.433669 -183.063448 
L 402.335656 -185.100964 
L 402.18284 -187.13848 
L 401.990616 -189.175995 
L 401.788116 -191.213511 
L 401.541691 -193.251027 
L 401.085737 -195.288542 
L 400.190713 -197.326058 
L 398.794516 -199.363574 
L 397.213959 -201.401089 
L 396.027685 -203.438605 
L 395.466357 -205.476121 
L 394.952795 -207.513637 
L 393.699453 -209.551152 
L 391.734619 -211.588668 
L 389.945339 -213.626184 
L 389.063915 -215.663699 
L 388.773026 -217.701215 
L 388.23821 -219.738731 
L 387.396296 -221.776247 
L 386.587968 -223.813762 
L 385.348769 -225.851278 
L 383.243663 -227.888794 
L 381.230104 -229.926309 
L 380.708975 -231.963825 
L 381.667996 -234.001341 
L 382.435647 -236.038856 
L 381.474588 -238.076372 
L 379.350495 -240.113888 
L 378.18676 -242.151404 
L 379.246245 -244.188919 
L 381.643217 -246.226435 
L 383.276237 -248.263951 
L 383.065165 -250.301466 
L 382.087275 -252.338982 
L 382.094727 -254.376498 
L 383.433098 -256.414014 
L 384.753618 -258.451529 
L 384.656881 -260.489045 
L 383.507383 -262.526561 
L 383.021357 -264.564076 
L 384.139119 -266.601592 
L 386.020481 -268.639108 
L 387.103745 -270.676623 
L 386.997752 -272.714139 
L 387.014322 -274.751655 
L 388.48417 -276.789171 
L 391.227425 -278.826686 
L 394.020982 -280.864202 
L 395.92179 -282.901718 
L 396.920144 -284.939233 
L 397.490042 -286.976749 
L 397.850149 -289.014265 
L 398.043106 -291.051781 
L 398.330806 -293.089296 
L 398.970302 -295.126812 
L 399.863668 -297.164328 
L 400.692368 -299.201843 
L 401.2377 -301.239359 
L 401.518598 -303.276875 
L 401.69505 -305.31439 
L 401.885974 -307.351906 
L 402.09866 -309.389422 
L 402.281258 -311.426938 
L 402.394979 -313.464453 
L 402.447139 -315.501969 
L 402.473904 -317.539485 
L 402.504054 -319.577 
L 402.54201 -321.614516 
L 402.576536 -323.652032 
L 402.599494 -325.689547 
L 402.613524 -327.727063 
L 402.624786 -329.764579 
L 402.635766 -331.802095 
L 402.645462 -333.83961 
L 402.652302 -335.877126 
L 402.655978 -337.914642 
L 402.657401 -339.952157 
L 402.657536 -341.989673 
L 402.656398 -344.027189 
L 402.652819 -346.064705 
L 402.645558 -348.10222 
L 402.635969 -350.139736 
L 402.629236 -352.177252 
L 402.630306 -354.214767 
L 402.638337 -356.252283 
L 402.647707 -358.289799 
L 402.654029 -360.327314 
L 402.661986 -360.327314 
L 402.661986 -360.327314 
L 402.668309 -358.289799 
L 402.677679 -356.252283 
L 402.68571 -354.214767 
L 402.68678 -352.177252 
L 402.680046 -350.139736 
L 402.670458 -348.10222 
L 402.663196 -346.064705 
L 402.659618 -344.027189 
L 402.65848 -341.989673 
L 402.658614 -339.952157 
L 402.660038 -337.914642 
L 402.663713 -335.877126 
L 402.670553 -333.83961 
L 402.68025 -331.802095 
L 402.69123 -329.764579 
L 402.702491 -327.727063 
L 402.716522 -325.689547 
L 402.73948 -323.652032 
L 402.774006 -321.614516 
L 402.811961 -319.577 
L 402.842111 -317.539485 
L 402.868877 -315.501969 
L 402.921037 -313.464453 
L 403.034758 -311.426938 
L 403.217356 -309.389422 
L 403.430042 -307.351906 
L 403.620965 -305.31439 
L 403.797418 -303.276875 
L 404.078316 -301.239359 
L 404.623648 -299.201843 
L 405.452347 -297.164328 
L 406.345714 -295.126812 
L 406.98521 -293.089296 
L 407.27291 -291.051781 
L 407.465866 -289.014265 
L 407.825974 -286.976749 
L 408.395872 -284.939233 
L 409.394226 -282.901718 
L 411.295033 -280.864202 
L 414.08859 -278.826686 
L 416.831845 -276.789171 
L 418.301694 -274.751655 
L 418.318263 -272.714139 
L 418.212271 -270.676623 
L 419.295535 -268.639108 
L 421.176897 -266.601592 
L 422.294659 -264.564076 
L 421.808633 -262.526561 
L 420.659134 -260.489045 
L 420.562397 -258.451529 
L 421.882918 -256.414014 
L 423.221288 -254.376498 
L 423.228741 -252.338982 
L 422.250851 -250.301466 
L 422.039778 -248.263951 
L 423.672799 -246.226435 
L 426.06977 -244.188919 
L 427.129256 -242.151404 
L 425.96552 -240.113888 
L 423.841428 -238.076372 
L 422.880369 -236.038856 
L 423.648019 -234.001341 
L 424.607041 -231.963825 
L 424.085912 -229.926309 
L 422.072353 -227.888794 
L 419.967246 -225.851278 
L 418.728048 -223.813762 
L 417.91972 -221.776247 
L 417.077806 -219.738731 
L 416.542989 -217.701215 
L 416.2521 -215.663699 
L 415.370677 -213.626184 
L 413.581397 -211.588668 
L 411.616562 -209.551152 
L 410.363221 -207.513637 
L 409.849659 -205.476121 
L 409.28833 -203.438605 
L 408.102057 -201.401089 
L 406.5215 -199.363574 
L 405.125302 -197.326058 
L 404.230279 -195.288542 
L 403.774325 -193.251027 
L 403.5279 -191.213511 
L 403.325399 -189.175995 
L 403.133176 -187.13848 
L 402.980359 -185.100964 
L 402.882347 -183.063448 
L 402.820653 -181.025932 
L 402.770253 -178.988417 
L 402.725212 -176.950901 
L 402.69216 -174.913385 
L 402.674387 -172.87587 
L 402.668951 -170.838354 
L 402.67034 -168.800838 
L 402.672683 -166.763323 
L 402.671908 -164.725807 
L 402.667849 -162.688291 
L 402.663159 -160.650775 
L 402.659997 -158.61326 
z
" id="m1f9aea380c" style="stroke:#3d3d3d;stroke-width:1.5;"/>
    </defs>
    <g clip-path="url(#pbd6d6e3463)">
     <use style="fill:#845b53;stroke:#3d3d3d;stroke-width:1.5;" x="0" xlink:href="#m1f9aea380c" y="411"/>
    </g>
   </g>
   <g id="PolyCollection_7">
    <defs>
     <path d="M 466.676661 -134.167961 
L 466.672948 -134.167961 
L 466.669784 -136.221551 
L 466.66513 -138.275142 
L 466.661521 -140.328732 
L 466.66181 -142.382323 
L 466.665747 -144.435913 
L 466.670307 -146.489504 
L 466.673213 -148.543094 
L 466.674399 -150.596685 
L 466.67469 -152.650275 
L 466.67447 -154.703866 
L 466.67303 -156.757457 
L 466.667922 -158.811047 
L 466.655778 -160.864638 
L 466.637329 -162.918228 
L 466.622211 -164.971819 
L 466.622214 -167.025409 
L 466.637317 -169.079 
L 466.65564 -171.13259 
L 466.6672 -173.186181 
L 466.670402 -175.239771 
L 466.667172 -177.293362 
L 466.657466 -179.346953 
L 466.635077 -181.400543 
L 466.584088 -183.454134 
L 466.485714 -185.507724 
L 466.337259 -187.561315 
L 466.16229 -189.614905 
L 465.98659 -191.668496 
L 465.7653 -193.722086 
L 465.333051 -195.775677 
L 464.517665 -197.829267 
L 463.35488 -199.882858 
L 462.176704 -201.936449 
L 461.3812 -203.990039 
L 460.859002 -206.04363 
L 459.851235 -208.09722 
L 457.859576 -210.150811 
L 455.432545 -212.204401 
L 453.742333 -214.257992 
L 453.368158 -216.311582 
L 453.499897 -218.365173 
L 453.074669 -220.418763 
L 452.219922 -222.472354 
L 451.063215 -224.525945 
L 448.802172 -226.579535 
L 445.678444 -228.633126 
L 443.644825 -230.686716 
L 444.083976 -232.740307 
L 446.136295 -234.793897 
L 447.329614 -236.847488 
L 446.180694 -238.901078 
L 444.022615 -240.954669 
L 443.298835 -243.008259 
L 444.806128 -245.06185 
L 446.920187 -247.115441 
L 447.286707 -249.169031 
L 445.664369 -251.222622 
L 444.168056 -253.276212 
L 444.575173 -255.329803 
L 446.396598 -257.383393 
L 447.462455 -259.436984 
L 446.661568 -261.490574 
L 445.566564 -263.544165 
L 446.219772 -265.597755 
L 448.540287 -267.651346 
L 450.622547 -269.704937 
L 450.987296 -271.758527 
L 450.480993 -273.812118 
L 451.182271 -275.865708 
L 453.653982 -277.919299 
L 456.573421 -279.972889 
L 458.504465 -282.02648 
L 459.308568 -284.08007 
L 459.930441 -286.133661 
L 460.888178 -288.187251 
L 461.785399 -290.240842 
L 462.390094 -292.294433 
L 463.011397 -294.348023 
L 463.83063 -296.401614 
L 464.659199 -298.455204 
L 465.249852 -300.508795 
L 465.561156 -302.562385 
L 465.749258 -304.615976 
L 465.953651 -306.669566 
L 466.177611 -308.723157 
L 466.361207 -310.776747 
L 466.46921 -312.830338 
L 466.51296 -314.883928 
L 466.529282 -316.937519 
L 466.547868 -318.99111 
L 466.575516 -321.0447 
L 466.601289 -323.098291 
L 466.614111 -325.151881 
L 466.615737 -327.205472 
L 466.616943 -329.259062 
L 466.626231 -331.312653 
L 466.64281 -333.366243 
L 466.659014 -335.419834 
L 466.669108 -337.473424 
L 466.680502 -337.473424 
L 466.680502 -337.473424 
L 466.690595 -335.419834 
L 466.706799 -333.366243 
L 466.723378 -331.312653 
L 466.732666 -329.259062 
L 466.733872 -327.205472 
L 466.735498 -325.151881 
L 466.74832 -323.098291 
L 466.774093 -321.0447 
L 466.801742 -318.99111 
L 466.820327 -316.937519 
L 466.83665 -314.883928 
L 466.8804 -312.830338 
L 466.988402 -310.776747 
L 467.171998 -308.723157 
L 467.395958 -306.669566 
L 467.600351 -304.615976 
L 467.788454 -302.562385 
L 468.099758 -300.508795 
L 468.69041 -298.455204 
L 469.518979 -296.401614 
L 470.338212 -294.348023 
L 470.959516 -292.294433 
L 471.56421 -290.240842 
L 472.461432 -288.187251 
L 473.419168 -286.133661 
L 474.041041 -284.08007 
L 474.845144 -282.02648 
L 476.776188 -279.972889 
L 479.695627 -277.919299 
L 482.167338 -275.865708 
L 482.868616 -273.812118 
L 482.362314 -271.758527 
L 482.727063 -269.704937 
L 484.809322 -267.651346 
L 487.129837 -265.597755 
L 487.783045 -263.544165 
L 486.688042 -261.490574 
L 485.887154 -259.436984 
L 486.953011 -257.383393 
L 488.774437 -255.329803 
L 489.181553 -253.276212 
L 487.68524 -251.222622 
L 486.062902 -249.169031 
L 486.429422 -247.115441 
L 488.543481 -245.06185 
L 490.050775 -243.008259 
L 489.326994 -240.954669 
L 487.168915 -238.901078 
L 486.019995 -236.847488 
L 487.213314 -234.793897 
L 489.265633 -232.740307 
L 489.704784 -230.686716 
L 487.671166 -228.633126 
L 484.547437 -226.579535 
L 482.286395 -224.525945 
L 481.129688 -222.472354 
L 480.27494 -220.418763 
L 479.849712 -218.365173 
L 479.981451 -216.311582 
L 479.607277 -214.257992 
L 477.917065 -212.204401 
L 475.490034 -210.150811 
L 473.498374 -208.09722 
L 472.490607 -206.04363 
L 471.968409 -203.990039 
L 471.172905 -201.936449 
L 469.994729 -199.882858 
L 468.831944 -197.829267 
L 468.016558 -195.775677 
L 467.584309 -193.722086 
L 467.363019 -191.668496 
L 467.18732 -189.614905 
L 467.012351 -187.561315 
L 466.863895 -185.507724 
L 466.765521 -183.454134 
L 466.714532 -181.400543 
L 466.692144 -179.346953 
L 466.682437 -177.293362 
L 466.679207 -175.239771 
L 466.68241 -173.186181 
L 466.69397 -171.13259 
L 466.712292 -169.079 
L 466.727395 -167.025409 
L 466.727398 -164.971819 
L 466.712281 -162.918228 
L 466.693831 -160.864638 
L 466.681687 -158.811047 
L 466.676579 -156.757457 
L 466.67514 -154.703866 
L 466.674919 -152.650275 
L 466.67521 -150.596685 
L 466.676396 -148.543094 
L 466.679303 -146.489504 
L 466.683862 -144.435913 
L 466.687799 -142.382323 
L 466.688088 -140.328732 
L 466.68448 -138.275142 
L 466.679825 -136.221551 
L 466.676661 -134.167961 
z
" id="m5867d8298b" style="stroke:#3d3d3d;stroke-width:1.5;"/>
    </defs>
    <g clip-path="url(#pbd6d6e3463)">
     <use style="fill:#d684bd;stroke:#3d3d3d;stroke-width:1.5;" x="0" xlink:href="#m5867d8298b" y="411"/>
    </g>
   </g>
   <g id="PolyCollection_8">
    <defs>
     <path d="M 530.697261 -135.206591 
L 530.685942 -135.206591 
L 530.672383 -137.466708 
L 530.654175 -139.726826 
L 530.648256 -141.986943 
L 530.656711 -144.247061 
L 530.66413 -146.507178 
L 530.669607 -148.767295 
L 530.678888 -151.027413 
L 530.687182 -153.28753 
L 530.690686 -155.547648 
L 530.691159 -157.807765 
L 530.6896 -160.067883 
L 530.684982 -162.328 
L 530.679117 -164.588118 
L 530.678213 -166.848235 
L 530.683437 -169.108352 
L 530.688753 -171.36847 
L 530.690864 -173.628587 
L 530.69049 -175.888705 
L 530.68794 -178.148822 
L 530.682516 -180.40894 
L 530.668495 -182.669057 
L 530.629308 -184.929175 
L 530.555061 -187.189292 
L 530.458564 -189.449409 
L 530.365369 -191.709527 
L 530.264567 -193.969644 
L 529.968354 -196.229762 
L 529.198228 -198.489879 
L 527.887875 -200.749997 
L 526.578232 -203.010114 
L 526.177254 -205.270232 
L 525.965937 -207.530349 
L 524.296932 -209.790466 
L 521.468214 -212.050584 
L 519.284281 -214.310701 
L 519.383341 -216.570819 
L 520.086267 -218.830936 
L 519.054687 -221.091054 
L 518.1078 -223.351171 
L 516.564416 -225.611289 
L 512.145061 -227.871406 
L 508.567323 -230.131523 
L 509.123088 -232.391641 
L 512.46692 -234.651758 
L 514.060018 -236.911876 
L 510.856615 -239.171993 
L 507.032478 -241.432111 
L 506.911717 -243.692228 
L 510.46336 -245.952346 
L 513.27835 -248.212463 
L 511.301112 -250.47258 
L 508.057841 -252.732698 
L 507.880366 -254.992815 
L 510.717085 -257.252933 
L 512.003042 -259.51305 
L 508.684354 -261.773168 
L 505.985535 -264.033285 
L 507.788723 -266.293403 
L 511.971401 -268.55352 
L 513.698074 -270.813637 
L 511.258902 -273.073755 
L 510.37338 -275.333872 
L 513.957225 -277.59399 
L 518.935765 -279.854107 
L 521.99359 -282.114225 
L 522.496572 -284.374342 
L 523.168449 -286.634459 
L 524.500808 -288.894577 
L 524.801741 -291.154694 
L 524.937492 -293.414812 
L 525.986782 -295.674929 
L 527.469409 -297.935047 
L 528.593901 -300.195164 
L 528.985488 -302.455282 
L 529.145684 -304.715399 
L 529.495367 -306.975516 
L 529.924284 -309.235634 
L 530.244387 -311.495751 
L 530.364585 -313.755869 
L 530.372278 -316.015986 
L 530.390368 -318.276104 
L 530.465041 -320.536221 
L 530.56118 -322.796339 
L 530.618989 -325.056456 
L 530.644706 -327.316573 
L 530.664462 -329.576691 
L 530.679289 -331.836808 
L 530.686978 -334.096926 
L 530.689053 -336.357043 
L 530.687279 -338.617161 
L 530.68486 -340.877278 
L 530.68537 -343.137396 
L 530.688055 -345.397513 
L 530.689146 -347.65763 
L 530.687236 -349.917748 
L 530.68484 -352.177865 
L 530.685444 -354.437983 
L 530.688406 -356.6981 
L 530.690659 -358.958218 
L 530.692544 -358.958218 
L 530.692544 -358.958218 
L 530.694797 -356.6981 
L 530.697759 -354.437983 
L 530.698363 -352.177865 
L 530.695967 -349.917748 
L 530.694057 -347.65763 
L 530.695148 -345.397513 
L 530.697833 -343.137396 
L 530.698343 -340.877278 
L 530.695924 -338.617161 
L 530.69415 -336.357043 
L 530.696225 -334.096926 
L 530.703914 -331.836808 
L 530.718741 -329.576691 
L 530.738497 -327.316573 
L 530.764214 -325.056456 
L 530.822023 -322.796339 
L 530.918163 -320.536221 
L 530.992835 -318.276104 
L 531.010926 -316.015986 
L 531.018618 -313.755869 
L 531.138816 -311.495751 
L 531.458919 -309.235634 
L 531.887836 -306.975516 
L 532.237519 -304.715399 
L 532.397715 -302.455282 
L 532.789303 -300.195164 
L 533.913794 -297.935047 
L 535.396421 -295.674929 
L 536.445712 -293.414812 
L 536.581462 -291.154694 
L 536.882395 -288.894577 
L 538.214754 -286.634459 
L 538.886631 -284.374342 
L 539.389613 -282.114225 
L 542.447438 -279.854107 
L 547.425978 -277.59399 
L 551.009823 -275.333872 
L 550.124301 -273.073755 
L 547.685129 -270.813637 
L 549.411802 -268.55352 
L 553.59448 -266.293403 
L 555.397669 -264.033285 
L 552.698849 -261.773168 
L 549.380161 -259.51305 
L 550.666118 -257.252933 
L 553.502838 -254.992815 
L 553.325362 -252.732698 
L 550.082091 -250.47258 
L 548.104853 -248.212463 
L 550.919843 -245.952346 
L 554.471487 -243.692228 
L 554.350725 -241.432111 
L 550.526588 -239.171993 
L 547.323185 -236.911876 
L 548.916283 -234.651758 
L 552.260115 -232.391641 
L 552.81588 -230.131523 
L 549.238142 -227.871406 
L 544.818787 -225.611289 
L 543.275403 -223.351171 
L 542.328516 -221.091054 
L 541.296936 -218.830936 
L 541.999863 -216.570819 
L 542.098922 -214.310701 
L 539.914989 -212.050584 
L 537.086271 -209.790466 
L 535.417266 -207.530349 
L 535.205949 -205.270232 
L 534.804971 -203.010114 
L 533.495328 -200.749997 
L 532.184975 -198.489879 
L 531.414849 -196.229762 
L 531.118636 -193.969644 
L 531.017834 -191.709527 
L 530.924639 -189.449409 
L 530.828142 -187.189292 
L 530.753895 -184.929175 
L 530.714708 -182.669057 
L 530.700687 -180.40894 
L 530.695263 -178.148822 
L 530.692713 -175.888705 
L 530.69234 -173.628587 
L 530.69445 -171.36847 
L 530.699766 -169.108352 
L 530.70499 -166.848235 
L 530.704086 -164.588118 
L 530.698221 -162.328 
L 530.693603 -160.067883 
L 530.692044 -157.807765 
L 530.692517 -155.547648 
L 530.696021 -153.28753 
L 530.704315 -151.027413 
L 530.713596 -148.767295 
L 530.719073 -146.507178 
L 530.726493 -144.247061 
L 530.734947 -141.986943 
L 530.729028 -139.726826 
L 530.71082 -137.466708 
L 530.697261 -135.206591 
z
" id="m0fa3366332" style="stroke:#3d3d3d;stroke-width:1.5;"/>
    </defs>
    <g clip-path="url(#pbd6d6e3463)">
     <use style="fill:#7f7f7f;stroke:#3d3d3d;stroke-width:1.5;" x="0" xlink:href="#m0fa3366332" y="411"/>
    </g>
   </g>
   <g id="matplotlib.axis_1">
    <g id="xtick_1">
     <g id="line2d_1">
      <defs>
       <path d="M 0 0 
L 0 3.5 
" id="md75f8a0bab" style="stroke:#000000;stroke-width:0.8;"/>
      </defs>
      <g>
       <use style="stroke:#000000;stroke-width:0.8;" x="82.574023" xlink:href="#md75f8a0bab" y="369.84375"/>
      </g>
     </g>
     <g id="text_1">
      <!-- 1.0 -->
      <defs>
       <path d="M 12.40625 8.296875 
L 28.515625 8.296875 
L 28.515625 63.921875 
L 10.984375 60.40625 
L 10.984375 69.390625 
L 28.421875 72.90625 
L 38.28125 72.90625 
L 38.28125 8.296875 
L 54.390625 8.296875 
L 54.390625 0 
L 12.40625 0 
z
" id="DejaVuSans-49"/>
       <path d="M 10.6875 12.40625 
L 21 12.40625 
L 21 0 
L 10.6875 0 
z
" id="DejaVuSans-46"/>
       <path d="M 31.78125 66.40625 
Q 24.171875 66.40625 20.328125 58.90625 
Q 16.5 51.421875 16.5 36.375 
Q 16.5 21.390625 20.328125 13.890625 
Q 24.171875 6.390625 31.78125 6.390625 
Q 39.453125 6.390625 43.28125 13.890625 
Q 47.125 21.390625 47.125 36.375 
Q 47.125 51.421875 43.28125 58.90625 
Q 39.453125 66.40625 31.78125 66.40625 
z
M 31.78125 74.21875 
Q 44.046875 74.21875 50.515625 64.515625 
Q 56.984375 54.828125 56.984375 36.375 
Q 56.984375 17.96875 50.515625 8.265625 
Q 44.046875 -1.421875 31.78125 -1.421875 
Q 19.53125 -1.421875 13.0625 8.265625 
Q 6.59375 17.96875 6.59375 36.375 
Q 6.59375 54.828125 13.0625 64.515625 
Q 19.53125 74.21875 31.78125 74.21875 
z
" id="DejaVuSans-48"/>
      </defs>
      <g transform="translate(74.622461 384.442187)scale(0.1 -0.1)">
       <use xlink:href="#DejaVuSans-49"/>
       <use x="63.623047" xlink:href="#DejaVuSans-46"/>
       <use x="95.410156" xlink:href="#DejaVuSans-48"/>
      </g>
     </g>
    </g>
    <g id="xtick_2">
     <g id="line2d_2">
      <g>
       <use style="stroke:#000000;stroke-width:0.8;" x="146.59082" xlink:href="#md75f8a0bab" y="369.84375"/>
      </g>
     </g>
     <g id="text_2">
      <!-- 2.0 -->
      <defs>
       <path d="M 19.1875 8.296875 
L 53.609375 8.296875 
L 53.609375 0 
L 7.328125 0 
L 7.328125 8.296875 
Q 12.9375 14.109375 22.625 23.890625 
Q 32.328125 33.6875 34.8125 36.53125 
Q 39.546875 41.84375 41.421875 45.53125 
Q 43.3125 49.21875 43.3125 52.78125 
Q 43.3125 58.59375 39.234375 62.25 
Q 35.15625 65.921875 28.609375 65.921875 
Q 23.96875 65.921875 18.8125 64.3125 
Q 13.671875 62.703125 7.8125 59.421875 
L 7.8125 69.390625 
Q 13.765625 71.78125 18.9375 73 
Q 24.125 74.21875 28.421875 74.21875 
Q 39.75 74.21875 46.484375 68.546875 
Q 53.21875 62.890625 53.21875 53.421875 
Q 53.21875 48.921875 51.53125 44.890625 
Q 49.859375 40.875 45.40625 35.40625 
Q 44.1875 33.984375 37.640625 27.21875 
Q 31.109375 20.453125 19.1875 8.296875 
z
" id="DejaVuSans-50"/>
      </defs>
      <g transform="translate(138.639258 384.442187)scale(0.1 -0.1)">
       <use xlink:href="#DejaVuSans-50"/>
       <use x="63.623047" xlink:href="#DejaVuSans-46"/>
       <use x="95.410156" xlink:href="#DejaVuSans-48"/>
      </g>
     </g>
    </g>
    <g id="xtick_3">
     <g id="line2d_3">
      <g>
       <use style="stroke:#000000;stroke-width:0.8;" x="210.607617" xlink:href="#md75f8a0bab" y="369.84375"/>
      </g>
     </g>
     <g id="text_3">
      <!-- 3.0 -->
      <defs>
       <path d="M 40.578125 39.3125 
Q 47.65625 37.796875 51.625 33 
Q 55.609375 28.21875 55.609375 21.1875 
Q 55.609375 10.40625 48.1875 4.484375 
Q 40.765625 -1.421875 27.09375 -1.421875 
Q 22.515625 -1.421875 17.65625 -0.515625 
Q 12.796875 0.390625 7.625 2.203125 
L 7.625 11.71875 
Q 11.71875 9.328125 16.59375 8.109375 
Q 21.484375 6.890625 26.8125 6.890625 
Q 36.078125 6.890625 40.9375 10.546875 
Q 45.796875 14.203125 45.796875 21.1875 
Q 45.796875 27.640625 41.28125 31.265625 
Q 36.765625 34.90625 28.71875 34.90625 
L 20.21875 34.90625 
L 20.21875 43.015625 
L 29.109375 43.015625 
Q 36.375 43.015625 40.234375 45.921875 
Q 44.09375 48.828125 44.09375 54.296875 
Q 44.09375 59.90625 40.109375 62.90625 
Q 36.140625 65.921875 28.71875 65.921875 
Q 24.65625 65.921875 20.015625 65.03125 
Q 15.375 64.15625 9.8125 62.3125 
L 9.8125 71.09375 
Q 15.4375 72.65625 20.34375 73.4375 
Q 25.25 74.21875 29.59375 74.21875 
Q 40.828125 74.21875 47.359375 69.109375 
Q 53.90625 64.015625 53.90625 55.328125 
Q 53.90625 49.265625 50.4375 45.09375 
Q 46.96875 40.921875 40.578125 39.3125 
z
" id="DejaVuSans-51"/>
      </defs>
      <g transform="translate(202.656055 384.442187)scale(0.1 -0.1)">
       <use xlink:href="#DejaVuSans-51"/>
       <use x="63.623047" xlink:href="#DejaVuSans-46"/>
       <use x="95.410156" xlink:href="#DejaVuSans-48"/>
      </g>
     </g>
    </g>
    <g id="xtick_4">
     <g id="line2d_4">
      <g>
       <use style="stroke:#000000;stroke-width:0.8;" x="274.624414" xlink:href="#md75f8a0bab" y="369.84375"/>
      </g>
     </g>
     <g id="text_4">
      <!-- 4.0 -->
      <defs>
       <path d="M 37.796875 64.3125 
L 12.890625 25.390625 
L 37.796875 25.390625 
z
M 35.203125 72.90625 
L 47.609375 72.90625 
L 47.609375 25.390625 
L 58.015625 25.390625 
L 58.015625 17.1875 
L 47.609375 17.1875 
L 47.609375 0 
L 37.796875 0 
L 37.796875 17.1875 
L 4.890625 17.1875 
L 4.890625 26.703125 
z
" id="DejaVuSans-52"/>
      </defs>
      <g transform="translate(266.672852 384.442187)scale(0.1 -0.1)">
       <use xlink:href="#DejaVuSans-52"/>
       <use x="63.623047" xlink:href="#DejaVuSans-46"/>
       <use x="95.410156" xlink:href="#DejaVuSans-48"/>
      </g>
     </g>
    </g>
    <g id="xtick_5">
     <g id="line2d_5">
      <g>
       <use style="stroke:#000000;stroke-width:0.8;" x="338.641211" xlink:href="#md75f8a0bab" y="369.84375"/>
      </g>
     </g>
     <g id="text_5">
      <!-- 5.0 -->
      <defs>
       <path d="M 10.796875 72.90625 
L 49.515625 72.90625 
L 49.515625 64.59375 
L 19.828125 64.59375 
L 19.828125 46.734375 
Q 21.96875 47.46875 24.109375 47.828125 
Q 26.265625 48.1875 28.421875 48.1875 
Q 40.625 48.1875 47.75 41.5 
Q 54.890625 34.8125 54.890625 23.390625 
Q 54.890625 11.625 47.5625 5.09375 
Q 40.234375 -1.421875 26.90625 -1.421875 
Q 22.3125 -1.421875 17.546875 -0.640625 
Q 12.796875 0.140625 7.71875 1.703125 
L 7.71875 11.625 
Q 12.109375 9.234375 16.796875 8.0625 
Q 21.484375 6.890625 26.703125 6.890625 
Q 35.15625 6.890625 40.078125 11.328125 
Q 45.015625 15.765625 45.015625 23.390625 
Q 45.015625 31 40.078125 35.4375 
Q 35.15625 39.890625 26.703125 39.890625 
Q 22.75 39.890625 18.8125 39.015625 
Q 14.890625 38.140625 10.796875 36.28125 
z
" id="DejaVuSans-53"/>
      </defs>
      <g transform="translate(330.689648 384.442187)scale(0.1 -0.1)">
       <use xlink:href="#DejaVuSans-53"/>
       <use x="63.623047" xlink:href="#DejaVuSans-46"/>
       <use x="95.410156" xlink:href="#DejaVuSans-48"/>
      </g>
     </g>
    </g>
    <g id="xtick_6">
     <g id="line2d_6">
      <g>
       <use style="stroke:#000000;stroke-width:0.8;" x="402.658008" xlink:href="#md75f8a0bab" y="369.84375"/>
      </g>
     </g>
     <g id="text_6">
      <!-- 6.0 -->
      <defs>
       <path d="M 33.015625 40.375 
Q 26.375 40.375 22.484375 35.828125 
Q 18.609375 31.296875 18.609375 23.390625 
Q 18.609375 15.53125 22.484375 10.953125 
Q 26.375 6.390625 33.015625 6.390625 
Q 39.65625 6.390625 43.53125 10.953125 
Q 47.40625 15.53125 47.40625 23.390625 
Q 47.40625 31.296875 43.53125 35.828125 
Q 39.65625 40.375 33.015625 40.375 
z
M 52.59375 71.296875 
L 52.59375 62.3125 
Q 48.875 64.0625 45.09375 64.984375 
Q 41.3125 65.921875 37.59375 65.921875 
Q 27.828125 65.921875 22.671875 59.328125 
Q 17.53125 52.734375 16.796875 39.40625 
Q 19.671875 43.65625 24.015625 45.921875 
Q 28.375 48.1875 33.59375 48.1875 
Q 44.578125 48.1875 50.953125 41.515625 
Q 57.328125 34.859375 57.328125 23.390625 
Q 57.328125 12.15625 50.6875 5.359375 
Q 44.046875 -1.421875 33.015625 -1.421875 
Q 20.359375 -1.421875 13.671875 8.265625 
Q 6.984375 17.96875 6.984375 36.375 
Q 6.984375 53.65625 15.1875 63.9375 
Q 23.390625 74.21875 37.203125 74.21875 
Q 40.921875 74.21875 44.703125 73.484375 
Q 48.484375 72.75 52.59375 71.296875 
z
" id="DejaVuSans-54"/>
      </defs>
      <g transform="translate(394.706445 384.442187)scale(0.1 -0.1)">
       <use xlink:href="#DejaVuSans-54"/>
       <use x="63.623047" xlink:href="#DejaVuSans-46"/>
       <use x="95.410156" xlink:href="#DejaVuSans-48"/>
      </g>
     </g>
    </g>
    <g id="xtick_7">
     <g id="line2d_7">
      <g>
       <use style="stroke:#000000;stroke-width:0.8;" x="466.674805" xlink:href="#md75f8a0bab" y="369.84375"/>
      </g>
     </g>
     <g id="text_7">
      <!-- 7.0 -->
      <defs>
       <path d="M 8.203125 72.90625 
L 55.078125 72.90625 
L 55.078125 68.703125 
L 28.609375 0 
L 18.3125 0 
L 43.21875 64.59375 
L 8.203125 64.59375 
z
" id="DejaVuSans-55"/>
      </defs>
      <g transform="translate(458.723242 384.442187)scale(0.1 -0.1)">
       <use xlink:href="#DejaVuSans-55"/>
       <use x="63.623047" xlink:href="#DejaVuSans-46"/>
       <use x="95.410156" xlink:href="#DejaVuSans-48"/>
      </g>
     </g>
    </g>
    <g id="xtick_8">
     <g id="line2d_8">
      <g>
       <use style="stroke:#000000;stroke-width:0.8;" x="530.691602" xlink:href="#md75f8a0bab" y="369.84375"/>
      </g>
     </g>
     <g id="text_8">
      <!-- 8.0 -->
      <defs>
       <path d="M 31.78125 34.625 
Q 24.75 34.625 20.71875 30.859375 
Q 16.703125 27.09375 16.703125 20.515625 
Q 16.703125 13.921875 20.71875 10.15625 
Q 24.75 6.390625 31.78125 6.390625 
Q 38.8125 6.390625 42.859375 10.171875 
Q 46.921875 13.96875 46.921875 20.515625 
Q 46.921875 27.09375 42.890625 30.859375 
Q 38.875 34.625 31.78125 34.625 
z
M 21.921875 38.8125 
Q 15.578125 40.375 12.03125 44.71875 
Q 8.5 49.078125 8.5 55.328125 
Q 8.5 64.0625 14.71875 69.140625 
Q 20.953125 74.21875 31.78125 74.21875 
Q 42.671875 74.21875 48.875 69.140625 
Q 55.078125 64.0625 55.078125 55.328125 
Q 55.078125 49.078125 51.53125 44.71875 
Q 48 40.375 41.703125 38.8125 
Q 48.828125 37.15625 52.796875 32.3125 
Q 56.78125 27.484375 56.78125 20.515625 
Q 56.78125 9.90625 50.3125 4.234375 
Q 43.84375 -1.421875 31.78125 -1.421875 
Q 19.734375 -1.421875 13.25 4.234375 
Q 6.78125 9.90625 6.78125 20.515625 
Q 6.78125 27.484375 10.78125 32.3125 
Q 14.796875 37.15625 21.921875 38.8125 
z
M 18.3125 54.390625 
Q 18.3125 48.734375 21.84375 45.5625 
Q 25.390625 42.390625 31.78125 42.390625 
Q 38.140625 42.390625 41.71875 45.5625 
Q 45.3125 48.734375 45.3125 54.390625 
Q 45.3125 60.0625 41.71875 63.234375 
Q 38.140625 66.40625 31.78125 66.40625 
Q 25.390625 66.40625 21.84375 63.234375 
Q 18.3125 60.0625 18.3125 54.390625 
z
" id="DejaVuSans-56"/>
      </defs>
      <g transform="translate(522.740039 384.442187)scale(0.1 -0.1)">
       <use xlink:href="#DejaVuSans-56"/>
       <use x="63.623047" xlink:href="#DejaVuSans-46"/>
       <use x="95.410156" xlink:href="#DejaVuSans-48"/>
      </g>
     </g>
    </g>
    <g id="text_9">
     <!-- Income level -->
     <defs>
      <path d="M 9.8125 72.90625 
L 19.671875 72.90625 
L 19.671875 0 
L 9.8125 0 
z
" id="DejaVuSans-73"/>
      <path d="M 54.890625 33.015625 
L 54.890625 0 
L 45.90625 0 
L 45.90625 32.71875 
Q 45.90625 40.484375 42.875 44.328125 
Q 39.84375 48.1875 33.796875 48.1875 
Q 26.515625 48.1875 22.3125 43.546875 
Q 18.109375 38.921875 18.109375 30.90625 
L 18.109375 0 
L 9.078125 0 
L 9.078125 54.6875 
L 18.109375 54.6875 
L 18.109375 46.1875 
Q 21.34375 51.125 25.703125 53.5625 
Q 30.078125 56 35.796875 56 
Q 45.21875 56 50.046875 50.171875 
Q 54.890625 44.34375 54.890625 33.015625 
z
" id="DejaVuSans-110"/>
      <path d="M 48.78125 52.59375 
L 48.78125 44.1875 
Q 44.96875 46.296875 41.140625 47.34375 
Q 37.3125 48.390625 33.40625 48.390625 
Q 24.65625 48.390625 19.8125 42.84375 
Q 14.984375 37.3125 14.984375 27.296875 
Q 14.984375 17.28125 19.8125 11.734375 
Q 24.65625 6.203125 33.40625 6.203125 
Q 37.3125 6.203125 41.140625 7.25 
Q 44.96875 8.296875 48.78125 10.40625 
L 48.78125 2.09375 
Q 45.015625 0.34375 40.984375 -0.53125 
Q 36.96875 -1.421875 32.421875 -1.421875 
Q 20.0625 -1.421875 12.78125 6.34375 
Q 5.515625 14.109375 5.515625 27.296875 
Q 5.515625 40.671875 12.859375 48.328125 
Q 20.21875 56 33.015625 56 
Q 37.15625 56 41.109375 55.140625 
Q 45.0625 54.296875 48.78125 52.59375 
z
" id="DejaVuSans-99"/>
      <path d="M 30.609375 48.390625 
Q 23.390625 48.390625 19.1875 42.75 
Q 14.984375 37.109375 14.984375 27.296875 
Q 14.984375 17.484375 19.15625 11.84375 
Q 23.34375 6.203125 30.609375 6.203125 
Q 37.796875 6.203125 41.984375 11.859375 
Q 46.1875 17.53125 46.1875 27.296875 
Q 46.1875 37.015625 41.984375 42.703125 
Q 37.796875 48.390625 30.609375 48.390625 
z
M 30.609375 56 
Q 42.328125 56 49.015625 48.375 
Q 55.71875 40.765625 55.71875 27.296875 
Q 55.71875 13.875 49.015625 6.21875 
Q 42.328125 -1.421875 30.609375 -1.421875 
Q 18.84375 -1.421875 12.171875 6.21875 
Q 5.515625 13.875 5.515625 27.296875 
Q 5.515625 40.765625 12.171875 48.375 
Q 18.84375 56 30.609375 56 
z
" id="DejaVuSans-111"/>
      <path d="M 52 44.1875 
Q 55.375 50.25 60.0625 53.125 
Q 64.75 56 71.09375 56 
Q 79.640625 56 84.28125 50.015625 
Q 88.921875 44.046875 88.921875 33.015625 
L 88.921875 0 
L 79.890625 0 
L 79.890625 32.71875 
Q 79.890625 40.578125 77.09375 44.375 
Q 74.3125 48.1875 68.609375 48.1875 
Q 61.625 48.1875 57.5625 43.546875 
Q 53.515625 38.921875 53.515625 30.90625 
L 53.515625 0 
L 44.484375 0 
L 44.484375 32.71875 
Q 44.484375 40.625 41.703125 44.40625 
Q 38.921875 48.1875 33.109375 48.1875 
Q 26.21875 48.1875 22.15625 43.53125 
Q 18.109375 38.875 18.109375 30.90625 
L 18.109375 0 
L 9.078125 0 
L 9.078125 54.6875 
L 18.109375 54.6875 
L 18.109375 46.1875 
Q 21.1875 51.21875 25.484375 53.609375 
Q 29.78125 56 35.6875 56 
Q 41.65625 56 45.828125 52.96875 
Q 50 49.953125 52 44.1875 
z
" id="DejaVuSans-109"/>
      <path d="M 56.203125 29.59375 
L 56.203125 25.203125 
L 14.890625 25.203125 
Q 15.484375 15.921875 20.484375 11.0625 
Q 25.484375 6.203125 34.421875 6.203125 
Q 39.59375 6.203125 44.453125 7.46875 
Q 49.3125 8.734375 54.109375 11.28125 
L 54.109375 2.78125 
Q 49.265625 0.734375 44.1875 -0.34375 
Q 39.109375 -1.421875 33.890625 -1.421875 
Q 20.796875 -1.421875 13.15625 6.1875 
Q 5.515625 13.8125 5.515625 26.8125 
Q 5.515625 40.234375 12.765625 48.109375 
Q 20.015625 56 32.328125 56 
Q 43.359375 56 49.78125 48.890625 
Q 56.203125 41.796875 56.203125 29.59375 
z
M 47.21875 32.234375 
Q 47.125 39.59375 43.09375 43.984375 
Q 39.0625 48.390625 32.421875 48.390625 
Q 24.90625 48.390625 20.390625 44.140625 
Q 15.875 39.890625 15.1875 32.171875 
z
" id="DejaVuSans-101"/>
      <path id="DejaVuSans-32"/>
      <path d="M 9.421875 75.984375 
L 18.40625 75.984375 
L 18.40625 0 
L 9.421875 0 
z
" id="DejaVuSans-108"/>
      <path d="M 2.984375 54.6875 
L 12.5 54.6875 
L 29.59375 8.796875 
L 46.6875 54.6875 
L 56.203125 54.6875 
L 35.6875 0 
L 23.484375 0 
z
" id="DejaVuSans-118"/>
     </defs>
     <g transform="translate(274.753906 398.120312)scale(0.1 -0.1)">
      <use xlink:href="#DejaVuSans-73"/>
      <use x="29.492188" xlink:href="#DejaVuSans-110"/>
      <use x="92.871094" xlink:href="#DejaVuSans-99"/>
      <use x="147.851562" xlink:href="#DejaVuSans-111"/>
      <use x="209.033203" xlink:href="#DejaVuSans-109"/>
      <use x="306.445312" xlink:href="#DejaVuSans-101"/>
      <use x="367.96875" xlink:href="#DejaVuSans-32"/>
      <use x="399.755859" xlink:href="#DejaVuSans-108"/>
      <use x="427.539062" xlink:href="#DejaVuSans-101"/>
      <use x="489.0625" xlink:href="#DejaVuSans-118"/>
      <use x="548.242188" xlink:href="#DejaVuSans-101"/>
      <use x="609.765625" xlink:href="#DejaVuSans-108"/>
     </g>
    </g>
   </g>
   <g id="matplotlib.axis_2">
    <g id="ytick_1">
     <g id="line2d_9">
      <defs>
       <path d="M 0 0 
L -3.5 0 
" id="m781292532b" style="stroke:#000000;stroke-width:0.8;"/>
      </defs>
      <g>
       <use style="stroke:#000000;stroke-width:0.8;" x="50.565625" xlink:href="#m781292532b" y="368.880749"/>
      </g>
     </g>
     <g id="text_10">
      <!-- 80 -->
      <g transform="translate(30.840625 372.679967)scale(0.1 -0.1)">
       <use xlink:href="#DejaVuSans-56"/>
       <use x="63.623047" xlink:href="#DejaVuSans-48"/>
      </g>
     </g>
    </g>
    <g id="ytick_2">
     <g id="line2d_10">
      <g>
       <use style="stroke:#000000;stroke-width:0.8;" x="50.565625" xlink:href="#m781292532b" y="323.833902"/>
      </g>
     </g>
     <g id="text_11">
      <!-- 100 -->
      <g transform="translate(24.478125 327.633121)scale(0.1 -0.1)">
       <use xlink:href="#DejaVuSans-49"/>
       <use x="63.623047" xlink:href="#DejaVuSans-48"/>
       <use x="127.246094" xlink:href="#DejaVuSans-48"/>
      </g>
     </g>
    </g>
    <g id="ytick_3">
     <g id="line2d_11">
      <g>
       <use style="stroke:#000000;stroke-width:0.8;" x="50.565625" xlink:href="#m781292532b" y="278.787055"/>
      </g>
     </g>
     <g id="text_12">
      <!-- 120 -->
      <g transform="translate(24.478125 282.586274)scale(0.1 -0.1)">
       <use xlink:href="#DejaVuSans-49"/>
       <use x="63.623047" xlink:href="#DejaVuSans-50"/>
       <use x="127.246094" xlink:href="#DejaVuSans-48"/>
      </g>
     </g>
    </g>
    <g id="ytick_4">
     <g id="line2d_12">
      <g>
       <use style="stroke:#000000;stroke-width:0.8;" x="50.565625" xlink:href="#m781292532b" y="233.740208"/>
      </g>
     </g>
     <g id="text_13">
      <!-- 140 -->
      <g transform="translate(24.478125 237.539427)scale(0.1 -0.1)">
       <use xlink:href="#DejaVuSans-49"/>
       <use x="63.623047" xlink:href="#DejaVuSans-52"/>
       <use x="127.246094" xlink:href="#DejaVuSans-48"/>
      </g>
     </g>
    </g>
    <g id="ytick_5">
     <g id="line2d_13">
      <g>
       <use style="stroke:#000000;stroke-width:0.8;" x="50.565625" xlink:href="#m781292532b" y="188.693361"/>
      </g>
     </g>
     <g id="text_14">
      <!-- 160 -->
      <g transform="translate(24.478125 192.49258)scale(0.1 -0.1)">
       <use xlink:href="#DejaVuSans-49"/>
       <use x="63.623047" xlink:href="#DejaVuSans-54"/>
       <use x="127.246094" xlink:href="#DejaVuSans-48"/>
      </g>
     </g>
    </g>
    <g id="ytick_6">
     <g id="line2d_14">
      <g>
       <use style="stroke:#000000;stroke-width:0.8;" x="50.565625" xlink:href="#m781292532b" y="143.646515"/>
      </g>
     </g>
     <g id="text_15">
      <!-- 180 -->
      <g transform="translate(24.478125 147.445733)scale(0.1 -0.1)">
       <use xlink:href="#DejaVuSans-49"/>
       <use x="63.623047" xlink:href="#DejaVuSans-56"/>
       <use x="127.246094" xlink:href="#DejaVuSans-48"/>
      </g>
     </g>
    </g>
    <g id="ytick_7">
     <g id="line2d_15">
      <g>
       <use style="stroke:#000000;stroke-width:0.8;" x="50.565625" xlink:href="#m781292532b" y="98.599668"/>
      </g>
     </g>
     <g id="text_16">
      <!-- 200 -->
      <g transform="translate(24.478125 102.398887)scale(0.1 -0.1)">
       <use xlink:href="#DejaVuSans-50"/>
       <use x="63.623047" xlink:href="#DejaVuSans-48"/>
       <use x="127.246094" xlink:href="#DejaVuSans-48"/>
      </g>
     </g>
    </g>
    <g id="ytick_8">
     <g id="line2d_16">
      <g>
       <use style="stroke:#000000;stroke-width:0.8;" x="50.565625" xlink:href="#m781292532b" y="53.552821"/>
      </g>
     </g>
     <g id="text_17">
      <!-- 220 -->
      <g transform="translate(24.478125 57.35204)scale(0.1 -0.1)">
       <use xlink:href="#DejaVuSans-50"/>
       <use x="63.623047" xlink:href="#DejaVuSans-50"/>
       <use x="127.246094" xlink:href="#DejaVuSans-48"/>
      </g>
     </g>
    </g>
    <g id="text_18">
     <!-- Height in cm -->
     <defs>
      <path d="M 9.8125 72.90625 
L 19.671875 72.90625 
L 19.671875 43.015625 
L 55.515625 43.015625 
L 55.515625 72.90625 
L 65.375 72.90625 
L 65.375 0 
L 55.515625 0 
L 55.515625 34.71875 
L 19.671875 34.71875 
L 19.671875 0 
L 9.8125 0 
z
" id="DejaVuSans-72"/>
      <path d="M 9.421875 54.6875 
L 18.40625 54.6875 
L 18.40625 0 
L 9.421875 0 
z
M 9.421875 75.984375 
L 18.40625 75.984375 
L 18.40625 64.59375 
L 9.421875 64.59375 
z
" id="DejaVuSans-105"/>
      <path d="M 45.40625 27.984375 
Q 45.40625 37.75 41.375 43.109375 
Q 37.359375 48.484375 30.078125 48.484375 
Q 22.859375 48.484375 18.828125 43.109375 
Q 14.796875 37.75 14.796875 27.984375 
Q 14.796875 18.265625 18.828125 12.890625 
Q 22.859375 7.515625 30.078125 7.515625 
Q 37.359375 7.515625 41.375 12.890625 
Q 45.40625 18.265625 45.40625 27.984375 
z
M 54.390625 6.78125 
Q 54.390625 -7.171875 48.1875 -13.984375 
Q 42 -20.796875 29.203125 -20.796875 
Q 24.46875 -20.796875 20.265625 -20.09375 
Q 16.0625 -19.390625 12.109375 -17.921875 
L 12.109375 -9.1875 
Q 16.0625 -11.328125 19.921875 -12.34375 
Q 23.78125 -13.375 27.78125 -13.375 
Q 36.625 -13.375 41.015625 -8.765625 
Q 45.40625 -4.15625 45.40625 5.171875 
L 45.40625 9.625 
Q 42.625 4.78125 38.28125 2.390625 
Q 33.9375 0 27.875 0 
Q 17.828125 0 11.671875 7.65625 
Q 5.515625 15.328125 5.515625 27.984375 
Q 5.515625 40.671875 11.671875 48.328125 
Q 17.828125 56 27.875 56 
Q 33.9375 56 38.28125 53.609375 
Q 42.625 51.21875 45.40625 46.390625 
L 45.40625 54.6875 
L 54.390625 54.6875 
z
" id="DejaVuSans-103"/>
      <path d="M 54.890625 33.015625 
L 54.890625 0 
L 45.90625 0 
L 45.90625 32.71875 
Q 45.90625 40.484375 42.875 44.328125 
Q 39.84375 48.1875 33.796875 48.1875 
Q 26.515625 48.1875 22.3125 43.546875 
Q 18.109375 38.921875 18.109375 30.90625 
L 18.109375 0 
L 9.078125 0 
L 9.078125 75.984375 
L 18.109375 75.984375 
L 18.109375 46.1875 
Q 21.34375 51.125 25.703125 53.5625 
Q 30.078125 56 35.796875 56 
Q 45.21875 56 50.046875 50.171875 
Q 54.890625 44.34375 54.890625 33.015625 
z
" id="DejaVuSans-104"/>
      <path d="M 18.3125 70.21875 
L 18.3125 54.6875 
L 36.8125 54.6875 
L 36.8125 47.703125 
L 18.3125 47.703125 
L 18.3125 18.015625 
Q 18.3125 11.328125 20.140625 9.421875 
Q 21.96875 7.515625 27.59375 7.515625 
L 36.8125 7.515625 
L 36.8125 0 
L 27.59375 0 
Q 17.1875 0 13.234375 3.875 
Q 9.28125 7.765625 9.28125 18.015625 
L 9.28125 47.703125 
L 2.6875 47.703125 
L 2.6875 54.6875 
L 9.28125 54.6875 
L 9.28125 70.21875 
z
" id="DejaVuSans-116"/>
     </defs>
     <g transform="translate(18.398438 223.95625)rotate(-90)scale(0.1 -0.1)">
      <use xlink:href="#DejaVuSans-72"/>
      <use x="75.195312" xlink:href="#DejaVuSans-101"/>
      <use x="136.71875" xlink:href="#DejaVuSans-105"/>
      <use x="164.501953" xlink:href="#DejaVuSans-103"/>
      <use x="227.978516" xlink:href="#DejaVuSans-104"/>
      <use x="291.357422" xlink:href="#DejaVuSans-116"/>
      <use x="330.566406" xlink:href="#DejaVuSans-32"/>
      <use x="362.353516" xlink:href="#DejaVuSans-105"/>
      <use x="390.136719" xlink:href="#DejaVuSans-110"/>
      <use x="453.515625" xlink:href="#DejaVuSans-32"/>
      <use x="485.302734" xlink:href="#DejaVuSans-99"/>
      <use x="540.283203" xlink:href="#DejaVuSans-109"/>
     </g>
    </g>
   </g>
  </g>
 </g>
 <defs>
  <clipPath id="pbd6d6e3463">
   <rect height="355.54375" width="512.134375" x="50.565625" y="14.3"/>
  </clipPath>
 </defs>
</svg>
