<?xml version="1.0" encoding="utf-8" standalone="no"?>
<!DOCTYPE svg PUBLIC "-//W3C//DTD SVG 1.1//EN"
  "http://www.w3.org/Graphics/SVG/1.1/DTD/svg11.dtd">
<!-- Created with matplotlib (http://matplotlib.org/) -->
<svg height="425.133331pt" version="1.1" viewBox="0 0 748 425.133331" width="748pt" xmlns="http://www.w3.org/2000/svg" xmlns:xlink="http://www.w3.org/1999/xlink">
 <defs>
  <style type="text/css">
*{stroke-linecap:butt;stroke-linejoin:round;}
  </style>
 </defs>
 <g id="figure_1">
  <g id="patch_1">
   <path d="M 0 425.133331 
L 748 425.133331 
L 748 0 
L 0 0 
z
" style="fill:#ffffff;"/>
  </g>
  <g id="axes_1">
   <g id="patch_2">
    <path d="M 62.123438 383.977081 
L 733.7 383.977081 
L 733.7 14.3 
L 62.123438 14.3 
z
" style="fill:#ffffff;"/>
   </g>
   <g id="matplotlib.axis_1">
    <g id="xtick_1">
     <g id="line2d_1">
      <defs>
       <path d="M 0 0 
L 0 3.5 
" id="m8e3319ad9f" style="stroke:#000000;stroke-width:0.8;"/>
      </defs>
      <g>
       <use style="stroke:#000000;stroke-width:0.8;" x="111.596946" xlink:href="#m8e3319ad9f" y="383.977081"/>
      </g>
     </g>
     <g id="text_1">
      <!-- 1960 -->
      <defs>
       <path d="M 12.40625 8.296875 
L 28.515625 8.296875 
L 28.515625 63.921875 
L 10.984375 60.40625 
L 10.984375 69.390625 
L 28.421875 72.90625 
L 38.28125 72.90625 
L 38.28125 8.296875 
L 54.390625 8.296875 
L 54.390625 0 
L 12.40625 0 
z
" id="DejaVuSans-31"/>
       <path d="M 10.984375 1.515625 
L 10.984375 10.5 
Q 14.703125 8.734375 18.5 7.8125 
Q 22.3125 6.890625 25.984375 6.890625 
Q 35.75 6.890625 40.890625 13.453125 
Q 46.046875 20.015625 46.78125 33.40625 
Q 43.953125 29.203125 39.59375 26.953125 
Q 35.25 24.703125 29.984375 24.703125 
Q 19.046875 24.703125 12.671875 31.3125 
Q 6.296875 37.9375 6.296875 49.421875 
Q 6.296875 60.640625 12.9375 67.421875 
Q 19.578125 74.21875 30.609375 74.21875 
Q 43.265625 74.21875 49.921875 64.515625 
Q 56.59375 54.828125 56.59375 36.375 
Q 56.59375 19.140625 48.40625 8.859375 
Q 40.234375 -1.421875 26.421875 -1.421875 
Q 22.703125 -1.421875 18.890625 -0.6875 
Q 15.09375 0.046875 10.984375 1.515625 
z
M 30.609375 32.421875 
Q 37.25 32.421875 41.125 36.953125 
Q 45.015625 41.5 45.015625 49.421875 
Q 45.015625 57.28125 41.125 61.84375 
Q 37.25 66.40625 30.609375 66.40625 
Q 23.96875 66.40625 20.09375 61.84375 
Q 16.21875 57.28125 16.21875 49.421875 
Q 16.21875 41.5 20.09375 36.953125 
Q 23.96875 32.421875 30.609375 32.421875 
z
" id="DejaVuSans-39"/>
       <path d="M 33.015625 40.375 
Q 26.375 40.375 22.484375 35.828125 
Q 18.609375 31.296875 18.609375 23.390625 
Q 18.609375 15.53125 22.484375 10.953125 
Q 26.375 6.390625 33.015625 6.390625 
Q 39.65625 6.390625 43.53125 10.953125 
Q 47.40625 15.53125 47.40625 23.390625 
Q 47.40625 31.296875 43.53125 35.828125 
Q 39.65625 40.375 33.015625 40.375 
z
M 52.59375 71.296875 
L 52.59375 62.3125 
Q 48.875 64.0625 45.09375 64.984375 
Q 41.3125 65.921875 37.59375 65.921875 
Q 27.828125 65.921875 22.671875 59.328125 
Q 17.53125 52.734375 16.796875 39.40625 
Q 19.671875 43.65625 24.015625 45.921875 
Q 28.375 48.1875 33.59375 48.1875 
Q 44.578125 48.1875 50.953125 41.515625 
Q 57.328125 34.859375 57.328125 23.390625 
Q 57.328125 12.15625 50.6875 5.359375 
Q 44.046875 -1.421875 33.015625 -1.421875 
Q 20.359375 -1.421875 13.671875 8.265625 
Q 6.984375 17.96875 6.984375 36.375 
Q 6.984375 53.65625 15.1875 63.9375 
Q 23.390625 74.21875 37.203125 74.21875 
Q 40.921875 74.21875 44.703125 73.484375 
Q 48.484375 72.75 52.59375 71.296875 
z
" id="DejaVuSans-36"/>
       <path d="M 31.78125 66.40625 
Q 24.171875 66.40625 20.328125 58.90625 
Q 16.5 51.421875 16.5 36.375 
Q 16.5 21.390625 20.328125 13.890625 
Q 24.171875 6.390625 31.78125 6.390625 
Q 39.453125 6.390625 43.28125 13.890625 
Q 47.125 21.390625 47.125 36.375 
Q 47.125 51.421875 43.28125 58.90625 
Q 39.453125 66.40625 31.78125 66.40625 
z
M 31.78125 74.21875 
Q 44.046875 74.21875 50.515625 64.515625 
Q 56.984375 54.828125 56.984375 36.375 
Q 56.984375 17.96875 50.515625 8.265625 
Q 44.046875 -1.421875 31.78125 -1.421875 
Q 19.53125 -1.421875 13.0625 8.265625 
Q 6.59375 17.96875 6.59375 36.375 
Q 6.59375 54.828125 13.0625 64.515625 
Q 19.53125 74.21875 31.78125 74.21875 
z
" id="DejaVuSans-30"/>
      </defs>
      <g transform="translate(98.871946 398.575519)scale(0.1 -0.1)">
       <use xlink:href="#DejaVuSans-31"/>
       <use x="63.623047" xlink:href="#DejaVuSans-39"/>
       <use x="127.246094" xlink:href="#DejaVuSans-36"/>
       <use x="190.869141" xlink:href="#DejaVuSans-30"/>
      </g>
     </g>
    </g>
    <g id="xtick_2">
     <g id="line2d_2">
      <g>
       <use style="stroke:#000000;stroke-width:0.8;" x="215.522608" xlink:href="#m8e3319ad9f" y="383.977081"/>
      </g>
     </g>
     <g id="text_2">
      <!-- 1970 -->
      <defs>
       <path d="M 8.203125 72.90625 
L 55.078125 72.90625 
L 55.078125 68.703125 
L 28.609375 0 
L 18.3125 0 
L 43.21875 64.59375 
L 8.203125 64.59375 
z
" id="DejaVuSans-37"/>
      </defs>
      <g transform="translate(202.797608 398.575519)scale(0.1 -0.1)">
       <use xlink:href="#DejaVuSans-31"/>
       <use x="63.623047" xlink:href="#DejaVuSans-39"/>
       <use x="127.246094" xlink:href="#DejaVuSans-37"/>
       <use x="190.869141" xlink:href="#DejaVuSans-30"/>
      </g>
     </g>
    </g>
    <g id="xtick_3">
     <g id="line2d_3">
      <g>
       <use style="stroke:#000000;stroke-width:0.8;" x="319.419821" xlink:href="#m8e3319ad9f" y="383.977081"/>
      </g>
     </g>
     <g id="text_3">
      <!-- 1980 -->
      <defs>
       <path d="M 31.78125 34.625 
Q 24.75 34.625 20.71875 30.859375 
Q 16.703125 27.09375 16.703125 20.515625 
Q 16.703125 13.921875 20.71875 10.15625 
Q 24.75 6.390625 31.78125 6.390625 
Q 38.8125 6.390625 42.859375 10.171875 
Q 46.921875 13.96875 46.921875 20.515625 
Q 46.921875 27.09375 42.890625 30.859375 
Q 38.875 34.625 31.78125 34.625 
z
M 21.921875 38.8125 
Q 15.578125 40.375 12.03125 44.71875 
Q 8.5 49.078125 8.5 55.328125 
Q 8.5 64.0625 14.71875 69.140625 
Q 20.953125 74.21875 31.78125 74.21875 
Q 42.671875 74.21875 48.875 69.140625 
Q 55.078125 64.0625 55.078125 55.328125 
Q 55.078125 49.078125 51.53125 44.71875 
Q 48 40.375 41.703125 38.8125 
Q 48.828125 37.15625 52.796875 32.3125 
Q 56.78125 27.484375 56.78125 20.515625 
Q 56.78125 9.90625 50.3125 4.234375 
Q 43.84375 -1.421875 31.78125 -1.421875 
Q 19.734375 -1.421875 13.25 4.234375 
Q 6.78125 9.90625 6.78125 20.515625 
Q 6.78125 27.484375 10.78125 32.3125 
Q 14.796875 37.15625 21.921875 38.8125 
z
M 18.3125 54.390625 
Q 18.3125 48.734375 21.84375 45.5625 
Q 25.390625 42.390625 31.78125 42.390625 
Q 38.140625 42.390625 41.71875 45.5625 
Q 45.3125 48.734375 45.3125 54.390625 
Q 45.3125 60.0625 41.71875 63.234375 
Q 38.140625 66.40625 31.78125 66.40625 
Q 25.390625 66.40625 21.84375 63.234375 
Q 18.3125 60.0625 18.3125 54.390625 
z
" id="DejaVuSans-38"/>
      </defs>
      <g transform="translate(306.694821 398.575519)scale(0.1 -0.1)">
       <use xlink:href="#DejaVuSans-31"/>
       <use x="63.623047" xlink:href="#DejaVuSans-39"/>
       <use x="127.246094" xlink:href="#DejaVuSans-38"/>
       <use x="190.869141" xlink:href="#DejaVuSans-30"/>
      </g>
     </g>
    </g>
    <g id="xtick_4">
     <g id="line2d_4">
      <g>
       <use style="stroke:#000000;stroke-width:0.8;" x="423.345483" xlink:href="#m8e3319ad9f" y="383.977081"/>
      </g>
     </g>
     <g id="text_4">
      <!-- 1990 -->
      <g transform="translate(410.620483 398.575519)scale(0.1 -0.1)">
       <use xlink:href="#DejaVuSans-31"/>
       <use x="63.623047" xlink:href="#DejaVuSans-39"/>
       <use x="127.246094" xlink:href="#DejaVuSans-39"/>
       <use x="190.869141" xlink:href="#DejaVuSans-30"/>
      </g>
     </g>
    </g>
    <g id="xtick_5">
     <g id="line2d_5">
      <g>
       <use style="stroke:#000000;stroke-width:0.8;" x="527.242696" xlink:href="#m8e3319ad9f" y="383.977081"/>
      </g>
     </g>
     <g id="text_5">
      <!-- 2000 -->
      <defs>
       <path d="M 19.1875 8.296875 
L 53.609375 8.296875 
L 53.609375 0 
L 7.328125 0 
L 7.328125 8.296875 
Q 12.9375 14.109375 22.625 23.890625 
Q 32.328125 33.6875 34.8125 36.53125 
Q 39.546875 41.84375 41.421875 45.53125 
Q 43.3125 49.21875 43.3125 52.78125 
Q 43.3125 58.59375 39.234375 62.25 
Q 35.15625 65.921875 28.609375 65.921875 
Q 23.96875 65.921875 18.8125 64.3125 
Q 13.671875 62.703125 7.8125 59.421875 
L 7.8125 69.390625 
Q 13.765625 71.78125 18.9375 73 
Q 24.125 74.21875 28.421875 74.21875 
Q 39.75 74.21875 46.484375 68.546875 
Q 53.21875 62.890625 53.21875 53.421875 
Q 53.21875 48.921875 51.53125 44.890625 
Q 49.859375 40.875 45.40625 35.40625 
Q 44.1875 33.984375 37.640625 27.21875 
Q 31.109375 20.453125 19.1875 8.296875 
z
" id="DejaVuSans-32"/>
      </defs>
      <g transform="translate(514.517696 398.575519)scale(0.1 -0.1)">
       <use xlink:href="#DejaVuSans-32"/>
       <use x="63.623047" xlink:href="#DejaVuSans-30"/>
       <use x="127.246094" xlink:href="#DejaVuSans-30"/>
       <use x="190.869141" xlink:href="#DejaVuSans-30"/>
      </g>
     </g>
    </g>
    <g id="xtick_6">
     <g id="line2d_6">
      <g>
       <use style="stroke:#000000;stroke-width:0.8;" x="631.168358" xlink:href="#m8e3319ad9f" y="383.977081"/>
      </g>
     </g>
     <g id="text_6">
      <!-- 2010 -->
      <g transform="translate(618.443358 398.575519)scale(0.1 -0.1)">
       <use xlink:href="#DejaVuSans-32"/>
       <use x="63.623047" xlink:href="#DejaVuSans-30"/>
       <use x="127.246094" xlink:href="#DejaVuSans-31"/>
       <use x="190.869141" xlink:href="#DejaVuSans-30"/>
      </g>
     </g>
    </g>
    <g id="text_7">
     <!-- Time -->
     <defs>
      <path d="M -0.296875 72.90625 
L 61.375 72.90625 
L 61.375 64.59375 
L 35.5 64.59375 
L 35.5 0 
L 25.59375 0 
L 25.59375 64.59375 
L -0.296875 64.59375 
z
" id="DejaVuSans-54"/>
      <path d="M 9.421875 54.6875 
L 18.40625 54.6875 
L 18.40625 0 
L 9.421875 0 
z
M 9.421875 75.984375 
L 18.40625 75.984375 
L 18.40625 64.59375 
L 9.421875 64.59375 
z
" id="DejaVuSans-69"/>
      <path d="M 52 44.1875 
Q 55.375 50.25 60.0625 53.125 
Q 64.75 56 71.09375 56 
Q 79.640625 56 84.28125 50.015625 
Q 88.921875 44.046875 88.921875 33.015625 
L 88.921875 0 
L 79.890625 0 
L 79.890625 32.71875 
Q 79.890625 40.578125 77.09375 44.375 
Q 74.3125 48.1875 68.609375 48.1875 
Q 61.625 48.1875 57.5625 43.546875 
Q 53.515625 38.921875 53.515625 30.90625 
L 53.515625 0 
L 44.484375 0 
L 44.484375 32.71875 
Q 44.484375 40.625 41.703125 44.40625 
Q 38.921875 48.1875 33.109375 48.1875 
Q 26.21875 48.1875 22.15625 43.53125 
Q 18.109375 38.875 18.109375 30.90625 
L 18.109375 0 
L 9.078125 0 
L 9.078125 54.6875 
L 18.109375 54.6875 
L 18.109375 46.1875 
Q 21.1875 51.21875 25.484375 53.609375 
Q 29.78125 56 35.6875 56 
Q 41.65625 56 45.828125 52.96875 
Q 50 49.953125 52 44.1875 
z
" id="DejaVuSans-6d"/>
      <path d="M 56.203125 29.59375 
L 56.203125 25.203125 
L 14.890625 25.203125 
Q 15.484375 15.921875 20.484375 11.0625 
Q 25.484375 6.203125 34.421875 6.203125 
Q 39.59375 6.203125 44.453125 7.46875 
Q 49.3125 8.734375 54.109375 11.28125 
L 54.109375 2.78125 
Q 49.265625 0.734375 44.1875 -0.34375 
Q 39.109375 -1.421875 33.890625 -1.421875 
Q 20.796875 -1.421875 13.15625 6.1875 
Q 5.515625 13.8125 5.515625 26.8125 
Q 5.515625 40.234375 12.765625 48.109375 
Q 20.015625 56 32.328125 56 
Q 43.359375 56 49.78125 48.890625 
Q 56.203125 41.796875 56.203125 29.59375 
z
M 47.21875 32.234375 
Q 47.125 39.59375 43.09375 43.984375 
Q 39.0625 48.390625 32.421875 48.390625 
Q 24.90625 48.390625 20.390625 44.140625 
Q 15.875 39.890625 15.1875 32.171875 
z
" id="DejaVuSans-65"/>
     </defs>
     <g transform="translate(385.524219 412.253644)scale(0.1 -0.1)">
      <use xlink:href="#DejaVuSans-54"/>
      <use x="61.037109" xlink:href="#DejaVuSans-69"/>
      <use x="88.820312" xlink:href="#DejaVuSans-6d"/>
      <use x="186.232422" xlink:href="#DejaVuSans-65"/>
     </g>
    </g>
   </g>
   <g id="matplotlib.axis_2">
    <g id="ytick_1">
     <g id="line2d_7">
      <defs>
       <path d="M 0 0 
L -3.5 0 
" id="mcd91fef352" style="stroke:#000000;stroke-width:0.8;"/>
      </defs>
      <g>
       <use style="stroke:#000000;stroke-width:0.8;" x="62.123438" xlink:href="#mcd91fef352" y="345.555035"/>
      </g>
     </g>
     <g id="text_8">
      <!-- −0.25 -->
      <defs>
       <path d="M 10.59375 35.5 
L 73.1875 35.5 
L 73.1875 27.203125 
L 10.59375 27.203125 
z
" id="DejaVuSans-2212"/>
       <path d="M 10.6875 12.40625 
L 21 12.40625 
L 21 0 
L 10.6875 0 
z
" id="DejaVuSans-2e"/>
       <path d="M 10.796875 72.90625 
L 49.515625 72.90625 
L 49.515625 64.59375 
L 19.828125 64.59375 
L 19.828125 46.734375 
Q 21.96875 47.46875 24.109375 47.828125 
Q 26.265625 48.1875 28.421875 48.1875 
Q 40.625 48.1875 47.75 41.5 
Q 54.890625 34.8125 54.890625 23.390625 
Q 54.890625 11.625 47.5625 5.09375 
Q 40.234375 -1.421875 26.90625 -1.421875 
Q 22.3125 -1.421875 17.546875 -0.640625 
Q 12.796875 0.140625 7.71875 1.703125 
L 7.71875 11.625 
Q 12.109375 9.234375 16.796875 8.0625 
Q 21.484375 6.890625 26.703125 6.890625 
Q 35.15625 6.890625 40.078125 11.328125 
Q 45.015625 15.765625 45.015625 23.390625 
Q 45.015625 31 40.078125 35.4375 
Q 35.15625 39.890625 26.703125 39.890625 
Q 22.75 39.890625 18.8125 39.015625 
Q 14.890625 38.140625 10.796875 36.28125 
z
" id="DejaVuSans-35"/>
      </defs>
      <g transform="translate(24.478125 349.354254)scale(0.1 -0.1)">
       <use xlink:href="#DejaVuSans-2212"/>
       <use x="83.789062" xlink:href="#DejaVuSans-30"/>
       <use x="147.412109" xlink:href="#DejaVuSans-2e"/>
       <use x="179.199219" xlink:href="#DejaVuSans-32"/>
       <use x="242.822266" xlink:href="#DejaVuSans-35"/>
      </g>
     </g>
    </g>
    <g id="ytick_2">
     <g id="line2d_8">
      <g>
       <use style="stroke:#000000;stroke-width:0.8;" x="62.123438" xlink:href="#mcd91fef352" y="296.421983"/>
      </g>
     </g>
     <g id="text_9">
      <!-- 0.00 -->
      <g transform="translate(32.857813 300.221202)scale(0.1 -0.1)">
       <use xlink:href="#DejaVuSans-30"/>
       <use x="63.623047" xlink:href="#DejaVuSans-2e"/>
       <use x="95.410156" xlink:href="#DejaVuSans-30"/>
       <use x="159.033203" xlink:href="#DejaVuSans-30"/>
      </g>
     </g>
    </g>
    <g id="ytick_3">
     <g id="line2d_9">
      <g>
       <use style="stroke:#000000;stroke-width:0.8;" x="62.123438" xlink:href="#mcd91fef352" y="247.288931"/>
      </g>
     </g>
     <g id="text_10">
      <!-- 0.25 -->
      <g transform="translate(32.857813 251.08815)scale(0.1 -0.1)">
       <use xlink:href="#DejaVuSans-30"/>
       <use x="63.623047" xlink:href="#DejaVuSans-2e"/>
       <use x="95.410156" xlink:href="#DejaVuSans-32"/>
       <use x="159.033203" xlink:href="#DejaVuSans-35"/>
      </g>
     </g>
    </g>
    <g id="ytick_4">
     <g id="line2d_10">
      <g>
       <use style="stroke:#000000;stroke-width:0.8;" x="62.123438" xlink:href="#mcd91fef352" y="198.15588"/>
      </g>
     </g>
     <g id="text_11">
      <!-- 0.50 -->
      <g transform="translate(32.857813 201.955098)scale(0.1 -0.1)">
       <use xlink:href="#DejaVuSans-30"/>
       <use x="63.623047" xlink:href="#DejaVuSans-2e"/>
       <use x="95.410156" xlink:href="#DejaVuSans-35"/>
       <use x="159.033203" xlink:href="#DejaVuSans-30"/>
      </g>
     </g>
    </g>
    <g id="ytick_5">
     <g id="line2d_11">
      <g>
       <use style="stroke:#000000;stroke-width:0.8;" x="62.123438" xlink:href="#mcd91fef352" y="149.022828"/>
      </g>
     </g>
     <g id="text_12">
      <!-- 0.75 -->
      <g transform="translate(32.857813 152.822047)scale(0.1 -0.1)">
       <use xlink:href="#DejaVuSans-30"/>
       <use x="63.623047" xlink:href="#DejaVuSans-2e"/>
       <use x="95.410156" xlink:href="#DejaVuSans-37"/>
       <use x="159.033203" xlink:href="#DejaVuSans-35"/>
      </g>
     </g>
    </g>
    <g id="ytick_6">
     <g id="line2d_12">
      <g>
       <use style="stroke:#000000;stroke-width:0.8;" x="62.123438" xlink:href="#mcd91fef352" y="99.889776"/>
      </g>
     </g>
     <g id="text_13">
      <!-- 1.00 -->
      <g transform="translate(32.857813 103.688995)scale(0.1 -0.1)">
       <use xlink:href="#DejaVuSans-31"/>
       <use x="63.623047" xlink:href="#DejaVuSans-2e"/>
       <use x="95.410156" xlink:href="#DejaVuSans-30"/>
       <use x="159.033203" xlink:href="#DejaVuSans-30"/>
      </g>
     </g>
    </g>
    <g id="ytick_7">
     <g id="line2d_13">
      <g>
       <use style="stroke:#000000;stroke-width:0.8;" x="62.123438" xlink:href="#mcd91fef352" y="50.756724"/>
      </g>
     </g>
     <g id="text_14">
      <!-- 1.25 -->
      <g transform="translate(32.857813 54.555943)scale(0.1 -0.1)">
       <use xlink:href="#DejaVuSans-31"/>
       <use x="63.623047" xlink:href="#DejaVuSans-2e"/>
       <use x="95.410156" xlink:href="#DejaVuSans-32"/>
       <use x="159.033203" xlink:href="#DejaVuSans-35"/>
      </g>
     </g>
    </g>
    <g id="text_15">
     <!-- Relative temperature (Celsius) -->
     <defs>
      <path d="M 44.390625 34.1875 
Q 47.5625 33.109375 50.5625 29.59375 
Q 53.5625 26.078125 56.59375 19.921875 
L 66.609375 0 
L 56 0 
L 46.6875 18.703125 
Q 43.0625 26.03125 39.671875 28.421875 
Q 36.28125 30.8125 30.421875 30.8125 
L 19.671875 30.8125 
L 19.671875 0 
L 9.8125 0 
L 9.8125 72.90625 
L 32.078125 72.90625 
Q 44.578125 72.90625 50.734375 67.671875 
Q 56.890625 62.453125 56.890625 51.90625 
Q 56.890625 45.015625 53.6875 40.46875 
Q 50.484375 35.9375 44.390625 34.1875 
z
M 19.671875 64.796875 
L 19.671875 38.921875 
L 32.078125 38.921875 
Q 39.203125 38.921875 42.84375 42.21875 
Q 46.484375 45.515625 46.484375 51.90625 
Q 46.484375 58.296875 42.84375 61.546875 
Q 39.203125 64.796875 32.078125 64.796875 
z
" id="DejaVuSans-52"/>
      <path d="M 9.421875 75.984375 
L 18.40625 75.984375 
L 18.40625 0 
L 9.421875 0 
z
" id="DejaVuSans-6c"/>
      <path d="M 34.28125 27.484375 
Q 23.390625 27.484375 19.1875 25 
Q 14.984375 22.515625 14.984375 16.5 
Q 14.984375 11.71875 18.140625 8.90625 
Q 21.296875 6.109375 26.703125 6.109375 
Q 34.1875 6.109375 38.703125 11.40625 
Q 43.21875 16.703125 43.21875 25.484375 
L 43.21875 27.484375 
z
M 52.203125 31.203125 
L 52.203125 0 
L 43.21875 0 
L 43.21875 8.296875 
Q 40.140625 3.328125 35.546875 0.953125 
Q 30.953125 -1.421875 24.3125 -1.421875 
Q 15.921875 -1.421875 10.953125 3.296875 
Q 6 8.015625 6 15.921875 
Q 6 25.140625 12.171875 29.828125 
Q 18.359375 34.515625 30.609375 34.515625 
L 43.21875 34.515625 
L 43.21875 35.40625 
Q 43.21875 41.609375 39.140625 45 
Q 35.0625 48.390625 27.6875 48.390625 
Q 23 48.390625 18.546875 47.265625 
Q 14.109375 46.140625 10.015625 43.890625 
L 10.015625 52.203125 
Q 14.9375 54.109375 19.578125 55.046875 
Q 24.21875 56 28.609375 56 
Q 40.484375 56 46.34375 49.84375 
Q 52.203125 43.703125 52.203125 31.203125 
z
" id="DejaVuSans-61"/>
      <path d="M 18.3125 70.21875 
L 18.3125 54.6875 
L 36.8125 54.6875 
L 36.8125 47.703125 
L 18.3125 47.703125 
L 18.3125 18.015625 
Q 18.3125 11.328125 20.140625 9.421875 
Q 21.96875 7.515625 27.59375 7.515625 
L 36.8125 7.515625 
L 36.8125 0 
L 27.59375 0 
Q 17.1875 0 13.234375 3.875 
Q 9.28125 7.765625 9.28125 18.015625 
L 9.28125 47.703125 
L 2.6875 47.703125 
L 2.6875 54.6875 
L 9.28125 54.6875 
L 9.28125 70.21875 
z
" id="DejaVuSans-74"/>
      <path d="M 2.984375 54.6875 
L 12.5 54.6875 
L 29.59375 8.796875 
L 46.6875 54.6875 
L 56.203125 54.6875 
L 35.6875 0 
L 23.484375 0 
z
" id="DejaVuSans-76"/>
      <path id="DejaVuSans-20"/>
      <path d="M 18.109375 8.203125 
L 18.109375 -20.796875 
L 9.078125 -20.796875 
L 9.078125 54.6875 
L 18.109375 54.6875 
L 18.109375 46.390625 
Q 20.953125 51.265625 25.265625 53.625 
Q 29.59375 56 35.59375 56 
Q 45.5625 56 51.78125 48.09375 
Q 58.015625 40.1875 58.015625 27.296875 
Q 58.015625 14.40625 51.78125 6.484375 
Q 45.5625 -1.421875 35.59375 -1.421875 
Q 29.59375 -1.421875 25.265625 0.953125 
Q 20.953125 3.328125 18.109375 8.203125 
z
M 48.6875 27.296875 
Q 48.6875 37.203125 44.609375 42.84375 
Q 40.53125 48.484375 33.40625 48.484375 
Q 26.265625 48.484375 22.1875 42.84375 
Q 18.109375 37.203125 18.109375 27.296875 
Q 18.109375 17.390625 22.1875 11.75 
Q 26.265625 6.109375 33.40625 6.109375 
Q 40.53125 6.109375 44.609375 11.75 
Q 48.6875 17.390625 48.6875 27.296875 
z
" id="DejaVuSans-70"/>
      <path d="M 41.109375 46.296875 
Q 39.59375 47.171875 37.8125 47.578125 
Q 36.03125 48 33.890625 48 
Q 26.265625 48 22.1875 43.046875 
Q 18.109375 38.09375 18.109375 28.8125 
L 18.109375 0 
L 9.078125 0 
L 9.078125 54.6875 
L 18.109375 54.6875 
L 18.109375 46.1875 
Q 20.953125 51.171875 25.484375 53.578125 
Q 30.03125 56 36.53125 56 
Q 37.453125 56 38.578125 55.875 
Q 39.703125 55.765625 41.0625 55.515625 
z
" id="DejaVuSans-72"/>
      <path d="M 8.5 21.578125 
L 8.5 54.6875 
L 17.484375 54.6875 
L 17.484375 21.921875 
Q 17.484375 14.15625 20.5 10.265625 
Q 23.53125 6.390625 29.59375 6.390625 
Q 36.859375 6.390625 41.078125 11.03125 
Q 45.3125 15.671875 45.3125 23.6875 
L 45.3125 54.6875 
L 54.296875 54.6875 
L 54.296875 0 
L 45.3125 0 
L 45.3125 8.40625 
Q 42.046875 3.421875 37.71875 1 
Q 33.40625 -1.421875 27.6875 -1.421875 
Q 18.265625 -1.421875 13.375 4.4375 
Q 8.5 10.296875 8.5 21.578125 
z
M 31.109375 56 
z
" id="DejaVuSans-75"/>
      <path d="M 31 75.875 
Q 24.46875 64.65625 21.28125 53.65625 
Q 18.109375 42.671875 18.109375 31.390625 
Q 18.109375 20.125 21.3125 9.0625 
Q 24.515625 -2 31 -13.1875 
L 23.1875 -13.1875 
Q 15.875 -1.703125 12.234375 9.375 
Q 8.59375 20.453125 8.59375 31.390625 
Q 8.59375 42.28125 12.203125 53.3125 
Q 15.828125 64.359375 23.1875 75.875 
z
" id="DejaVuSans-28"/>
      <path d="M 64.40625 67.28125 
L 64.40625 56.890625 
Q 59.421875 61.53125 53.78125 63.8125 
Q 48.140625 66.109375 41.796875 66.109375 
Q 29.296875 66.109375 22.65625 58.46875 
Q 16.015625 50.828125 16.015625 36.375 
Q 16.015625 21.96875 22.65625 14.328125 
Q 29.296875 6.6875 41.796875 6.6875 
Q 48.140625 6.6875 53.78125 8.984375 
Q 59.421875 11.28125 64.40625 15.921875 
L 64.40625 5.609375 
Q 59.234375 2.09375 53.4375 0.328125 
Q 47.65625 -1.421875 41.21875 -1.421875 
Q 24.65625 -1.421875 15.125 8.703125 
Q 5.609375 18.84375 5.609375 36.375 
Q 5.609375 53.953125 15.125 64.078125 
Q 24.65625 74.21875 41.21875 74.21875 
Q 47.75 74.21875 53.53125 72.484375 
Q 59.328125 70.75 64.40625 67.28125 
z
" id="DejaVuSans-43"/>
      <path d="M 44.28125 53.078125 
L 44.28125 44.578125 
Q 40.484375 46.53125 36.375 47.5 
Q 32.28125 48.484375 27.875 48.484375 
Q 21.1875 48.484375 17.84375 46.4375 
Q 14.5 44.390625 14.5 40.28125 
Q 14.5 37.15625 16.890625 35.375 
Q 19.28125 33.59375 26.515625 31.984375 
L 29.59375 31.296875 
Q 39.15625 29.25 43.1875 25.515625 
Q 47.21875 21.78125 47.21875 15.09375 
Q 47.21875 7.46875 41.1875 3.015625 
Q 35.15625 -1.421875 24.609375 -1.421875 
Q 20.21875 -1.421875 15.453125 -0.5625 
Q 10.6875 0.296875 5.421875 2 
L 5.421875 11.28125 
Q 10.40625 8.6875 15.234375 7.390625 
Q 20.0625 6.109375 24.8125 6.109375 
Q 31.15625 6.109375 34.5625 8.28125 
Q 37.984375 10.453125 37.984375 14.40625 
Q 37.984375 18.0625 35.515625 20.015625 
Q 33.0625 21.96875 24.703125 23.78125 
L 21.578125 24.515625 
Q 13.234375 26.265625 9.515625 29.90625 
Q 5.8125 33.546875 5.8125 39.890625 
Q 5.8125 47.609375 11.28125 51.796875 
Q 16.75 56 26.8125 56 
Q 31.78125 56 36.171875 55.265625 
Q 40.578125 54.546875 44.28125 53.078125 
z
" id="DejaVuSans-73"/>
      <path d="M 8.015625 75.875 
L 15.828125 75.875 
Q 23.140625 64.359375 26.78125 53.3125 
Q 30.421875 42.28125 30.421875 31.390625 
Q 30.421875 20.453125 26.78125 9.375 
Q 23.140625 -1.703125 15.828125 -13.1875 
L 8.015625 -13.1875 
Q 14.5 -2 17.703125 9.0625 
Q 20.90625 20.125 20.90625 31.390625 
Q 20.90625 42.671875 17.703125 53.65625 
Q 14.5 64.65625 8.015625 75.875 
z
" id="DejaVuSans-29"/>
     </defs>
     <g transform="translate(18.398438 275.865103)rotate(-90)scale(0.1 -0.1)">
      <use xlink:href="#DejaVuSans-52"/>
      <use x="69.419922" xlink:href="#DejaVuSans-65"/>
      <use x="130.943359" xlink:href="#DejaVuSans-6c"/>
      <use x="158.726562" xlink:href="#DejaVuSans-61"/>
      <use x="220.005859" xlink:href="#DejaVuSans-74"/>
      <use x="259.214844" xlink:href="#DejaVuSans-69"/>
      <use x="286.998047" xlink:href="#DejaVuSans-76"/>
      <use x="346.177734" xlink:href="#DejaVuSans-65"/>
      <use x="407.701172" xlink:href="#DejaVuSans-20"/>
      <use x="439.488281" xlink:href="#DejaVuSans-74"/>
      <use x="478.697266" xlink:href="#DejaVuSans-65"/>
      <use x="540.220703" xlink:href="#DejaVuSans-6d"/>
      <use x="637.632812" xlink:href="#DejaVuSans-70"/>
      <use x="701.109375" xlink:href="#DejaVuSans-65"/>
      <use x="762.632812" xlink:href="#DejaVuSans-72"/>
      <use x="803.746094" xlink:href="#DejaVuSans-61"/>
      <use x="865.025391" xlink:href="#DejaVuSans-74"/>
      <use x="904.234375" xlink:href="#DejaVuSans-75"/>
      <use x="967.613281" xlink:href="#DejaVuSans-72"/>
      <use x="1008.695312" xlink:href="#DejaVuSans-65"/>
      <use x="1070.21875" xlink:href="#DejaVuSans-20"/>
      <use x="1102.005859" xlink:href="#DejaVuSans-28"/>
      <use x="1141.019531" xlink:href="#DejaVuSans-43"/>
      <use x="1210.84375" xlink:href="#DejaVuSans-65"/>
      <use x="1272.367188" xlink:href="#DejaVuSans-6c"/>
      <use x="1300.150391" xlink:href="#DejaVuSans-73"/>
      <use x="1352.25" xlink:href="#DejaVuSans-69"/>
      <use x="1380.033203" xlink:href="#DejaVuSans-75"/>
      <use x="1443.412109" xlink:href="#DejaVuSans-73"/>
      <use x="1495.511719" xlink:href="#DejaVuSans-29"/>
     </g>
    </g>
   </g>
   <g id="line2d_14">
    <path clip-path="url(#p6b996d8413)" d="M 92.649645 276.768762 
L 93.531576 294.456661 
L 94.385058 280.699407 
L 95.26699 306.248593 
L 96.120472 284.630051 
L 97.002403 308.213916 
L 97.884335 302.317949 
L 98.737817 288.560695 
L 99.619748 292.491339 
L 100.47323 294.456661 
L 101.355162 284.630051 
L 102.237093 278.734084 
L 103.033676 259.080864 
L 103.915608 264.97683 
L 104.76909 284.630051 
L 105.651021 292.491339 
L 106.504503 284.630051 
L 107.386435 298.387305 
L 108.268366 308.213916 
L 109.121848 314.109882 
L 110.00378 314.109882 
L 110.857262 302.317949 
L 111.739193 298.387305 
L 112.621124 268.907474 
L 113.446157 367.173578 
L 114.328089 327.867136 
L 116.063502 294.456661 
L 116.916984 300.352627 
L 117.798915 298.387305 
L 118.680847 286.595373 
L 119.534329 282.664729 
L 120.41626 318.040526 
L 121.269742 261.046186 
L 122.151674 282.664729 
L 123.033605 261.046186 
L 123.830188 278.734084 
L 124.71212 266.942152 
L 125.565602 270.872796 
L 126.447533 272.838118 
L 127.301015 302.317949 
L 128.182947 292.491339 
L 129.064878 286.595373 
L 129.91836 296.421983 
L 130.800292 290.526017 
L 131.653774 325.901814 
L 132.535705 280.699407 
L 133.417637 268.907474 
L 134.21422 272.838118 
L 135.096151 286.595373 
L 135.949633 308.213916 
L 136.831565 284.630051 
L 137.685047 300.352627 
L 138.566978 300.352627 
L 139.44891 298.387305 
L 140.302392 302.317949 
L 141.184323 284.630051 
L 142.037805 298.387305 
L 142.919737 302.317949 
L 143.801668 259.080864 
L 144.598251 321.97117 
L 145.480183 306.248593 
L 146.333665 314.109882 
L 147.215596 290.526017 
L 148.069078 280.699407 
L 148.95101 247.288931 
L 150.686423 266.942152 
L 151.568355 266.942152 
L 152.421837 296.421983 
L 154.185699 320.005848 
L 155.010732 339.659069 
L 155.892664 355.381645 
L 156.746146 345.555035 
L 157.628077 310.179238 
L 158.481559 310.179238 
L 159.36349 335.728424 
L 160.245422 351.451001 
L 161.098904 355.381645 
L 161.980835 337.693747 
L 162.834317 355.381645 
L 163.716249 314.109882 
L 164.59818 329.832458 
L 165.394764 318.040526 
L 166.276695 335.728424 
L 168.012108 312.14456 
L 168.86559 320.005848 
L 169.747522 298.387305 
L 170.629453 325.901814 
L 171.482935 304.283271 
L 172.364867 308.213916 
L 173.218349 306.248593 
L 174.10028 327.867136 
L 174.982212 296.421983 
L 175.778795 288.560695 
L 176.660726 321.97117 
L 177.514208 316.075204 
L 178.39614 292.491339 
L 179.249622 278.734084 
L 180.131553 316.075204 
L 181.013485 298.387305 
L 181.866967 325.901814 
L 182.748898 300.352627 
L 183.60238 308.213916 
L 184.484312 308.213916 
L 185.366243 335.728424 
L 186.162826 290.526017 
L 187.044758 306.248593 
L 187.89824 268.907474 
L 188.780171 312.14456 
L 189.633653 294.456661 
L 190.515585 292.491339 
L 191.397516 304.283271 
L 192.250998 284.630051 
L 193.13293 308.213916 
L 193.986412 300.352627 
L 194.868343 341.624391 
L 195.750274 325.901814 
L 196.575307 255.15022 
L 197.457239 306.248593 
L 198.310721 316.075204 
L 199.192652 308.213916 
L 200.046134 318.040526 
L 200.928065 318.040526 
L 201.809997 331.79778 
L 202.663479 272.838118 
L 203.54541 304.283271 
L 204.398892 323.936492 
L 205.280824 318.040526 
L 206.162755 323.936492 
L 206.959339 296.421983 
L 207.84127 259.080864 
L 208.694752 257.115542 
L 209.576683 286.595373 
L 210.430165 298.387305 
L 211.312097 290.526017 
L 212.194028 276.768762 
L 213.929442 272.838118 
L 214.782924 243.358287 
L 215.664855 278.734084 
L 216.546787 253.184898 
L 217.34337 280.699407 
L 218.225301 278.734084 
L 219.078783 306.248593 
L 219.960715 302.317949 
L 220.814197 304.283271 
L 221.696128 318.040526 
L 222.57806 274.80344 
L 223.431542 286.595373 
L 224.313473 294.456661 
L 225.166955 321.97117 
L 226.048887 300.352627 
L 226.930818 335.728424 
L 227.727401 331.79778 
L 228.609333 314.109882 
L 229.462815 308.213916 
L 230.344746 331.79778 
L 231.198228 320.005848 
L 232.08016 302.317949 
L 232.962091 298.387305 
L 233.815573 306.248593 
L 234.697505 304.283271 
L 235.550987 312.14456 
L 236.432918 343.589713 
L 237.31485 329.832458 
L 238.139882 292.491339 
L 239.021814 298.387305 
L 239.875296 302.317949 
L 240.757227 288.560695 
L 241.610709 292.491339 
L 242.492641 261.046186 
L 243.374572 290.526017 
L 244.228054 278.734084 
L 245.109985 290.526017 
L 245.963467 261.046186 
L 246.845399 241.392965 
L 247.72733 237.462321 
L 248.523914 245.323609 
L 249.405845 247.288931 
L 250.259327 245.323609 
L 251.141258 264.97683 
L 252.876672 292.491339 
L 253.758603 284.630051 
L 254.612085 272.838118 
L 255.494017 284.630051 
L 256.347499 308.213916 
L 257.22943 323.936492 
L 258.111362 351.451001 
L 258.907945 306.248593 
L 259.789876 316.075204 
L 260.643358 298.387305 
L 261.52529 306.248593 
L 262.378772 302.317949 
L 263.260703 272.838118 
L 264.142635 320.005848 
L 264.996117 310.179238 
L 265.878048 310.179238 
L 266.73153 314.109882 
L 267.613462 282.664729 
L 268.495393 282.664729 
L 269.291976 268.907474 
L 270.173908 284.630051 
L 271.02739 264.97683 
L 271.909321 300.352627 
L 272.762803 302.317949 
L 273.644735 335.728424 
L 274.526666 302.317949 
L 275.380148 314.109882 
L 276.26208 327.867136 
L 277.115562 329.832458 
L 277.997493 296.421983 
L 278.879425 308.213916 
L 279.704457 337.693747 
L 280.586389 316.075204 
L 281.439871 341.624391 
L 282.321802 325.901814 
L 283.175284 320.005848 
L 284.057216 331.79778 
L 284.939147 314.109882 
L 285.792629 347.520357 
L 286.67456 308.213916 
L 287.528042 278.734084 
L 288.409974 261.046186 
L 289.291905 257.115542 
L 290.088489 247.288931 
L 290.97042 243.358287 
L 291.823902 237.462321 
L 292.705833 247.288931 
L 293.559315 251.219575 
L 294.441247 259.080864 
L 295.323178 292.491339 
L 296.17666 288.560695 
L 297.058592 257.115542 
L 297.912074 286.595373 
L 298.794005 280.699407 
L 299.675937 268.907474 
L 300.47252 255.15022 
L 301.354451 266.942152 
L 302.207933 282.664729 
L 303.089865 302.317949 
L 303.943347 282.664729 
L 304.825278 331.79778 
L 305.70721 286.595373 
L 306.560692 296.421983 
L 307.442623 264.97683 
L 308.296105 274.80344 
L 309.178037 268.907474 
L 310.059968 314.109882 
L 310.856551 259.080864 
L 311.738483 270.872796 
L 312.591965 284.630051 
L 313.473896 268.907474 
L 314.327378 290.526017 
L 315.20931 268.907474 
L 316.091241 243.358287 
L 316.944723 245.323609 
L 317.826655 239.427643 
L 318.680137 204.051846 
L 319.562068 237.462321 
L 320.444 213.878456 
L 321.269032 239.427643 
L 322.150964 233.531677 
L 323.004446 229.601033 
L 323.886377 264.97683 
L 324.739859 241.392965 
L 325.621791 249.254253 
L 326.503722 255.15022 
L 327.357204 257.115542 
L 328.239135 237.462321 
L 329.092617 255.15022 
L 329.974549 186.363947 
L 330.85648 215.843778 
L 331.653064 202.086524 
L 332.534995 233.531677 
L 333.388477 247.288931 
L 334.270408 235.496999 
L 335.123891 227.635711 
L 336.005822 227.635711 
L 336.887753 263.011508 
L 337.741235 270.872796 
L 338.623167 255.15022 
L 339.476649 217.8091 
L 340.35858 278.734084 
L 341.240512 268.907474 
L 342.037095 298.387305 
L 342.919026 276.768762 
L 343.772508 264.97683 
L 344.65444 286.595373 
L 345.507922 270.872796 
L 346.389853 280.699407 
L 347.271785 266.942152 
L 348.125267 270.872796 
L 349.007198 268.907474 
L 349.86068 211.913134 
L 350.742612 194.225235 
L 351.624543 217.8091 
L 352.421126 213.878456 
L 353.303058 237.462321 
L 354.15654 227.635711 
L 355.038471 261.046186 
L 355.891953 266.942152 
L 356.773885 237.462321 
L 357.655816 221.739744 
L 358.509298 266.942152 
L 359.39123 237.462321 
L 360.244712 263.011508 
L 361.126643 237.462321 
L 362.008575 263.011508 
L 362.833607 239.427643 
L 363.715539 280.699407 
L 364.569021 231.566355 
L 365.450952 288.560695 
L 366.304434 264.97683 
L 367.186366 266.942152 
L 368.068297 257.115542 
L 368.921779 266.942152 
L 370.657192 308.213916 
L 371.539124 255.15022 
L 372.421055 308.213916 
L 373.217639 263.011508 
L 374.09957 274.80344 
L 374.953052 263.011508 
L 375.834983 263.011508 
L 376.688466 296.421983 
L 377.570397 266.942152 
L 378.452328 268.907474 
L 379.30581 274.80344 
L 380.187742 278.734084 
L 381.041224 266.942152 
L 381.923155 237.462321 
L 382.805087 219.774422 
L 383.60167 239.427643 
L 384.483601 245.323609 
L 385.337083 245.323609 
L 386.219015 272.838118 
L 387.072497 270.872796 
L 387.954428 272.838118 
L 388.83636 292.491339 
L 389.689842 268.907474 
L 390.571773 274.80344 
L 391.425255 264.97683 
L 392.307187 225.670389 
L 393.189118 206.017168 
L 393.985701 263.011508 
L 394.867633 249.254253 
L 395.721115 245.323609 
L 397.456528 206.017168 
L 398.33846 241.392965 
L 399.220391 219.774422 
L 400.955805 247.288931 
L 401.809287 204.051846 
L 402.691218 184.398625 
L 403.57315 213.878456 
L 404.398182 200.121202 
L 405.280114 207.98249 
L 406.133596 209.947812 
L 407.015527 213.878456 
L 407.869009 227.635711 
L 408.750941 206.017168 
L 409.632872 213.878456 
L 410.486354 217.8091 
L 411.368285 270.872796 
L 412.221768 229.601033 
L 413.103699 264.97683 
L 413.98563 227.635711 
L 414.782214 225.670389 
L 415.664145 231.566355 
L 416.517627 263.011508 
L 417.399559 266.942152 
L 418.253041 229.601033 
L 419.134972 225.670389 
L 420.016903 223.705067 
L 420.870385 233.531677 
L 421.752317 255.15022 
L 422.605799 223.705067 
L 423.48773 215.843778 
L 424.369662 215.843778 
L 425.166245 147.057506 
L 426.048176 188.329269 
L 426.901658 206.017168 
L 427.78359 221.739744 
L 428.637072 209.947812 
L 429.519003 237.462321 
L 430.400935 237.462321 
L 431.254417 211.913134 
L 432.136348 206.017168 
L 432.98983 213.878456 
L 433.871762 213.878456 
L 434.753693 196.190558 
L 435.550276 225.670389 
L 436.432208 192.259913 
L 437.28569 219.774422 
L 438.167621 190.294591 
L 439.021103 196.190558 
L 439.903035 213.878456 
L 440.784966 198.15588 
L 441.638448 233.531677 
L 442.52038 235.496999 
L 443.373862 231.566355 
L 444.255793 207.98249 
L 445.137725 213.878456 
L 445.962757 204.051846 
L 446.844689 249.254253 
L 447.698171 233.531677 
L 448.580102 249.254253 
L 449.433584 270.872796 
L 450.315516 276.768762 
L 451.197447 294.456661 
L 452.050929 274.80344 
L 452.93286 288.560695 
L 453.786343 253.184898 
L 454.668274 223.705067 
L 455.550205 219.774422 
L 456.346789 225.670389 
L 457.22872 241.392965 
L 458.964134 249.254253 
L 459.817616 241.392965 
L 460.699547 270.872796 
L 461.581478 274.80344 
L 462.43496 249.254253 
L 463.316892 282.664729 
L 465.052305 237.462321 
L 465.934237 288.560695 
L 466.73082 245.323609 
L 467.612751 215.843778 
L 468.466233 239.427643 
L 469.348165 213.878456 
L 470.201647 233.531677 
L 471.083578 251.219575 
L 471.96551 233.531677 
L 472.818992 213.878456 
L 473.700923 206.017168 
L 474.554405 225.670389 
L 475.436337 198.15588 
L 476.318268 145.092184 
L 477.114851 207.98249 
L 477.996783 204.051846 
L 478.850265 239.427643 
L 479.732196 207.98249 
L 480.585678 200.121202 
L 481.46761 202.086524 
L 482.349541 229.601033 
L 483.203023 200.121202 
L 484.084955 207.98249 
L 484.938437 237.462321 
L 485.820368 243.358287 
L 486.7023 198.15588 
L 487.527332 229.601033 
L 488.409264 221.739744 
L 489.262746 237.462321 
L 490.144677 243.358287 
L 490.998159 223.705067 
L 491.880091 200.121202 
L 492.762022 243.358287 
L 493.615504 257.115542 
L 494.497436 213.878456 
L 495.350918 215.843778 
L 496.232849 231.566355 
L 497.11478 223.705067 
L 497.911364 194.225235 
L 498.793295 221.739744 
L 499.646777 219.774422 
L 500.528709 188.329269 
L 501.382191 227.635711 
L 502.264122 211.913134 
L 503.146053 186.363947 
L 503.999535 170.641371 
L 504.881467 166.710727 
L 505.734949 178.502659 
L 506.61688 176.537337 
L 507.498812 119.542997 
L 508.295395 172.606693 
L 509.177326 170.641371 
L 510.91274 143.126862 
L 511.766222 156.884116 
L 512.648153 162.780082 
L 513.530085 207.98249 
L 514.383567 204.051846 
L 515.265498 198.15588 
L 516.11898 186.363947 
L 517.000912 202.086524 
L 517.882843 166.710727 
L 518.679426 229.601033 
L 519.561358 229.601033 
L 520.41484 231.566355 
L 522.150253 215.843778 
L 523.032185 229.601033 
L 523.914116 211.913134 
L 524.767598 211.913134 
L 525.64953 213.878456 
L 526.503012 206.017168 
L 527.384943 245.323609 
L 528.266875 182.433303 
L 529.091907 178.502659 
L 529.973839 180.467981 
L 530.827321 217.8091 
L 531.709252 209.947812 
L 532.562734 213.878456 
L 533.444666 211.913134 
L 534.326597 213.878456 
L 535.180079 237.462321 
L 536.062011 229.601033 
L 536.915493 237.462321 
L 537.797424 209.947812 
L 538.679355 206.017168 
L 539.475939 182.433303 
L 540.35787 194.225235 
L 541.211352 180.467981 
L 542.093284 188.329269 
L 542.946766 176.537337 
L 543.828697 200.121202 
L 544.710628 186.363947 
L 545.56411 194.225235 
L 546.446042 158.849438 
L 547.299524 188.329269 
L 548.181455 149.022828 
L 549.063387 147.057506 
L 549.85997 117.577675 
L 550.741901 182.433303 
L 551.595384 168.676049 
L 552.477315 190.294591 
L 553.330797 174.572015 
L 554.212728 188.329269 
L 555.09466 168.676049 
L 555.948142 184.398625 
L 556.830073 180.467981 
L 557.683555 211.913134 
L 558.565487 152.953472 
L 559.447418 188.329269 
L 560.244001 184.398625 
L 561.125933 188.329269 
L 561.979415 174.572015 
L 562.861346 200.121202 
L 563.714828 188.329269 
L 564.59676 166.710727 
L 565.478691 166.710727 
L 566.332173 149.022828 
L 567.214105 188.329269 
L 568.067587 149.022828 
L 568.949518 180.467981 
L 569.83145 156.884116 
L 570.656482 170.641371 
L 571.538414 174.572015 
L 572.391896 213.878456 
L 573.273827 211.913134 
L 574.127309 245.323609 
L 575.009241 207.98249 
L 575.891172 192.259913 
L 576.744654 166.710727 
L 577.626586 154.918794 
L 578.480068 194.225235 
L 579.361999 154.918794 
L 580.24393 182.433303 
L 581.040514 160.81476 
L 581.922445 160.81476 
L 582.775927 168.676049 
L 583.657859 164.745404 
L 584.511341 166.710727 
L 585.393272 172.606693 
L 586.275203 143.126862 
L 587.128686 139.196218 
L 588.010617 147.057506 
L 588.864099 162.780082 
L 589.74603 184.398625 
L 590.627962 158.849438 
L 591.424545 172.606693 
L 592.306477 198.15588 
L 593.159959 204.051846 
L 594.04189 170.641371 
L 594.895372 190.294591 
L 595.777303 154.918794 
L 596.659235 170.641371 
L 597.512717 160.81476 
L 598.394648 154.918794 
L 599.24813 145.092184 
L 600.130062 107.751064 
L 601.011993 158.849438 
L 601.808576 158.849438 
L 602.690508 147.057506 
L 604.425921 182.433303 
L 605.279403 174.572015 
L 606.161335 178.502659 
L 607.043266 170.641371 
L 607.896748 178.502659 
L 608.77868 184.398625 
L 609.632162 198.15588 
L 610.514093 249.254253 
L 611.396025 225.670389 
L 612.221057 152.953472 
L 613.102989 192.259913 
L 613.956471 196.190558 
L 614.838402 202.086524 
L 615.691884 178.502659 
L 616.573816 209.947812 
L 617.455747 168.676049 
L 618.309229 164.745404 
L 619.191161 166.710727 
L 620.044643 190.294591 
L 620.926574 174.572015 
L 621.808505 192.259913 
L 622.605089 192.259913 
L 623.48702 176.537337 
L 624.340502 168.676049 
L 625.222434 168.676049 
L 626.075916 154.918794 
L 626.957847 166.710727 
L 627.839778 158.849438 
L 628.693261 170.641371 
L 629.575192 145.092184 
L 630.428674 168.676049 
L 631.310605 152.953472 
L 632.192537 143.126862 
L 632.98912 115.612353 
L 633.871052 125.438963 
L 635.606465 170.641371 
L 636.459947 174.572015 
L 637.341878 168.676049 
L 638.22381 176.537337 
L 639.077292 156.884116 
L 639.959223 141.16154 
L 640.812705 200.121202 
L 642.576568 192.259913 
L 643.373151 170.641371 
L 644.255083 168.676049 
L 645.108565 192.259913 
L 645.990496 180.467981 
L 646.843978 152.953472 
L 647.72591 152.953472 
L 648.607841 186.363947 
L 649.461323 166.710727 
L 650.343255 186.363947 
L 651.196737 190.294591 
L 652.078668 206.017168 
L 652.9606 200.121202 
L 653.785632 182.433303 
L 654.667564 160.81476 
L 655.521046 147.057506 
L 656.402977 174.572015 
L 657.256459 184.398625 
L 658.138391 172.606693 
L 659.020322 147.057506 
L 659.873804 143.126862 
L 660.755736 149.022828 
L 661.609218 192.259913 
L 662.491149 162.780082 
L 663.37308 188.329269 
L 664.169664 166.710727 
L 665.051595 194.225235 
L 665.905077 176.537337 
L 666.787009 168.676049 
L 667.640491 180.467981 
L 668.522422 166.710727 
L 669.404354 143.126862 
L 670.257836 160.81476 
L 671.139767 137.230895 
L 671.993249 164.745404 
L 672.87518 152.953472 
L 673.757112 196.190558 
L 674.553695 145.092184 
L 675.435627 143.126862 
L 676.289109 125.438963 
L 677.17104 166.710727 
L 678.024522 184.398625 
L 678.906453 135.265573 
L 679.788385 119.542997 
L 680.641867 129.369607 
L 681.523798 164.745404 
L 682.37728 141.16154 
L 683.259212 137.230895 
L 684.937727 119.542997 
L 685.819658 150.98815 
L 686.67314 143.126862 
L 687.555071 143.126862 
L 688.408553 156.884116 
L 689.290485 143.126862 
L 690.172416 137.230895 
L 691.025898 88.097844 
L 691.90783 92.028488 
L 692.761312 78.271233 
L 693.643243 66.479301 
L 694.525175 31.103504 
L 695.350207 40.930114 
L 696.232139 82.201878 
L 697.967552 147.057506 
L 698.821034 133.300251 
L 699.702966 103.82042 
L 700.584897 125.438963 
L 701.438379 121.508319 
L 702.320311 113.647031 
L 703.173793 137.230895 
L 703.173793 137.230895 
" style="fill:none;stroke:#1f77b4;stroke-linecap:square;stroke-width:1.5;"/>
   </g>
   <g id="patch_3">
    <path d="M 62.123438 383.977081 
L 62.123438 14.3 
" style="fill:none;stroke:#000000;stroke-linecap:square;stroke-linejoin:miter;stroke-width:0.8;"/>
   </g>
   <g id="patch_4">
    <path d="M 733.7 383.977081 
L 733.7 14.3 
" style="fill:none;stroke:#000000;stroke-linecap:square;stroke-linejoin:miter;stroke-width:0.8;"/>
   </g>
   <g id="patch_5">
    <path d="M 62.123437 383.977081 
L 733.7 383.977081 
" style="fill:none;stroke:#000000;stroke-linecap:square;stroke-linejoin:miter;stroke-width:0.8;"/>
   </g>
   <g id="patch_6">
    <path d="M 62.123437 14.3 
L 733.7 14.3 
" style="fill:none;stroke:#000000;stroke-linecap:square;stroke-linejoin:miter;stroke-width:0.8;"/>
   </g>
  </g>
 </g>
 <defs>
  <clipPath id="p6b996d8413">
   <rect height="369.677081" width="671.576563" x="62.123438" y="14.3"/>
  </clipPath>
 </defs>
</svg>
