<?xml version="1.0" encoding="utf-8" standalone="no"?>
<!DOCTYPE svg PUBLIC "-//W3C//DTD SVG 1.1//EN"
  "http://www.w3.org/Graphics/SVG/1.1/DTD/svg11.dtd">
<!-- Created with matplotlib (http://matplotlib.org/) -->
<svg height="257pt" version="1.1" viewBox="0 0 400 257" width="400pt" xmlns="http://www.w3.org/2000/svg" xmlns:xlink="http://www.w3.org/1999/xlink">
 <defs>
  <style type="text/css">
*{stroke-linecap:butt;stroke-linejoin:round;}
  </style>
 </defs>
 <g id="figure_1">
  <g id="patch_1">
   <path d="M 0 257 
L 400 257 
L 400 0 
L 0 0 
z
" style="fill:#ffffff;"/>
  </g>
  <g id="axes_1">
   <g id="patch_2">
    <path d="M 36.8875 229.521875 
L 385.7 229.521875 
L 385.7 14.3 
L 36.8875 14.3 
z
" style="fill:#ffffff;"/>
   </g>
   <g id="matplotlib.axis_1">
    <g id="xtick_1">
     <g id="line2d_1">
      <defs>
       <path d="M 0 0 
L 0 3.5 
" id="m7e797eead1" style="stroke:#000000;stroke-width:0.8;"/>
      </defs>
      <g>
       <use style="stroke:#000000;stroke-width:0.8;" x="52.742614" xlink:href="#m7e797eead1" y="229.521875"/>
      </g>
     </g>
     <g id="text_1">
      <!-- 0 -->
      <defs>
       <path d="M 31.78125 66.40625 
Q 24.171875 66.40625 20.328125 58.90625 
Q 16.5 51.421875 16.5 36.375 
Q 16.5 21.390625 20.328125 13.890625 
Q 24.171875 6.390625 31.78125 6.390625 
Q 39.453125 6.390625 43.28125 13.890625 
Q 47.125 21.390625 47.125 36.375 
Q 47.125 51.421875 43.28125 58.90625 
Q 39.453125 66.40625 31.78125 66.40625 
z
M 31.78125 74.21875 
Q 44.046875 74.21875 50.515625 64.515625 
Q 56.984375 54.828125 56.984375 36.375 
Q 56.984375 17.96875 50.515625 8.265625 
Q 44.046875 -1.421875 31.78125 -1.421875 
Q 19.53125 -1.421875 13.0625 8.265625 
Q 6.59375 17.96875 6.59375 36.375 
Q 6.59375 54.828125 13.0625 64.515625 
Q 19.53125 74.21875 31.78125 74.21875 
z
" id="DejaVuSans-30"/>
      </defs>
      <g transform="translate(49.561364 244.120313)scale(0.1 -0.1)">
       <use xlink:href="#DejaVuSans-30"/>
      </g>
     </g>
    </g>
    <g id="xtick_2">
     <g id="line2d_2">
      <g>
       <use style="stroke:#000000;stroke-width:0.8;" x="116.163068" xlink:href="#m7e797eead1" y="229.521875"/>
      </g>
     </g>
     <g id="text_2">
      <!-- 20 -->
      <defs>
       <path d="M 19.1875 8.296875 
L 53.609375 8.296875 
L 53.609375 0 
L 7.328125 0 
L 7.328125 8.296875 
Q 12.9375 14.109375 22.625 23.890625 
Q 32.328125 33.6875 34.8125 36.53125 
Q 39.546875 41.84375 41.421875 45.53125 
Q 43.3125 49.21875 43.3125 52.78125 
Q 43.3125 58.59375 39.234375 62.25 
Q 35.15625 65.921875 28.609375 65.921875 
Q 23.96875 65.921875 18.8125 64.3125 
Q 13.671875 62.703125 7.8125 59.421875 
L 7.8125 69.390625 
Q 13.765625 71.78125 18.9375 73 
Q 24.125 74.21875 28.421875 74.21875 
Q 39.75 74.21875 46.484375 68.546875 
Q 53.21875 62.890625 53.21875 53.421875 
Q 53.21875 48.921875 51.53125 44.890625 
Q 49.859375 40.875 45.40625 35.40625 
Q 44.1875 33.984375 37.640625 27.21875 
Q 31.109375 20.453125 19.1875 8.296875 
z
" id="DejaVuSans-32"/>
      </defs>
      <g transform="translate(109.800568 244.120313)scale(0.1 -0.1)">
       <use xlink:href="#DejaVuSans-32"/>
       <use x="63.623047" xlink:href="#DejaVuSans-30"/>
      </g>
     </g>
    </g>
    <g id="xtick_3">
     <g id="line2d_3">
      <g>
       <use style="stroke:#000000;stroke-width:0.8;" x="179.583523" xlink:href="#m7e797eead1" y="229.521875"/>
      </g>
     </g>
     <g id="text_3">
      <!-- 40 -->
      <defs>
       <path d="M 37.796875 64.3125 
L 12.890625 25.390625 
L 37.796875 25.390625 
z
M 35.203125 72.90625 
L 47.609375 72.90625 
L 47.609375 25.390625 
L 58.015625 25.390625 
L 58.015625 17.1875 
L 47.609375 17.1875 
L 47.609375 0 
L 37.796875 0 
L 37.796875 17.1875 
L 4.890625 17.1875 
L 4.890625 26.703125 
z
" id="DejaVuSans-34"/>
      </defs>
      <g transform="translate(173.221023 244.120313)scale(0.1 -0.1)">
       <use xlink:href="#DejaVuSans-34"/>
       <use x="63.623047" xlink:href="#DejaVuSans-30"/>
      </g>
     </g>
    </g>
    <g id="xtick_4">
     <g id="line2d_4">
      <g>
       <use style="stroke:#000000;stroke-width:0.8;" x="243.003977" xlink:href="#m7e797eead1" y="229.521875"/>
      </g>
     </g>
     <g id="text_4">
      <!-- 60 -->
      <defs>
       <path d="M 33.015625 40.375 
Q 26.375 40.375 22.484375 35.828125 
Q 18.609375 31.296875 18.609375 23.390625 
Q 18.609375 15.53125 22.484375 10.953125 
Q 26.375 6.390625 33.015625 6.390625 
Q 39.65625 6.390625 43.53125 10.953125 
Q 47.40625 15.53125 47.40625 23.390625 
Q 47.40625 31.296875 43.53125 35.828125 
Q 39.65625 40.375 33.015625 40.375 
z
M 52.59375 71.296875 
L 52.59375 62.3125 
Q 48.875 64.0625 45.09375 64.984375 
Q 41.3125 65.921875 37.59375 65.921875 
Q 27.828125 65.921875 22.671875 59.328125 
Q 17.53125 52.734375 16.796875 39.40625 
Q 19.671875 43.65625 24.015625 45.921875 
Q 28.375 48.1875 33.59375 48.1875 
Q 44.578125 48.1875 50.953125 41.515625 
Q 57.328125 34.859375 57.328125 23.390625 
Q 57.328125 12.15625 50.6875 5.359375 
Q 44.046875 -1.421875 33.015625 -1.421875 
Q 20.359375 -1.421875 13.671875 8.265625 
Q 6.984375 17.96875 6.984375 36.375 
Q 6.984375 53.65625 15.1875 63.9375 
Q 23.390625 74.21875 37.203125 74.21875 
Q 40.921875 74.21875 44.703125 73.484375 
Q 48.484375 72.75 52.59375 71.296875 
z
" id="DejaVuSans-36"/>
      </defs>
      <g transform="translate(236.641477 244.120313)scale(0.1 -0.1)">
       <use xlink:href="#DejaVuSans-36"/>
       <use x="63.623047" xlink:href="#DejaVuSans-30"/>
      </g>
     </g>
    </g>
    <g id="xtick_5">
     <g id="line2d_5">
      <g>
       <use style="stroke:#000000;stroke-width:0.8;" x="306.424432" xlink:href="#m7e797eead1" y="229.521875"/>
      </g>
     </g>
     <g id="text_5">
      <!-- 80 -->
      <defs>
       <path d="M 31.78125 34.625 
Q 24.75 34.625 20.71875 30.859375 
Q 16.703125 27.09375 16.703125 20.515625 
Q 16.703125 13.921875 20.71875 10.15625 
Q 24.75 6.390625 31.78125 6.390625 
Q 38.8125 6.390625 42.859375 10.171875 
Q 46.921875 13.96875 46.921875 20.515625 
Q 46.921875 27.09375 42.890625 30.859375 
Q 38.875 34.625 31.78125 34.625 
z
M 21.921875 38.8125 
Q 15.578125 40.375 12.03125 44.71875 
Q 8.5 49.078125 8.5 55.328125 
Q 8.5 64.0625 14.71875 69.140625 
Q 20.953125 74.21875 31.78125 74.21875 
Q 42.671875 74.21875 48.875 69.140625 
Q 55.078125 64.0625 55.078125 55.328125 
Q 55.078125 49.078125 51.53125 44.71875 
Q 48 40.375 41.703125 38.8125 
Q 48.828125 37.15625 52.796875 32.3125 
Q 56.78125 27.484375 56.78125 20.515625 
Q 56.78125 9.90625 50.3125 4.234375 
Q 43.84375 -1.421875 31.78125 -1.421875 
Q 19.734375 -1.421875 13.25 4.234375 
Q 6.78125 9.90625 6.78125 20.515625 
Q 6.78125 27.484375 10.78125 32.3125 
Q 14.796875 37.15625 21.921875 38.8125 
z
M 18.3125 54.390625 
Q 18.3125 48.734375 21.84375 45.5625 
Q 25.390625 42.390625 31.78125 42.390625 
Q 38.140625 42.390625 41.71875 45.5625 
Q 45.3125 48.734375 45.3125 54.390625 
Q 45.3125 60.0625 41.71875 63.234375 
Q 38.140625 66.40625 31.78125 66.40625 
Q 25.390625 66.40625 21.84375 63.234375 
Q 18.3125 60.0625 18.3125 54.390625 
z
" id="DejaVuSans-38"/>
      </defs>
      <g transform="translate(300.061932 244.120313)scale(0.1 -0.1)">
       <use xlink:href="#DejaVuSans-38"/>
       <use x="63.623047" xlink:href="#DejaVuSans-30"/>
      </g>
     </g>
    </g>
    <g id="xtick_6">
     <g id="line2d_6">
      <g>
       <use style="stroke:#000000;stroke-width:0.8;" x="369.844886" xlink:href="#m7e797eead1" y="229.521875"/>
      </g>
     </g>
     <g id="text_6">
      <!-- 100 -->
      <defs>
       <path d="M 12.40625 8.296875 
L 28.515625 8.296875 
L 28.515625 63.921875 
L 10.984375 60.40625 
L 10.984375 69.390625 
L 28.421875 72.90625 
L 38.28125 72.90625 
L 38.28125 8.296875 
L 54.390625 8.296875 
L 54.390625 0 
L 12.40625 0 
z
" id="DejaVuSans-31"/>
      </defs>
      <g transform="translate(360.301136 244.120313)scale(0.1 -0.1)">
       <use xlink:href="#DejaVuSans-31"/>
       <use x="63.623047" xlink:href="#DejaVuSans-30"/>
       <use x="127.246094" xlink:href="#DejaVuSans-30"/>
      </g>
     </g>
    </g>
   </g>
   <g id="matplotlib.axis_2">
    <g id="ytick_1">
     <g id="line2d_7">
      <defs>
       <path d="M 0 0 
L -3.5 0 
" id="m8c8a94d632" style="stroke:#000000;stroke-width:0.8;"/>
      </defs>
      <g>
       <use style="stroke:#000000;stroke-width:0.8;" x="36.8875" xlink:href="#m8c8a94d632" y="219.739062"/>
      </g>
     </g>
     <g id="text_7">
      <!-- 0 -->
      <g transform="translate(23.525 223.538281)scale(0.1 -0.1)">
       <use xlink:href="#DejaVuSans-30"/>
      </g>
     </g>
    </g>
    <g id="ytick_2">
     <g id="line2d_8">
      <g>
       <use style="stroke:#000000;stroke-width:0.8;" x="36.8875" xlink:href="#m8c8a94d632" y="183.167801"/>
      </g>
     </g>
     <g id="text_8">
      <!-- 20 -->
      <g transform="translate(17.1625 186.96702)scale(0.1 -0.1)">
       <use xlink:href="#DejaVuSans-32"/>
       <use x="63.623047" xlink:href="#DejaVuSans-30"/>
      </g>
     </g>
    </g>
    <g id="ytick_3">
     <g id="line2d_9">
      <g>
       <use style="stroke:#000000;stroke-width:0.8;" x="36.8875" xlink:href="#m8c8a94d632" y="146.596539"/>
      </g>
     </g>
     <g id="text_9">
      <!-- 40 -->
      <g transform="translate(17.1625 150.395758)scale(0.1 -0.1)">
       <use xlink:href="#DejaVuSans-34"/>
       <use x="63.623047" xlink:href="#DejaVuSans-30"/>
      </g>
     </g>
    </g>
    <g id="ytick_4">
     <g id="line2d_10">
      <g>
       <use style="stroke:#000000;stroke-width:0.8;" x="36.8875" xlink:href="#m8c8a94d632" y="110.025277"/>
      </g>
     </g>
     <g id="text_10">
      <!-- 60 -->
      <g transform="translate(17.1625 113.824496)scale(0.1 -0.1)">
       <use xlink:href="#DejaVuSans-36"/>
       <use x="63.623047" xlink:href="#DejaVuSans-30"/>
      </g>
     </g>
    </g>
    <g id="ytick_5">
     <g id="line2d_11">
      <g>
       <use style="stroke:#000000;stroke-width:0.8;" x="36.8875" xlink:href="#m8c8a94d632" y="73.454016"/>
      </g>
     </g>
     <g id="text_11">
      <!-- 80 -->
      <g transform="translate(17.1625 77.253235)scale(0.1 -0.1)">
       <use xlink:href="#DejaVuSans-38"/>
       <use x="63.623047" xlink:href="#DejaVuSans-30"/>
      </g>
     </g>
    </g>
    <g id="ytick_6">
     <g id="line2d_12">
      <g>
       <use style="stroke:#000000;stroke-width:0.8;" x="36.8875" xlink:href="#m8c8a94d632" y="36.882754"/>
      </g>
     </g>
     <g id="text_12">
      <!-- 100 -->
      <g transform="translate(10.8 40.681973)scale(0.1 -0.1)">
       <use xlink:href="#DejaVuSans-31"/>
       <use x="63.623047" xlink:href="#DejaVuSans-30"/>
       <use x="127.246094" xlink:href="#DejaVuSans-30"/>
      </g>
     </g>
    </g>
   </g>
   <g id="line2d_13">
    <path clip-path="url(#pe28266843c)" d="M 52.742614 219.739062 
L 55.913636 214.253373 
L 59.084659 212.42481 
L 62.255682 210.596247 
L 65.426705 212.42481 
L 68.597727 210.596247 
L 71.76875 208.767684 
L 74.939773 206.939121 
L 78.110795 208.767684 
L 81.281818 210.596247 
L 84.452841 212.42481 
L 87.623864 214.253373 
L 90.794886 216.081936 
L 93.965909 217.910499 
L 97.136932 219.739062 
L 100.307955 219.739062 
L 103.478977 217.910499 
L 106.65 208.767684 
L 109.821023 210.596247 
L 112.992045 212.42481 
L 116.163068 210.596247 
L 119.334091 212.42481 
L 122.505114 210.596247 
L 125.676136 208.767684 
L 128.847159 206.939121 
L 132.018182 205.110558 
L 135.189205 203.281995 
L 138.360227 205.110558 
L 141.53125 203.281995 
L 144.702273 205.110558 
L 147.873295 203.281995 
L 151.044318 201.453432 
L 154.215341 199.624869 
L 157.386364 197.796305 
L 160.557386 199.624869 
L 163.728409 192.310616 
L 166.899432 190.482053 
L 170.070455 192.310616 
L 173.241477 190.482053 
L 176.4125 192.310616 
L 179.583523 190.482053 
L 182.754545 188.65349 
L 185.925568 186.824927 
L 189.096591 184.996364 
L 192.267614 183.167801 
L 195.438636 181.339238 
L 198.609659 179.510675 
L 201.780682 174.024985 
L 204.951705 172.196422 
L 208.122727 170.367859 
L 211.29375 168.539296 
L 214.464773 159.396481 
L 217.635795 157.567918 
L 220.806818 150.253665 
L 223.977841 148.425102 
L 227.148864 150.253665 
L 230.319886 148.425102 
L 233.490909 146.596539 
L 236.661932 148.425102 
L 239.832955 146.596539 
L 243.003977 144.767976 
L 246.175 141.11085 
L 249.346023 139.282287 
L 252.517045 137.453724 
L 255.688068 139.282287 
L 258.859091 141.11085 
L 262.030114 139.282287 
L 265.201136 137.453724 
L 268.372159 139.282287 
L 271.543182 141.11085 
L 274.714205 139.282287 
L 277.885227 137.453724 
L 281.05625 133.796598 
L 284.227273 135.625161 
L 287.398295 137.453724 
L 290.569318 135.625161 
L 293.740341 137.453724 
L 296.911364 135.625161 
L 300.082386 133.796598 
L 303.253409 131.968034 
L 306.424432 128.310908 
L 309.595455 130.139471 
L 312.766477 128.310908 
L 315.9375 126.482345 
L 319.108523 124.653782 
L 322.279545 122.825219 
L 325.450568 120.996656 
L 328.621591 122.825219 
L 331.792614 124.653782 
L 334.963636 122.825219 
L 338.134659 124.653782 
L 341.305682 122.825219 
L 344.476705 120.996656 
L 347.647727 122.825219 
L 350.81875 117.33953 
L 353.989773 115.510967 
L 357.160795 113.682404 
L 360.331818 111.853841 
L 363.502841 113.682404 
L 366.673864 111.853841 
L 369.844886 110.025277 
" style="fill:none;stroke:#1f77b4;stroke-linecap:square;stroke-width:1.5;"/>
   </g>
   <g id="line2d_14">
    <path clip-path="url(#pe28266843c)" d="M 52.742614 219.739062 
L 55.913636 212.42481 
L 59.084659 214.253373 
L 62.255682 216.081936 
L 65.426705 212.42481 
L 68.597727 214.253373 
L 71.76875 212.42481 
L 74.939773 208.767684 
L 78.110795 206.939121 
L 81.281818 205.110558 
L 84.452841 195.967742 
L 87.623864 197.796305 
L 90.794886 195.967742 
L 93.965909 194.139179 
L 97.136932 192.310616 
L 100.307955 190.482053 
L 103.478977 188.65349 
L 106.65 190.482053 
L 109.821023 181.339238 
L 112.992045 179.510675 
L 116.163068 177.682112 
L 119.334091 175.853548 
L 122.505114 177.682112 
L 125.676136 179.510675 
L 128.847159 181.339238 
L 132.018182 183.167801 
L 135.189205 184.996364 
L 138.360227 183.167801 
L 141.53125 181.339238 
L 144.702273 179.510675 
L 147.873295 168.539296 
L 151.044318 170.367859 
L 154.215341 172.196422 
L 157.386364 174.024985 
L 160.557386 172.196422 
L 163.728409 170.367859 
L 166.899432 168.539296 
L 170.070455 170.367859 
L 173.241477 168.539296 
L 176.4125 166.710733 
L 179.583523 168.539296 
L 182.754545 159.396481 
L 185.925568 157.567918 
L 189.096591 159.396481 
L 192.267614 161.225044 
L 195.438636 163.053607 
L 198.609659 164.88217 
L 201.780682 163.053607 
L 204.951705 164.88217 
L 208.122727 166.710733 
L 211.29375 163.053607 
L 214.464773 161.225044 
L 217.635795 155.739355 
L 220.806818 153.910791 
L 223.977841 150.253665 
L 227.148864 148.425102 
L 230.319886 146.596539 
L 233.490909 144.767976 
L 236.661932 146.596539 
L 239.832955 148.425102 
L 243.003977 146.596539 
L 246.175 144.767976 
L 249.346023 142.939413 
L 252.517045 141.11085 
L 255.688068 142.939413 
L 258.859091 141.11085 
L 262.030114 139.282287 
L 265.201136 137.453724 
L 268.372159 131.968034 
L 271.543182 130.139471 
L 274.714205 128.310908 
L 277.885227 130.139471 
L 281.05625 128.310908 
L 284.227273 130.139471 
L 287.398295 128.310908 
L 290.569318 126.482345 
L 293.740341 124.653782 
L 296.911364 117.33953 
L 300.082386 119.168093 
L 303.253409 120.996656 
L 306.424432 119.168093 
L 309.595455 117.33953 
L 312.766477 115.510967 
L 315.9375 117.33953 
L 319.108523 115.510967 
L 322.279545 117.33953 
L 325.450568 115.510967 
L 328.621591 111.853841 
L 331.792614 102.711025 
L 334.963636 104.539588 
L 338.134659 102.711025 
L 341.305682 100.882462 
L 344.476705 99.053899 
L 347.647727 97.225336 
L 350.81875 95.396773 
L 353.989773 93.56821 
L 357.160795 95.396773 
L 360.331818 93.56821 
L 363.502841 91.739647 
L 366.673864 89.911084 
L 369.844886 86.253957 
" style="fill:none;stroke:#ff7f0e;stroke-linecap:square;stroke-width:1.5;"/>
   </g>
   <g id="line2d_15">
    <path clip-path="url(#pe28266843c)" d="M 52.742614 219.739062 
L 55.913636 216.081936 
L 59.084659 217.910499 
L 62.255682 216.081936 
L 65.426705 214.253373 
L 68.597727 208.767684 
L 71.76875 210.596247 
L 74.939773 208.767684 
L 78.110795 210.596247 
L 81.281818 208.767684 
L 84.452841 206.939121 
L 87.623864 205.110558 
L 90.794886 206.939121 
L 93.965909 205.110558 
L 97.136932 206.939121 
L 100.307955 205.110558 
L 103.478977 203.281995 
L 106.65 199.624869 
L 109.821023 201.453432 
L 112.992045 203.281995 
L 116.163068 201.453432 
L 119.334091 199.624869 
L 122.505114 201.453432 
L 125.676136 197.796305 
L 128.847159 195.967742 
L 132.018182 194.139179 
L 135.189205 192.310616 
L 138.360227 190.482053 
L 141.53125 188.65349 
L 144.702273 186.824927 
L 147.873295 188.65349 
L 151.044318 186.824927 
L 154.215341 184.996364 
L 157.386364 175.853548 
L 160.557386 174.024985 
L 163.728409 175.853548 
L 166.899432 177.682112 
L 170.070455 179.510675 
L 173.241477 181.339238 
L 176.4125 179.510675 
L 179.583523 177.682112 
L 182.754545 175.853548 
L 185.925568 166.710733 
L 189.096591 164.88217 
L 192.267614 166.710733 
L 195.438636 164.88217 
L 198.609659 163.053607 
L 201.780682 161.225044 
L 204.951705 159.396481 
L 208.122727 157.567918 
L 211.29375 155.739355 
L 214.464773 157.567918 
L 217.635795 159.396481 
L 220.806818 157.567918 
L 223.977841 159.396481 
L 227.148864 148.425102 
L 230.319886 150.253665 
L 233.490909 148.425102 
L 236.661932 150.253665 
L 239.832955 148.425102 
L 243.003977 150.253665 
L 246.175 148.425102 
L 249.346023 141.11085 
L 252.517045 133.796598 
L 255.688068 130.139471 
L 258.859091 126.482345 
L 262.030114 128.310908 
L 265.201136 126.482345 
L 268.372159 122.825219 
L 271.543182 124.653782 
L 274.714205 113.682404 
L 277.885227 111.853841 
L 281.05625 108.196714 
L 284.227273 106.368151 
L 287.398295 108.196714 
L 290.569318 106.368151 
L 293.740341 104.539588 
L 296.911364 102.711025 
L 300.082386 104.539588 
L 303.253409 102.711025 
L 306.424432 100.882462 
L 309.595455 99.053899 
L 312.766477 95.396773 
L 315.9375 97.225336 
L 319.108523 99.053899 
L 322.279545 97.225336 
L 325.450568 86.253957 
L 328.621591 77.111142 
L 331.792614 78.939705 
L 334.963636 80.768268 
L 338.134659 73.454016 
L 341.305682 71.625453 
L 344.476705 69.79689 
L 347.647727 67.968327 
L 350.81875 64.3112 
L 353.989773 66.139763 
L 357.160795 64.3112 
L 360.331818 66.139763 
L 363.502841 64.3112 
L 366.673864 66.139763 
L 369.844886 67.968327 
" style="fill:none;stroke:#2ca02c;stroke-linecap:square;stroke-width:1.5;"/>
   </g>
   <g id="line2d_16">
    <path clip-path="url(#pe28266843c)" d="M 52.742614 219.739062 
L 55.913636 208.767684 
L 59.084659 210.596247 
L 62.255682 208.767684 
L 65.426705 206.939121 
L 68.597727 205.110558 
L 71.76875 203.281995 
L 74.939773 201.453432 
L 78.110795 199.624869 
L 81.281818 197.796305 
L 84.452841 195.967742 
L 87.623864 197.796305 
L 90.794886 195.967742 
L 93.965909 197.796305 
L 97.136932 199.624869 
L 100.307955 197.796305 
L 103.478977 199.624869 
L 106.65 197.796305 
L 109.821023 199.624869 
L 112.992045 197.796305 
L 116.163068 195.967742 
L 119.334091 188.65349 
L 122.505114 186.824927 
L 125.676136 188.65349 
L 128.847159 177.682112 
L 132.018182 179.510675 
L 135.189205 181.339238 
L 138.360227 179.510675 
L 141.53125 181.339238 
L 144.702273 183.167801 
L 147.873295 181.339238 
L 151.044318 183.167801 
L 154.215341 175.853548 
L 157.386364 177.682112 
L 160.557386 175.853548 
L 163.728409 177.682112 
L 166.899432 175.853548 
L 170.070455 177.682112 
L 173.241477 175.853548 
L 176.4125 172.196422 
L 179.583523 174.024985 
L 182.754545 175.853548 
L 185.925568 177.682112 
L 189.096591 175.853548 
L 192.267614 177.682112 
L 195.438636 168.539296 
L 198.609659 166.710733 
L 201.780682 164.88217 
L 204.951705 166.710733 
L 208.122727 168.539296 
L 211.29375 166.710733 
L 214.464773 168.539296 
L 217.635795 166.710733 
L 220.806818 168.539296 
L 223.977841 159.396481 
L 227.148864 157.567918 
L 230.319886 159.396481 
L 233.490909 161.225044 
L 236.661932 163.053607 
L 239.832955 164.88217 
L 243.003977 163.053607 
L 246.175 161.225044 
L 249.346023 153.910791 
L 252.517045 142.939413 
L 255.688068 141.11085 
L 258.859091 139.282287 
L 262.030114 137.453724 
L 265.201136 135.625161 
L 268.372159 137.453724 
L 271.543182 135.625161 
L 274.714205 131.968034 
L 277.885227 130.139471 
L 281.05625 128.310908 
L 284.227273 126.482345 
L 287.398295 128.310908 
L 290.569318 130.139471 
L 293.740341 128.310908 
L 296.911364 130.139471 
L 300.082386 128.310908 
L 303.253409 126.482345 
L 306.424432 124.653782 
L 309.595455 126.482345 
L 312.766477 124.653782 
L 315.9375 122.825219 
L 319.108523 120.996656 
L 322.279545 122.825219 
L 325.450568 124.653782 
L 328.621591 122.825219 
L 331.792614 120.996656 
L 334.963636 111.853841 
L 338.134659 110.025277 
L 341.305682 108.196714 
L 344.476705 99.053899 
L 347.647727 100.882462 
L 350.81875 99.053899 
L 353.989773 100.882462 
L 357.160795 99.053899 
L 360.331818 97.225336 
L 363.502841 95.396773 
L 366.673864 93.56821 
L 369.844886 95.396773 
" style="fill:none;stroke:#d62728;stroke-linecap:square;stroke-width:1.5;"/>
   </g>
   <g id="line2d_17">
    <path clip-path="url(#pe28266843c)" d="M 52.742614 219.739062 
L 55.913636 208.767684 
L 59.084659 210.596247 
L 62.255682 208.767684 
L 65.426705 210.596247 
L 68.597727 212.42481 
L 71.76875 210.596247 
L 74.939773 203.281995 
L 78.110795 201.453432 
L 81.281818 199.624869 
L 84.452841 197.796305 
L 87.623864 195.967742 
L 90.794886 197.796305 
L 93.965909 199.624869 
L 97.136932 201.453432 
L 100.307955 203.281995 
L 103.478977 205.110558 
L 106.65 203.281995 
L 109.821023 201.453432 
L 112.992045 199.624869 
L 116.163068 197.796305 
L 119.334091 195.967742 
L 122.505114 194.139179 
L 125.676136 195.967742 
L 128.847159 194.139179 
L 132.018182 192.310616 
L 135.189205 194.139179 
L 138.360227 192.310616 
L 141.53125 190.482053 
L 144.702273 184.996364 
L 147.873295 186.824927 
L 151.044318 184.996364 
L 154.215341 186.824927 
L 157.386364 184.996364 
L 160.557386 179.510675 
L 163.728409 177.682112 
L 166.899432 175.853548 
L 170.070455 174.024985 
L 173.241477 175.853548 
L 176.4125 177.682112 
L 179.583523 172.196422 
L 182.754545 170.367859 
L 185.925568 168.539296 
L 189.096591 166.710733 
L 192.267614 168.539296 
L 195.438636 170.367859 
L 198.609659 168.539296 
L 201.780682 163.053607 
L 204.951705 161.225044 
L 208.122727 152.082228 
L 211.29375 150.253665 
L 214.464773 152.082228 
L 217.635795 150.253665 
L 220.806818 152.082228 
L 223.977841 150.253665 
L 227.148864 152.082228 
L 230.319886 141.11085 
L 233.490909 142.939413 
L 236.661932 144.767976 
L 239.832955 142.939413 
L 243.003977 139.282287 
L 246.175 141.11085 
L 249.346023 142.939413 
L 252.517045 144.767976 
L 255.688068 142.939413 
L 258.859091 141.11085 
L 262.030114 139.282287 
L 265.201136 137.453724 
L 268.372159 130.139471 
L 271.543182 120.996656 
L 274.714205 119.168093 
L 277.885227 117.33953 
L 281.05625 115.510967 
L 284.227273 110.025277 
L 287.398295 108.196714 
L 290.569318 106.368151 
L 293.740341 104.539588 
L 296.911364 102.711025 
L 300.082386 100.882462 
L 303.253409 99.053899 
L 306.424432 100.882462 
L 309.595455 102.711025 
L 312.766477 100.882462 
L 315.9375 99.053899 
L 319.108523 100.882462 
L 322.279545 89.911084 
L 325.450568 91.739647 
L 328.621591 89.911084 
L 331.792614 88.08252 
L 334.963636 89.911084 
L 338.134659 91.739647 
L 341.305682 89.911084 
L 344.476705 91.739647 
L 347.647727 93.56821 
L 350.81875 82.596831 
L 353.989773 84.425394 
L 357.160795 86.253957 
L 360.331818 84.425394 
L 363.502841 82.596831 
L 366.673864 84.425394 
L 369.844886 86.253957 
" style="fill:none;stroke:#9467bd;stroke-linecap:square;stroke-width:1.5;"/>
   </g>
   <g id="line2d_18">
    <path clip-path="url(#pe28266843c)" d="M 52.742614 219.739062 
L 55.913636 219.739062 
L 59.084659 219.739062 
L 62.255682 217.910499 
L 65.426705 206.939121 
L 68.597727 205.110558 
L 71.76875 199.624869 
L 74.939773 197.796305 
L 78.110795 186.824927 
L 81.281818 184.996364 
L 84.452841 183.167801 
L 87.623864 172.196422 
L 90.794886 174.024985 
L 93.965909 163.053607 
L 97.136932 164.88217 
L 100.307955 163.053607 
L 103.478977 161.225044 
L 106.65 159.396481 
L 109.821023 161.225044 
L 112.992045 150.253665 
L 116.163068 148.425102 
L 119.334091 150.253665 
L 122.505114 148.425102 
L 125.676136 150.253665 
L 128.847159 148.425102 
L 132.018182 150.253665 
L 135.189205 148.425102 
L 138.360227 150.253665 
L 141.53125 148.425102 
L 144.702273 141.11085 
L 147.873295 139.282287 
L 151.044318 135.625161 
L 154.215341 137.453724 
L 157.386364 135.625161 
L 160.557386 137.453724 
L 163.728409 139.282287 
L 166.899432 137.453724 
L 170.070455 139.282287 
L 173.241477 137.453724 
L 176.4125 139.282287 
L 179.583523 131.968034 
L 182.754545 124.653782 
L 185.925568 126.482345 
L 189.096591 128.310908 
L 192.267614 130.139471 
L 195.438636 128.310908 
L 198.609659 126.482345 
L 201.780682 119.168093 
L 204.951705 117.33953 
L 208.122727 115.510967 
L 211.29375 108.196714 
L 214.464773 110.025277 
L 217.635795 111.853841 
L 220.806818 113.682404 
L 223.977841 111.853841 
L 227.148864 110.025277 
L 230.319886 106.368151 
L 233.490909 108.196714 
L 236.661932 110.025277 
L 239.832955 108.196714 
L 243.003977 106.368151 
L 246.175 102.711025 
L 249.346023 97.225336 
L 252.517045 88.08252 
L 255.688068 86.253957 
L 258.859091 88.08252 
L 262.030114 86.253957 
L 265.201136 84.425394 
L 268.372159 82.596831 
L 271.543182 80.768268 
L 274.714205 78.939705 
L 277.885227 80.768268 
L 281.05625 78.939705 
L 284.227273 77.111142 
L 287.398295 66.139763 
L 290.569318 67.968327 
L 293.740341 58.825511 
L 296.911364 60.654074 
L 300.082386 53.339822 
L 303.253409 55.168385 
L 306.424432 47.854133 
L 309.595455 49.682696 
L 312.766477 44.197006 
L 315.9375 42.368443 
L 319.108523 44.197006 
L 322.279545 42.368443 
L 325.450568 31.397065 
L 328.621591 33.225628 
L 331.792614 35.054191 
L 334.963636 36.882754 
L 338.134659 29.568502 
L 341.305682 31.397065 
L 344.476705 33.225628 
L 347.647727 31.397065 
L 350.81875 29.568502 
L 353.989773 31.397065 
L 357.160795 29.568502 
L 360.331818 27.739939 
L 363.502841 25.911376 
L 366.673864 24.082812 
L 369.844886 25.911376 
" style="fill:none;stroke:#8c564b;stroke-linecap:square;stroke-width:1.5;"/>
   </g>
   <g id="line2d_19">
    <path clip-path="url(#pe28266843c)" d="M 52.742614 219.739062 
L 55.913636 219.739062 
L 59.084659 219.739062 
L 62.255682 217.910499 
L 65.426705 219.739062 
L 68.597727 219.739062 
L 71.76875 212.42481 
L 74.939773 210.596247 
L 78.110795 206.939121 
L 81.281818 199.624869 
L 84.452841 188.65349 
L 87.623864 190.482053 
L 90.794886 192.310616 
L 93.965909 190.482053 
L 97.136932 188.65349 
L 100.307955 186.824927 
L 103.478977 188.65349 
L 106.65 186.824927 
L 109.821023 188.65349 
L 112.992045 186.824927 
L 116.163068 184.996364 
L 119.334091 186.824927 
L 122.505114 188.65349 
L 125.676136 186.824927 
L 128.847159 184.996364 
L 132.018182 183.167801 
L 135.189205 181.339238 
L 138.360227 179.510675 
L 141.53125 177.682112 
L 144.702273 175.853548 
L 147.873295 174.024985 
L 151.044318 172.196422 
L 154.215341 170.367859 
L 157.386364 159.396481 
L 160.557386 161.225044 
L 163.728409 155.739355 
L 166.899432 153.910791 
L 170.070455 155.739355 
L 173.241477 157.567918 
L 176.4125 155.739355 
L 179.583523 153.910791 
L 182.754545 152.082228 
L 185.925568 153.910791 
L 189.096591 155.739355 
L 192.267614 157.567918 
L 195.438636 159.396481 
L 198.609659 157.567918 
L 201.780682 155.739355 
L 204.951705 153.910791 
L 208.122727 152.082228 
L 211.29375 150.253665 
L 214.464773 148.425102 
L 217.635795 146.596539 
L 220.806818 148.425102 
L 223.977841 146.596539 
L 227.148864 144.767976 
L 230.319886 141.11085 
L 233.490909 142.939413 
L 236.661932 141.11085 
L 239.832955 139.282287 
L 243.003977 133.796598 
L 246.175 130.139471 
L 249.346023 128.310908 
L 252.517045 130.139471 
L 255.688068 131.968034 
L 258.859091 133.796598 
L 262.030114 135.625161 
L 265.201136 137.453724 
L 268.372159 135.625161 
L 271.543182 137.453724 
L 274.714205 135.625161 
L 277.885227 131.968034 
L 281.05625 130.139471 
L 284.227273 128.310908 
L 287.398295 130.139471 
L 290.569318 128.310908 
L 293.740341 130.139471 
L 296.911364 131.968034 
L 300.082386 130.139471 
L 303.253409 131.968034 
L 306.424432 133.796598 
L 309.595455 135.625161 
L 312.766477 133.796598 
L 315.9375 135.625161 
L 319.108523 137.453724 
L 322.279545 135.625161 
L 325.450568 133.796598 
L 328.621591 131.968034 
L 331.792614 128.310908 
L 334.963636 126.482345 
L 338.134659 124.653782 
L 341.305682 126.482345 
L 344.476705 128.310908 
L 347.647727 126.482345 
L 350.81875 115.510967 
L 353.989773 117.33953 
L 357.160795 115.510967 
L 360.331818 113.682404 
L 363.502841 104.539588 
L 366.673864 106.368151 
L 369.844886 104.539588 
" style="fill:none;stroke:#e377c2;stroke-linecap:square;stroke-width:1.5;"/>
   </g>
   <g id="line2d_20">
    <path clip-path="url(#pe28266843c)" d="M 52.742614 219.739062 
L 55.913636 219.739062 
L 59.084659 217.910499 
L 62.255682 216.081936 
L 65.426705 217.910499 
L 68.597727 216.081936 
L 71.76875 214.253373 
L 74.939773 203.281995 
L 78.110795 201.453432 
L 81.281818 199.624869 
L 84.452841 197.796305 
L 87.623864 199.624869 
L 90.794886 195.967742 
L 93.965909 194.139179 
L 97.136932 192.310616 
L 100.307955 190.482053 
L 103.478977 192.310616 
L 106.65 190.482053 
L 109.821023 188.65349 
L 112.992045 186.824927 
L 116.163068 184.996364 
L 119.334091 186.824927 
L 122.505114 184.996364 
L 125.676136 186.824927 
L 128.847159 184.996364 
L 132.018182 183.167801 
L 135.189205 184.996364 
L 138.360227 183.167801 
L 141.53125 175.853548 
L 144.702273 174.024985 
L 147.873295 168.539296 
L 151.044318 166.710733 
L 154.215341 159.396481 
L 157.386364 157.567918 
L 160.557386 159.396481 
L 163.728409 157.567918 
L 166.899432 155.739355 
L 170.070455 157.567918 
L 173.241477 159.396481 
L 176.4125 150.253665 
L 179.583523 148.425102 
L 182.754545 146.596539 
L 185.925568 148.425102 
L 189.096591 150.253665 
L 192.267614 148.425102 
L 195.438636 146.596539 
L 198.609659 144.767976 
L 201.780682 146.596539 
L 204.951705 139.282287 
L 208.122727 141.11085 
L 211.29375 139.282287 
L 214.464773 137.453724 
L 217.635795 135.625161 
L 220.806818 133.796598 
L 223.977841 131.968034 
L 227.148864 130.139471 
L 230.319886 128.310908 
L 233.490909 130.139471 
L 236.661932 131.968034 
L 239.832955 133.796598 
L 243.003977 131.968034 
L 246.175 130.139471 
L 249.346023 122.825219 
L 252.517045 120.996656 
L 255.688068 122.825219 
L 258.859091 120.996656 
L 262.030114 119.168093 
L 265.201136 120.996656 
L 268.372159 110.025277 
L 271.543182 108.196714 
L 274.714205 106.368151 
L 277.885227 104.539588 
L 281.05625 106.368151 
L 284.227273 104.539588 
L 287.398295 102.711025 
L 290.569318 97.225336 
L 293.740341 99.053899 
L 296.911364 97.225336 
L 300.082386 99.053899 
L 303.253409 100.882462 
L 306.424432 102.711025 
L 309.595455 100.882462 
L 312.766477 99.053899 
L 315.9375 95.396773 
L 319.108523 93.56821 
L 322.279545 91.739647 
L 325.450568 84.425394 
L 328.621591 82.596831 
L 331.792614 84.425394 
L 334.963636 86.253957 
L 338.134659 84.425394 
L 341.305682 82.596831 
L 344.476705 84.425394 
L 347.647727 86.253957 
L 350.81875 84.425394 
L 353.989773 82.596831 
L 357.160795 80.768268 
L 360.331818 82.596831 
L 363.502841 84.425394 
L 366.673864 82.596831 
L 369.844886 80.768268 
" style="fill:none;stroke:#7f7f7f;stroke-linecap:square;stroke-width:1.5;"/>
   </g>
   <g id="line2d_21">
    <path clip-path="url(#pe28266843c)" d="M 52.742614 219.739062 
L 55.913636 217.910499 
L 59.084659 219.739062 
L 62.255682 217.910499 
L 65.426705 216.081936 
L 68.597727 217.910499 
L 71.76875 219.739062 
L 74.939773 219.739062 
L 78.110795 217.910499 
L 81.281818 216.081936 
L 84.452841 214.253373 
L 87.623864 212.42481 
L 90.794886 210.596247 
L 93.965909 201.453432 
L 97.136932 194.139179 
L 100.307955 195.967742 
L 103.478977 194.139179 
L 106.65 195.967742 
L 109.821023 197.796305 
L 112.992045 199.624869 
L 116.163068 197.796305 
L 119.334091 199.624869 
L 122.505114 197.796305 
L 125.676136 195.967742 
L 128.847159 197.796305 
L 132.018182 190.482053 
L 135.189205 188.65349 
L 138.360227 190.482053 
L 141.53125 188.65349 
L 144.702273 190.482053 
L 147.873295 192.310616 
L 151.044318 190.482053 
L 154.215341 192.310616 
L 157.386364 184.996364 
L 160.557386 183.167801 
L 163.728409 181.339238 
L 166.899432 179.510675 
L 170.070455 177.682112 
L 173.241477 175.853548 
L 176.4125 177.682112 
L 179.583523 175.853548 
L 182.754545 174.024985 
L 185.925568 172.196422 
L 189.096591 170.367859 
L 192.267614 168.539296 
L 195.438636 170.367859 
L 198.609659 161.225044 
L 201.780682 159.396481 
L 204.951705 157.567918 
L 208.122727 159.396481 
L 211.29375 157.567918 
L 214.464773 159.396481 
L 217.635795 157.567918 
L 220.806818 155.739355 
L 223.977841 157.567918 
L 227.148864 155.739355 
L 230.319886 146.596539 
L 233.490909 144.767976 
L 236.661932 142.939413 
L 239.832955 144.767976 
L 243.003977 142.939413 
L 246.175 141.11085 
L 249.346023 139.282287 
L 252.517045 141.11085 
L 255.688068 139.282287 
L 258.859091 141.11085 
L 262.030114 139.282287 
L 265.201136 137.453724 
L 268.372159 139.282287 
L 271.543182 141.11085 
L 274.714205 142.939413 
L 277.885227 141.11085 
L 281.05625 139.282287 
L 284.227273 141.11085 
L 287.398295 142.939413 
L 290.569318 144.767976 
L 293.740341 142.939413 
L 296.911364 135.625161 
L 300.082386 133.796598 
L 303.253409 131.968034 
L 306.424432 130.139471 
L 309.595455 128.310908 
L 312.766477 126.482345 
L 315.9375 128.310908 
L 319.108523 126.482345 
L 322.279545 124.653782 
L 325.450568 126.482345 
L 328.621591 124.653782 
L 331.792614 115.510967 
L 334.963636 113.682404 
L 338.134659 115.510967 
L 341.305682 117.33953 
L 344.476705 115.510967 
L 347.647727 117.33953 
L 350.81875 119.168093 
L 353.989773 120.996656 
L 357.160795 113.682404 
L 360.331818 111.853841 
L 363.502841 110.025277 
L 366.673864 108.196714 
L 369.844886 110.025277 
" style="fill:none;stroke:#bcbd22;stroke-linecap:square;stroke-width:1.5;"/>
   </g>
   <g id="line2d_22">
    <path clip-path="url(#pe28266843c)" d="M 52.742614 219.739062 
L 55.913636 217.910499 
L 59.084659 216.081936 
L 62.255682 214.253373 
L 65.426705 212.42481 
L 68.597727 210.596247 
L 71.76875 212.42481 
L 74.939773 214.253373 
L 78.110795 208.767684 
L 81.281818 210.596247 
L 84.452841 212.42481 
L 87.623864 214.253373 
L 90.794886 216.081936 
L 93.965909 214.253373 
L 97.136932 203.281995 
L 100.307955 201.453432 
L 103.478977 203.281995 
L 106.65 201.453432 
L 109.821023 199.624869 
L 112.992045 201.453432 
L 116.163068 203.281995 
L 119.334091 201.453432 
L 122.505114 199.624869 
L 125.676136 197.796305 
L 128.847159 199.624869 
L 132.018182 192.310616 
L 135.189205 190.482053 
L 138.360227 192.310616 
L 141.53125 188.65349 
L 144.702273 186.824927 
L 147.873295 188.65349 
L 151.044318 186.824927 
L 154.215341 184.996364 
L 157.386364 183.167801 
L 160.557386 181.339238 
L 163.728409 179.510675 
L 166.899432 177.682112 
L 170.070455 179.510675 
L 173.241477 181.339238 
L 176.4125 179.510675 
L 179.583523 177.682112 
L 182.754545 179.510675 
L 185.925568 177.682112 
L 189.096591 175.853548 
L 192.267614 177.682112 
L 195.438636 179.510675 
L 198.609659 181.339238 
L 201.780682 174.024985 
L 204.951705 172.196422 
L 208.122727 170.367859 
L 211.29375 168.539296 
L 214.464773 166.710733 
L 217.635795 164.88217 
L 220.806818 163.053607 
L 223.977841 161.225044 
L 227.148864 159.396481 
L 230.319886 157.567918 
L 233.490909 159.396481 
L 236.661932 157.567918 
L 239.832955 155.739355 
L 243.003977 153.910791 
L 246.175 152.082228 
L 249.346023 150.253665 
L 252.517045 152.082228 
L 255.688068 153.910791 
L 258.859091 142.939413 
L 262.030114 141.11085 
L 265.201136 139.282287 
L 268.372159 141.11085 
L 271.543182 142.939413 
L 274.714205 144.767976 
L 277.885227 137.453724 
L 281.05625 135.625161 
L 284.227273 128.310908 
L 287.398295 130.139471 
L 290.569318 119.168093 
L 293.740341 117.33953 
L 296.911364 115.510967 
L 300.082386 108.196714 
L 303.253409 106.368151 
L 306.424432 108.196714 
L 309.595455 110.025277 
L 312.766477 108.196714 
L 315.9375 106.368151 
L 319.108523 104.539588 
L 322.279545 102.711025 
L 325.450568 104.539588 
L 328.621591 93.56821 
L 331.792614 91.739647 
L 334.963636 93.56821 
L 338.134659 86.253957 
L 341.305682 84.425394 
L 344.476705 86.253957 
L 347.647727 84.425394 
L 350.81875 86.253957 
L 353.989773 75.282579 
L 357.160795 64.3112 
L 360.331818 62.482637 
L 363.502841 64.3112 
L 366.673864 62.482637 
L 369.844886 60.654074 
" style="fill:none;stroke:#17becf;stroke-linecap:square;stroke-width:1.5;"/>
   </g>
   <g id="patch_3">
    <path d="M 36.8875 229.521875 
L 36.8875 14.3 
" style="fill:none;stroke:#000000;stroke-linecap:square;stroke-linejoin:miter;stroke-width:0.8;"/>
   </g>
   <g id="patch_4">
    <path d="M 385.7 229.521875 
L 385.7 14.3 
" style="fill:none;stroke:#000000;stroke-linecap:square;stroke-linejoin:miter;stroke-width:0.8;"/>
   </g>
   <g id="patch_5">
    <path d="M 36.8875 229.521875 
L 385.7 229.521875 
" style="fill:none;stroke:#000000;stroke-linecap:square;stroke-linejoin:miter;stroke-width:0.8;"/>
   </g>
   <g id="patch_6">
    <path d="M 36.8875 14.3 
L 385.7 14.3 
" style="fill:none;stroke:#000000;stroke-linecap:square;stroke-linejoin:miter;stroke-width:0.8;"/>
   </g>
  </g>
 </g>
 <defs>
  <clipPath id="pe28266843c">
   <rect height="215.221875" width="348.8125" x="36.8875" y="14.3"/>
  </clipPath>
 </defs>
</svg>
