<?xml version="1.0" encoding="utf-8" standalone="no"?>
<!DOCTYPE svg PUBLIC "-//W3C//DTD SVG 1.1//EN"
  "http://www.w3.org/Graphics/SVG/1.1/DTD/svg11.dtd">
<!-- Created with matplotlib (http://matplotlib.org/) -->
<svg height="257pt" version="1.1" viewBox="0 0 400 257" width="400pt" xmlns="http://www.w3.org/2000/svg" xmlns:xlink="http://www.w3.org/1999/xlink">
 <defs>
  <style type="text/css">
*{stroke-linecap:butt;stroke-linejoin:round;}
  </style>
 </defs>
 <g id="figure_1">
  <g id="patch_1">
   <path d="M 0 257 
L 400 257 
L 400 0 
L 0 0 
z
" style="fill:#ffffff;"/>
  </g>
  <g id="axes_1">
   <g id="patch_2">
    <path d="M 44.203125 215.84375 
L 385.7 215.84375 
L 385.7 25.918125 
L 44.203125 25.918125 
z
" style="fill:#ffffff;"/>
   </g>
   <g id="PathCollection_1">
    <defs>
     <path d="M 0 3 
C 0.795609 3 1.55874 2.683901 2.12132 2.12132 
C 2.683901 1.55874 3 0.795609 3 0 
C 3 -0.795609 2.683901 -1.55874 2.12132 -2.12132 
C 1.55874 -2.683901 0.795609 -3 0 -3 
C -0.795609 -3 -1.55874 -2.683901 -2.12132 -2.12132 
C -2.683901 -1.55874 -3 -0.795609 -3 0 
C -3 0.795609 -2.683901 1.55874 -2.12132 2.12132 
C -1.55874 2.683901 -0.795609 3 0 3 
z
" id="m5c28123c9f" style="stroke:#1f77b4;"/>
    </defs>
    <g clip-path="url(#pc1ad6c9429)">
     <use style="fill:#1f77b4;stroke:#1f77b4;" x="134.990123" xlink:href="#m5c28123c9f" y="190.255971"/>
     <use style="fill:#1f77b4;stroke:#1f77b4;" x="243.268233" xlink:href="#m5c28123c9f" y="59.394905"/>
     <use style="fill:#1f77b4;stroke:#1f77b4;" x="246.090735" xlink:href="#m5c28123c9f" y="75.943741"/>
     <use style="fill:#1f77b4;stroke:#1f77b4;" x="230.49447" xlink:href="#m5c28123c9f" y="194.660162"/>
     <use style="fill:#1f77b4;stroke:#1f77b4;" x="289.206562" xlink:href="#m5c28123c9f" y="63.823184"/>
     <use style="fill:#1f77b4;stroke:#1f77b4;" x="348.605207" xlink:href="#m5c28123c9f" y="40.075885"/>
     <use style="fill:#1f77b4;stroke:#1f77b4;" x="351.478049" xlink:href="#m5c28123c9f" y="45.720636"/>
     <use style="fill:#1f77b4;stroke:#1f77b4;" x="339.933862" xlink:href="#m5c28123c9f" y="62.558535"/>
     <use style="fill:#1f77b4;stroke:#1f77b4;" x="156.319897" xlink:href="#m5c28123c9f" y="109.02134"/>
     <use style="fill:#1f77b4;stroke:#1f77b4;" x="347.298542" xlink:href="#m5c28123c9f" y="47.278363"/>
     <use style="fill:#1f77b4;stroke:#1f77b4;" x="158.436952" xlink:href="#m5c28123c9f" y="138.465581"/>
     <use style="fill:#1f77b4;stroke:#1f77b4;" x="216.878237" xlink:href="#m5c28123c9f" y="103.03132"/>
     <use style="fill:#1f77b4;stroke:#1f77b4;" x="256.841259" xlink:href="#m5c28123c9f" y="65.702091"/>
     <use style="fill:#1f77b4;stroke:#1f77b4;" x="288.215936" xlink:href="#m5c28123c9f" y="162.554135"/>
     <use style="fill:#1f77b4;stroke:#1f77b4;" x="268.63361" xlink:href="#m5c28123c9f" y="75.586428"/>
     <use style="fill:#1f77b4;stroke:#1f77b4;" x="278.457243" xlink:href="#m5c28123c9f" y="73.117351"/>
     <use style="fill:#1f77b4;stroke:#1f77b4;" x="148.302848" xlink:href="#m5c28123c9f" y="156.263008"/>
     <use style="fill:#1f77b4;stroke:#1f77b4;" x="85.969757" xlink:href="#m5c28123c9f" y="167.163078"/>
     <use style="fill:#1f77b4;stroke:#1f77b4;" x="168.813542" xlink:href="#m5c28123c9f" y="126.441379"/>
     <use style="fill:#1f77b4;stroke:#1f77b4;" x="179.316568" xlink:href="#m5c28123c9f" y="163.750533"/>
     <use style="fill:#1f77b4;stroke:#1f77b4;" x="351.7969" xlink:href="#m5c28123c9f" y="42.412475"/>
     <use style="fill:#1f77b4;stroke:#1f77b4;" x="115.672881" xlink:href="#m5c28123c9f" y="186.590496"/>
     <use style="fill:#1f77b4;stroke:#1f77b4;" x="168.472888" xlink:href="#m5c28123c9f" y="162.863271"/>
     <use style="fill:#1f77b4;stroke:#1f77b4;" x="291.018213" xlink:href="#m5c28123c9f" y="50.843469"/>
     <use style="fill:#1f77b4;stroke:#1f77b4;" x="232.483211" xlink:href="#m5c28123c9f" y="73.294"/>
     <use style="fill:#1f77b4;stroke:#1f77b4;" x="253.193912" xlink:href="#m5c28123c9f" y="73.583063"/>
     <use style="fill:#1f77b4;stroke:#1f77b4;" x="135.697175" xlink:href="#m5c28123c9f" y="104.645253"/>
     <use style="fill:#1f77b4;stroke:#1f77b4;" x="59.727016" xlink:href="#m5c28123c9f" y="179.681096"/>
     <use style="fill:#1f77b4;stroke:#1f77b4;" x="213.829799" xlink:href="#m5c28123c9f" y="144.110332"/>
     <use style="fill:#1f77b4;stroke:#1f77b4;" x="272.345045" xlink:href="#m5c28123c9f" y="49.924089"/>
     <use style="fill:#1f77b4;stroke:#1f77b4;" x="162.591236" xlink:href="#m5c28123c9f" y="172.189556"/>
     <use style="fill:#1f77b4;stroke:#1f77b4;" x="297.266454" xlink:href="#m5c28123c9f" y="62.104867"/>
     <use style="fill:#1f77b4;stroke:#1f77b4;" x="267.85056" xlink:href="#m5c28123c9f" y="51.967601"/>
     <use style="fill:#1f77b4;stroke:#1f77b4;" x="323.985059" xlink:href="#m5c28123c9f" y="59.141975"/>
     <use style="fill:#1f77b4;stroke:#1f77b4;" x="350.054577" xlink:href="#m5c28123c9f" y="51.73073"/>
     <use style="fill:#1f77b4;stroke:#1f77b4;" x="180.490091" xlink:href="#m5c28123c9f" y="146.242169"/>
     <use style="fill:#1f77b4;stroke:#1f77b4;" x="244.153339" xlink:href="#m5c28123c9f" y="76.208715"/>
     <use style="fill:#1f77b4;stroke:#1f77b4;" x="252.042739" xlink:href="#m5c28123c9f" y="65.131996"/>
     <use style="fill:#1f77b4;stroke:#1f77b4;" x="239.564488" xlink:href="#m5c28123c9f" y="79.809954"/>
     <use style="fill:#1f77b4;stroke:#1f77b4;" x="241.124145" xlink:href="#m5c28123c9f" y="77.641984"/>
     <use style="fill:#1f77b4;stroke:#1f77b4;" x="286.200399" xlink:href="#m5c28123c9f" y="159.137575"/>
     <use style="fill:#1f77b4;stroke:#1f77b4;" x="109.918312" xlink:href="#m5c28123c9f" y="133.198218"/>
     <use style="fill:#1f77b4;stroke:#1f77b4;" x="114.367746" xlink:href="#m5c28123c9f" y="153.645385"/>
     <use style="fill:#1f77b4;stroke:#1f77b4;" x="346.428753" xlink:href="#m5c28123c9f" y="47.792252"/>
     <use style="fill:#1f77b4;stroke:#1f77b4;" x="341.274179" xlink:href="#m5c28123c9f" y="42.396416"/>
     <use style="fill:#1f77b4;stroke:#1f77b4;" x="291.17653" xlink:href="#m5c28123c9f" y="138.437478"/>
     <use style="fill:#1f77b4;stroke:#1f77b4;" x="119.513588" xlink:href="#m5c28123c9f" y="127.545437"/>
     <use style="fill:#1f77b4;stroke:#1f77b4;" x="344.528163" xlink:href="#m5c28123c9f" y="47.418879"/>
     <use style="fill:#1f77b4;stroke:#1f77b4;" x="153.513958" xlink:href="#m5c28123c9f" y="125.240966"/>
     <use style="fill:#1f77b4;stroke:#1f77b4;" x="335.2123" xlink:href="#m5c28123c9f" y="47.109743"/>
     <use style="fill:#1f77b4;stroke:#1f77b4;" x="235.164465" xlink:href="#m5c28123c9f" y="84.141879"/>
     <use style="fill:#1f77b4;stroke:#1f77b4;" x="132.994245" xlink:href="#m5c28123c9f" y="141.360223"/>
     <use style="fill:#1f77b4;stroke:#1f77b4;" x="103.811982" xlink:href="#m5c28123c9f" y="179.978188"/>
     <use style="fill:#1f77b4;stroke:#1f77b4;" x="147.539969" xlink:href="#m5c28123c9f" y="121.651771"/>
     <use style="fill:#1f77b4;stroke:#1f77b4;" x="212.424024" xlink:href="#m5c28123c9f" y="84.386779"/>
     <use style="fill:#1f77b4;stroke:#1f77b4;" x="357.16795" xlink:href="#m5c28123c9f" y="36.169525"/>
     <use style="fill:#1f77b4;stroke:#1f77b4;" x="309.762251" xlink:href="#m5c28123c9f" y="71.780436"/>
     <use style="fill:#1f77b4;stroke:#1f77b4;" x="351.568043" xlink:href="#m5c28123c9f" y="37.980181"/>
     <use style="fill:#1f77b4;stroke:#1f77b4;" x="190.283264" xlink:href="#m5c28123c9f" y="106.467953"/>
     <use style="fill:#1f77b4;stroke:#1f77b4;" x="212.294199" xlink:href="#m5c28123c9f" y="82.572108"/>
     <use style="fill:#1f77b4;stroke:#1f77b4;" x="283.433872" xlink:href="#m5c28123c9f" y="81.311474"/>
     <use style="fill:#1f77b4;stroke:#1f77b4;" x="226.27512" xlink:href="#m5c28123c9f" y="127.156006"/>
     <use style="fill:#1f77b4;stroke:#1f77b4;" x="358.585605" xlink:href="#m5c28123c9f" y="49.510569"/>
     <use style="fill:#1f77b4;stroke:#1f77b4;" x="330.658702" xlink:href="#m5c28123c9f" y="42.043117"/>
     <use style="fill:#1f77b4;stroke:#1f77b4;" x="337.4154" xlink:href="#m5c28123c9f" y="42.842054"/>
     <use style="fill:#1f77b4;stroke:#1f77b4;" x="255.823377" xlink:href="#m5c28123c9f" y="74.875815"/>
     <use style="fill:#1f77b4;stroke:#1f77b4;" x="343.562438" xlink:href="#m5c28123c9f" y="34.583695"/>
     <use style="fill:#1f77b4;stroke:#1f77b4;" x="226.9203" xlink:href="#m5c28123c9f" y="75.004288"/>
     <use style="fill:#1f77b4;stroke:#1f77b4;" x="159.343256" xlink:href="#m5c28123c9f" y="148.97622"/>
     <use style="fill:#1f77b4;stroke:#1f77b4;" x="164.43674" xlink:href="#m5c28123c9f" y="96.033595"/>
     <use style="fill:#1f77b4;stroke:#1f77b4;" x="325.321157" xlink:href="#m5c28123c9f" y="50.562436"/>
     <use style="fill:#1f77b4;stroke:#1f77b4;" x="367.635155" xlink:href="#m5c28123c9f" y="54.717711"/>
     <use style="fill:#1f77b4;stroke:#1f77b4;" x="277.211602" xlink:href="#m5c28123c9f" y="77.180287"/>
     <use style="fill:#1f77b4;stroke:#1f77b4;" x="163.537271" xlink:href="#m5c28123c9f" y="195.218213"/>
     <use style="fill:#1f77b4;stroke:#1f77b4;" x="83.761064" xlink:href="#m5c28123c9f" y="182.828667"/>
     <use style="fill:#1f77b4;stroke:#1f77b4;" x="285.72228" xlink:href="#m5c28123c9f" y="69.315374"/>
     <use style="fill:#1f77b4;stroke:#1f77b4;" x="139.157473" xlink:href="#m5c28123c9f" y="127.565511"/>
     <use style="fill:#1f77b4;stroke:#1f77b4;" x="120.036707" xlink:href="#m5c28123c9f" y="172.289925"/>
     <use style="fill:#1f77b4;stroke:#1f77b4;" x="287.649807" xlink:href="#m5c28123c9f" y="68.155109"/>
     <use style="fill:#1f77b4;stroke:#1f77b4;" x="139.031816" xlink:href="#m5c28123c9f" y="147.542951"/>
     <use style="fill:#1f77b4;stroke:#1f77b4;" x="171.859739" xlink:href="#m5c28123c9f" y="108.611834"/>
     <use style="fill:#1f77b4;stroke:#1f77b4;" x="279.987113" xlink:href="#m5c28123c9f" y="73.936362"/>
     <use style="fill:#1f77b4;stroke:#1f77b4;" x="285.323753" xlink:href="#m5c28123c9f" y="60.31027"/>
     <use style="fill:#1f77b4;stroke:#1f77b4;" x="204.24815" xlink:href="#m5c28123c9f" y="98.016886"/>
     <use style="fill:#1f77b4;stroke:#1f77b4;" x="269.864156" xlink:href="#m5c28123c9f" y="66.942652"/>
     <use style="fill:#1f77b4;stroke:#1f77b4;" x="216.847472" xlink:href="#m5c28123c9f" y="80.508522"/>
     <use style="fill:#1f77b4;stroke:#1f77b4;" x="124.910011" xlink:href="#m5c28123c9f" y="197.26574"/>
     <use style="fill:#1f77b4;stroke:#1f77b4;" x="133.079733" xlink:href="#m5c28123c9f" y="117.022754"/>
     <use style="fill:#1f77b4;stroke:#1f77b4;" x="230.666964" xlink:href="#m5c28123c9f" y="153.80999"/>
     <use style="fill:#1f77b4;stroke:#1f77b4;" x="141.771761" xlink:href="#m5c28123c9f" y="110.133428"/>
     <use style="fill:#1f77b4;stroke:#1f77b4;" x="352.581542" xlink:href="#m5c28123c9f" y="45.989625"/>
     <use style="fill:#1f77b4;stroke:#1f77b4;" x="329.859215" xlink:href="#m5c28123c9f" y="44.215102"/>
     <use style="fill:#1f77b4;stroke:#1f77b4;" x="197.136295" xlink:href="#m5c28123c9f" y="73.542915"/>
     <use style="fill:#1f77b4;stroke:#1f77b4;" x="107.856511" xlink:href="#m5c28123c9f" y="137.90753"/>
     <use style="fill:#1f77b4;stroke:#1f77b4;" x="178.485747" xlink:href="#m5c28123c9f" y="178.087237"/>
     <use style="fill:#1f77b4;stroke:#1f77b4;" x="370.177407" xlink:href="#m5c28123c9f" y="44.24722"/>
     <use style="fill:#1f77b4;stroke:#1f77b4;" x="322.612357" xlink:href="#m5c28123c9f" y="62.538461"/>
     <use style="fill:#1f77b4;stroke:#1f77b4;" x="193.926968" xlink:href="#m5c28123c9f" y="103.316367"/>
     <use style="fill:#1f77b4;stroke:#1f77b4;" x="273.356138" xlink:href="#m5c28123c9f" y="62.951982"/>
     <use style="fill:#1f77b4;stroke:#1f77b4;" x="222.138675" xlink:href="#m5c28123c9f" y="78.147844"/>
     <use style="fill:#1f77b4;stroke:#1f77b4;" x="256.539585" xlink:href="#m5c28123c9f" y="79.476729"/>
     <use style="fill:#1f77b4;stroke:#1f77b4;" x="206.053884" xlink:href="#m5c28123c9f" y="78.404789"/>
     <use style="fill:#1f77b4;stroke:#1f77b4;" x="300.345039" xlink:href="#m5c28123c9f" y="62.847598"/>
     <use style="fill:#1f77b4;stroke:#1f77b4;" x="317.553836" xlink:href="#m5c28123c9f" y="52.670184"/>
     <use style="fill:#1f77b4;stroke:#1f77b4;" x="314.000175" xlink:href="#m5c28123c9f" y="50.06862"/>
     <use style="fill:#1f77b4;stroke:#1f77b4;" x="258.615905" xlink:href="#m5c28123c9f" y="59.318625"/>
     <use style="fill:#1f77b4;stroke:#1f77b4;" x="279.169339" xlink:href="#m5c28123c9f" y="75.241159"/>
     <use style="fill:#1f77b4;stroke:#1f77b4;" x="127.710104" xlink:href="#m5c28123c9f" y="180.564343"/>
     <use style="fill:#1f77b4;stroke:#1f77b4;" x="164.638378" xlink:href="#m5c28123c9f" y="103.135703"/>
     <use style="fill:#1f77b4;stroke:#1f77b4;" x="320.80964" xlink:href="#m5c28123c9f" y="74.032716"/>
     <use style="fill:#1f77b4;stroke:#1f77b4;" x="168.767841" xlink:href="#m5c28123c9f" y="113.036099"/>
     <use style="fill:#1f77b4;stroke:#1f77b4;" x="273.217607" xlink:href="#m5c28123c9f" y="69.114636"/>
     <use style="fill:#1f77b4;stroke:#1f77b4;" x="127.672066" xlink:href="#m5c28123c9f" y="195.314567"/>
     <use style="fill:#1f77b4;stroke:#1f77b4;" x="367.4273" xlink:href="#m5c28123c9f" y="45.146526"/>
     <use style="fill:#1f77b4;stroke:#1f77b4;" x="311.949116" xlink:href="#m5c28123c9f" y="66.460881"/>
     <use style="fill:#1f77b4;stroke:#1f77b4;" x="331.231118" xlink:href="#m5c28123c9f" y="53.360723"/>
     <use style="fill:#1f77b4;stroke:#1f77b4;" x="131.93523" xlink:href="#m5c28123c9f" y="172.86805"/>
     <use style="fill:#1f77b4;stroke:#1f77b4;" x="269.966133" xlink:href="#m5c28123c9f" y="168.130635"/>
     <use style="fill:#1f77b4;stroke:#1f77b4;" x="337.940271" xlink:href="#m5c28123c9f" y="41.256225"/>
     <use style="fill:#1f77b4;stroke:#1f77b4;" x="219.154134" xlink:href="#m5c28123c9f" y="75.562339"/>
     <use style="fill:#1f77b4;stroke:#1f77b4;" x="193.845222" xlink:href="#m5c28123c9f" y="131.126602"/>
     <use style="fill:#1f77b4;stroke:#1f77b4;" x="226.840952" xlink:href="#m5c28123c9f" y="207.17818"/>
     <use style="fill:#1f77b4;stroke:#1f77b4;" x="347.595074" xlink:href="#m5c28123c9f" y="41.485066"/>
     <use style="fill:#1f77b4;stroke:#1f77b4;" x="353.724297" xlink:href="#m5c28123c9f" y="38.205008"/>
     <use style="fill:#1f77b4;stroke:#1f77b4;" x="222.306593" xlink:href="#m5c28123c9f" y="68.548555"/>
     <use style="fill:#1f77b4;stroke:#1f77b4;" x="337.726181" xlink:href="#m5c28123c9f" y="51.457727"/>
     <use style="fill:#1f77b4;stroke:#1f77b4;" x="142.650513" xlink:href="#m5c28123c9f" y="155.371731"/>
     <use style="fill:#1f77b4;stroke:#1f77b4;" x="256.938533" xlink:href="#m5c28123c9f" y="82.70861"/>
     <use style="fill:#1f77b4;stroke:#1f77b4;" x="129.074786" xlink:href="#m5c28123c9f" y="131.672609"/>
     <use style="fill:#1f77b4;stroke:#1f77b4;" x="309.760803" xlink:href="#m5c28123c9f" y="85.908373"/>
     <use style="fill:#1f77b4;stroke:#1f77b4;" x="253.927834" xlink:href="#m5c28123c9f" y="69.431802"/>
     <use style="fill:#1f77b4;stroke:#1f77b4;" x="264.477133" xlink:href="#m5c28123c9f" y="78.047475"/>
     <use style="fill:#1f77b4;stroke:#1f77b4;" x="139.819693" xlink:href="#m5c28123c9f" y="159.286121"/>
     <use style="fill:#1f77b4;stroke:#1f77b4;" x="346.421853" xlink:href="#m5c28123c9f" y="47.342599"/>
     <use style="fill:#1f77b4;stroke:#1f77b4;" x="361.847627" xlink:href="#m5c28123c9f" y="52.092059"/>
     <use style="fill:#1f77b4;stroke:#1f77b4;" x="278.067011" xlink:href="#m5c28123c9f" y="59.551481"/>
     <use style="fill:#1f77b4;stroke:#1f77b4;" x="282.445219" xlink:href="#m5c28123c9f" y="70.1384"/>
     <use style="fill:#1f77b4;stroke:#1f77b4;" x="190.022844" xlink:href="#m5c28123c9f" y="68.122991"/>
     <use style="fill:#1f77b4;stroke:#1f77b4;" x="202.869283" xlink:href="#m5c28123c9f" y="71.443197"/>
     <use style="fill:#1f77b4;stroke:#1f77b4;" x="185.940247" xlink:href="#m5c28123c9f" y="114.497471"/>
     <use style="fill:#1f77b4;stroke:#1f77b4;" x="150.912761" xlink:href="#m5c28123c9f" y="196.053283"/>
     <use style="fill:#1f77b4;stroke:#1f77b4;" x="91.252823" xlink:href="#m5c28123c9f" y="191.625004"/>
    </g>
   </g>
   <g id="matplotlib.axis_1">
    <g id="xtick_1">
     <g id="line2d_1">
      <defs>
       <path d="M 0 0 
L 0 3.5 
" id="m72d665e611" style="stroke:#000000;stroke-width:0.8;"/>
      </defs>
      <g>
       <use style="stroke:#000000;stroke-width:0.8;" x="136.533037" xlink:href="#m72d665e611" y="215.84375"/>
      </g>
     </g>
     <g id="text_1">
      <!-- $\mathdefault{10^{3}}$ -->
      <defs>
       <path d="M 12.40625 8.296875 
L 28.515625 8.296875 
L 28.515625 63.921875 
L 10.984375 60.40625 
L 10.984375 69.390625 
L 28.421875 72.90625 
L 38.28125 72.90625 
L 38.28125 8.296875 
L 54.390625 8.296875 
L 54.390625 0 
L 12.40625 0 
z
" id="DejaVuSans-31"/>
       <path d="M 31.78125 66.40625 
Q 24.171875 66.40625 20.328125 58.90625 
Q 16.5 51.421875 16.5 36.375 
Q 16.5 21.390625 20.328125 13.890625 
Q 24.171875 6.390625 31.78125 6.390625 
Q 39.453125 6.390625 43.28125 13.890625 
Q 47.125 21.390625 47.125 36.375 
Q 47.125 51.421875 43.28125 58.90625 
Q 39.453125 66.40625 31.78125 66.40625 
z
M 31.78125 74.21875 
Q 44.046875 74.21875 50.515625 64.515625 
Q 56.984375 54.828125 56.984375 36.375 
Q 56.984375 17.96875 50.515625 8.265625 
Q 44.046875 -1.421875 31.78125 -1.421875 
Q 19.53125 -1.421875 13.0625 8.265625 
Q 6.59375 17.96875 6.59375 36.375 
Q 6.59375 54.828125 13.0625 64.515625 
Q 19.53125 74.21875 31.78125 74.21875 
z
" id="DejaVuSans-30"/>
       <path d="M 40.578125 39.3125 
Q 47.65625 37.796875 51.625 33 
Q 55.609375 28.21875 55.609375 21.1875 
Q 55.609375 10.40625 48.1875 4.484375 
Q 40.765625 -1.421875 27.09375 -1.421875 
Q 22.515625 -1.421875 17.65625 -0.515625 
Q 12.796875 0.390625 7.625 2.203125 
L 7.625 11.71875 
Q 11.71875 9.328125 16.59375 8.109375 
Q 21.484375 6.890625 26.8125 6.890625 
Q 36.078125 6.890625 40.9375 10.546875 
Q 45.796875 14.203125 45.796875 21.1875 
Q 45.796875 27.640625 41.28125 31.265625 
Q 36.765625 34.90625 28.71875 34.90625 
L 20.21875 34.90625 
L 20.21875 43.015625 
L 29.109375 43.015625 
Q 36.375 43.015625 40.234375 45.921875 
Q 44.09375 48.828125 44.09375 54.296875 
Q 44.09375 59.90625 40.109375 62.90625 
Q 36.140625 65.921875 28.71875 65.921875 
Q 24.65625 65.921875 20.015625 65.03125 
Q 15.375 64.15625 9.8125 62.3125 
L 9.8125 71.09375 
Q 15.4375 72.65625 20.34375 73.4375 
Q 25.25 74.21875 29.59375 74.21875 
Q 40.828125 74.21875 47.359375 69.109375 
Q 53.90625 64.015625 53.90625 55.328125 
Q 53.90625 49.265625 50.4375 45.09375 
Q 46.96875 40.921875 40.578125 39.3125 
z
" id="DejaVuSans-33"/>
      </defs>
      <g transform="translate(127.733037 230.442187)scale(0.1 -0.1)">
       <use transform="translate(0 0.765625)" xlink:href="#DejaVuSans-31"/>
       <use transform="translate(63.623047 0.765625)" xlink:href="#DejaVuSans-30"/>
       <use transform="translate(128.203125 39.046875)scale(0.7)" xlink:href="#DejaVuSans-33"/>
      </g>
     </g>
    </g>
    <g id="xtick_2">
     <g id="line2d_2">
      <g>
       <use style="stroke:#000000;stroke-width:0.8;" x="274.510603" xlink:href="#m72d665e611" y="215.84375"/>
      </g>
     </g>
     <g id="text_2">
      <!-- $\mathdefault{10^{4}}$ -->
      <defs>
       <path d="M 37.796875 64.3125 
L 12.890625 25.390625 
L 37.796875 25.390625 
z
M 35.203125 72.90625 
L 47.609375 72.90625 
L 47.609375 25.390625 
L 58.015625 25.390625 
L 58.015625 17.1875 
L 47.609375 17.1875 
L 47.609375 0 
L 37.796875 0 
L 37.796875 17.1875 
L 4.890625 17.1875 
L 4.890625 26.703125 
z
" id="DejaVuSans-34"/>
      </defs>
      <g transform="translate(265.710603 230.442187)scale(0.1 -0.1)">
       <use transform="translate(0 0.684375)" xlink:href="#DejaVuSans-31"/>
       <use transform="translate(63.623047 0.684375)" xlink:href="#DejaVuSans-30"/>
       <use transform="translate(128.203125 38.965625)scale(0.7)" xlink:href="#DejaVuSans-34"/>
      </g>
     </g>
    </g>
    <g id="xtick_3">
     <g id="line2d_3">
      <defs>
       <path d="M 0 0 
L 0 2 
" id="m8ab743df54" style="stroke:#000000;stroke-width:0.6;"/>
      </defs>
      <g>
       <use style="stroke:#000000;stroke-width:0.6;" x="64.3875" xlink:href="#m8ab743df54" y="215.84375"/>
      </g>
     </g>
    </g>
    <g id="xtick_4">
     <g id="line2d_4">
      <g>
       <use style="stroke:#000000;stroke-width:0.6;" x="81.626243" xlink:href="#m8ab743df54" y="215.84375"/>
      </g>
     </g>
    </g>
    <g id="xtick_5">
     <g id="line2d_5">
      <g>
       <use style="stroke:#000000;stroke-width:0.6;" x="94.997651" xlink:href="#m8ab743df54" y="215.84375"/>
      </g>
     </g>
    </g>
    <g id="xtick_6">
     <g id="line2d_6">
      <g>
       <use style="stroke:#000000;stroke-width:0.6;" x="105.922886" xlink:href="#m8ab743df54" y="215.84375"/>
      </g>
     </g>
    </g>
    <g id="xtick_7">
     <g id="line2d_7">
      <g>
       <use style="stroke:#000000;stroke-width:0.6;" x="115.160041" xlink:href="#m8ab743df54" y="215.84375"/>
      </g>
     </g>
    </g>
    <g id="xtick_8">
     <g id="line2d_8">
      <g>
       <use style="stroke:#000000;stroke-width:0.6;" x="123.161629" xlink:href="#m8ab743df54" y="215.84375"/>
      </g>
     </g>
    </g>
    <g id="xtick_9">
     <g id="line2d_9">
      <g>
       <use style="stroke:#000000;stroke-width:0.6;" x="130.21953" xlink:href="#m8ab743df54" y="215.84375"/>
      </g>
     </g>
    </g>
    <g id="xtick_10">
     <g id="line2d_10">
      <g>
       <use style="stroke:#000000;stroke-width:0.6;" x="178.068423" xlink:href="#m8ab743df54" y="215.84375"/>
      </g>
     </g>
    </g>
    <g id="xtick_11">
     <g id="line2d_11">
      <g>
       <use style="stroke:#000000;stroke-width:0.6;" x="202.365066" xlink:href="#m8ab743df54" y="215.84375"/>
      </g>
     </g>
    </g>
    <g id="xtick_12">
     <g id="line2d_12">
      <g>
       <use style="stroke:#000000;stroke-width:0.6;" x="219.603809" xlink:href="#m8ab743df54" y="215.84375"/>
      </g>
     </g>
    </g>
    <g id="xtick_13">
     <g id="line2d_13">
      <g>
       <use style="stroke:#000000;stroke-width:0.6;" x="232.975217" xlink:href="#m8ab743df54" y="215.84375"/>
      </g>
     </g>
    </g>
    <g id="xtick_14">
     <g id="line2d_14">
      <g>
       <use style="stroke:#000000;stroke-width:0.6;" x="243.900452" xlink:href="#m8ab743df54" y="215.84375"/>
      </g>
     </g>
    </g>
    <g id="xtick_15">
     <g id="line2d_15">
      <g>
       <use style="stroke:#000000;stroke-width:0.6;" x="253.137607" xlink:href="#m8ab743df54" y="215.84375"/>
      </g>
     </g>
    </g>
    <g id="xtick_16">
     <g id="line2d_16">
      <g>
       <use style="stroke:#000000;stroke-width:0.6;" x="261.139195" xlink:href="#m8ab743df54" y="215.84375"/>
      </g>
     </g>
    </g>
    <g id="xtick_17">
     <g id="line2d_17">
      <g>
       <use style="stroke:#000000;stroke-width:0.6;" x="268.197096" xlink:href="#m8ab743df54" y="215.84375"/>
      </g>
     </g>
    </g>
    <g id="xtick_18">
     <g id="line2d_18">
      <g>
       <use style="stroke:#000000;stroke-width:0.6;" x="316.045989" xlink:href="#m8ab743df54" y="215.84375"/>
      </g>
     </g>
    </g>
    <g id="xtick_19">
     <g id="line2d_19">
      <g>
       <use style="stroke:#000000;stroke-width:0.6;" x="340.342632" xlink:href="#m8ab743df54" y="215.84375"/>
      </g>
     </g>
    </g>
    <g id="xtick_20">
     <g id="line2d_20">
      <g>
       <use style="stroke:#000000;stroke-width:0.6;" x="357.581375" xlink:href="#m8ab743df54" y="215.84375"/>
      </g>
     </g>
    </g>
    <g id="xtick_21">
     <g id="line2d_21">
      <g>
       <use style="stroke:#000000;stroke-width:0.6;" x="370.952783" xlink:href="#m8ab743df54" y="215.84375"/>
      </g>
     </g>
    </g>
    <g id="xtick_22">
     <g id="line2d_22">
      <g>
       <use style="stroke:#000000;stroke-width:0.6;" x="381.878019" xlink:href="#m8ab743df54" y="215.84375"/>
      </g>
     </g>
    </g>
    <g id="text_3">
     <!-- GDP per Capita [in USD] -->
     <defs>
      <path d="M 59.515625 10.40625 
L 59.515625 29.984375 
L 43.40625 29.984375 
L 43.40625 38.09375 
L 69.28125 38.09375 
L 69.28125 6.78125 
Q 63.578125 2.734375 56.6875 0.65625 
Q 49.8125 -1.421875 42 -1.421875 
Q 24.90625 -1.421875 15.25 8.5625 
Q 5.609375 18.5625 5.609375 36.375 
Q 5.609375 54.25 15.25 64.234375 
Q 24.90625 74.21875 42 74.21875 
Q 49.125 74.21875 55.546875 72.453125 
Q 61.96875 70.703125 67.390625 67.28125 
L 67.390625 56.78125 
Q 61.921875 61.421875 55.765625 63.765625 
Q 49.609375 66.109375 42.828125 66.109375 
Q 29.4375 66.109375 22.71875 58.640625 
Q 16.015625 51.171875 16.015625 36.375 
Q 16.015625 21.625 22.71875 14.15625 
Q 29.4375 6.6875 42.828125 6.6875 
Q 48.046875 6.6875 52.140625 7.59375 
Q 56.25 8.5 59.515625 10.40625 
z
" id="DejaVuSans-47"/>
      <path d="M 19.671875 64.796875 
L 19.671875 8.109375 
L 31.59375 8.109375 
Q 46.6875 8.109375 53.6875 14.9375 
Q 60.6875 21.78125 60.6875 36.53125 
Q 60.6875 51.171875 53.6875 57.984375 
Q 46.6875 64.796875 31.59375 64.796875 
z
M 9.8125 72.90625 
L 30.078125 72.90625 
Q 51.265625 72.90625 61.171875 64.09375 
Q 71.09375 55.28125 71.09375 36.53125 
Q 71.09375 17.671875 61.125 8.828125 
Q 51.171875 0 30.078125 0 
L 9.8125 0 
z
" id="DejaVuSans-44"/>
      <path d="M 19.671875 64.796875 
L 19.671875 37.40625 
L 32.078125 37.40625 
Q 38.96875 37.40625 42.71875 40.96875 
Q 46.484375 44.53125 46.484375 51.125 
Q 46.484375 57.671875 42.71875 61.234375 
Q 38.96875 64.796875 32.078125 64.796875 
z
M 9.8125 72.90625 
L 32.078125 72.90625 
Q 44.34375 72.90625 50.609375 67.359375 
Q 56.890625 61.8125 56.890625 51.125 
Q 56.890625 40.328125 50.609375 34.8125 
Q 44.34375 29.296875 32.078125 29.296875 
L 19.671875 29.296875 
L 19.671875 0 
L 9.8125 0 
z
" id="DejaVuSans-50"/>
      <path id="DejaVuSans-20"/>
      <path d="M 18.109375 8.203125 
L 18.109375 -20.796875 
L 9.078125 -20.796875 
L 9.078125 54.6875 
L 18.109375 54.6875 
L 18.109375 46.390625 
Q 20.953125 51.265625 25.265625 53.625 
Q 29.59375 56 35.59375 56 
Q 45.5625 56 51.78125 48.09375 
Q 58.015625 40.1875 58.015625 27.296875 
Q 58.015625 14.40625 51.78125 6.484375 
Q 45.5625 -1.421875 35.59375 -1.421875 
Q 29.59375 -1.421875 25.265625 0.953125 
Q 20.953125 3.328125 18.109375 8.203125 
z
M 48.6875 27.296875 
Q 48.6875 37.203125 44.609375 42.84375 
Q 40.53125 48.484375 33.40625 48.484375 
Q 26.265625 48.484375 22.1875 42.84375 
Q 18.109375 37.203125 18.109375 27.296875 
Q 18.109375 17.390625 22.1875 11.75 
Q 26.265625 6.109375 33.40625 6.109375 
Q 40.53125 6.109375 44.609375 11.75 
Q 48.6875 17.390625 48.6875 27.296875 
z
" id="DejaVuSans-70"/>
      <path d="M 56.203125 29.59375 
L 56.203125 25.203125 
L 14.890625 25.203125 
Q 15.484375 15.921875 20.484375 11.0625 
Q 25.484375 6.203125 34.421875 6.203125 
Q 39.59375 6.203125 44.453125 7.46875 
Q 49.3125 8.734375 54.109375 11.28125 
L 54.109375 2.78125 
Q 49.265625 0.734375 44.1875 -0.34375 
Q 39.109375 -1.421875 33.890625 -1.421875 
Q 20.796875 -1.421875 13.15625 6.1875 
Q 5.515625 13.8125 5.515625 26.8125 
Q 5.515625 40.234375 12.765625 48.109375 
Q 20.015625 56 32.328125 56 
Q 43.359375 56 49.78125 48.890625 
Q 56.203125 41.796875 56.203125 29.59375 
z
M 47.21875 32.234375 
Q 47.125 39.59375 43.09375 43.984375 
Q 39.0625 48.390625 32.421875 48.390625 
Q 24.90625 48.390625 20.390625 44.140625 
Q 15.875 39.890625 15.1875 32.171875 
z
" id="DejaVuSans-65"/>
      <path d="M 41.109375 46.296875 
Q 39.59375 47.171875 37.8125 47.578125 
Q 36.03125 48 33.890625 48 
Q 26.265625 48 22.1875 43.046875 
Q 18.109375 38.09375 18.109375 28.8125 
L 18.109375 0 
L 9.078125 0 
L 9.078125 54.6875 
L 18.109375 54.6875 
L 18.109375 46.1875 
Q 20.953125 51.171875 25.484375 53.578125 
Q 30.03125 56 36.53125 56 
Q 37.453125 56 38.578125 55.875 
Q 39.703125 55.765625 41.0625 55.515625 
z
" id="DejaVuSans-72"/>
      <path d="M 64.40625 67.28125 
L 64.40625 56.890625 
Q 59.421875 61.53125 53.78125 63.8125 
Q 48.140625 66.109375 41.796875 66.109375 
Q 29.296875 66.109375 22.65625 58.46875 
Q 16.015625 50.828125 16.015625 36.375 
Q 16.015625 21.96875 22.65625 14.328125 
Q 29.296875 6.6875 41.796875 6.6875 
Q 48.140625 6.6875 53.78125 8.984375 
Q 59.421875 11.28125 64.40625 15.921875 
L 64.40625 5.609375 
Q 59.234375 2.09375 53.4375 0.328125 
Q 47.65625 -1.421875 41.21875 -1.421875 
Q 24.65625 -1.421875 15.125 8.703125 
Q 5.609375 18.84375 5.609375 36.375 
Q 5.609375 53.953125 15.125 64.078125 
Q 24.65625 74.21875 41.21875 74.21875 
Q 47.75 74.21875 53.53125 72.484375 
Q 59.328125 70.75 64.40625 67.28125 
z
" id="DejaVuSans-43"/>
      <path d="M 34.28125 27.484375 
Q 23.390625 27.484375 19.1875 25 
Q 14.984375 22.515625 14.984375 16.5 
Q 14.984375 11.71875 18.140625 8.90625 
Q 21.296875 6.109375 26.703125 6.109375 
Q 34.1875 6.109375 38.703125 11.40625 
Q 43.21875 16.703125 43.21875 25.484375 
L 43.21875 27.484375 
z
M 52.203125 31.203125 
L 52.203125 0 
L 43.21875 0 
L 43.21875 8.296875 
Q 40.140625 3.328125 35.546875 0.953125 
Q 30.953125 -1.421875 24.3125 -1.421875 
Q 15.921875 -1.421875 10.953125 3.296875 
Q 6 8.015625 6 15.921875 
Q 6 25.140625 12.171875 29.828125 
Q 18.359375 34.515625 30.609375 34.515625 
L 43.21875 34.515625 
L 43.21875 35.40625 
Q 43.21875 41.609375 39.140625 45 
Q 35.0625 48.390625 27.6875 48.390625 
Q 23 48.390625 18.546875 47.265625 
Q 14.109375 46.140625 10.015625 43.890625 
L 10.015625 52.203125 
Q 14.9375 54.109375 19.578125 55.046875 
Q 24.21875 56 28.609375 56 
Q 40.484375 56 46.34375 49.84375 
Q 52.203125 43.703125 52.203125 31.203125 
z
" id="DejaVuSans-61"/>
      <path d="M 9.421875 54.6875 
L 18.40625 54.6875 
L 18.40625 0 
L 9.421875 0 
z
M 9.421875 75.984375 
L 18.40625 75.984375 
L 18.40625 64.59375 
L 9.421875 64.59375 
z
" id="DejaVuSans-69"/>
      <path d="M 18.3125 70.21875 
L 18.3125 54.6875 
L 36.8125 54.6875 
L 36.8125 47.703125 
L 18.3125 47.703125 
L 18.3125 18.015625 
Q 18.3125 11.328125 20.140625 9.421875 
Q 21.96875 7.515625 27.59375 7.515625 
L 36.8125 7.515625 
L 36.8125 0 
L 27.59375 0 
Q 17.1875 0 13.234375 3.875 
Q 9.28125 7.765625 9.28125 18.015625 
L 9.28125 47.703125 
L 2.6875 47.703125 
L 2.6875 54.6875 
L 9.28125 54.6875 
L 9.28125 70.21875 
z
" id="DejaVuSans-74"/>
      <path d="M 8.59375 75.984375 
L 29.296875 75.984375 
L 29.296875 69 
L 17.578125 69 
L 17.578125 -6.203125 
L 29.296875 -6.203125 
L 29.296875 -13.1875 
L 8.59375 -13.1875 
z
" id="DejaVuSans-5b"/>
      <path d="M 54.890625 33.015625 
L 54.890625 0 
L 45.90625 0 
L 45.90625 32.71875 
Q 45.90625 40.484375 42.875 44.328125 
Q 39.84375 48.1875 33.796875 48.1875 
Q 26.515625 48.1875 22.3125 43.546875 
Q 18.109375 38.921875 18.109375 30.90625 
L 18.109375 0 
L 9.078125 0 
L 9.078125 54.6875 
L 18.109375 54.6875 
L 18.109375 46.1875 
Q 21.34375 51.125 25.703125 53.5625 
Q 30.078125 56 35.796875 56 
Q 45.21875 56 50.046875 50.171875 
Q 54.890625 44.34375 54.890625 33.015625 
z
" id="DejaVuSans-6e"/>
      <path d="M 8.6875 72.90625 
L 18.609375 72.90625 
L 18.609375 28.609375 
Q 18.609375 16.890625 22.84375 11.734375 
Q 27.09375 6.59375 36.625 6.59375 
Q 46.09375 6.59375 50.34375 11.734375 
Q 54.59375 16.890625 54.59375 28.609375 
L 54.59375 72.90625 
L 64.5 72.90625 
L 64.5 27.390625 
Q 64.5 13.140625 57.4375 5.859375 
Q 50.390625 -1.421875 36.625 -1.421875 
Q 22.796875 -1.421875 15.734375 5.859375 
Q 8.6875 13.140625 8.6875 27.390625 
z
" id="DejaVuSans-55"/>
      <path d="M 53.515625 70.515625 
L 53.515625 60.890625 
Q 47.90625 63.578125 42.921875 64.890625 
Q 37.9375 66.21875 33.296875 66.21875 
Q 25.25 66.21875 20.875 63.09375 
Q 16.5 59.96875 16.5 54.203125 
Q 16.5 49.359375 19.40625 46.890625 
Q 22.3125 44.4375 30.421875 42.921875 
L 36.375 41.703125 
Q 47.40625 39.59375 52.65625 34.296875 
Q 57.90625 29 57.90625 20.125 
Q 57.90625 9.515625 50.796875 4.046875 
Q 43.703125 -1.421875 29.984375 -1.421875 
Q 24.8125 -1.421875 18.96875 -0.25 
Q 13.140625 0.921875 6.890625 3.21875 
L 6.890625 13.375 
Q 12.890625 10.015625 18.65625 8.296875 
Q 24.421875 6.59375 29.984375 6.59375 
Q 38.421875 6.59375 43.015625 9.90625 
Q 47.609375 13.234375 47.609375 19.390625 
Q 47.609375 24.75 44.3125 27.78125 
Q 41.015625 30.8125 33.5 32.328125 
L 27.484375 33.5 
Q 16.453125 35.6875 11.515625 40.375 
Q 6.59375 45.0625 6.59375 53.421875 
Q 6.59375 63.09375 13.40625 68.65625 
Q 20.21875 74.21875 32.171875 74.21875 
Q 37.3125 74.21875 42.625 73.28125 
Q 47.953125 72.359375 53.515625 70.515625 
z
" id="DejaVuSans-53"/>
      <path d="M 30.421875 75.984375 
L 30.421875 -13.1875 
L 9.71875 -13.1875 
L 9.71875 -6.203125 
L 21.390625 -6.203125 
L 21.390625 69 
L 9.71875 69 
L 9.71875 75.984375 
z
" id="DejaVuSans-5d"/>
     </defs>
     <g transform="translate(154.264063 244.120313)scale(0.1 -0.1)">
      <use xlink:href="#DejaVuSans-47"/>
      <use x="77.490234" xlink:href="#DejaVuSans-44"/>
      <use x="154.492188" xlink:href="#DejaVuSans-50"/>
      <use x="214.794922" xlink:href="#DejaVuSans-20"/>
      <use x="246.582031" xlink:href="#DejaVuSans-70"/>
      <use x="310.058594" xlink:href="#DejaVuSans-65"/>
      <use x="371.582031" xlink:href="#DejaVuSans-72"/>
      <use x="412.695312" xlink:href="#DejaVuSans-20"/>
      <use x="444.482422" xlink:href="#DejaVuSans-43"/>
      <use x="514.306641" xlink:href="#DejaVuSans-61"/>
      <use x="575.585938" xlink:href="#DejaVuSans-70"/>
      <use x="639.0625" xlink:href="#DejaVuSans-69"/>
      <use x="666.845703" xlink:href="#DejaVuSans-74"/>
      <use x="706.054688" xlink:href="#DejaVuSans-61"/>
      <use x="767.333984" xlink:href="#DejaVuSans-20"/>
      <use x="799.121094" xlink:href="#DejaVuSans-5b"/>
      <use x="838.134766" xlink:href="#DejaVuSans-69"/>
      <use x="865.917969" xlink:href="#DejaVuSans-6e"/>
      <use x="929.296875" xlink:href="#DejaVuSans-20"/>
      <use x="961.083984" xlink:href="#DejaVuSans-55"/>
      <use x="1034.277344" xlink:href="#DejaVuSans-53"/>
      <use x="1097.753906" xlink:href="#DejaVuSans-44"/>
      <use x="1174.755859" xlink:href="#DejaVuSans-5d"/>
     </g>
    </g>
   </g>
   <g id="matplotlib.axis_2">
    <g id="ytick_1">
     <g id="line2d_23">
      <defs>
       <path d="M 0 0 
L -3.5 0 
" id="mdc99085be9" style="stroke:#000000;stroke-width:0.8;"/>
      </defs>
      <g>
       <use style="stroke:#000000;stroke-width:0.8;" x="44.203125" xlink:href="#mdc99085be9" y="205.624468"/>
      </g>
     </g>
     <g id="text_4">
      <!-- 40 -->
      <g transform="translate(24.478125 209.423687)scale(0.1 -0.1)">
       <use xlink:href="#DejaVuSans-34"/>
       <use x="63.623047" xlink:href="#DejaVuSans-30"/>
      </g>
     </g>
    </g>
    <g id="ytick_2">
     <g id="line2d_24">
      <g>
       <use style="stroke:#000000;stroke-width:0.8;" x="44.203125" xlink:href="#mdc99085be9" y="165.476879"/>
      </g>
     </g>
     <g id="text_5">
      <!-- 50 -->
      <defs>
       <path d="M 10.796875 72.90625 
L 49.515625 72.90625 
L 49.515625 64.59375 
L 19.828125 64.59375 
L 19.828125 46.734375 
Q 21.96875 47.46875 24.109375 47.828125 
Q 26.265625 48.1875 28.421875 48.1875 
Q 40.625 48.1875 47.75 41.5 
Q 54.890625 34.8125 54.890625 23.390625 
Q 54.890625 11.625 47.5625 5.09375 
Q 40.234375 -1.421875 26.90625 -1.421875 
Q 22.3125 -1.421875 17.546875 -0.640625 
Q 12.796875 0.140625 7.71875 1.703125 
L 7.71875 11.625 
Q 12.109375 9.234375 16.796875 8.0625 
Q 21.484375 6.890625 26.703125 6.890625 
Q 35.15625 6.890625 40.078125 11.328125 
Q 45.015625 15.765625 45.015625 23.390625 
Q 45.015625 31 40.078125 35.4375 
Q 35.15625 39.890625 26.703125 39.890625 
Q 22.75 39.890625 18.8125 39.015625 
Q 14.890625 38.140625 10.796875 36.28125 
z
" id="DejaVuSans-35"/>
      </defs>
      <g transform="translate(24.478125 169.276098)scale(0.1 -0.1)">
       <use xlink:href="#DejaVuSans-35"/>
       <use x="63.623047" xlink:href="#DejaVuSans-30"/>
      </g>
     </g>
    </g>
    <g id="ytick_3">
     <g id="line2d_25">
      <g>
       <use style="stroke:#000000;stroke-width:0.8;" x="44.203125" xlink:href="#mdc99085be9" y="125.32929"/>
      </g>
     </g>
     <g id="text_6">
      <!-- 60 -->
      <defs>
       <path d="M 33.015625 40.375 
Q 26.375 40.375 22.484375 35.828125 
Q 18.609375 31.296875 18.609375 23.390625 
Q 18.609375 15.53125 22.484375 10.953125 
Q 26.375 6.390625 33.015625 6.390625 
Q 39.65625 6.390625 43.53125 10.953125 
Q 47.40625 15.53125 47.40625 23.390625 
Q 47.40625 31.296875 43.53125 35.828125 
Q 39.65625 40.375 33.015625 40.375 
z
M 52.59375 71.296875 
L 52.59375 62.3125 
Q 48.875 64.0625 45.09375 64.984375 
Q 41.3125 65.921875 37.59375 65.921875 
Q 27.828125 65.921875 22.671875 59.328125 
Q 17.53125 52.734375 16.796875 39.40625 
Q 19.671875 43.65625 24.015625 45.921875 
Q 28.375 48.1875 33.59375 48.1875 
Q 44.578125 48.1875 50.953125 41.515625 
Q 57.328125 34.859375 57.328125 23.390625 
Q 57.328125 12.15625 50.6875 5.359375 
Q 44.046875 -1.421875 33.015625 -1.421875 
Q 20.359375 -1.421875 13.671875 8.265625 
Q 6.984375 17.96875 6.984375 36.375 
Q 6.984375 53.65625 15.1875 63.9375 
Q 23.390625 74.21875 37.203125 74.21875 
Q 40.921875 74.21875 44.703125 73.484375 
Q 48.484375 72.75 52.59375 71.296875 
z
" id="DejaVuSans-36"/>
      </defs>
      <g transform="translate(24.478125 129.128509)scale(0.1 -0.1)">
       <use xlink:href="#DejaVuSans-36"/>
       <use x="63.623047" xlink:href="#DejaVuSans-30"/>
      </g>
     </g>
    </g>
    <g id="ytick_4">
     <g id="line2d_26">
      <g>
       <use style="stroke:#000000;stroke-width:0.8;" x="44.203125" xlink:href="#mdc99085be9" y="85.181702"/>
      </g>
     </g>
     <g id="text_7">
      <!-- 70 -->
      <defs>
       <path d="M 8.203125 72.90625 
L 55.078125 72.90625 
L 55.078125 68.703125 
L 28.609375 0 
L 18.3125 0 
L 43.21875 64.59375 
L 8.203125 64.59375 
z
" id="DejaVuSans-37"/>
      </defs>
      <g transform="translate(24.478125 88.98092)scale(0.1 -0.1)">
       <use xlink:href="#DejaVuSans-37"/>
       <use x="63.623047" xlink:href="#DejaVuSans-30"/>
      </g>
     </g>
    </g>
    <g id="ytick_5">
     <g id="line2d_27">
      <g>
       <use style="stroke:#000000;stroke-width:0.8;" x="44.203125" xlink:href="#mdc99085be9" y="45.034113"/>
      </g>
     </g>
     <g id="text_8">
      <!-- 80 -->
      <defs>
       <path d="M 31.78125 34.625 
Q 24.75 34.625 20.71875 30.859375 
Q 16.703125 27.09375 16.703125 20.515625 
Q 16.703125 13.921875 20.71875 10.15625 
Q 24.75 6.390625 31.78125 6.390625 
Q 38.8125 6.390625 42.859375 10.171875 
Q 46.921875 13.96875 46.921875 20.515625 
Q 46.921875 27.09375 42.890625 30.859375 
Q 38.875 34.625 31.78125 34.625 
z
M 21.921875 38.8125 
Q 15.578125 40.375 12.03125 44.71875 
Q 8.5 49.078125 8.5 55.328125 
Q 8.5 64.0625 14.71875 69.140625 
Q 20.953125 74.21875 31.78125 74.21875 
Q 42.671875 74.21875 48.875 69.140625 
Q 55.078125 64.0625 55.078125 55.328125 
Q 55.078125 49.078125 51.53125 44.71875 
Q 48 40.375 41.703125 38.8125 
Q 48.828125 37.15625 52.796875 32.3125 
Q 56.78125 27.484375 56.78125 20.515625 
Q 56.78125 9.90625 50.3125 4.234375 
Q 43.84375 -1.421875 31.78125 -1.421875 
Q 19.734375 -1.421875 13.25 4.234375 
Q 6.78125 9.90625 6.78125 20.515625 
Q 6.78125 27.484375 10.78125 32.3125 
Q 14.796875 37.15625 21.921875 38.8125 
z
M 18.3125 54.390625 
Q 18.3125 48.734375 21.84375 45.5625 
Q 25.390625 42.390625 31.78125 42.390625 
Q 38.140625 42.390625 41.71875 45.5625 
Q 45.3125 48.734375 45.3125 54.390625 
Q 45.3125 60.0625 41.71875 63.234375 
Q 38.140625 66.40625 31.78125 66.40625 
Q 25.390625 66.40625 21.84375 63.234375 
Q 18.3125 60.0625 18.3125 54.390625 
z
" id="DejaVuSans-38"/>
      </defs>
      <g transform="translate(24.478125 48.833331)scale(0.1 -0.1)">
       <use xlink:href="#DejaVuSans-38"/>
       <use x="63.623047" xlink:href="#DejaVuSans-30"/>
      </g>
     </g>
    </g>
    <g id="text_9">
     <!-- Life Expectancy [in years] -->
     <defs>
      <path d="M 9.8125 72.90625 
L 19.671875 72.90625 
L 19.671875 8.296875 
L 55.171875 8.296875 
L 55.171875 0 
L 9.8125 0 
z
" id="DejaVuSans-4c"/>
      <path d="M 37.109375 75.984375 
L 37.109375 68.5 
L 28.515625 68.5 
Q 23.6875 68.5 21.796875 66.546875 
Q 19.921875 64.59375 19.921875 59.515625 
L 19.921875 54.6875 
L 34.71875 54.6875 
L 34.71875 47.703125 
L 19.921875 47.703125 
L 19.921875 0 
L 10.890625 0 
L 10.890625 47.703125 
L 2.296875 47.703125 
L 2.296875 54.6875 
L 10.890625 54.6875 
L 10.890625 58.5 
Q 10.890625 67.625 15.140625 71.796875 
Q 19.390625 75.984375 28.609375 75.984375 
z
" id="DejaVuSans-66"/>
      <path d="M 9.8125 72.90625 
L 55.90625 72.90625 
L 55.90625 64.59375 
L 19.671875 64.59375 
L 19.671875 43.015625 
L 54.390625 43.015625 
L 54.390625 34.71875 
L 19.671875 34.71875 
L 19.671875 8.296875 
L 56.78125 8.296875 
L 56.78125 0 
L 9.8125 0 
z
" id="DejaVuSans-45"/>
      <path d="M 54.890625 54.6875 
L 35.109375 28.078125 
L 55.90625 0 
L 45.3125 0 
L 29.390625 21.484375 
L 13.484375 0 
L 2.875 0 
L 24.125 28.609375 
L 4.6875 54.6875 
L 15.28125 54.6875 
L 29.78125 35.203125 
L 44.28125 54.6875 
z
" id="DejaVuSans-78"/>
      <path d="M 48.78125 52.59375 
L 48.78125 44.1875 
Q 44.96875 46.296875 41.140625 47.34375 
Q 37.3125 48.390625 33.40625 48.390625 
Q 24.65625 48.390625 19.8125 42.84375 
Q 14.984375 37.3125 14.984375 27.296875 
Q 14.984375 17.28125 19.8125 11.734375 
Q 24.65625 6.203125 33.40625 6.203125 
Q 37.3125 6.203125 41.140625 7.25 
Q 44.96875 8.296875 48.78125 10.40625 
L 48.78125 2.09375 
Q 45.015625 0.34375 40.984375 -0.53125 
Q 36.96875 -1.421875 32.421875 -1.421875 
Q 20.0625 -1.421875 12.78125 6.34375 
Q 5.515625 14.109375 5.515625 27.296875 
Q 5.515625 40.671875 12.859375 48.328125 
Q 20.21875 56 33.015625 56 
Q 37.15625 56 41.109375 55.140625 
Q 45.0625 54.296875 48.78125 52.59375 
z
" id="DejaVuSans-63"/>
      <path d="M 32.171875 -5.078125 
Q 28.375 -14.84375 24.75 -17.8125 
Q 21.140625 -20.796875 15.09375 -20.796875 
L 7.90625 -20.796875 
L 7.90625 -13.28125 
L 13.1875 -13.28125 
Q 16.890625 -13.28125 18.9375 -11.515625 
Q 21 -9.765625 23.484375 -3.21875 
L 25.09375 0.875 
L 2.984375 54.6875 
L 12.5 54.6875 
L 29.59375 11.921875 
L 46.6875 54.6875 
L 56.203125 54.6875 
z
" id="DejaVuSans-79"/>
      <path d="M 44.28125 53.078125 
L 44.28125 44.578125 
Q 40.484375 46.53125 36.375 47.5 
Q 32.28125 48.484375 27.875 48.484375 
Q 21.1875 48.484375 17.84375 46.4375 
Q 14.5 44.390625 14.5 40.28125 
Q 14.5 37.15625 16.890625 35.375 
Q 19.28125 33.59375 26.515625 31.984375 
L 29.59375 31.296875 
Q 39.15625 29.25 43.1875 25.515625 
Q 47.21875 21.78125 47.21875 15.09375 
Q 47.21875 7.46875 41.1875 3.015625 
Q 35.15625 -1.421875 24.609375 -1.421875 
Q 20.21875 -1.421875 15.453125 -0.5625 
Q 10.6875 0.296875 5.421875 2 
L 5.421875 11.28125 
Q 10.40625 8.6875 15.234375 7.390625 
Q 20.0625 6.109375 24.8125 6.109375 
Q 31.15625 6.109375 34.5625 8.28125 
Q 37.984375 10.453125 37.984375 14.40625 
Q 37.984375 18.0625 35.515625 20.015625 
Q 33.0625 21.96875 24.703125 23.78125 
L 21.578125 24.515625 
Q 13.234375 26.265625 9.515625 29.90625 
Q 5.8125 33.546875 5.8125 39.890625 
Q 5.8125 47.609375 11.28125 51.796875 
Q 16.75 56 26.8125 56 
Q 31.78125 56 36.171875 55.265625 
Q 40.578125 54.546875 44.28125 53.078125 
z
" id="DejaVuSans-73"/>
     </defs>
     <g transform="translate(18.398438 185.899687)rotate(-90)scale(0.1 -0.1)">
      <use xlink:href="#DejaVuSans-4c"/>
      <use x="55.712891" xlink:href="#DejaVuSans-69"/>
      <use x="83.496094" xlink:href="#DejaVuSans-66"/>
      <use x="118.701172" xlink:href="#DejaVuSans-65"/>
      <use x="180.224609" xlink:href="#DejaVuSans-20"/>
      <use x="212.011719" xlink:href="#DejaVuSans-45"/>
      <use x="275.195312" xlink:href="#DejaVuSans-78"/>
      <use x="334.375" xlink:href="#DejaVuSans-70"/>
      <use x="397.851562" xlink:href="#DejaVuSans-65"/>
      <use x="459.375" xlink:href="#DejaVuSans-63"/>
      <use x="514.355469" xlink:href="#DejaVuSans-74"/>
      <use x="553.564453" xlink:href="#DejaVuSans-61"/>
      <use x="614.84375" xlink:href="#DejaVuSans-6e"/>
      <use x="678.222656" xlink:href="#DejaVuSans-63"/>
      <use x="733.203125" xlink:href="#DejaVuSans-79"/>
      <use x="792.382812" xlink:href="#DejaVuSans-20"/>
      <use x="824.169922" xlink:href="#DejaVuSans-5b"/>
      <use x="863.183594" xlink:href="#DejaVuSans-69"/>
      <use x="890.966797" xlink:href="#DejaVuSans-6e"/>
      <use x="954.345703" xlink:href="#DejaVuSans-20"/>
      <use x="986.132812" xlink:href="#DejaVuSans-79"/>
      <use x="1045.3125" xlink:href="#DejaVuSans-65"/>
      <use x="1106.835938" xlink:href="#DejaVuSans-61"/>
      <use x="1168.115234" xlink:href="#DejaVuSans-72"/>
      <use x="1209.228516" xlink:href="#DejaVuSans-73"/>
      <use x="1261.328125" xlink:href="#DejaVuSans-5d"/>
     </g>
    </g>
   </g>
   <g id="patch_3">
    <path d="M 44.203125 215.84375 
L 44.203125 25.918125 
" style="fill:none;stroke:#000000;stroke-linecap:square;stroke-linejoin:miter;stroke-width:0.8;"/>
   </g>
   <g id="patch_4">
    <path d="M 385.7 215.84375 
L 385.7 25.918125 
" style="fill:none;stroke:#000000;stroke-linecap:square;stroke-linejoin:miter;stroke-width:0.8;"/>
   </g>
   <g id="patch_5">
    <path d="M 44.203125 215.84375 
L 385.7 215.84375 
" style="fill:none;stroke:#000000;stroke-linecap:square;stroke-linejoin:miter;stroke-width:0.8;"/>
   </g>
   <g id="patch_6">
    <path d="M 44.203125 25.918125 
L 385.7 25.918125 
" style="fill:none;stroke:#000000;stroke-linecap:square;stroke-linejoin:miter;stroke-width:0.8;"/>
   </g>
   <g id="text_10">
    <!-- World Development in 2007 -->
    <defs>
     <path d="M 3.328125 72.90625 
L 13.28125 72.90625 
L 28.609375 11.28125 
L 43.890625 72.90625 
L 54.984375 72.90625 
L 70.3125 11.28125 
L 85.59375 72.90625 
L 95.609375 72.90625 
L 77.296875 0 
L 64.890625 0 
L 49.515625 63.28125 
L 33.984375 0 
L 21.578125 0 
z
" id="DejaVuSans-57"/>
     <path d="M 30.609375 48.390625 
Q 23.390625 48.390625 19.1875 42.75 
Q 14.984375 37.109375 14.984375 27.296875 
Q 14.984375 17.484375 19.15625 11.84375 
Q 23.34375 6.203125 30.609375 6.203125 
Q 37.796875 6.203125 41.984375 11.859375 
Q 46.1875 17.53125 46.1875 27.296875 
Q 46.1875 37.015625 41.984375 42.703125 
Q 37.796875 48.390625 30.609375 48.390625 
z
M 30.609375 56 
Q 42.328125 56 49.015625 48.375 
Q 55.71875 40.765625 55.71875 27.296875 
Q 55.71875 13.875 49.015625 6.21875 
Q 42.328125 -1.421875 30.609375 -1.421875 
Q 18.84375 -1.421875 12.171875 6.21875 
Q 5.515625 13.875 5.515625 27.296875 
Q 5.515625 40.765625 12.171875 48.375 
Q 18.84375 56 30.609375 56 
z
" id="DejaVuSans-6f"/>
     <path d="M 9.421875 75.984375 
L 18.40625 75.984375 
L 18.40625 0 
L 9.421875 0 
z
" id="DejaVuSans-6c"/>
     <path d="M 45.40625 46.390625 
L 45.40625 75.984375 
L 54.390625 75.984375 
L 54.390625 0 
L 45.40625 0 
L 45.40625 8.203125 
Q 42.578125 3.328125 38.25 0.953125 
Q 33.9375 -1.421875 27.875 -1.421875 
Q 17.96875 -1.421875 11.734375 6.484375 
Q 5.515625 14.40625 5.515625 27.296875 
Q 5.515625 40.1875 11.734375 48.09375 
Q 17.96875 56 27.875 56 
Q 33.9375 56 38.25 53.625 
Q 42.578125 51.265625 45.40625 46.390625 
z
M 14.796875 27.296875 
Q 14.796875 17.390625 18.875 11.75 
Q 22.953125 6.109375 30.078125 6.109375 
Q 37.203125 6.109375 41.296875 11.75 
Q 45.40625 17.390625 45.40625 27.296875 
Q 45.40625 37.203125 41.296875 42.84375 
Q 37.203125 48.484375 30.078125 48.484375 
Q 22.953125 48.484375 18.875 42.84375 
Q 14.796875 37.203125 14.796875 27.296875 
z
" id="DejaVuSans-64"/>
     <path d="M 2.984375 54.6875 
L 12.5 54.6875 
L 29.59375 8.796875 
L 46.6875 54.6875 
L 56.203125 54.6875 
L 35.6875 0 
L 23.484375 0 
z
" id="DejaVuSans-76"/>
     <path d="M 52 44.1875 
Q 55.375 50.25 60.0625 53.125 
Q 64.75 56 71.09375 56 
Q 79.640625 56 84.28125 50.015625 
Q 88.921875 44.046875 88.921875 33.015625 
L 88.921875 0 
L 79.890625 0 
L 79.890625 32.71875 
Q 79.890625 40.578125 77.09375 44.375 
Q 74.3125 48.1875 68.609375 48.1875 
Q 61.625 48.1875 57.5625 43.546875 
Q 53.515625 38.921875 53.515625 30.90625 
L 53.515625 0 
L 44.484375 0 
L 44.484375 32.71875 
Q 44.484375 40.625 41.703125 44.40625 
Q 38.921875 48.1875 33.109375 48.1875 
Q 26.21875 48.1875 22.15625 43.53125 
Q 18.109375 38.875 18.109375 30.90625 
L 18.109375 0 
L 9.078125 0 
L 9.078125 54.6875 
L 18.109375 54.6875 
L 18.109375 46.1875 
Q 21.1875 51.21875 25.484375 53.609375 
Q 29.78125 56 35.6875 56 
Q 41.65625 56 45.828125 52.96875 
Q 50 49.953125 52 44.1875 
z
" id="DejaVuSans-6d"/>
     <path d="M 19.1875 8.296875 
L 53.609375 8.296875 
L 53.609375 0 
L 7.328125 0 
L 7.328125 8.296875 
Q 12.9375 14.109375 22.625 23.890625 
Q 32.328125 33.6875 34.8125 36.53125 
Q 39.546875 41.84375 41.421875 45.53125 
Q 43.3125 49.21875 43.3125 52.78125 
Q 43.3125 58.59375 39.234375 62.25 
Q 35.15625 65.921875 28.609375 65.921875 
Q 23.96875 65.921875 18.8125 64.3125 
Q 13.671875 62.703125 7.8125 59.421875 
L 7.8125 69.390625 
Q 13.765625 71.78125 18.9375 73 
Q 24.125 74.21875 28.421875 74.21875 
Q 39.75 74.21875 46.484375 68.546875 
Q 53.21875 62.890625 53.21875 53.421875 
Q 53.21875 48.921875 51.53125 44.890625 
Q 49.859375 40.875 45.40625 35.40625 
Q 44.1875 33.984375 37.640625 27.21875 
Q 31.109375 20.453125 19.1875 8.296875 
z
" id="DejaVuSans-32"/>
    </defs>
    <g transform="translate(130.556875 19.918125)scale(0.12 -0.12)">
     <use xlink:href="#DejaVuSans-57"/>
     <use x="98.798828" xlink:href="#DejaVuSans-6f"/>
     <use x="159.980469" xlink:href="#DejaVuSans-72"/>
     <use x="201.09375" xlink:href="#DejaVuSans-6c"/>
     <use x="228.876953" xlink:href="#DejaVuSans-64"/>
     <use x="292.353516" xlink:href="#DejaVuSans-20"/>
     <use x="324.140625" xlink:href="#DejaVuSans-44"/>
     <use x="401.142578" xlink:href="#DejaVuSans-65"/>
     <use x="462.666016" xlink:href="#DejaVuSans-76"/>
     <use x="521.845703" xlink:href="#DejaVuSans-65"/>
     <use x="583.369141" xlink:href="#DejaVuSans-6c"/>
     <use x="611.152344" xlink:href="#DejaVuSans-6f"/>
     <use x="672.333984" xlink:href="#DejaVuSans-70"/>
     <use x="735.810547" xlink:href="#DejaVuSans-6d"/>
     <use x="833.222656" xlink:href="#DejaVuSans-65"/>
     <use x="894.746094" xlink:href="#DejaVuSans-6e"/>
     <use x="958.125" xlink:href="#DejaVuSans-74"/>
     <use x="997.333984" xlink:href="#DejaVuSans-20"/>
     <use x="1029.121094" xlink:href="#DejaVuSans-69"/>
     <use x="1056.904297" xlink:href="#DejaVuSans-6e"/>
     <use x="1120.283203" xlink:href="#DejaVuSans-20"/>
     <use x="1152.070312" xlink:href="#DejaVuSans-32"/>
     <use x="1215.693359" xlink:href="#DejaVuSans-30"/>
     <use x="1279.316406" xlink:href="#DejaVuSans-30"/>
     <use x="1342.939453" xlink:href="#DejaVuSans-37"/>
    </g>
   </g>
  </g>
 </g>
 <defs>
  <clipPath id="pc1ad6c9429">
   <rect height="189.925625" width="341.496875" x="44.203125" y="25.918125"/>
  </clipPath>
 </defs>
</svg>
