<?xml version="1.0" encoding="utf-8" standalone="no"?>
<!DOCTYPE svg PUBLIC "-//W3C//DTD SVG 1.1//EN"
  "http://www.w3.org/Graphics/SVG/1.1/DTD/svg11.dtd">
<!-- Created with matplotlib (http://matplotlib.org/) -->
<svg height="425.133331pt" version="1.1" viewBox="0 0 764 425.133331" width="764pt" xmlns="http://www.w3.org/2000/svg" xmlns:xlink="http://www.w3.org/1999/xlink">
 <defs>
  <style type="text/css">
*{stroke-linecap:butt;stroke-linejoin:round;}
  </style>
 </defs>
 <g id="figure_1">
  <g id="patch_1">
   <path d="M 0 425.133331 
L 764 425.133331 
L 764 0 
L 0 0 
z
" style="fill:#ffffff;"/>
  </g>
  <g id="axes_1">
   <g id="patch_2">
    <path d="M 48.445312 397.655206 
L 749.7 397.655206 
L 749.7 14.3 
L 48.445312 14.3 
z
" style="fill:#ffffff;"/>
   </g>
   <g id="matplotlib.axis_1">
    <g id="xtick_1">
     <g id="line2d_1">
      <defs>
       <path d="M 0 0 
L 0 3.5 
" id="m6b0690de57" style="stroke:#000000;stroke-width:0.8;"/>
      </defs>
      <g>
       <use style="stroke:#000000;stroke-width:0.8;" x="100.105141" xlink:href="#m6b0690de57" y="397.655206"/>
      </g>
     </g>
     <g id="text_1">
      <!-- 1960 -->
      <defs>
       <path d="M 12.40625 8.296875 
L 28.515625 8.296875 
L 28.515625 63.921875 
L 10.984375 60.40625 
L 10.984375 69.390625 
L 28.421875 72.90625 
L 38.28125 72.90625 
L 38.28125 8.296875 
L 54.390625 8.296875 
L 54.390625 0 
L 12.40625 0 
z
" id="DejaVuSans-31"/>
       <path d="M 10.984375 1.515625 
L 10.984375 10.5 
Q 14.703125 8.734375 18.5 7.8125 
Q 22.3125 6.890625 25.984375 6.890625 
Q 35.75 6.890625 40.890625 13.453125 
Q 46.046875 20.015625 46.78125 33.40625 
Q 43.953125 29.203125 39.59375 26.953125 
Q 35.25 24.703125 29.984375 24.703125 
Q 19.046875 24.703125 12.671875 31.3125 
Q 6.296875 37.9375 6.296875 49.421875 
Q 6.296875 60.640625 12.9375 67.421875 
Q 19.578125 74.21875 30.609375 74.21875 
Q 43.265625 74.21875 49.921875 64.515625 
Q 56.59375 54.828125 56.59375 36.375 
Q 56.59375 19.140625 48.40625 8.859375 
Q 40.234375 -1.421875 26.421875 -1.421875 
Q 22.703125 -1.421875 18.890625 -0.6875 
Q 15.09375 0.046875 10.984375 1.515625 
z
M 30.609375 32.421875 
Q 37.25 32.421875 41.125 36.953125 
Q 45.015625 41.5 45.015625 49.421875 
Q 45.015625 57.28125 41.125 61.84375 
Q 37.25 66.40625 30.609375 66.40625 
Q 23.96875 66.40625 20.09375 61.84375 
Q 16.21875 57.28125 16.21875 49.421875 
Q 16.21875 41.5 20.09375 36.953125 
Q 23.96875 32.421875 30.609375 32.421875 
z
" id="DejaVuSans-39"/>
       <path d="M 33.015625 40.375 
Q 26.375 40.375 22.484375 35.828125 
Q 18.609375 31.296875 18.609375 23.390625 
Q 18.609375 15.53125 22.484375 10.953125 
Q 26.375 6.390625 33.015625 6.390625 
Q 39.65625 6.390625 43.53125 10.953125 
Q 47.40625 15.53125 47.40625 23.390625 
Q 47.40625 31.296875 43.53125 35.828125 
Q 39.65625 40.375 33.015625 40.375 
z
M 52.59375 71.296875 
L 52.59375 62.3125 
Q 48.875 64.0625 45.09375 64.984375 
Q 41.3125 65.921875 37.59375 65.921875 
Q 27.828125 65.921875 22.671875 59.328125 
Q 17.53125 52.734375 16.796875 39.40625 
Q 19.671875 43.65625 24.015625 45.921875 
Q 28.375 48.1875 33.59375 48.1875 
Q 44.578125 48.1875 50.953125 41.515625 
Q 57.328125 34.859375 57.328125 23.390625 
Q 57.328125 12.15625 50.6875 5.359375 
Q 44.046875 -1.421875 33.015625 -1.421875 
Q 20.359375 -1.421875 13.671875 8.265625 
Q 6.984375 17.96875 6.984375 36.375 
Q 6.984375 53.65625 15.1875 63.9375 
Q 23.390625 74.21875 37.203125 74.21875 
Q 40.921875 74.21875 44.703125 73.484375 
Q 48.484375 72.75 52.59375 71.296875 
z
" id="DejaVuSans-36"/>
       <path d="M 31.78125 66.40625 
Q 24.171875 66.40625 20.328125 58.90625 
Q 16.5 51.421875 16.5 36.375 
Q 16.5 21.390625 20.328125 13.890625 
Q 24.171875 6.390625 31.78125 6.390625 
Q 39.453125 6.390625 43.28125 13.890625 
Q 47.125 21.390625 47.125 36.375 
Q 47.125 51.421875 43.28125 58.90625 
Q 39.453125 66.40625 31.78125 66.40625 
z
M 31.78125 74.21875 
Q 44.046875 74.21875 50.515625 64.515625 
Q 56.984375 54.828125 56.984375 36.375 
Q 56.984375 17.96875 50.515625 8.265625 
Q 44.046875 -1.421875 31.78125 -1.421875 
Q 19.53125 -1.421875 13.0625 8.265625 
Q 6.59375 17.96875 6.59375 36.375 
Q 6.59375 54.828125 13.0625 64.515625 
Q 19.53125 74.21875 31.78125 74.21875 
z
" id="DejaVuSans-30"/>
      </defs>
      <g transform="translate(87.380141 412.253644)scale(0.1 -0.1)">
       <use xlink:href="#DejaVuSans-31"/>
       <use x="63.623047" xlink:href="#DejaVuSans-39"/>
       <use x="127.246094" xlink:href="#DejaVuSans-36"/>
       <use x="190.869141" xlink:href="#DejaVuSans-30"/>
      </g>
     </g>
    </g>
    <g id="xtick_2">
     <g id="line2d_2">
      <g>
       <use style="stroke:#000000;stroke-width:0.8;" x="208.623457" xlink:href="#m6b0690de57" y="397.655206"/>
      </g>
     </g>
     <g id="text_2">
      <!-- 1970 -->
      <defs>
       <path d="M 8.203125 72.90625 
L 55.078125 72.90625 
L 55.078125 68.703125 
L 28.609375 0 
L 18.3125 0 
L 43.21875 64.59375 
L 8.203125 64.59375 
z
" id="DejaVuSans-37"/>
      </defs>
      <g transform="translate(195.898457 412.253644)scale(0.1 -0.1)">
       <use xlink:href="#DejaVuSans-31"/>
       <use x="63.623047" xlink:href="#DejaVuSans-39"/>
       <use x="127.246094" xlink:href="#DejaVuSans-37"/>
       <use x="190.869141" xlink:href="#DejaVuSans-30"/>
      </g>
     </g>
    </g>
    <g id="xtick_3">
     <g id="line2d_3">
      <g>
       <use style="stroke:#000000;stroke-width:0.8;" x="317.112066" xlink:href="#m6b0690de57" y="397.655206"/>
      </g>
     </g>
     <g id="text_3">
      <!-- 1980 -->
      <defs>
       <path d="M 31.78125 34.625 
Q 24.75 34.625 20.71875 30.859375 
Q 16.703125 27.09375 16.703125 20.515625 
Q 16.703125 13.921875 20.71875 10.15625 
Q 24.75 6.390625 31.78125 6.390625 
Q 38.8125 6.390625 42.859375 10.171875 
Q 46.921875 13.96875 46.921875 20.515625 
Q 46.921875 27.09375 42.890625 30.859375 
Q 38.875 34.625 31.78125 34.625 
z
M 21.921875 38.8125 
Q 15.578125 40.375 12.03125 44.71875 
Q 8.5 49.078125 8.5 55.328125 
Q 8.5 64.0625 14.71875 69.140625 
Q 20.953125 74.21875 31.78125 74.21875 
Q 42.671875 74.21875 48.875 69.140625 
Q 55.078125 64.0625 55.078125 55.328125 
Q 55.078125 49.078125 51.53125 44.71875 
Q 48 40.375 41.703125 38.8125 
Q 48.828125 37.15625 52.796875 32.3125 
Q 56.78125 27.484375 56.78125 20.515625 
Q 56.78125 9.90625 50.3125 4.234375 
Q 43.84375 -1.421875 31.78125 -1.421875 
Q 19.734375 -1.421875 13.25 4.234375 
Q 6.78125 9.90625 6.78125 20.515625 
Q 6.78125 27.484375 10.78125 32.3125 
Q 14.796875 37.15625 21.921875 38.8125 
z
M 18.3125 54.390625 
Q 18.3125 48.734375 21.84375 45.5625 
Q 25.390625 42.390625 31.78125 42.390625 
Q 38.140625 42.390625 41.71875 45.5625 
Q 45.3125 48.734375 45.3125 54.390625 
Q 45.3125 60.0625 41.71875 63.234375 
Q 38.140625 66.40625 31.78125 66.40625 
Q 25.390625 66.40625 21.84375 63.234375 
Q 18.3125 60.0625 18.3125 54.390625 
z
" id="DejaVuSans-38"/>
      </defs>
      <g transform="translate(304.387066 412.253644)scale(0.1 -0.1)">
       <use xlink:href="#DejaVuSans-31"/>
       <use x="63.623047" xlink:href="#DejaVuSans-39"/>
       <use x="127.246094" xlink:href="#DejaVuSans-38"/>
       <use x="190.869141" xlink:href="#DejaVuSans-30"/>
      </g>
     </g>
    </g>
    <g id="xtick_4">
     <g id="line2d_4">
      <g>
       <use style="stroke:#000000;stroke-width:0.8;" x="425.630383" xlink:href="#m6b0690de57" y="397.655206"/>
      </g>
     </g>
     <g id="text_4">
      <!-- 1990 -->
      <g transform="translate(412.905383 412.253644)scale(0.1 -0.1)">
       <use xlink:href="#DejaVuSans-31"/>
       <use x="63.623047" xlink:href="#DejaVuSans-39"/>
       <use x="127.246094" xlink:href="#DejaVuSans-39"/>
       <use x="190.869141" xlink:href="#DejaVuSans-30"/>
      </g>
     </g>
    </g>
    <g id="xtick_5">
     <g id="line2d_5">
      <g>
       <use style="stroke:#000000;stroke-width:0.8;" x="534.118992" xlink:href="#m6b0690de57" y="397.655206"/>
      </g>
     </g>
     <g id="text_5">
      <!-- 2000 -->
      <defs>
       <path d="M 19.1875 8.296875 
L 53.609375 8.296875 
L 53.609375 0 
L 7.328125 0 
L 7.328125 8.296875 
Q 12.9375 14.109375 22.625 23.890625 
Q 32.328125 33.6875 34.8125 36.53125 
Q 39.546875 41.84375 41.421875 45.53125 
Q 43.3125 49.21875 43.3125 52.78125 
Q 43.3125 58.59375 39.234375 62.25 
Q 35.15625 65.921875 28.609375 65.921875 
Q 23.96875 65.921875 18.8125 64.3125 
Q 13.671875 62.703125 7.8125 59.421875 
L 7.8125 69.390625 
Q 13.765625 71.78125 18.9375 73 
Q 24.125 74.21875 28.421875 74.21875 
Q 39.75 74.21875 46.484375 68.546875 
Q 53.21875 62.890625 53.21875 53.421875 
Q 53.21875 48.921875 51.53125 44.890625 
Q 49.859375 40.875 45.40625 35.40625 
Q 44.1875 33.984375 37.640625 27.21875 
Q 31.109375 20.453125 19.1875 8.296875 
z
" id="DejaVuSans-32"/>
      </defs>
      <g transform="translate(521.393992 412.253644)scale(0.1 -0.1)">
       <use xlink:href="#DejaVuSans-32"/>
       <use x="63.623047" xlink:href="#DejaVuSans-30"/>
       <use x="127.246094" xlink:href="#DejaVuSans-30"/>
       <use x="190.869141" xlink:href="#DejaVuSans-30"/>
      </g>
     </g>
    </g>
    <g id="xtick_6">
     <g id="line2d_6">
      <g>
       <use style="stroke:#000000;stroke-width:0.8;" x="642.637309" xlink:href="#m6b0690de57" y="397.655206"/>
      </g>
     </g>
     <g id="text_6">
      <!-- 2010 -->
      <g transform="translate(629.912309 412.253644)scale(0.1 -0.1)">
       <use xlink:href="#DejaVuSans-32"/>
       <use x="63.623047" xlink:href="#DejaVuSans-30"/>
       <use x="127.246094" xlink:href="#DejaVuSans-31"/>
       <use x="190.869141" xlink:href="#DejaVuSans-30"/>
      </g>
     </g>
    </g>
   </g>
   <g id="matplotlib.axis_2">
    <g id="ytick_1">
     <g id="line2d_7">
      <defs>
       <path d="M 0 0 
L -3.5 0 
" id="m6d5354364c" style="stroke:#000000;stroke-width:0.8;"/>
      </defs>
      <g>
       <use style="stroke:#000000;stroke-width:0.8;" x="48.445312" xlink:href="#m6d5354364c" y="357.811537"/>
      </g>
     </g>
     <g id="text_7">
      <!-- −0.25 -->
      <defs>
       <path d="M 10.59375 35.5 
L 73.1875 35.5 
L 73.1875 27.203125 
L 10.59375 27.203125 
z
" id="DejaVuSans-2212"/>
       <path d="M 10.6875 12.40625 
L 21 12.40625 
L 21 0 
L 10.6875 0 
z
" id="DejaVuSans-2e"/>
       <path d="M 10.796875 72.90625 
L 49.515625 72.90625 
L 49.515625 64.59375 
L 19.828125 64.59375 
L 19.828125 46.734375 
Q 21.96875 47.46875 24.109375 47.828125 
Q 26.265625 48.1875 28.421875 48.1875 
Q 40.625 48.1875 47.75 41.5 
Q 54.890625 34.8125 54.890625 23.390625 
Q 54.890625 11.625 47.5625 5.09375 
Q 40.234375 -1.421875 26.90625 -1.421875 
Q 22.3125 -1.421875 17.546875 -0.640625 
Q 12.796875 0.140625 7.71875 1.703125 
L 7.71875 11.625 
Q 12.109375 9.234375 16.796875 8.0625 
Q 21.484375 6.890625 26.703125 6.890625 
Q 35.15625 6.890625 40.078125 11.328125 
Q 45.015625 15.765625 45.015625 23.390625 
Q 45.015625 31 40.078125 35.4375 
Q 35.15625 39.890625 26.703125 39.890625 
Q 22.75 39.890625 18.8125 39.015625 
Q 14.890625 38.140625 10.796875 36.28125 
z
" id="DejaVuSans-35"/>
      </defs>
      <g transform="translate(10.8 361.610755)scale(0.1 -0.1)">
       <use xlink:href="#DejaVuSans-2212"/>
       <use x="83.789062" xlink:href="#DejaVuSans-30"/>
       <use x="147.412109" xlink:href="#DejaVuSans-2e"/>
       <use x="179.199219" xlink:href="#DejaVuSans-32"/>
       <use x="242.822266" xlink:href="#DejaVuSans-35"/>
      </g>
     </g>
    </g>
    <g id="ytick_2">
     <g id="line2d_8">
      <g>
       <use style="stroke:#000000;stroke-width:0.8;" x="48.445312" xlink:href="#m6d5354364c" y="306.860552"/>
      </g>
     </g>
     <g id="text_8">
      <!-- 0.00 -->
      <g transform="translate(19.179688 310.659771)scale(0.1 -0.1)">
       <use xlink:href="#DejaVuSans-30"/>
       <use x="63.623047" xlink:href="#DejaVuSans-2e"/>
       <use x="95.410156" xlink:href="#DejaVuSans-30"/>
       <use x="159.033203" xlink:href="#DejaVuSans-30"/>
      </g>
     </g>
    </g>
    <g id="ytick_3">
     <g id="line2d_9">
      <g>
       <use style="stroke:#000000;stroke-width:0.8;" x="48.445312" xlink:href="#m6d5354364c" y="255.909568"/>
      </g>
     </g>
     <g id="text_9">
      <!-- 0.25 -->
      <g transform="translate(19.179688 259.708787)scale(0.1 -0.1)">
       <use xlink:href="#DejaVuSans-30"/>
       <use x="63.623047" xlink:href="#DejaVuSans-2e"/>
       <use x="95.410156" xlink:href="#DejaVuSans-32"/>
       <use x="159.033203" xlink:href="#DejaVuSans-35"/>
      </g>
     </g>
    </g>
    <g id="ytick_4">
     <g id="line2d_10">
      <g>
       <use style="stroke:#000000;stroke-width:0.8;" x="48.445312" xlink:href="#m6d5354364c" y="204.958583"/>
      </g>
     </g>
     <g id="text_10">
      <!-- 0.50 -->
      <g transform="translate(19.179688 208.757802)scale(0.1 -0.1)">
       <use xlink:href="#DejaVuSans-30"/>
       <use x="63.623047" xlink:href="#DejaVuSans-2e"/>
       <use x="95.410156" xlink:href="#DejaVuSans-35"/>
       <use x="159.033203" xlink:href="#DejaVuSans-30"/>
      </g>
     </g>
    </g>
    <g id="ytick_5">
     <g id="line2d_11">
      <g>
       <use style="stroke:#000000;stroke-width:0.8;" x="48.445312" xlink:href="#m6d5354364c" y="154.007599"/>
      </g>
     </g>
     <g id="text_11">
      <!-- 0.75 -->
      <g transform="translate(19.179688 157.806818)scale(0.1 -0.1)">
       <use xlink:href="#DejaVuSans-30"/>
       <use x="63.623047" xlink:href="#DejaVuSans-2e"/>
       <use x="95.410156" xlink:href="#DejaVuSans-37"/>
       <use x="159.033203" xlink:href="#DejaVuSans-35"/>
      </g>
     </g>
    </g>
    <g id="ytick_6">
     <g id="line2d_12">
      <g>
       <use style="stroke:#000000;stroke-width:0.8;" x="48.445312" xlink:href="#m6d5354364c" y="103.056615"/>
      </g>
     </g>
     <g id="text_12">
      <!-- 1.00 -->
      <g transform="translate(19.179688 106.855833)scale(0.1 -0.1)">
       <use xlink:href="#DejaVuSans-31"/>
       <use x="63.623047" xlink:href="#DejaVuSans-2e"/>
       <use x="95.410156" xlink:href="#DejaVuSans-30"/>
       <use x="159.033203" xlink:href="#DejaVuSans-30"/>
      </g>
     </g>
    </g>
    <g id="ytick_7">
     <g id="line2d_13">
      <g>
       <use style="stroke:#000000;stroke-width:0.8;" x="48.445312" xlink:href="#m6d5354364c" y="52.10563"/>
      </g>
     </g>
     <g id="text_13">
      <!-- 1.25 -->
      <g transform="translate(19.179688 55.904849)scale(0.1 -0.1)">
       <use xlink:href="#DejaVuSans-31"/>
       <use x="63.623047" xlink:href="#DejaVuSans-2e"/>
       <use x="95.410156" xlink:href="#DejaVuSans-32"/>
       <use x="159.033203" xlink:href="#DejaVuSans-35"/>
      </g>
     </g>
    </g>
   </g>
   <g id="line2d_14">
    <path clip-path="url(#p7d1b9fb7fd)" d="M 80.320526 286.480158 
L 81.241431 304.822513 
L 82.13263 290.556237 
L 83.053535 317.050749 
L 83.944734 294.632316 
L 84.86564 319.088788 
L 85.786545 312.97467 
L 86.677744 298.708395 
L 87.59865 302.784473 
L 88.489849 304.822513 
L 89.410754 294.632316 
L 90.33166 288.518198 
L 91.163445 268.137804 
L 92.084351 274.251922 
L 92.97555 294.632316 
L 93.896455 302.784473 
L 94.787654 294.632316 
L 95.708559 308.898592 
L 96.629465 319.088788 
L 97.520664 325.202907 
L 98.441569 325.202907 
L 99.332768 312.97467 
L 100.253674 308.898592 
L 101.174579 278.328001 
L 102.036071 380.22997 
L 102.956977 339.469182 
L 104.769081 304.822513 
L 105.66028 310.936631 
L 106.581186 308.898592 
L 107.502091 296.670355 
L 108.39329 292.594277 
L 109.314196 329.278985 
L 110.205394 270.175843 
L 111.1263 292.594277 
L 112.047205 270.175843 
L 112.878991 288.518198 
L 113.799897 276.289962 
L 114.691095 280.36604 
L 115.612001 282.40408 
L 116.5032 312.97467 
L 117.424105 302.784473 
L 118.345011 296.670355 
L 119.23621 306.860552 
L 120.157115 300.746434 
L 121.048314 337.431143 
L 121.96922 290.556237 
L 122.890125 278.328001 
L 123.721911 282.40408 
L 124.642816 296.670355 
L 125.534015 319.088788 
L 126.454921 294.632316 
L 127.346119 310.936631 
L 128.267025 310.936631 
L 129.187931 308.898592 
L 130.079129 312.97467 
L 131.000035 294.632316 
L 131.891234 308.898592 
L 132.812139 312.97467 
L 133.733045 268.137804 
L 134.56483 333.355064 
L 135.485736 317.050749 
L 136.376935 325.202907 
L 137.29784 300.746434 
L 138.189039 290.556237 
L 139.109945 255.909568 
L 140.922049 276.289962 
L 141.842955 276.289962 
L 142.734153 306.860552 
L 144.575964 331.317025 
L 145.437457 351.697418 
L 146.358362 368.001733 
L 147.249561 357.811537 
L 148.170467 321.126828 
L 149.061665 321.126828 
L 149.982571 347.62134 
L 150.903476 363.925655 
L 151.794675 368.001733 
L 152.715581 349.659379 
L 153.60678 368.001733 
L 154.527685 325.202907 
L 155.448591 341.507222 
L 156.280376 329.278985 
L 157.201282 347.62134 
L 159.013386 323.164867 
L 159.904585 331.317025 
L 160.825491 308.898592 
L 161.746396 337.431143 
L 162.637595 315.01271 
L 163.5585 319.088788 
L 164.449699 317.050749 
L 165.370605 339.469182 
L 166.29151 306.860552 
L 167.123296 298.708395 
L 168.044201 333.355064 
L 168.9354 327.240946 
L 169.856306 302.784473 
L 170.747505 288.518198 
L 171.66841 327.240946 
L 172.589316 308.898592 
L 173.480515 337.431143 
L 174.40142 310.936631 
L 175.292619 319.088788 
L 176.213524 319.088788 
L 177.13443 347.62134 
L 177.966216 300.746434 
L 178.887121 317.050749 
L 179.77832 278.328001 
L 180.699225 323.164867 
L 181.590424 304.822513 
L 182.51133 302.784473 
L 183.432235 315.01271 
L 184.323434 294.632316 
L 185.24434 319.088788 
L 186.135539 310.936631 
L 187.056444 353.735458 
L 187.97735 337.431143 
L 188.838842 264.061725 
L 189.759747 317.050749 
L 190.650946 327.240946 
L 191.571852 319.088788 
L 192.463051 329.278985 
L 193.383956 329.278985 
L 194.304862 343.545261 
L 195.19606 282.40408 
L 196.116966 315.01271 
L 197.008165 335.393103 
L 197.92907 329.278985 
L 198.849976 335.393103 
L 199.681761 306.860552 
L 200.602667 268.137804 
L 201.493866 266.099765 
L 202.414771 296.670355 
L 203.30597 308.898592 
L 204.226876 300.746434 
L 205.147781 286.480158 
L 206.959886 282.40408 
L 207.851084 251.833489 
L 208.77199 288.518198 
L 209.692895 262.023686 
L 210.524681 290.556237 
L 211.445587 288.518198 
L 212.336785 317.050749 
L 213.257691 312.97467 
L 214.14889 315.01271 
L 215.069795 329.278985 
L 215.990701 284.442119 
L 216.8819 296.670355 
L 217.802805 304.822513 
L 218.694004 333.355064 
L 219.61491 310.936631 
L 220.535815 347.62134 
L 221.367601 343.545261 
L 222.288506 325.202907 
L 223.179705 319.088788 
L 224.100611 343.545261 
L 224.991809 331.317025 
L 225.912715 312.97467 
L 226.83362 308.898592 
L 227.724819 317.050749 
L 228.645725 315.01271 
L 229.536924 323.164867 
L 230.457829 355.773497 
L 231.378735 341.507222 
L 232.240227 302.784473 
L 233.161132 308.898592 
L 234.052331 312.97467 
L 234.973237 298.708395 
L 235.864436 302.784473 
L 236.785341 270.175843 
L 237.706247 300.746434 
L 238.597446 288.518198 
L 239.518351 300.746434 
L 240.40955 270.175843 
L 241.330456 249.79545 
L 242.251361 245.719371 
L 243.083147 253.871528 
L 244.004052 255.909568 
L 244.895251 253.871528 
L 245.816157 274.251922 
L 247.628261 302.784473 
L 248.549166 294.632316 
L 249.440365 282.40408 
L 250.361271 294.632316 
L 251.25247 319.088788 
L 252.173375 335.393103 
L 253.094281 363.925655 
L 253.926066 317.050749 
L 254.846972 327.240946 
L 255.738171 308.898592 
L 256.659076 317.050749 
L 257.550275 312.97467 
L 258.471181 282.40408 
L 259.392086 331.317025 
L 260.283285 321.126828 
L 261.20419 321.126828 
L 262.095389 325.202907 
L 263.016295 292.594277 
L 263.9372 292.594277 
L 264.768986 278.328001 
L 265.689891 294.632316 
L 266.58109 274.251922 
L 267.501996 310.936631 
L 268.393195 312.97467 
L 269.3141 347.62134 
L 270.235006 312.97467 
L 271.126205 325.202907 
L 272.04711 339.469182 
L 272.938309 341.507222 
L 273.859214 306.860552 
L 274.78012 319.088788 
L 275.641612 349.659379 
L 276.562518 327.240946 
L 277.453717 353.735458 
L 278.374622 337.431143 
L 279.265821 331.317025 
L 280.186726 343.545261 
L 281.107632 325.202907 
L 281.998831 359.849576 
L 282.919736 319.088788 
L 283.810935 288.518198 
L 284.731841 270.175843 
L 285.652746 266.099765 
L 286.484532 255.909568 
L 287.405437 251.833489 
L 288.296636 245.719371 
L 289.217542 255.909568 
L 290.108741 259.985647 
L 291.029646 268.137804 
L 291.950552 302.784473 
L 292.84175 298.708395 
L 293.762656 266.099765 
L 294.653855 296.670355 
L 295.57476 290.556237 
L 296.495666 278.328001 
L 297.327451 264.061725 
L 298.248357 276.289962 
L 299.139556 292.594277 
L 300.060461 312.97467 
L 300.95166 292.594277 
L 301.872566 343.545261 
L 302.793471 296.670355 
L 303.68467 306.860552 
L 304.605576 274.251922 
L 305.496774 284.442119 
L 306.41768 278.328001 
L 307.338585 325.202907 
L 308.170371 268.137804 
L 309.091277 280.36604 
L 309.982475 294.632316 
L 310.903381 278.328001 
L 311.79458 300.746434 
L 312.715485 278.328001 
L 313.636391 251.833489 
L 314.52759 253.871528 
L 315.448495 247.75741 
L 316.339694 211.072702 
L 317.2606 245.719371 
L 318.181505 221.262898 
L 319.042997 247.75741 
L 319.963903 241.643292 
L 320.855102 237.567213 
L 321.776007 274.251922 
L 322.667206 249.79545 
L 323.588112 257.947607 
L 324.509017 264.061725 
L 325.400216 266.099765 
L 326.321121 245.719371 
L 327.21232 264.061725 
L 328.133226 192.730347 
L 329.054131 223.300938 
L 329.885917 209.034662 
L 330.806822 241.643292 
L 331.698021 255.909568 
L 332.618927 243.681332 
L 333.510126 235.529174 
L 334.431031 235.529174 
L 335.351937 272.213883 
L 336.243136 280.36604 
L 337.164041 264.061725 
L 338.05524 225.338977 
L 338.976145 288.518198 
L 339.897051 278.328001 
L 340.728837 308.898592 
L 341.649742 286.480158 
L 342.540941 274.251922 
L 343.461846 296.670355 
L 344.353045 280.36604 
L 345.273951 290.556237 
L 346.194856 276.289962 
L 347.086055 280.36604 
L 348.006961 278.328001 
L 348.89816 219.224859 
L 349.819065 200.882505 
L 350.739971 225.338977 
L 351.571756 221.262898 
L 352.492662 245.719371 
L 353.383861 235.529174 
L 354.304766 270.175843 
L 355.195965 276.289962 
L 356.116871 245.719371 
L 357.037776 229.415056 
L 357.928975 276.289962 
L 358.84988 245.719371 
L 359.741079 272.213883 
L 360.661985 245.719371 
L 361.58289 272.213883 
L 362.444383 247.75741 
L 363.365288 290.556237 
L 364.256487 239.605253 
L 365.177392 298.708395 
L 366.068591 274.251922 
L 366.989497 276.289962 
L 367.910402 266.099765 
L 368.801601 276.289962 
L 370.613706 319.088788 
L 371.534611 264.061725 
L 372.455517 319.088788 
L 373.287302 272.213883 
L 374.208208 284.442119 
L 375.099407 272.213883 
L 376.020312 272.213883 
L 376.911511 306.860552 
L 377.832416 276.289962 
L 378.753322 278.328001 
L 379.644521 284.442119 
L 380.565426 288.518198 
L 381.456625 276.289962 
L 382.377531 245.719371 
L 383.298436 227.377017 
L 384.130222 247.75741 
L 385.051127 253.871528 
L 385.942326 253.871528 
L 386.863232 282.40408 
L 387.754431 280.36604 
L 388.675336 282.40408 
L 389.596242 302.784473 
L 390.48744 278.328001 
L 391.408346 284.442119 
L 392.299545 274.251922 
L 393.22045 233.491135 
L 394.141356 213.110741 
L 394.973141 272.213883 
L 395.894047 257.947607 
L 396.785246 253.871528 
L 398.59735 213.110741 
L 399.518256 249.79545 
L 400.439161 227.377017 
L 402.251266 255.909568 
L 403.142464 211.072702 
L 404.06337 190.692308 
L 404.984275 221.262898 
L 405.845768 206.996623 
L 406.766673 215.14878 
L 407.657872 217.18682 
L 408.578778 221.262898 
L 409.469976 235.529174 
L 410.390882 213.110741 
L 411.311787 221.262898 
L 412.202986 225.338977 
L 413.123892 280.36604 
L 414.015091 237.567213 
L 414.935996 274.251922 
L 415.856902 235.529174 
L 416.688687 233.491135 
L 417.609593 239.605253 
L 418.500792 272.213883 
L 419.421697 276.289962 
L 420.312896 237.567213 
L 421.233802 233.491135 
L 422.154707 231.453095 
L 423.045906 241.643292 
L 423.966811 264.061725 
L 424.85801 231.453095 
L 425.778916 223.300938 
L 426.699821 223.300938 
L 427.531607 151.96956 
L 428.452512 194.768387 
L 429.343711 213.110741 
L 430.264617 229.415056 
L 431.155816 217.18682 
L 432.076721 245.719371 
L 432.997627 245.719371 
L 433.888826 219.224859 
L 434.809731 213.110741 
L 435.70093 221.262898 
L 436.621835 221.262898 
L 437.542741 202.920544 
L 438.374527 233.491135 
L 439.295432 198.844465 
L 440.186631 227.377017 
L 441.107536 196.806426 
L 441.998735 202.920544 
L 442.919641 221.262898 
L 443.840546 204.958583 
L 444.731745 241.643292 
L 445.652651 243.681332 
L 446.54385 239.605253 
L 447.464755 215.14878 
L 448.385661 221.262898 
L 449.247153 211.072702 
L 450.168058 257.947607 
L 451.059257 241.643292 
L 451.980163 257.947607 
L 452.871362 280.36604 
L 453.792267 286.480158 
L 454.713173 304.822513 
L 455.604372 284.442119 
L 456.525277 298.708395 
L 457.416476 262.023686 
L 458.337381 231.453095 
L 459.258287 227.377017 
L 460.090073 233.491135 
L 461.010978 249.79545 
L 462.823082 257.947607 
L 463.714281 249.79545 
L 464.635187 280.36604 
L 465.556092 284.442119 
L 466.447291 257.947607 
L 467.368197 292.594277 
L 469.180301 245.719371 
L 470.101207 298.708395 
L 470.932992 253.871528 
L 471.853898 223.300938 
L 472.745097 247.75741 
L 473.666002 221.262898 
L 474.557201 241.643292 
L 475.478106 259.985647 
L 476.399012 241.643292 
L 477.290211 221.262898 
L 478.211116 213.110741 
L 479.102315 233.491135 
L 480.023221 204.958583 
L 480.944126 149.93152 
L 481.775912 215.14878 
L 482.696817 211.072702 
L 483.588016 247.75741 
L 484.508922 215.14878 
L 485.400121 206.996623 
L 486.321026 209.034662 
L 487.241932 237.567213 
L 488.13313 206.996623 
L 489.054036 215.14878 
L 489.945235 245.719371 
L 490.86614 251.833489 
L 491.787046 204.958583 
L 492.648538 237.567213 
L 493.569444 229.415056 
L 494.460642 245.719371 
L 495.381548 251.833489 
L 496.272747 231.453095 
L 497.193652 206.996623 
L 498.114558 251.833489 
L 499.005757 266.099765 
L 499.926662 221.262898 
L 500.817861 223.300938 
L 501.738767 239.605253 
L 502.659672 231.453095 
L 503.491458 200.882505 
L 504.412363 229.415056 
L 505.303562 227.377017 
L 506.224468 194.768387 
L 507.115666 235.529174 
L 508.036572 219.224859 
L 508.957477 192.730347 
L 509.848676 176.426032 
L 510.769582 172.349953 
L 511.660781 184.57819 
L 512.581686 182.54015 
L 513.502592 123.437008 
L 514.334377 178.464072 
L 515.255283 176.426032 
L 517.067387 147.893481 
L 517.958586 162.159757 
L 518.879492 168.273875 
L 519.800397 215.14878 
L 520.691596 211.072702 
L 521.612501 204.958583 
L 522.5037 192.730347 
L 523.424606 209.034662 
L 524.345511 172.349953 
L 525.177297 237.567213 
L 526.098202 237.567213 
L 526.989401 239.605253 
L 528.801506 223.300938 
L 529.722411 237.567213 
L 530.643317 219.224859 
L 531.534516 219.224859 
L 532.455421 221.262898 
L 533.34662 213.110741 
L 534.267525 253.871528 
L 535.188431 188.654268 
L 536.049923 184.57819 
L 536.970829 186.616229 
L 537.862028 225.338977 
L 538.782933 217.18682 
L 539.674132 221.262898 
L 540.595037 219.224859 
L 541.515943 221.262898 
L 542.407142 245.719371 
L 543.328047 237.567213 
L 544.219246 245.719371 
L 545.140152 217.18682 
L 546.061057 213.110741 
L 546.892843 188.654268 
L 547.813748 200.882505 
L 548.704947 186.616229 
L 549.625853 194.768387 
L 550.517052 182.54015 
L 551.437957 206.996623 
L 552.358863 192.730347 
L 553.250061 200.882505 
L 554.170967 164.197796 
L 555.062166 194.768387 
L 555.983071 154.007599 
L 556.903977 151.96956 
L 557.735762 121.398969 
L 558.656668 188.654268 
L 559.547867 174.387993 
L 560.468772 196.806426 
L 561.359971 180.502111 
L 562.280877 194.768387 
L 563.201782 174.387993 
L 564.092981 190.692308 
L 565.013887 186.616229 
L 565.905086 219.224859 
L 566.825991 158.083678 
L 567.746897 194.768387 
L 568.578682 190.692308 
L 569.499588 194.768387 
L 570.390787 180.502111 
L 571.311692 206.996623 
L 572.202891 194.768387 
L 573.123796 172.349953 
L 574.044702 172.349953 
L 574.935901 154.007599 
L 575.856806 194.768387 
L 576.748005 154.007599 
L 577.668911 186.616229 
L 578.589816 162.159757 
L 579.451308 176.426032 
L 580.372214 180.502111 
L 581.263413 221.262898 
L 582.184318 219.224859 
L 583.075517 253.871528 
L 583.996423 215.14878 
L 584.917328 198.844465 
L 585.808527 172.349953 
L 586.729433 160.121717 
L 587.620631 200.882505 
L 588.541537 160.121717 
L 589.462442 188.654268 
L 590.294228 166.235835 
L 591.215134 166.235835 
L 592.106332 174.387993 
L 593.027238 170.311914 
L 593.918437 172.349953 
L 594.839342 178.464072 
L 595.760248 147.893481 
L 596.651447 143.817402 
L 597.572352 151.96956 
L 598.463551 168.273875 
L 599.384457 190.692308 
L 600.305362 164.197796 
L 601.137148 178.464072 
L 602.058053 204.958583 
L 602.949252 211.072702 
L 603.870158 176.426032 
L 604.761356 196.806426 
L 605.682262 160.121717 
L 606.603167 176.426032 
L 607.494366 166.235835 
L 608.415272 160.121717 
L 609.306471 149.93152 
L 610.227376 111.208772 
L 611.148282 164.197796 
L 611.980067 164.197796 
L 612.900973 151.96956 
L 614.713077 188.654268 
L 615.604276 180.502111 
L 616.525182 184.57819 
L 617.446087 176.426032 
L 618.337286 184.57819 
L 619.258191 190.692308 
L 620.14939 204.958583 
L 621.070296 257.947607 
L 621.991201 233.491135 
L 622.852694 158.083678 
L 623.773599 198.844465 
L 624.664798 202.920544 
L 625.585703 209.034662 
L 626.476902 184.57819 
L 627.397808 217.18682 
L 628.318713 174.387993 
L 629.209912 170.311914 
L 630.130818 172.349953 
L 631.022017 196.806426 
L 631.942922 180.502111 
L 632.863828 198.844465 
L 633.695613 198.844465 
L 634.616519 182.54015 
L 635.507718 174.387993 
L 636.428623 174.387993 
L 637.319822 160.121717 
L 638.240727 172.349953 
L 639.161633 164.197796 
L 640.052832 176.426032 
L 640.973737 149.93152 
L 641.864936 174.387993 
L 642.785842 158.083678 
L 643.706747 147.893481 
L 644.538533 119.36093 
L 645.459438 129.551127 
L 647.271543 176.426032 
L 648.162742 180.502111 
L 649.083647 174.387993 
L 650.004553 182.54015 
L 650.895751 162.159757 
L 651.816657 145.855442 
L 652.707856 206.996623 
L 654.549667 198.844465 
L 655.381452 176.426032 
L 656.302358 174.387993 
L 657.193557 198.844465 
L 658.114462 186.616229 
L 659.005661 158.083678 
L 659.926567 158.083678 
L 660.847472 192.730347 
L 661.738671 172.349953 
L 662.659577 192.730347 
L 663.550775 196.806426 
L 664.471681 213.110741 
L 665.392586 206.996623 
L 666.254079 188.654268 
L 667.174984 166.235835 
L 668.066183 151.96956 
L 668.987089 180.502111 
L 669.878287 190.692308 
L 670.799193 178.464072 
L 671.720099 151.96956 
L 672.611297 147.893481 
L 673.532203 154.007599 
L 674.423402 198.844465 
L 675.344307 168.273875 
L 676.265213 194.768387 
L 677.096998 172.349953 
L 678.017904 200.882505 
L 678.909103 182.54015 
L 679.830008 174.387993 
L 680.721207 186.616229 
L 681.642113 172.349953 
L 682.563018 147.893481 
L 683.454217 166.235835 
L 684.375123 141.779363 
L 685.266321 170.311914 
L 686.187227 158.083678 
L 687.108132 202.920544 
L 687.939918 149.93152 
L 688.860824 147.893481 
L 689.752022 129.551127 
L 690.672928 172.349953 
L 691.564127 190.692308 
L 692.485032 139.741323 
L 693.405938 123.437008 
L 694.297137 133.627205 
L 695.218042 170.311914 
L 696.109241 145.855442 
L 697.030147 141.779363 
L 698.782838 123.437008 
L 699.703743 156.045638 
L 700.594942 147.893481 
L 701.515848 147.893481 
L 702.407046 162.159757 
L 703.327952 147.893481 
L 704.248857 141.779363 
L 705.140056 90.828379 
L 706.060962 94.904457 
L 706.952161 80.638182 
L 707.873066 68.409945 
L 708.793972 31.725237 
L 709.655464 41.915434 
L 710.576369 84.71426 
L 712.388474 151.96956 
L 713.279673 137.703284 
L 714.200578 107.132693 
L 715.121484 129.551127 
L 716.012683 125.475048 
L 716.933588 117.32289 
L 717.824787 141.779363 
L 717.824787 141.779363 
" style="fill:none;stroke:#1f77b4;stroke-linecap:square;stroke-width:1.5;"/>
   </g>
   <g id="patch_3">
    <path d="M 48.445312 397.655206 
L 48.445312 14.3 
" style="fill:none;stroke:#000000;stroke-linecap:square;stroke-linejoin:miter;stroke-width:0.8;"/>
   </g>
   <g id="patch_4">
    <path d="M 749.7 397.655206 
L 749.7 14.3 
" style="fill:none;stroke:#000000;stroke-linecap:square;stroke-linejoin:miter;stroke-width:0.8;"/>
   </g>
   <g id="patch_5">
    <path d="M 48.445312 397.655206 
L 749.7 397.655206 
" style="fill:none;stroke:#000000;stroke-linecap:square;stroke-linejoin:miter;stroke-width:0.8;"/>
   </g>
   <g id="patch_6">
    <path d="M 48.445312 14.3 
L 749.7 14.3 
" style="fill:none;stroke:#000000;stroke-linecap:square;stroke-linejoin:miter;stroke-width:0.8;"/>
   </g>
   <g id="text_14">
    <!-- &gt;1 degree -->
    <defs>
     <path d="M 10.59375 49.21875 
L 10.59375 58.109375 
L 73.1875 35.40625 
L 73.1875 27.296875 
L 10.59375 4.59375 
L 10.59375 13.484375 
L 60.890625 31.296875 
z
" id="DejaVuSans-3e"/>
     <path id="DejaVuSans-20"/>
     <path d="M 45.40625 46.390625 
L 45.40625 75.984375 
L 54.390625 75.984375 
L 54.390625 0 
L 45.40625 0 
L 45.40625 8.203125 
Q 42.578125 3.328125 38.25 0.953125 
Q 33.9375 -1.421875 27.875 -1.421875 
Q 17.96875 -1.421875 11.734375 6.484375 
Q 5.515625 14.40625 5.515625 27.296875 
Q 5.515625 40.1875 11.734375 48.09375 
Q 17.96875 56 27.875 56 
Q 33.9375 56 38.25 53.625 
Q 42.578125 51.265625 45.40625 46.390625 
z
M 14.796875 27.296875 
Q 14.796875 17.390625 18.875 11.75 
Q 22.953125 6.109375 30.078125 6.109375 
Q 37.203125 6.109375 41.296875 11.75 
Q 45.40625 17.390625 45.40625 27.296875 
Q 45.40625 37.203125 41.296875 42.84375 
Q 37.203125 48.484375 30.078125 48.484375 
Q 22.953125 48.484375 18.875 42.84375 
Q 14.796875 37.203125 14.796875 27.296875 
z
" id="DejaVuSans-64"/>
     <path d="M 56.203125 29.59375 
L 56.203125 25.203125 
L 14.890625 25.203125 
Q 15.484375 15.921875 20.484375 11.0625 
Q 25.484375 6.203125 34.421875 6.203125 
Q 39.59375 6.203125 44.453125 7.46875 
Q 49.3125 8.734375 54.109375 11.28125 
L 54.109375 2.78125 
Q 49.265625 0.734375 44.1875 -0.34375 
Q 39.109375 -1.421875 33.890625 -1.421875 
Q 20.796875 -1.421875 13.15625 6.1875 
Q 5.515625 13.8125 5.515625 26.8125 
Q 5.515625 40.234375 12.765625 48.109375 
Q 20.015625 56 32.328125 56 
Q 43.359375 56 49.78125 48.890625 
Q 56.203125 41.796875 56.203125 29.59375 
z
M 47.21875 32.234375 
Q 47.125 39.59375 43.09375 43.984375 
Q 39.0625 48.390625 32.421875 48.390625 
Q 24.90625 48.390625 20.390625 44.140625 
Q 15.875 39.890625 15.1875 32.171875 
z
" id="DejaVuSans-65"/>
     <path d="M 45.40625 27.984375 
Q 45.40625 37.75 41.375 43.109375 
Q 37.359375 48.484375 30.078125 48.484375 
Q 22.859375 48.484375 18.828125 43.109375 
Q 14.796875 37.75 14.796875 27.984375 
Q 14.796875 18.265625 18.828125 12.890625 
Q 22.859375 7.515625 30.078125 7.515625 
Q 37.359375 7.515625 41.375 12.890625 
Q 45.40625 18.265625 45.40625 27.984375 
z
M 54.390625 6.78125 
Q 54.390625 -7.171875 48.1875 -13.984375 
Q 42 -20.796875 29.203125 -20.796875 
Q 24.46875 -20.796875 20.265625 -20.09375 
Q 16.0625 -19.390625 12.109375 -17.921875 
L 12.109375 -9.1875 
Q 16.0625 -11.328125 19.921875 -12.34375 
Q 23.78125 -13.375 27.78125 -13.375 
Q 36.625 -13.375 41.015625 -8.765625 
Q 45.40625 -4.15625 45.40625 5.171875 
L 45.40625 9.625 
Q 42.625 4.78125 38.28125 2.390625 
Q 33.9375 0 27.875 0 
Q 17.828125 0 11.671875 7.65625 
Q 5.515625 15.328125 5.515625 27.984375 
Q 5.515625 40.671875 11.671875 48.328125 
Q 17.828125 56 27.875 56 
Q 33.9375 56 38.28125 53.609375 
Q 42.625 51.21875 45.40625 46.390625 
L 45.40625 54.6875 
L 54.390625 54.6875 
z
" id="DejaVuSans-67"/>
     <path d="M 41.109375 46.296875 
Q 39.59375 47.171875 37.8125 47.578125 
Q 36.03125 48 33.890625 48 
Q 26.265625 48 22.1875 43.046875 
Q 18.109375 38.09375 18.109375 28.8125 
L 18.109375 0 
L 9.078125 0 
L 9.078125 54.6875 
L 18.109375 54.6875 
L 18.109375 46.1875 
Q 20.953125 51.171875 25.484375 53.578125 
Q 30.03125 56 36.53125 56 
Q 37.453125 56 38.578125 55.875 
Q 39.703125 55.765625 41.0625 55.515625 
z
" id="DejaVuSans-72"/>
    </defs>
    <g transform="translate(705.140056 103.056615)scale(0.1 -0.1)">
     <use xlink:href="#DejaVuSans-3e"/>
     <use x="83.789062" xlink:href="#DejaVuSans-31"/>
     <use x="147.412109" xlink:href="#DejaVuSans-20"/>
     <use x="179.199219" xlink:href="#DejaVuSans-64"/>
     <use x="242.675781" xlink:href="#DejaVuSans-65"/>
     <use x="304.199219" xlink:href="#DejaVuSans-67"/>
     <use x="367.675781" xlink:href="#DejaVuSans-72"/>
     <use x="408.757812" xlink:href="#DejaVuSans-65"/>
     <use x="470.28125" xlink:href="#DejaVuSans-65"/>
    </g>
   </g>
  </g>
 </g>
 <defs>
  <clipPath id="p7d1b9fb7fd">
   <rect height="383.355206" width="701.254688" x="48.445312" y="14.3"/>
  </clipPath>
 </defs>
</svg>
