<?xml version="1.0" encoding="utf-8" standalone="no"?>
<!DOCTYPE svg PUBLIC "-//W3C//DTD SVG 1.1//EN"
  "http://www.w3.org/Graphics/SVG/1.1/DTD/svg11.dtd">
<!-- Created with matplotlib (http://matplotlib.org/) -->
<svg height="425.133331pt" version="1.1" viewBox="0 0 734 425.133331" width="734pt" xmlns="http://www.w3.org/2000/svg" xmlns:xlink="http://www.w3.org/1999/xlink">
 <defs>
  <style type="text/css">
*{stroke-linecap:butt;stroke-linejoin:round;}
  </style>
 </defs>
 <g id="figure_1">
  <g id="patch_1">
   <path d="M 0 425.133331 
L 734 425.133331 
L 734 0 
L 0 0 
z
" style="fill:#ffffff;"/>
  </g>
  <g id="axes_1">
   <g id="patch_2">
    <path d="M 50.565625 383.977081 
L 671.876562 383.977081 
L 671.876562 14.3 
L 50.565625 14.3 
z
" style="fill:#ffffff;"/>
   </g>
   <g id="matplotlib.axis_1">
    <g id="xtick_1">
     <g id="line2d_1">
      <defs>
       <path d="M 0 0 
L 0 3.5 
" id="m3e0a995fda" style="stroke:#000000;stroke-width:0.8;"/>
      </defs>
      <g>
       <use style="stroke:#000000;stroke-width:0.8;" x="96.33618" xlink:href="#m3e0a995fda" y="383.977081"/>
      </g>
     </g>
     <g id="text_1">
      <!-- 1960 -->
      <defs>
       <path d="M 12.40625 8.296875 
L 28.515625 8.296875 
L 28.515625 63.921875 
L 10.984375 60.40625 
L 10.984375 69.390625 
L 28.421875 72.90625 
L 38.28125 72.90625 
L 38.28125 8.296875 
L 54.390625 8.296875 
L 54.390625 0 
L 12.40625 0 
z
" id="DejaVuSans-31"/>
       <path d="M 10.984375 1.515625 
L 10.984375 10.5 
Q 14.703125 8.734375 18.5 7.8125 
Q 22.3125 6.890625 25.984375 6.890625 
Q 35.75 6.890625 40.890625 13.453125 
Q 46.046875 20.015625 46.78125 33.40625 
Q 43.953125 29.203125 39.59375 26.953125 
Q 35.25 24.703125 29.984375 24.703125 
Q 19.046875 24.703125 12.671875 31.3125 
Q 6.296875 37.9375 6.296875 49.421875 
Q 6.296875 60.640625 12.9375 67.421875 
Q 19.578125 74.21875 30.609375 74.21875 
Q 43.265625 74.21875 49.921875 64.515625 
Q 56.59375 54.828125 56.59375 36.375 
Q 56.59375 19.140625 48.40625 8.859375 
Q 40.234375 -1.421875 26.421875 -1.421875 
Q 22.703125 -1.421875 18.890625 -0.6875 
Q 15.09375 0.046875 10.984375 1.515625 
z
M 30.609375 32.421875 
Q 37.25 32.421875 41.125 36.953125 
Q 45.015625 41.5 45.015625 49.421875 
Q 45.015625 57.28125 41.125 61.84375 
Q 37.25 66.40625 30.609375 66.40625 
Q 23.96875 66.40625 20.09375 61.84375 
Q 16.21875 57.28125 16.21875 49.421875 
Q 16.21875 41.5 20.09375 36.953125 
Q 23.96875 32.421875 30.609375 32.421875 
z
" id="DejaVuSans-39"/>
       <path d="M 33.015625 40.375 
Q 26.375 40.375 22.484375 35.828125 
Q 18.609375 31.296875 18.609375 23.390625 
Q 18.609375 15.53125 22.484375 10.953125 
Q 26.375 6.390625 33.015625 6.390625 
Q 39.65625 6.390625 43.53125 10.953125 
Q 47.40625 15.53125 47.40625 23.390625 
Q 47.40625 31.296875 43.53125 35.828125 
Q 39.65625 40.375 33.015625 40.375 
z
M 52.59375 71.296875 
L 52.59375 62.3125 
Q 48.875 64.0625 45.09375 64.984375 
Q 41.3125 65.921875 37.59375 65.921875 
Q 27.828125 65.921875 22.671875 59.328125 
Q 17.53125 52.734375 16.796875 39.40625 
Q 19.671875 43.65625 24.015625 45.921875 
Q 28.375 48.1875 33.59375 48.1875 
Q 44.578125 48.1875 50.953125 41.515625 
Q 57.328125 34.859375 57.328125 23.390625 
Q 57.328125 12.15625 50.6875 5.359375 
Q 44.046875 -1.421875 33.015625 -1.421875 
Q 20.359375 -1.421875 13.671875 8.265625 
Q 6.984375 17.96875 6.984375 36.375 
Q 6.984375 53.65625 15.1875 63.9375 
Q 23.390625 74.21875 37.203125 74.21875 
Q 40.921875 74.21875 44.703125 73.484375 
Q 48.484375 72.75 52.59375 71.296875 
z
" id="DejaVuSans-36"/>
       <path d="M 31.78125 66.40625 
Q 24.171875 66.40625 20.328125 58.90625 
Q 16.5 51.421875 16.5 36.375 
Q 16.5 21.390625 20.328125 13.890625 
Q 24.171875 6.390625 31.78125 6.390625 
Q 39.453125 6.390625 43.28125 13.890625 
Q 47.125 21.390625 47.125 36.375 
Q 47.125 51.421875 43.28125 58.90625 
Q 39.453125 66.40625 31.78125 66.40625 
z
M 31.78125 74.21875 
Q 44.046875 74.21875 50.515625 64.515625 
Q 56.984375 54.828125 56.984375 36.375 
Q 56.984375 17.96875 50.515625 8.265625 
Q 44.046875 -1.421875 31.78125 -1.421875 
Q 19.53125 -1.421875 13.0625 8.265625 
Q 6.59375 17.96875 6.59375 36.375 
Q 6.59375 54.828125 13.0625 64.515625 
Q 19.53125 74.21875 31.78125 74.21875 
z
" id="DejaVuSans-30"/>
      </defs>
      <g transform="translate(83.61118 398.575519)scale(0.1 -0.1)">
       <use xlink:href="#DejaVuSans-31"/>
       <use x="63.623047" xlink:href="#DejaVuSans-39"/>
       <use x="127.246094" xlink:href="#DejaVuSans-36"/>
       <use x="190.869141" xlink:href="#DejaVuSans-30"/>
      </g>
     </g>
    </g>
    <g id="xtick_2">
     <g id="line2d_2">
      <g>
       <use style="stroke:#000000;stroke-width:0.8;" x="192.483297" xlink:href="#m3e0a995fda" y="383.977081"/>
      </g>
     </g>
     <g id="text_2">
      <!-- 1970 -->
      <defs>
       <path d="M 8.203125 72.90625 
L 55.078125 72.90625 
L 55.078125 68.703125 
L 28.609375 0 
L 18.3125 0 
L 43.21875 64.59375 
L 8.203125 64.59375 
z
" id="DejaVuSans-37"/>
      </defs>
      <g transform="translate(179.758297 398.575519)scale(0.1 -0.1)">
       <use xlink:href="#DejaVuSans-31"/>
       <use x="63.623047" xlink:href="#DejaVuSans-39"/>
       <use x="127.246094" xlink:href="#DejaVuSans-37"/>
       <use x="190.869141" xlink:href="#DejaVuSans-30"/>
      </g>
     </g>
    </g>
    <g id="xtick_3">
     <g id="line2d_3">
      <g>
       <use style="stroke:#000000;stroke-width:0.8;" x="288.604095" xlink:href="#m3e0a995fda" y="383.977081"/>
      </g>
     </g>
     <g id="text_3">
      <!-- 1980 -->
      <defs>
       <path d="M 31.78125 34.625 
Q 24.75 34.625 20.71875 30.859375 
Q 16.703125 27.09375 16.703125 20.515625 
Q 16.703125 13.921875 20.71875 10.15625 
Q 24.75 6.390625 31.78125 6.390625 
Q 38.8125 6.390625 42.859375 10.171875 
Q 46.921875 13.96875 46.921875 20.515625 
Q 46.921875 27.09375 42.890625 30.859375 
Q 38.875 34.625 31.78125 34.625 
z
M 21.921875 38.8125 
Q 15.578125 40.375 12.03125 44.71875 
Q 8.5 49.078125 8.5 55.328125 
Q 8.5 64.0625 14.71875 69.140625 
Q 20.953125 74.21875 31.78125 74.21875 
Q 42.671875 74.21875 48.875 69.140625 
Q 55.078125 64.0625 55.078125 55.328125 
Q 55.078125 49.078125 51.53125 44.71875 
Q 48 40.375 41.703125 38.8125 
Q 48.828125 37.15625 52.796875 32.3125 
Q 56.78125 27.484375 56.78125 20.515625 
Q 56.78125 9.90625 50.3125 4.234375 
Q 43.84375 -1.421875 31.78125 -1.421875 
Q 19.734375 -1.421875 13.25 4.234375 
Q 6.78125 9.90625 6.78125 20.515625 
Q 6.78125 27.484375 10.78125 32.3125 
Q 14.796875 37.15625 21.921875 38.8125 
z
M 18.3125 54.390625 
Q 18.3125 48.734375 21.84375 45.5625 
Q 25.390625 42.390625 31.78125 42.390625 
Q 38.140625 42.390625 41.71875 45.5625 
Q 45.3125 48.734375 45.3125 54.390625 
Q 45.3125 60.0625 41.71875 63.234375 
Q 38.140625 66.40625 31.78125 66.40625 
Q 25.390625 66.40625 21.84375 63.234375 
Q 18.3125 60.0625 18.3125 54.390625 
z
" id="DejaVuSans-38"/>
      </defs>
      <g transform="translate(275.879095 398.575519)scale(0.1 -0.1)">
       <use xlink:href="#DejaVuSans-31"/>
       <use x="63.623047" xlink:href="#DejaVuSans-39"/>
       <use x="127.246094" xlink:href="#DejaVuSans-38"/>
       <use x="190.869141" xlink:href="#DejaVuSans-30"/>
      </g>
     </g>
    </g>
    <g id="xtick_4">
     <g id="line2d_4">
      <g>
       <use style="stroke:#000000;stroke-width:0.8;" x="384.751212" xlink:href="#m3e0a995fda" y="383.977081"/>
      </g>
     </g>
     <g id="text_4">
      <!-- 1990 -->
      <g transform="translate(372.026212 398.575519)scale(0.1 -0.1)">
       <use xlink:href="#DejaVuSans-31"/>
       <use x="63.623047" xlink:href="#DejaVuSans-39"/>
       <use x="127.246094" xlink:href="#DejaVuSans-39"/>
       <use x="190.869141" xlink:href="#DejaVuSans-30"/>
      </g>
     </g>
    </g>
    <g id="xtick_5">
     <g id="line2d_5">
      <g>
       <use style="stroke:#000000;stroke-width:0.8;" x="480.87201" xlink:href="#m3e0a995fda" y="383.977081"/>
      </g>
     </g>
     <g id="text_5">
      <!-- 2000 -->
      <defs>
       <path d="M 19.1875 8.296875 
L 53.609375 8.296875 
L 53.609375 0 
L 7.328125 0 
L 7.328125 8.296875 
Q 12.9375 14.109375 22.625 23.890625 
Q 32.328125 33.6875 34.8125 36.53125 
Q 39.546875 41.84375 41.421875 45.53125 
Q 43.3125 49.21875 43.3125 52.78125 
Q 43.3125 58.59375 39.234375 62.25 
Q 35.15625 65.921875 28.609375 65.921875 
Q 23.96875 65.921875 18.8125 64.3125 
Q 13.671875 62.703125 7.8125 59.421875 
L 7.8125 69.390625 
Q 13.765625 71.78125 18.9375 73 
Q 24.125 74.21875 28.421875 74.21875 
Q 39.75 74.21875 46.484375 68.546875 
Q 53.21875 62.890625 53.21875 53.421875 
Q 53.21875 48.921875 51.53125 44.890625 
Q 49.859375 40.875 45.40625 35.40625 
Q 44.1875 33.984375 37.640625 27.21875 
Q 31.109375 20.453125 19.1875 8.296875 
z
" id="DejaVuSans-32"/>
      </defs>
      <g transform="translate(468.14701 398.575519)scale(0.1 -0.1)">
       <use xlink:href="#DejaVuSans-32"/>
       <use x="63.623047" xlink:href="#DejaVuSans-30"/>
       <use x="127.246094" xlink:href="#DejaVuSans-30"/>
       <use x="190.869141" xlink:href="#DejaVuSans-30"/>
      </g>
     </g>
    </g>
    <g id="xtick_6">
     <g id="line2d_6">
      <g>
       <use style="stroke:#000000;stroke-width:0.8;" x="577.019127" xlink:href="#m3e0a995fda" y="383.977081"/>
      </g>
     </g>
     <g id="text_6">
      <!-- 2010 -->
      <g transform="translate(564.294127 398.575519)scale(0.1 -0.1)">
       <use xlink:href="#DejaVuSans-32"/>
       <use x="63.623047" xlink:href="#DejaVuSans-30"/>
       <use x="127.246094" xlink:href="#DejaVuSans-31"/>
       <use x="190.869141" xlink:href="#DejaVuSans-30"/>
      </g>
     </g>
    </g>
    <g id="text_7">
     <!-- Time (years) -->
     <defs>
      <path d="M -0.296875 72.90625 
L 61.375 72.90625 
L 61.375 64.59375 
L 35.5 64.59375 
L 35.5 0 
L 25.59375 0 
L 25.59375 64.59375 
L -0.296875 64.59375 
z
" id="DejaVuSans-54"/>
      <path d="M 9.421875 54.6875 
L 18.40625 54.6875 
L 18.40625 0 
L 9.421875 0 
z
M 9.421875 75.984375 
L 18.40625 75.984375 
L 18.40625 64.59375 
L 9.421875 64.59375 
z
" id="DejaVuSans-69"/>
      <path d="M 52 44.1875 
Q 55.375 50.25 60.0625 53.125 
Q 64.75 56 71.09375 56 
Q 79.640625 56 84.28125 50.015625 
Q 88.921875 44.046875 88.921875 33.015625 
L 88.921875 0 
L 79.890625 0 
L 79.890625 32.71875 
Q 79.890625 40.578125 77.09375 44.375 
Q 74.3125 48.1875 68.609375 48.1875 
Q 61.625 48.1875 57.5625 43.546875 
Q 53.515625 38.921875 53.515625 30.90625 
L 53.515625 0 
L 44.484375 0 
L 44.484375 32.71875 
Q 44.484375 40.625 41.703125 44.40625 
Q 38.921875 48.1875 33.109375 48.1875 
Q 26.21875 48.1875 22.15625 43.53125 
Q 18.109375 38.875 18.109375 30.90625 
L 18.109375 0 
L 9.078125 0 
L 9.078125 54.6875 
L 18.109375 54.6875 
L 18.109375 46.1875 
Q 21.1875 51.21875 25.484375 53.609375 
Q 29.78125 56 35.6875 56 
Q 41.65625 56 45.828125 52.96875 
Q 50 49.953125 52 44.1875 
z
" id="DejaVuSans-6d"/>
      <path d="M 56.203125 29.59375 
L 56.203125 25.203125 
L 14.890625 25.203125 
Q 15.484375 15.921875 20.484375 11.0625 
Q 25.484375 6.203125 34.421875 6.203125 
Q 39.59375 6.203125 44.453125 7.46875 
Q 49.3125 8.734375 54.109375 11.28125 
L 54.109375 2.78125 
Q 49.265625 0.734375 44.1875 -0.34375 
Q 39.109375 -1.421875 33.890625 -1.421875 
Q 20.796875 -1.421875 13.15625 6.1875 
Q 5.515625 13.8125 5.515625 26.8125 
Q 5.515625 40.234375 12.765625 48.109375 
Q 20.015625 56 32.328125 56 
Q 43.359375 56 49.78125 48.890625 
Q 56.203125 41.796875 56.203125 29.59375 
z
M 47.21875 32.234375 
Q 47.125 39.59375 43.09375 43.984375 
Q 39.0625 48.390625 32.421875 48.390625 
Q 24.90625 48.390625 20.390625 44.140625 
Q 15.875 39.890625 15.1875 32.171875 
z
" id="DejaVuSans-65"/>
      <path id="DejaVuSans-20"/>
      <path d="M 31 75.875 
Q 24.46875 64.65625 21.28125 53.65625 
Q 18.109375 42.671875 18.109375 31.390625 
Q 18.109375 20.125 21.3125 9.0625 
Q 24.515625 -2 31 -13.1875 
L 23.1875 -13.1875 
Q 15.875 -1.703125 12.234375 9.375 
Q 8.59375 20.453125 8.59375 31.390625 
Q 8.59375 42.28125 12.203125 53.3125 
Q 15.828125 64.359375 23.1875 75.875 
z
" id="DejaVuSans-28"/>
      <path d="M 32.171875 -5.078125 
Q 28.375 -14.84375 24.75 -17.8125 
Q 21.140625 -20.796875 15.09375 -20.796875 
L 7.90625 -20.796875 
L 7.90625 -13.28125 
L 13.1875 -13.28125 
Q 16.890625 -13.28125 18.9375 -11.515625 
Q 21 -9.765625 23.484375 -3.21875 
L 25.09375 0.875 
L 2.984375 54.6875 
L 12.5 54.6875 
L 29.59375 11.921875 
L 46.6875 54.6875 
L 56.203125 54.6875 
z
" id="DejaVuSans-79"/>
      <path d="M 34.28125 27.484375 
Q 23.390625 27.484375 19.1875 25 
Q 14.984375 22.515625 14.984375 16.5 
Q 14.984375 11.71875 18.140625 8.90625 
Q 21.296875 6.109375 26.703125 6.109375 
Q 34.1875 6.109375 38.703125 11.40625 
Q 43.21875 16.703125 43.21875 25.484375 
L 43.21875 27.484375 
z
M 52.203125 31.203125 
L 52.203125 0 
L 43.21875 0 
L 43.21875 8.296875 
Q 40.140625 3.328125 35.546875 0.953125 
Q 30.953125 -1.421875 24.3125 -1.421875 
Q 15.921875 -1.421875 10.953125 3.296875 
Q 6 8.015625 6 15.921875 
Q 6 25.140625 12.171875 29.828125 
Q 18.359375 34.515625 30.609375 34.515625 
L 43.21875 34.515625 
L 43.21875 35.40625 
Q 43.21875 41.609375 39.140625 45 
Q 35.0625 48.390625 27.6875 48.390625 
Q 23 48.390625 18.546875 47.265625 
Q 14.109375 46.140625 10.015625 43.890625 
L 10.015625 52.203125 
Q 14.9375 54.109375 19.578125 55.046875 
Q 24.21875 56 28.609375 56 
Q 40.484375 56 46.34375 49.84375 
Q 52.203125 43.703125 52.203125 31.203125 
z
" id="DejaVuSans-61"/>
      <path d="M 41.109375 46.296875 
Q 39.59375 47.171875 37.8125 47.578125 
Q 36.03125 48 33.890625 48 
Q 26.265625 48 22.1875 43.046875 
Q 18.109375 38.09375 18.109375 28.8125 
L 18.109375 0 
L 9.078125 0 
L 9.078125 54.6875 
L 18.109375 54.6875 
L 18.109375 46.1875 
Q 20.953125 51.171875 25.484375 53.578125 
Q 30.03125 56 36.53125 56 
Q 37.453125 56 38.578125 55.875 
Q 39.703125 55.765625 41.0625 55.515625 
z
" id="DejaVuSans-72"/>
      <path d="M 44.28125 53.078125 
L 44.28125 44.578125 
Q 40.484375 46.53125 36.375 47.5 
Q 32.28125 48.484375 27.875 48.484375 
Q 21.1875 48.484375 17.84375 46.4375 
Q 14.5 44.390625 14.5 40.28125 
Q 14.5 37.15625 16.890625 35.375 
Q 19.28125 33.59375 26.515625 31.984375 
L 29.59375 31.296875 
Q 39.15625 29.25 43.1875 25.515625 
Q 47.21875 21.78125 47.21875 15.09375 
Q 47.21875 7.46875 41.1875 3.015625 
Q 35.15625 -1.421875 24.609375 -1.421875 
Q 20.21875 -1.421875 15.453125 -0.5625 
Q 10.6875 0.296875 5.421875 2 
L 5.421875 11.28125 
Q 10.40625 8.6875 15.234375 7.390625 
Q 20.0625 6.109375 24.8125 6.109375 
Q 31.15625 6.109375 34.5625 8.28125 
Q 37.984375 10.453125 37.984375 14.40625 
Q 37.984375 18.0625 35.515625 20.015625 
Q 33.0625 21.96875 24.703125 23.78125 
L 21.578125 24.515625 
Q 13.234375 26.265625 9.515625 29.90625 
Q 5.8125 33.546875 5.8125 39.890625 
Q 5.8125 47.609375 11.28125 51.796875 
Q 16.75 56 26.8125 56 
Q 31.78125 56 36.171875 55.265625 
Q 40.578125 54.546875 44.28125 53.078125 
z
" id="DejaVuSans-73"/>
      <path d="M 8.015625 75.875 
L 15.828125 75.875 
Q 23.140625 64.359375 26.78125 53.3125 
Q 30.421875 42.28125 30.421875 31.390625 
Q 30.421875 20.453125 26.78125 9.375 
Q 23.140625 -1.703125 15.828125 -13.1875 
L 8.015625 -13.1875 
Q 14.5 -2 17.703125 9.0625 
Q 20.90625 20.125 20.90625 31.390625 
Q 20.90625 42.671875 17.703125 53.65625 
Q 14.5 64.65625 8.015625 75.875 
z
" id="DejaVuSans-29"/>
     </defs>
     <g transform="translate(329.582812 412.253644)scale(0.1 -0.1)">
      <use xlink:href="#DejaVuSans-54"/>
      <use x="61.037109" xlink:href="#DejaVuSans-69"/>
      <use x="88.820312" xlink:href="#DejaVuSans-6d"/>
      <use x="186.232422" xlink:href="#DejaVuSans-65"/>
      <use x="247.755859" xlink:href="#DejaVuSans-20"/>
      <use x="279.542969" xlink:href="#DejaVuSans-28"/>
      <use x="318.556641" xlink:href="#DejaVuSans-79"/>
      <use x="377.736328" xlink:href="#DejaVuSans-65"/>
      <use x="439.259766" xlink:href="#DejaVuSans-61"/>
      <use x="500.539062" xlink:href="#DejaVuSans-72"/>
      <use x="541.652344" xlink:href="#DejaVuSans-73"/>
      <use x="593.751953" xlink:href="#DejaVuSans-29"/>
     </g>
    </g>
   </g>
   <g id="matplotlib.axis_2">
    <g id="ytick_1">
     <g id="line2d_7">
      <defs>
       <path d="M 0 0 
L -3.5 0 
" id="mf647e1d2e7" style="stroke:#0000ff;stroke-width:0.8;"/>
      </defs>
      <g>
       <use style="fill:#0000ff;stroke:#0000ff;stroke-width:0.8;" x="50.565625" xlink:href="#mf647e1d2e7" y="342.995874"/>
      </g>
     </g>
     <g id="text_8">
      <!-- 320 -->
      <defs>
       <path d="M 40.578125 39.3125 
Q 47.65625 37.796875 51.625 33 
Q 55.609375 28.21875 55.609375 21.1875 
Q 55.609375 10.40625 48.1875 4.484375 
Q 40.765625 -1.421875 27.09375 -1.421875 
Q 22.515625 -1.421875 17.65625 -0.515625 
Q 12.796875 0.390625 7.625 2.203125 
L 7.625 11.71875 
Q 11.71875 9.328125 16.59375 8.109375 
Q 21.484375 6.890625 26.8125 6.890625 
Q 36.078125 6.890625 40.9375 10.546875 
Q 45.796875 14.203125 45.796875 21.1875 
Q 45.796875 27.640625 41.28125 31.265625 
Q 36.765625 34.90625 28.71875 34.90625 
L 20.21875 34.90625 
L 20.21875 43.015625 
L 29.109375 43.015625 
Q 36.375 43.015625 40.234375 45.921875 
Q 44.09375 48.828125 44.09375 54.296875 
Q 44.09375 59.90625 40.109375 62.90625 
Q 36.140625 65.921875 28.71875 65.921875 
Q 24.65625 65.921875 20.015625 65.03125 
Q 15.375 64.15625 9.8125 62.3125 
L 9.8125 71.09375 
Q 15.4375 72.65625 20.34375 73.4375 
Q 25.25 74.21875 29.59375 74.21875 
Q 40.828125 74.21875 47.359375 69.109375 
Q 53.90625 64.015625 53.90625 55.328125 
Q 53.90625 49.265625 50.4375 45.09375 
Q 46.96875 40.921875 40.578125 39.3125 
z
" id="DejaVuSans-33"/>
      </defs>
      <g style="fill:#0000ff;" transform="translate(24.478125 346.795093)scale(0.1 -0.1)">
       <use xlink:href="#DejaVuSans-33"/>
       <use x="63.623047" xlink:href="#DejaVuSans-32"/>
       <use x="127.246094" xlink:href="#DejaVuSans-30"/>
      </g>
     </g>
    </g>
    <g id="ytick_2">
     <g id="line2d_8">
      <g>
       <use style="fill:#0000ff;stroke:#0000ff;stroke-width:0.8;" x="50.565625" xlink:href="#mf647e1d2e7" y="271.884983"/>
      </g>
     </g>
     <g id="text_9">
      <!-- 340 -->
      <defs>
       <path d="M 37.796875 64.3125 
L 12.890625 25.390625 
L 37.796875 25.390625 
z
M 35.203125 72.90625 
L 47.609375 72.90625 
L 47.609375 25.390625 
L 58.015625 25.390625 
L 58.015625 17.1875 
L 47.609375 17.1875 
L 47.609375 0 
L 37.796875 0 
L 37.796875 17.1875 
L 4.890625 17.1875 
L 4.890625 26.703125 
z
" id="DejaVuSans-34"/>
      </defs>
      <g style="fill:#0000ff;" transform="translate(24.478125 275.684202)scale(0.1 -0.1)">
       <use xlink:href="#DejaVuSans-33"/>
       <use x="63.623047" xlink:href="#DejaVuSans-34"/>
       <use x="127.246094" xlink:href="#DejaVuSans-30"/>
      </g>
     </g>
    </g>
    <g id="ytick_3">
     <g id="line2d_9">
      <g>
       <use style="fill:#0000ff;stroke:#0000ff;stroke-width:0.8;" x="50.565625" xlink:href="#mf647e1d2e7" y="200.774091"/>
      </g>
     </g>
     <g id="text_10">
      <!-- 360 -->
      <g style="fill:#0000ff;" transform="translate(24.478125 204.57331)scale(0.1 -0.1)">
       <use xlink:href="#DejaVuSans-33"/>
       <use x="63.623047" xlink:href="#DejaVuSans-36"/>
       <use x="127.246094" xlink:href="#DejaVuSans-30"/>
      </g>
     </g>
    </g>
    <g id="ytick_4">
     <g id="line2d_10">
      <g>
       <use style="fill:#0000ff;stroke:#0000ff;stroke-width:0.8;" x="50.565625" xlink:href="#mf647e1d2e7" y="129.6632"/>
      </g>
     </g>
     <g id="text_11">
      <!-- 380 -->
      <g style="fill:#0000ff;" transform="translate(24.478125 133.462418)scale(0.1 -0.1)">
       <use xlink:href="#DejaVuSans-33"/>
       <use x="63.623047" xlink:href="#DejaVuSans-38"/>
       <use x="127.246094" xlink:href="#DejaVuSans-30"/>
      </g>
     </g>
    </g>
    <g id="ytick_5">
     <g id="line2d_11">
      <g>
       <use style="fill:#0000ff;stroke:#0000ff;stroke-width:0.8;" x="50.565625" xlink:href="#mf647e1d2e7" y="58.552308"/>
      </g>
     </g>
     <g id="text_12">
      <!-- 400 -->
      <g style="fill:#0000ff;" transform="translate(24.478125 62.351527)scale(0.1 -0.1)">
       <use xlink:href="#DejaVuSans-34"/>
       <use x="63.623047" xlink:href="#DejaVuSans-30"/>
       <use x="127.246094" xlink:href="#DejaVuSans-30"/>
      </g>
     </g>
    </g>
    <g id="text_13">
     <!-- CO2 levels -->
     <defs>
      <path d="M 64.40625 67.28125 
L 64.40625 56.890625 
Q 59.421875 61.53125 53.78125 63.8125 
Q 48.140625 66.109375 41.796875 66.109375 
Q 29.296875 66.109375 22.65625 58.46875 
Q 16.015625 50.828125 16.015625 36.375 
Q 16.015625 21.96875 22.65625 14.328125 
Q 29.296875 6.6875 41.796875 6.6875 
Q 48.140625 6.6875 53.78125 8.984375 
Q 59.421875 11.28125 64.40625 15.921875 
L 64.40625 5.609375 
Q 59.234375 2.09375 53.4375 0.328125 
Q 47.65625 -1.421875 41.21875 -1.421875 
Q 24.65625 -1.421875 15.125 8.703125 
Q 5.609375 18.84375 5.609375 36.375 
Q 5.609375 53.953125 15.125 64.078125 
Q 24.65625 74.21875 41.21875 74.21875 
Q 47.75 74.21875 53.53125 72.484375 
Q 59.328125 70.75 64.40625 67.28125 
z
" id="DejaVuSans-43"/>
      <path d="M 39.40625 66.21875 
Q 28.65625 66.21875 22.328125 58.203125 
Q 16.015625 50.203125 16.015625 36.375 
Q 16.015625 22.609375 22.328125 14.59375 
Q 28.65625 6.59375 39.40625 6.59375 
Q 50.140625 6.59375 56.421875 14.59375 
Q 62.703125 22.609375 62.703125 36.375 
Q 62.703125 50.203125 56.421875 58.203125 
Q 50.140625 66.21875 39.40625 66.21875 
z
M 39.40625 74.21875 
Q 54.734375 74.21875 63.90625 63.9375 
Q 73.09375 53.65625 73.09375 36.375 
Q 73.09375 19.140625 63.90625 8.859375 
Q 54.734375 -1.421875 39.40625 -1.421875 
Q 24.03125 -1.421875 14.8125 8.828125 
Q 5.609375 19.09375 5.609375 36.375 
Q 5.609375 53.65625 14.8125 63.9375 
Q 24.03125 74.21875 39.40625 74.21875 
z
" id="DejaVuSans-4f"/>
      <path d="M 9.421875 75.984375 
L 18.40625 75.984375 
L 18.40625 0 
L 9.421875 0 
z
" id="DejaVuSans-6c"/>
      <path d="M 2.984375 54.6875 
L 12.5 54.6875 
L 29.59375 8.796875 
L 46.6875 54.6875 
L 56.203125 54.6875 
L 35.6875 0 
L 23.484375 0 
z
" id="DejaVuSans-76"/>
     </defs>
     <g style="fill:#0000ff;" transform="translate(18.398438 225.831509)rotate(-90)scale(0.1 -0.1)">
      <use xlink:href="#DejaVuSans-43"/>
      <use x="69.824219" xlink:href="#DejaVuSans-4f"/>
      <use x="148.535156" xlink:href="#DejaVuSans-32"/>
      <use x="212.158203" xlink:href="#DejaVuSans-20"/>
      <use x="243.945312" xlink:href="#DejaVuSans-6c"/>
      <use x="271.728516" xlink:href="#DejaVuSans-65"/>
      <use x="333.251953" xlink:href="#DejaVuSans-76"/>
      <use x="392.431641" xlink:href="#DejaVuSans-65"/>
      <use x="453.955078" xlink:href="#DejaVuSans-6c"/>
      <use x="481.738281" xlink:href="#DejaVuSans-73"/>
     </g>
    </g>
   </g>
   <g id="line2d_12">
    <path clip-path="url(#p829fda5e05)" d="M 78.807031 358.249161 
L 79.622953 352.062513 
L 80.412554 351.884736 
M 82.018077 357.715829 
L 82.833998 361.022485 
L 83.649919 367.173578 
M 85.255442 366.711357 
L 86.045043 361.946927 
L 86.860964 358.56916 
L 87.676886 355.866946 
L 88.413847 354.693616 
L 89.229768 351.102516 
L 90.01937 349.075856 
L 90.835291 349.573632 
L 92.440814 361.484706 
L 93.256735 364.898029 
L 94.046336 366.960245 
L 94.862258 361.484706 
L 96.46778 355.689169 
L 97.283702 353.769175 
L 98.046983 351.600292 
L 98.862904 346.480308 
L 99.652505 342.889208 
L 100.468427 344.453648 
L 101.258028 349.466966 
L 102.073949 357.538052 
L 102.889871 363.760255 
L 103.679472 364.933585 
L 105.284995 356.542499 
L 106.916837 351.173627 
L 108.46972 344.844758 
L 109.259321 340.933659 
L 110.075242 343.81365 
L 110.864844 348.080303 
L 112.496686 361.484706 
L 113.286288 359.42249 
L 114.102209 356.862498 
L 115.707732 350.320296 
L 116.523653 348.115859 
L 117.260614 344.133649 
L 118.076536 340.755881 
L 118.866137 339.404774 
L 119.682058 341.040325 
L 120.471659 344.489203 
L 121.287581 352.24029 
L 122.103502 356.293611 
L 122.893103 359.280269 
L 123.709025 354.764727 
L 125.314547 347.475861 
L 126.130469 346.266975 
L 126.86743 343.493651 
L 127.683351 338.053667 
L 128.472953 334.995899 
L 129.288874 337.769224 
L 131.710318 356.471388 
L 132.499919 357.253608 
L 134.105442 349.004745 
L 134.921363 344.524759 
M 138.106088 334.995899 
L 138.92201 336.275895 
L 139.711611 341.431435 
L 140.527532 347.618082 
L 141.343454 354.729172 
L 142.133055 354.409173 
L 143.738578 347.582527 
L 144.554499 344.986979 
L 145.37042 341.431435 
L 146.107381 339.83144 
L 146.923303 335.422564 
L 147.712904 335.315898 
L 148.528825 336.347006 
L 149.318427 338.053667 
L 150.134348 347.226972 
L 150.950269 350.782517 
L 151.739871 352.595845 
L 152.555792 347.01364 
L 153.345393 345.05809 
L 154.161315 340.791437 
L 155.714197 334.498123 
L 156.530119 329.235917 
L 157.31972 328.738141 
L 158.135641 329.662582 
L 158.925242 334.498123 
L 159.741164 341.680323 
L 160.557085 347.831415 
L 161.346686 349.751409 
L 162.162608 343.742539 
L 162.952209 339.155886 
L 163.76813 335.635897 
L 164.584052 334.107013 
L 165.321013 332.187019 
L 166.136934 327.280367 
L 166.926536 325.218152 
L 167.742457 328.453697 
L 170.163901 345.4492 
L 170.953502 345.4492 
L 172.559025 336.027007 
L 174.190867 331.795909 
L 174.954149 329.164806 
L 175.77007 325.147041 
L 176.559671 323.191491 
L 177.375593 323.938155 
L 178.165194 328.27592 
L 178.981115 335.778119 
L 179.797037 341.538101 
L 180.586638 342.106988 
L 181.402559 338.338111 
L 182.192161 332.898128 
L 183.008082 328.773696 
L 183.824003 327.280367 
L 184.560964 322.942603 
L 185.376886 319.315948 
L 186.166487 316.898177 
L 186.982408 318.960393 
L 187.77201 322.089272 
L 188.587931 329.947026 
L 189.403852 334.533678 
L 190.193454 336.667005 
L 191.009375 332.862572 
L 191.798976 328.382586 
L 194.16778 318.569283 
L 194.983702 314.089297 
L 195.773303 314.30263 
L 196.589224 315.760403 
L 197.378825 320.418166 
L 199.010668 331.973686 
L 199.800269 331.760354 
L 200.616191 328.844807 
L 202.221713 321.058164 
L 203.774596 317.467064 
L 204.590517 315.333738 
L 205.380119 311.280417 
L 206.19604 312.524857 
L 206.985641 316.898177 
L 208.617484 331.049245 
L 209.407085 330.30258 
L 211.012608 321.627052 
L 212.64445 315.867069 
L 213.407732 315.440404 
L 214.223653 308.435981 
L 215.013254 307.191541 
L 216.618777 314.373741 
L 217.434698 320.524833 
L 218.25062 325.46704 
L 219.040221 325.004819 
L 219.856142 319.884835 
L 221.461665 312.631524 
L 222.277586 309.004868 
L 223.014547 306.373765 
L 223.830469 302.107112 
L 224.62007 298.622678 
L 225.435991 300.080451 
L 226.225593 304.347105 
L 227.041514 309.893754 
L 227.857435 316.293735 
L 228.647037 317.467064 
L 229.462958 313.982631 
L 230.252559 312.275969 
L 231.068481 309.751533 
L 231.884402 304.915992 
L 232.621363 302.178223 
L 233.437284 298.018235 
L 234.226886 296.062686 
L 235.832408 303.635996 
L 237.464251 316.969288 
L 238.253852 317.11151 
L 239.069774 313.484854 
L 240.675296 304.844881 
L 241.491218 302.249334 
L 242.228179 300.684894 
L 243.0441 296.169352 
L 243.833702 293.431583 
L 244.649623 295.1738 
L 245.439224 300.40045 
L 246.255145 307.618206 
L 247.071067 312.773745 
L 247.860668 313.307077 
L 248.676589 309.680422 
M 250.282112 301.787113 
L 251.098033 297.662681 
L 251.861315 294.924912 
L 252.677236 290.942702 
L 253.466837 290.480481 
L 254.282759 293.21825 
L 255.07236 296.560462 
L 255.888281 305.022658 
L 256.704203 311.17375 
L 257.493804 311.884859 
L 259.099327 301.680446 
L 259.915248 297.98268 
L 260.731169 296.311574 
L 261.46813 289.840483 
L 262.284052 285.64494 
L 263.073653 282.800505 
L 263.889574 285.502719 
L 264.679176 290.089371 
L 265.495097 298.338234 
L 266.311018 302.853776 
L 267.10062 302.924887 
L 268.706142 294.640468 
L 269.522064 289.840483 
L 270.337985 288.77382 
L 271.074946 283.760502 
L 271.890867 280.098291 
L 272.680469 278.889406 
L 273.49639 278.960517 
L 274.285991 284.649388 
L 275.917834 299.013788 
L 276.707435 298.871566 
L 278.312958 290.01826 
L 279.128879 285.609385 
L 279.944801 283.653835 
L 280.681762 278.036075 
L 281.497683 275.618305 
L 282.287284 274.693863 
L 283.103206 274.516086 
L 285.52465 293.289361 
L 286.314251 292.542697 
L 287.130172 288.560487 
L 287.919774 283.22717 
L 288.735695 279.351626 
L 289.551616 277.787187 
L 290.314898 271.849427 
L 291.130819 268.578326 
L 291.92042 266.622777 
L 292.736342 267.156109 
L 293.525943 274.01831 
L 295.157786 285.431608 
L 295.947387 285.573829 
L 297.552909 277.858298 
L 298.368831 274.409419 
L 299.921713 266.160556 
L 300.737635 262.889455 
L 301.527236 261.111683 
L 302.343157 262.8539 
L 303.132759 269.111658 
L 303.94868 277.431632 
L 304.764601 282.729394 
L 305.554203 282.267173 
L 307.159725 272.311648 
L 307.975647 268.47166 
L 308.791568 265.733891 
L 310.34445 257.769471 
L 311.134052 255.422811 
L 311.949973 258.409469 
L 312.739574 263.636119 
L 313.555496 271.564984 
L 314.371417 278.000519 
L 315.161018 277.964964 
L 316.766541 268.684993 
L 317.582462 265.911668 
L 318.398384 261.573904 
L 319.135345 260.045019 
L 319.951266 253.218374 
L 320.740867 250.445049 
L 321.556789 251.867267 
L 322.34639 256.987251 
L 323.978233 270.640542 
L 324.767834 270.533876 
L 325.583755 266.231667 
L 326.373357 261.040572 
L 327.189278 257.30725 
L 328.768481 252.258377 
M 330.374003 244.756178 
L 331.189925 247.102837 
L 331.979526 252.222821 
L 333.611369 266.90722 
L 334.40097 265.947223 
L 335.216891 260.862795 
L 336.006492 255.173923 
L 336.822414 253.360596 
L 337.638335 249.982828 
L 338.375296 244.365068 
L 339.191218 242.231741 
L 339.980819 239.671749 
L 340.79674 242.089519 
L 343.218184 260.258352 
L 344.007786 260.756128 
L 345.613308 250.978381 
L 347.245151 246.000618 
L 347.982112 243.405071 
L 348.798033 237.147312 
L 349.587635 234.97843 
L 350.403556 236.578425 
L 352.009079 250.267272 
L 352.825 253.32504 
L 353.614601 255.849477 
L 355.220124 246.213951 
L 356.036045 241.591743 
L 356.851967 240.845079 
L 357.588928 237.289534 
L 358.404849 231.671774 
L 359.19445 228.898449 
L 360.010372 230.889554 
L 360.799973 235.938427 
L 361.615894 243.156183 
L 362.431816 248.702832 
L 363.221417 248.453944 
L 364.82694 239.316194 
L 366.458782 230.498444 
L 367.222064 227.760675 
L 368.037985 223.209577 
L 368.827586 221.360694 
L 369.643508 223.102911 
L 370.433109 226.765122 
L 371.24903 234.907319 
L 372.064952 240.169525 
L 372.854553 239.422861 
L 373.670474 235.618428 
L 374.460075 231.316219 
L 375.275997 225.982902 
L 376.091918 224.702906 
L 376.828879 222.24958 
L 377.644801 216.276266 
L 378.434402 215.494046 
L 379.250323 217.236263 
L 380.039925 222.142914 
L 380.855846 229.894001 
L 381.671767 236.15176 
L 382.461369 235.440651 
L 385.698734 218.409592 
L 386.435695 215.956267 
L 387.251616 213.858495 
L 388.041218 210.302951 
L 388.857139 213.787384 
L 389.64674 219.120701 
L 391.278583 231.671774 
L 392.068184 230.569555 
L 393.673707 220.934029 
L 394.489628 219.120701 
L 395.30555 215.956267 
L 396.042511 210.62295 
L 396.858432 205.538521 
L 397.648033 203.867415 
L 398.463955 207.42296 
L 399.253556 214.320716 
L 400.069477 222.64069 
L 400.885399 228.329562 
L 401.675 227.974007 
L 403.280523 218.125149 
L 404.096444 214.107383 
L 405.675647 208.382957 
L 406.491568 204.009637 
L 407.281169 202.231864 
L 408.097091 203.156306 
L 409.702613 218.765147 
L 410.518534 225.805125 
L 411.308136 224.525129 
L 412.124057 220.969584 
L 413.72958 211.440725 
L 414.545501 210.338506 
L 415.282462 206.214074 
L 416.098384 203.369639 
L 416.887985 200.098538 
L 417.703906 202.480753 
L 418.493508 210.267395 
L 420.12535 222.000692 
L 420.914952 221.680693 
L 421.730873 217.094041 
L 422.520474 211.760724 
L 423.336395 207.03185 
L 424.152317 204.614079 
L 425.705199 196.400771 
L 426.494801 194.907443 
L 427.310722 197.8941 
L 428.100323 202.978529 
L 429.732166 215.956267 
L 430.521767 214.747381 
L 432.12729 204.400747 
L 434.496094 194.267445 
L 435.312015 189.040794 
L 436.101616 187.654132 
L 436.917538 189.431904 
L 437.707139 194.942998 
L 438.52306 203.90297 
L 439.338982 207.280738 
L 440.128583 207.920736 
L 441.734106 198.356321 
L 442.550027 193.414114 
L 443.365948 189.254127 
L 444.12923 185.94747 
L 444.945151 184.525252 
L 445.734752 182.534147 
L 446.550673 183.280812 
L 447.340275 188.151908 
L 448.156196 195.86744 
L 448.972117 202.409642 
L 449.761719 202.26742 
L 451.367241 192.809671 
L 452.999084 186.445246 
L 453.736045 184.738585 
L 454.551967 178.196383 
L 455.341568 177.165275 
L 456.157489 180.898597 
L 456.947091 185.449694 
L 458.578933 199.742983 
L 459.368534 197.858545 
L 460.184456 191.920785 
L 460.974057 185.200806 
L 461.789978 182.071927 
L 462.6059 179.511935 
L 464.158782 169.983075 
L 464.948384 167.280861 
L 465.764305 168.809745 
L 466.553906 172.969733 
L 468.185749 186.480802 
L 468.97535 185.129695 
L 469.791272 181.147485 
L 470.580873 175.423058 
L 471.396794 171.689736 
L 472.212716 168.525302 
L 472.949677 166.35642 
L 473.765598 161.698656 
L 474.555199 161.805323 
L 475.371121 164.151982 
L 476.160722 167.174195 
L 476.976643 176.240834 
L 477.792565 183.671922 
L 478.582166 181.680817 
L 481.00361 167.743082 
L 481.819531 166.854196 
L 483.398734 158.78311 
L 484.188335 159.600885 
L 485.004256 159.17422 
L 486.609779 171.867514 
L 487.4257 175.885279 
L 488.215302 175.778613 
L 489.820824 166.391975 
L 493.00555 153.23646 
L 493.795151 151.529799 
L 494.611072 153.805347 
L 497.032516 171.689736 
L 497.822117 170.729739 
L 498.638039 166.071976 
L 499.42764 160.80977 
L 500.243561 156.223118 
L 501.059483 153.840903 
L 502.612365 147.369812 
L 503.401967 144.738709 
L 504.217888 145.592039 
L 505.007489 150.960912 
L 505.823411 158.640888 
L 506.639332 162.551987 
L 507.428933 163.263096 
L 509.034456 151.743131 
L 509.850377 147.867588 
L 510.666298 145.165374 
L 511.40326 142.285383 
L 512.219181 137.734286 
L 513.008782 134.640962 
L 513.824704 135.778736 
L 514.614305 141.396497 
L 515.430226 149.64536 
L 516.246148 153.947569 
L 517.035749 154.054235 
L 518.641272 143.920933 
L 521.036395 133.645409 
L 521.852317 128.418759 
L 522.641918 127.458762 
L 523.457839 130.765418 
L 524.247441 138.658727 
L 525.063362 143.849822 
L 525.879283 150.107581 
L 526.668885 149.360916 
L 527.484806 143.316491 
L 528.274407 138.516506 
L 529.090329 135.138738 
L 531.459133 121.521002 
L 532.248734 120.952115 
L 533.064655 121.805446 
L 533.854256 127.032097 
L 535.486099 141.396497 
L 536.2757 140.329833 
L 537.091622 135.529848 
L 537.881223 129.27209 
L 538.697144 124.756548 
L 539.513066 121.876557 
L 540.250027 120.169895 
L 541.065948 113.272139 
L 541.85555 111.77881 
L 542.671471 115.263244 
L 543.461072 120.91656 
L 544.276994 128.205426 
L 545.092915 133.752076 
L 545.882516 132.756523 
L 546.698437 129.129868 
L 547.488039 123.192108 
L 549.119881 115.796576 
L 549.856843 113.378805 
L 550.672764 106.55216 
L 551.462365 106.338827 
L 552.278287 107.974378 
L 553.067888 113.663249 
L 553.883809 122.587666 
L 554.699731 126.249877 
L 555.489332 125.68099 
L 556.305253 120.952115 
L 557.910776 110.036593 
L 558.726697 108.96993 
L 559.489978 108.223266 
L 560.3059 104.027723 
L 561.095501 99.298849 
L 561.911422 102.072174 
L 562.701024 107.049936 
L 563.516945 115.121022 
L 564.332866 118.356568 
L 565.122468 119.032121 
L 565.938389 114.765468 
L 567.543912 104.98772 
L 568.359833 103.067726 
L 569.096794 98.303296 
L 569.912716 95.707749 
L 570.702317 93.609977 
L 571.518238 95.956637 
L 572.307839 101.112177 
L 573.123761 107.938822 
L 573.939682 112.809918 
L 574.729283 113.912137 
L 576.334806 103.281059 
L 577.150727 98.694406 
L 577.966649 93.396645 
L 578.70361 89.947767 
L 579.519531 85.361114 
L 580.309133 83.44112 
L 581.125054 86.463333 
L 582.730577 99.974402 
L 583.546498 105.307719 
L 584.336099 103.921057 
L 585.15202 98.836628 
L 585.941622 94.854418 
L 586.757543 89.378879 
L 587.573464 87.494441 
L 588.310426 84.863338 
L 589.126347 82.552234 
L 589.915948 79.210022 
L 590.73187 80.845572 
L 591.521471 85.183337 
L 592.337392 93.645533 
L 593.153314 97.378855 
L 593.942915 97.663298 
L 594.758836 93.112201 
L 595.548437 87.494441 
L 596.364359 83.014455 
L 597.18028 80.383352 
L 597.943561 78.463358 
L 598.759483 72.134488 
L 599.549084 70.143383 
L 600.365005 73.805594 
L 601.154607 78.605579 
L 601.970528 85.610002 
L 602.786449 90.161099 
L 603.576051 90.374432 
L 604.391972 83.512231 
L 605.181573 78.67669 
L 606.813416 69.930051 
L 607.550377 67.690057 
L 608.366298 64.205624 
L 609.1559 59.334528 
L 610.761422 68.081167 
L 611.577344 75.618922 
L 612.393265 81.841125 
L 613.182866 80.952239 
L 613.998788 75.761144 
L 614.788389 69.787829 
L 615.60431 66.196729 
L 616.420232 65.627842 
L 617.157193 59.370083 
L 617.973114 53.645656 
L 618.762716 52.223439 
L 619.578637 54.107877 
L 621.184159 69.112275 
L 622.000081 74.978924 
L 622.789682 72.66782 
L 623.605603 68.223389 
L 624.395205 62.427851 
L 625.211126 58.623419 
L 626.027047 57.556755 
L 626.764009 53.076769 
L 627.57993 46.890122 
L 628.369531 44.472351 
L 629.185453 48.596783 
L 629.975054 53.894544 
L 630.790975 62.356741 
L 631.606897 66.978949 
L 632.396498 64.632289 
L 634.00202 51.97455 
L 634.817942 49.450114 
L 635.633863 43.903464 
L 636.397144 41.236806 
L 637.213066 32.063501 
L 638.002667 31.103504 
L 638.818588 34.267938 
L 639.60819 42.872356 
L 640.424111 50.481222 
L 641.240032 54.818986 
L 642.029634 52.898992 
L 642.845555 45.930125 
L 643.635156 42.730134 
L 643.635156 42.730134 
" style="fill:none;stroke:#0000ff;stroke-linecap:square;stroke-width:1.5;"/>
   </g>
   <g id="patch_3">
    <path d="M 50.565625 383.977081 
L 50.565625 14.3 
" style="fill:none;stroke:#000000;stroke-linecap:square;stroke-linejoin:miter;stroke-width:0.8;"/>
   </g>
   <g id="patch_4">
    <path d="M 671.876562 383.977081 
L 671.876562 14.3 
" style="fill:none;stroke:#000000;stroke-linecap:square;stroke-linejoin:miter;stroke-width:0.8;"/>
   </g>
   <g id="patch_5">
    <path d="M 50.565625 383.977081 
L 671.876562 383.977081 
" style="fill:none;stroke:#000000;stroke-linecap:square;stroke-linejoin:miter;stroke-width:0.8;"/>
   </g>
   <g id="patch_6">
    <path d="M 50.565625 14.3 
L 671.876562 14.3 
" style="fill:none;stroke:#000000;stroke-linecap:square;stroke-linejoin:miter;stroke-width:0.8;"/>
   </g>
  </g>
  <g id="axes_2">
   <g id="matplotlib.axis_3">
    <g id="ytick_6">
     <g id="line2d_13">
      <defs>
       <path d="M 0 0 
L 3.5 0 
" id="m074b538cc1" style="stroke:#ff0000;stroke-width:0.8;"/>
      </defs>
      <g>
       <use style="fill:#ff0000;stroke:#ff0000;stroke-width:0.8;" x="671.876562" xlink:href="#m074b538cc1" y="345.555035"/>
      </g>
     </g>
     <g id="text_14">
      <!-- −0.25 -->
      <defs>
       <path d="M 10.59375 35.5 
L 73.1875 35.5 
L 73.1875 27.203125 
L 10.59375 27.203125 
z
" id="DejaVuSans-2212"/>
       <path d="M 10.6875 12.40625 
L 21 12.40625 
L 21 0 
L 10.6875 0 
z
" id="DejaVuSans-2e"/>
       <path d="M 10.796875 72.90625 
L 49.515625 72.90625 
L 49.515625 64.59375 
L 19.828125 64.59375 
L 19.828125 46.734375 
Q 21.96875 47.46875 24.109375 47.828125 
Q 26.265625 48.1875 28.421875 48.1875 
Q 40.625 48.1875 47.75 41.5 
Q 54.890625 34.8125 54.890625 23.390625 
Q 54.890625 11.625 47.5625 5.09375 
Q 40.234375 -1.421875 26.90625 -1.421875 
Q 22.3125 -1.421875 17.546875 -0.640625 
Q 12.796875 0.140625 7.71875 1.703125 
L 7.71875 11.625 
Q 12.109375 9.234375 16.796875 8.0625 
Q 21.484375 6.890625 26.703125 6.890625 
Q 35.15625 6.890625 40.078125 11.328125 
Q 45.015625 15.765625 45.015625 23.390625 
Q 45.015625 31 40.078125 35.4375 
Q 35.15625 39.890625 26.703125 39.890625 
Q 22.75 39.890625 18.8125 39.015625 
Q 14.890625 38.140625 10.796875 36.28125 
z
" id="DejaVuSans-35"/>
      </defs>
      <g style="fill:#ff0000;" transform="translate(678.876562 349.354254)scale(0.1 -0.1)">
       <use xlink:href="#DejaVuSans-2212"/>
       <use x="83.789062" xlink:href="#DejaVuSans-30"/>
       <use x="147.412109" xlink:href="#DejaVuSans-2e"/>
       <use x="179.199219" xlink:href="#DejaVuSans-32"/>
       <use x="242.822266" xlink:href="#DejaVuSans-35"/>
      </g>
     </g>
    </g>
    <g id="ytick_7">
     <g id="line2d_14">
      <g>
       <use style="fill:#ff0000;stroke:#ff0000;stroke-width:0.8;" x="671.876562" xlink:href="#m074b538cc1" y="296.421983"/>
      </g>
     </g>
     <g id="text_15">
      <!-- 0.00 -->
      <g style="fill:#ff0000;" transform="translate(678.876562 300.221202)scale(0.1 -0.1)">
       <use xlink:href="#DejaVuSans-30"/>
       <use x="63.623047" xlink:href="#DejaVuSans-2e"/>
       <use x="95.410156" xlink:href="#DejaVuSans-30"/>
       <use x="159.033203" xlink:href="#DejaVuSans-30"/>
      </g>
     </g>
    </g>
    <g id="ytick_8">
     <g id="line2d_15">
      <g>
       <use style="fill:#ff0000;stroke:#ff0000;stroke-width:0.8;" x="671.876562" xlink:href="#m074b538cc1" y="247.288931"/>
      </g>
     </g>
     <g id="text_16">
      <!-- 0.25 -->
      <g style="fill:#ff0000;" transform="translate(678.876562 251.08815)scale(0.1 -0.1)">
       <use xlink:href="#DejaVuSans-30"/>
       <use x="63.623047" xlink:href="#DejaVuSans-2e"/>
       <use x="95.410156" xlink:href="#DejaVuSans-32"/>
       <use x="159.033203" xlink:href="#DejaVuSans-35"/>
      </g>
     </g>
    </g>
    <g id="ytick_9">
     <g id="line2d_16">
      <g>
       <use style="fill:#ff0000;stroke:#ff0000;stroke-width:0.8;" x="671.876562" xlink:href="#m074b538cc1" y="198.15588"/>
      </g>
     </g>
     <g id="text_17">
      <!-- 0.50 -->
      <g style="fill:#ff0000;" transform="translate(678.876562 201.955098)scale(0.1 -0.1)">
       <use xlink:href="#DejaVuSans-30"/>
       <use x="63.623047" xlink:href="#DejaVuSans-2e"/>
       <use x="95.410156" xlink:href="#DejaVuSans-35"/>
       <use x="159.033203" xlink:href="#DejaVuSans-30"/>
      </g>
     </g>
    </g>
    <g id="ytick_10">
     <g id="line2d_17">
      <g>
       <use style="fill:#ff0000;stroke:#ff0000;stroke-width:0.8;" x="671.876562" xlink:href="#m074b538cc1" y="149.022828"/>
      </g>
     </g>
     <g id="text_18">
      <!-- 0.75 -->
      <g style="fill:#ff0000;" transform="translate(678.876562 152.822047)scale(0.1 -0.1)">
       <use xlink:href="#DejaVuSans-30"/>
       <use x="63.623047" xlink:href="#DejaVuSans-2e"/>
       <use x="95.410156" xlink:href="#DejaVuSans-37"/>
       <use x="159.033203" xlink:href="#DejaVuSans-35"/>
      </g>
     </g>
    </g>
    <g id="ytick_11">
     <g id="line2d_18">
      <g>
       <use style="fill:#ff0000;stroke:#ff0000;stroke-width:0.8;" x="671.876562" xlink:href="#m074b538cc1" y="99.889776"/>
      </g>
     </g>
     <g id="text_19">
      <!-- 1.00 -->
      <g style="fill:#ff0000;" transform="translate(678.876562 103.688995)scale(0.1 -0.1)">
       <use xlink:href="#DejaVuSans-31"/>
       <use x="63.623047" xlink:href="#DejaVuSans-2e"/>
       <use x="95.410156" xlink:href="#DejaVuSans-30"/>
       <use x="159.033203" xlink:href="#DejaVuSans-30"/>
      </g>
     </g>
    </g>
    <g id="ytick_12">
     <g id="line2d_19">
      <g>
       <use style="fill:#ff0000;stroke:#ff0000;stroke-width:0.8;" x="671.876562" xlink:href="#m074b538cc1" y="50.756724"/>
      </g>
     </g>
     <g id="text_20">
      <!-- 1.25 -->
      <g style="fill:#ff0000;" transform="translate(678.876562 54.555943)scale(0.1 -0.1)">
       <use xlink:href="#DejaVuSans-31"/>
       <use x="63.623047" xlink:href="#DejaVuSans-2e"/>
       <use x="95.410156" xlink:href="#DejaVuSans-32"/>
       <use x="159.033203" xlink:href="#DejaVuSans-35"/>
      </g>
     </g>
    </g>
    <g id="text_21">
     <!-- Relative temp (Celsius) -->
     <defs>
      <path d="M 44.390625 34.1875 
Q 47.5625 33.109375 50.5625 29.59375 
Q 53.5625 26.078125 56.59375 19.921875 
L 66.609375 0 
L 56 0 
L 46.6875 18.703125 
Q 43.0625 26.03125 39.671875 28.421875 
Q 36.28125 30.8125 30.421875 30.8125 
L 19.671875 30.8125 
L 19.671875 0 
L 9.8125 0 
L 9.8125 72.90625 
L 32.078125 72.90625 
Q 44.578125 72.90625 50.734375 67.671875 
Q 56.890625 62.453125 56.890625 51.90625 
Q 56.890625 45.015625 53.6875 40.46875 
Q 50.484375 35.9375 44.390625 34.1875 
z
M 19.671875 64.796875 
L 19.671875 38.921875 
L 32.078125 38.921875 
Q 39.203125 38.921875 42.84375 42.21875 
Q 46.484375 45.515625 46.484375 51.90625 
Q 46.484375 58.296875 42.84375 61.546875 
Q 39.203125 64.796875 32.078125 64.796875 
z
" id="DejaVuSans-52"/>
      <path d="M 18.3125 70.21875 
L 18.3125 54.6875 
L 36.8125 54.6875 
L 36.8125 47.703125 
L 18.3125 47.703125 
L 18.3125 18.015625 
Q 18.3125 11.328125 20.140625 9.421875 
Q 21.96875 7.515625 27.59375 7.515625 
L 36.8125 7.515625 
L 36.8125 0 
L 27.59375 0 
Q 17.1875 0 13.234375 3.875 
Q 9.28125 7.765625 9.28125 18.015625 
L 9.28125 47.703125 
L 2.6875 47.703125 
L 2.6875 54.6875 
L 9.28125 54.6875 
L 9.28125 70.21875 
z
" id="DejaVuSans-74"/>
      <path d="M 18.109375 8.203125 
L 18.109375 -20.796875 
L 9.078125 -20.796875 
L 9.078125 54.6875 
L 18.109375 54.6875 
L 18.109375 46.390625 
Q 20.953125 51.265625 25.265625 53.625 
Q 29.59375 56 35.59375 56 
Q 45.5625 56 51.78125 48.09375 
Q 58.015625 40.1875 58.015625 27.296875 
Q 58.015625 14.40625 51.78125 6.484375 
Q 45.5625 -1.421875 35.59375 -1.421875 
Q 29.59375 -1.421875 25.265625 0.953125 
Q 20.953125 3.328125 18.109375 8.203125 
z
M 48.6875 27.296875 
Q 48.6875 37.203125 44.609375 42.84375 
Q 40.53125 48.484375 33.40625 48.484375 
Q 26.265625 48.484375 22.1875 42.84375 
Q 18.109375 37.203125 18.109375 27.296875 
Q 18.109375 17.390625 22.1875 11.75 
Q 26.265625 6.109375 33.40625 6.109375 
Q 40.53125 6.109375 44.609375 11.75 
Q 48.6875 17.390625 48.6875 27.296875 
z
" id="DejaVuSans-70"/>
      <path d="M 8.5 21.578125 
L 8.5 54.6875 
L 17.484375 54.6875 
L 17.484375 21.921875 
Q 17.484375 14.15625 20.5 10.265625 
Q 23.53125 6.390625 29.59375 6.390625 
Q 36.859375 6.390625 41.078125 11.03125 
Q 45.3125 15.671875 45.3125 23.6875 
L 45.3125 54.6875 
L 54.296875 54.6875 
L 54.296875 0 
L 45.3125 0 
L 45.3125 8.40625 
Q 42.046875 3.421875 37.71875 1 
Q 33.40625 -1.421875 27.6875 -1.421875 
Q 18.265625 -1.421875 13.375 4.4375 
Q 8.5 10.296875 8.5 21.578125 
z
M 31.109375 56 
z
" id="DejaVuSans-75"/>
     </defs>
     <g style="fill:#ff0000;" transform="translate(721.120313 257.409634)rotate(-90)scale(0.1 -0.1)">
      <use xlink:href="#DejaVuSans-52"/>
      <use x="69.419922" xlink:href="#DejaVuSans-65"/>
      <use x="130.943359" xlink:href="#DejaVuSans-6c"/>
      <use x="158.726562" xlink:href="#DejaVuSans-61"/>
      <use x="220.005859" xlink:href="#DejaVuSans-74"/>
      <use x="259.214844" xlink:href="#DejaVuSans-69"/>
      <use x="286.998047" xlink:href="#DejaVuSans-76"/>
      <use x="346.177734" xlink:href="#DejaVuSans-65"/>
      <use x="407.701172" xlink:href="#DejaVuSans-20"/>
      <use x="439.488281" xlink:href="#DejaVuSans-74"/>
      <use x="478.697266" xlink:href="#DejaVuSans-65"/>
      <use x="540.220703" xlink:href="#DejaVuSans-6d"/>
      <use x="637.632812" xlink:href="#DejaVuSans-70"/>
      <use x="701.109375" xlink:href="#DejaVuSans-20"/>
      <use x="732.896484" xlink:href="#DejaVuSans-28"/>
      <use x="771.910156" xlink:href="#DejaVuSans-43"/>
      <use x="841.734375" xlink:href="#DejaVuSans-65"/>
      <use x="903.257812" xlink:href="#DejaVuSans-6c"/>
      <use x="931.041016" xlink:href="#DejaVuSans-73"/>
      <use x="983.140625" xlink:href="#DejaVuSans-69"/>
      <use x="1010.923828" xlink:href="#DejaVuSans-75"/>
      <use x="1074.302734" xlink:href="#DejaVuSans-73"/>
      <use x="1126.402344" xlink:href="#DejaVuSans-29"/>
     </g>
    </g>
   </g>
   <g id="line2d_20">
    <path clip-path="url(#p829fda5e05)" d="M 78.807031 276.768762 
L 79.622953 294.456661 
L 80.412554 280.699407 
L 81.228475 306.248593 
L 82.018077 284.630051 
L 82.833998 308.213916 
L 83.649919 302.317949 
L 84.43952 288.560695 
L 85.255442 292.491339 
L 86.045043 294.456661 
L 86.860964 284.630051 
L 87.676886 278.734084 
L 88.413847 259.080864 
L 89.229768 264.97683 
L 90.01937 284.630051 
L 90.835291 292.491339 
L 91.624892 284.630051 
L 92.440814 298.387305 
L 93.256735 308.213916 
L 94.046336 314.109882 
L 94.862258 314.109882 
L 95.651859 302.317949 
L 96.46778 298.387305 
L 97.283702 268.907474 
L 98.046983 367.173578 
L 98.862904 327.867136 
L 100.468427 294.456661 
L 101.258028 300.352627 
L 102.073949 298.387305 
L 102.889871 286.595373 
L 103.679472 282.664729 
L 104.495393 318.040526 
L 105.284995 261.046186 
L 106.100916 282.664729 
L 106.916837 261.046186 
L 107.653798 278.734084 
L 108.46972 266.942152 
L 109.259321 270.872796 
L 110.075242 272.838118 
L 110.864844 302.317949 
L 111.680765 292.491339 
L 112.496686 286.595373 
L 113.286288 296.421983 
L 114.102209 290.526017 
L 114.89181 325.901814 
L 115.707732 280.699407 
L 116.523653 268.907474 
L 117.260614 272.838118 
L 118.076536 286.595373 
L 118.866137 308.213916 
L 119.682058 284.630051 
L 120.471659 300.352627 
L 121.287581 300.352627 
L 122.103502 298.387305 
L 122.893103 302.317949 
L 123.709025 284.630051 
L 124.498626 298.387305 
L 125.314547 302.317949 
L 126.130469 259.080864 
L 126.86743 321.97117 
L 127.683351 306.248593 
L 128.472953 314.109882 
L 129.288874 290.526017 
L 130.078475 280.699407 
L 130.894397 247.288931 
L 132.499919 266.942152 
L 133.315841 266.942152 
L 134.105442 296.421983 
L 135.737284 320.005848 
L 136.500566 339.659069 
L 137.316487 355.381645 
L 138.106088 345.555035 
L 138.92201 310.179238 
L 139.711611 310.179238 
L 140.527532 335.728424 
L 141.343454 351.451001 
L 142.133055 355.381645 
L 142.948976 337.693747 
L 143.738578 355.381645 
L 144.554499 314.109882 
L 145.37042 329.832458 
L 146.107381 318.040526 
L 146.923303 335.728424 
L 148.528825 312.14456 
L 149.318427 320.005848 
L 150.134348 298.387305 
L 150.950269 325.901814 
L 151.739871 304.283271 
L 152.555792 308.213916 
L 153.345393 306.248593 
L 154.161315 327.867136 
L 154.977236 296.421983 
L 155.714197 288.560695 
L 156.530119 321.97117 
L 157.31972 316.075204 
L 158.135641 292.491339 
L 158.925242 278.734084 
L 159.741164 316.075204 
L 160.557085 298.387305 
L 161.346686 325.901814 
L 162.162608 300.352627 
L 162.952209 308.213916 
L 163.76813 308.213916 
L 164.584052 335.728424 
L 165.321013 290.526017 
L 166.136934 306.248593 
L 166.926536 268.907474 
L 167.742457 312.14456 
L 168.532058 294.456661 
L 169.34798 292.491339 
L 170.163901 304.283271 
L 170.953502 284.630051 
L 171.769423 308.213916 
L 172.559025 300.352627 
L 173.374946 341.624391 
L 174.190867 325.901814 
L 174.954149 255.15022 
L 175.77007 306.248593 
L 176.559671 316.075204 
L 177.375593 308.213916 
L 178.165194 318.040526 
L 178.981115 318.040526 
L 179.797037 331.79778 
L 180.586638 272.838118 
L 181.402559 304.283271 
L 182.192161 323.936492 
L 183.008082 318.040526 
L 183.824003 323.936492 
L 184.560964 296.421983 
L 185.376886 259.080864 
L 186.166487 257.115542 
L 186.982408 286.595373 
L 187.77201 298.387305 
L 188.587931 290.526017 
L 189.403852 276.768762 
L 191.009375 272.838118 
L 191.798976 243.358287 
L 192.614898 278.734084 
L 193.430819 253.184898 
L 194.16778 280.699407 
L 194.983702 278.734084 
L 195.773303 306.248593 
L 196.589224 302.317949 
L 197.378825 304.283271 
L 198.194747 318.040526 
L 199.010668 274.80344 
L 199.800269 286.595373 
L 200.616191 294.456661 
L 201.405792 321.97117 
L 202.221713 300.352627 
L 203.037635 335.728424 
L 203.774596 331.79778 
L 204.590517 314.109882 
L 205.380119 308.213916 
L 206.19604 331.79778 
L 206.985641 320.005848 
L 207.801563 302.317949 
L 208.617484 298.387305 
L 209.407085 306.248593 
L 210.223006 304.283271 
L 211.012608 312.14456 
L 211.828529 343.589713 
L 212.64445 329.832458 
L 213.407732 292.491339 
L 214.223653 298.387305 
L 215.013254 302.317949 
L 215.829176 288.560695 
L 216.618777 292.491339 
L 217.434698 261.046186 
L 218.25062 290.526017 
L 219.040221 278.734084 
L 219.856142 290.526017 
L 220.645744 261.046186 
L 221.461665 241.392965 
L 222.277586 237.462321 
L 223.014547 245.323609 
L 223.830469 247.288931 
L 224.62007 245.323609 
L 225.435991 264.97683 
L 227.041514 292.491339 
L 227.857435 284.630051 
L 228.647037 272.838118 
L 229.462958 284.630051 
L 230.252559 308.213916 
L 231.068481 323.936492 
L 231.884402 351.451001 
L 232.621363 306.248593 
L 233.437284 316.075204 
L 234.226886 298.387305 
L 235.042807 306.248593 
L 235.832408 302.317949 
L 236.64833 272.838118 
L 237.464251 320.005848 
L 238.253852 310.179238 
L 239.069774 310.179238 
L 239.859375 314.109882 
L 240.675296 282.664729 
L 241.491218 282.664729 
L 242.228179 268.907474 
L 243.0441 284.630051 
L 243.833702 264.97683 
L 244.649623 300.352627 
L 245.439224 302.317949 
L 246.255145 335.728424 
L 247.071067 302.317949 
L 248.676589 327.867136 
L 249.466191 329.832458 
L 250.282112 296.421983 
L 251.098033 308.213916 
L 251.861315 337.693747 
L 252.677236 316.075204 
L 253.466837 341.624391 
L 254.282759 325.901814 
L 255.07236 320.005848 
L 255.888281 331.79778 
L 256.704203 314.109882 
L 257.493804 347.520357 
L 258.309725 308.213916 
L 259.099327 278.734084 
L 259.915248 261.046186 
L 260.731169 257.115542 
L 261.46813 247.288931 
L 262.284052 243.358287 
L 263.073653 237.462321 
L 263.889574 247.288931 
L 264.679176 251.219575 
L 265.495097 259.080864 
L 266.311018 292.491339 
L 267.10062 288.560695 
L 267.916541 257.115542 
L 268.706142 286.595373 
L 269.522064 280.699407 
L 270.337985 268.907474 
L 271.074946 255.15022 
L 271.890867 266.942152 
L 272.680469 282.664729 
L 273.49639 302.317949 
L 274.285991 282.664729 
L 275.101913 331.79778 
L 275.917834 286.595373 
L 276.707435 296.421983 
L 277.523357 264.97683 
L 278.312958 274.80344 
L 279.128879 268.907474 
L 279.944801 314.109882 
L 280.681762 259.080864 
L 281.497683 270.872796 
L 282.287284 284.630051 
L 283.103206 268.907474 
L 283.892807 290.526017 
L 284.708728 268.907474 
L 285.52465 243.358287 
L 286.314251 245.323609 
L 287.130172 239.427643 
L 287.919774 204.051846 
L 288.735695 237.462321 
L 289.551616 213.878456 
L 290.314898 239.427643 
L 291.130819 233.531677 
L 291.92042 229.601033 
L 292.736342 264.97683 
L 293.525943 241.392965 
L 294.341864 249.254253 
L 295.157786 255.15022 
L 295.947387 257.115542 
L 296.763308 237.462321 
L 297.552909 255.15022 
L 298.368831 186.363947 
L 299.184752 215.843778 
L 299.921713 202.086524 
L 300.737635 233.531677 
L 301.527236 247.288931 
L 302.343157 235.496999 
L 303.132759 227.635711 
L 303.94868 227.635711 
L 304.764601 263.011508 
L 305.554203 270.872796 
L 306.370124 255.15022 
L 307.159725 217.8091 
L 307.975647 278.734084 
L 308.791568 268.907474 
L 309.528529 298.387305 
L 310.34445 276.768762 
L 311.134052 264.97683 
L 311.949973 286.595373 
L 312.739574 270.872796 
L 313.555496 280.699407 
L 314.371417 266.942152 
L 315.161018 270.872796 
L 315.97694 268.907474 
L 316.766541 211.913134 
L 317.582462 194.225235 
L 318.398384 217.8091 
L 319.135345 213.878456 
L 319.951266 237.462321 
L 320.740867 227.635711 
L 321.556789 261.046186 
L 322.34639 266.942152 
L 323.162311 237.462321 
L 323.978233 221.739744 
L 324.767834 266.942152 
L 325.583755 237.462321 
L 326.373357 263.011508 
L 327.189278 237.462321 
L 328.005199 263.011508 
L 328.768481 239.427643 
L 329.584402 280.699407 
L 330.374003 231.566355 
L 331.189925 288.560695 
L 331.979526 264.97683 
L 332.795447 266.942152 
L 333.611369 257.115542 
L 334.40097 266.942152 
L 336.006492 308.213916 
L 336.822414 255.15022 
L 337.638335 308.213916 
L 338.375296 263.011508 
L 339.191218 274.80344 
L 339.980819 263.011508 
L 340.79674 263.011508 
L 341.586342 296.421983 
L 342.402263 266.942152 
L 343.218184 268.907474 
L 344.007786 274.80344 
L 344.823707 278.734084 
L 345.613308 266.942152 
L 346.42923 237.462321 
L 347.245151 219.774422 
L 347.982112 239.427643 
L 348.798033 245.323609 
L 349.587635 245.323609 
L 350.403556 272.838118 
L 351.193157 270.872796 
L 352.009079 272.838118 
L 352.825 292.491339 
L 353.614601 268.907474 
L 354.430523 274.80344 
L 355.220124 264.97683 
L 356.036045 225.670389 
L 356.851967 206.017168 
L 357.588928 263.011508 
L 358.404849 249.254253 
L 359.19445 245.323609 
L 360.799973 206.017168 
L 361.615894 241.392965 
L 362.431816 219.774422 
L 364.037338 247.288931 
L 364.82694 204.051846 
L 365.642861 184.398625 
L 366.458782 213.878456 
L 367.222064 200.121202 
L 368.037985 207.98249 
L 368.827586 209.947812 
L 369.643508 213.878456 
L 370.433109 227.635711 
L 371.24903 206.017168 
L 372.064952 213.878456 
L 372.854553 217.8091 
L 373.670474 270.872796 
L 374.460075 229.601033 
L 375.275997 264.97683 
L 376.091918 227.635711 
L 376.828879 225.670389 
L 377.644801 231.566355 
L 378.434402 263.011508 
L 379.250323 266.942152 
L 380.039925 229.601033 
L 380.855846 225.670389 
L 381.671767 223.705067 
L 382.461369 233.531677 
L 383.27729 255.15022 
L 384.066891 223.705067 
L 384.882812 215.843778 
L 385.698734 215.843778 
L 386.435695 147.057506 
L 387.251616 188.329269 
L 388.041218 206.017168 
L 388.857139 221.739744 
L 389.64674 209.947812 
L 390.462662 237.462321 
L 391.278583 237.462321 
L 392.068184 211.913134 
L 392.884106 206.017168 
L 393.673707 213.878456 
L 394.489628 213.878456 
L 395.30555 196.190558 
L 396.042511 225.670389 
L 396.858432 192.259913 
L 397.648033 219.774422 
L 398.463955 190.294591 
L 399.253556 196.190558 
L 400.069477 213.878456 
L 400.885399 198.15588 
L 401.675 233.531677 
L 402.490921 235.496999 
L 403.280523 231.566355 
L 404.096444 207.98249 
L 404.912365 213.878456 
L 405.675647 204.051846 
L 406.491568 249.254253 
L 407.281169 233.531677 
L 408.097091 249.254253 
L 408.886692 270.872796 
L 409.702613 276.768762 
L 410.518534 294.456661 
L 411.308136 274.80344 
L 412.124057 288.560695 
L 412.913658 253.184898 
L 413.72958 223.705067 
L 414.545501 219.774422 
L 415.282462 225.670389 
L 416.098384 241.392965 
L 417.703906 249.254253 
L 418.493508 241.392965 
L 419.309429 270.872796 
L 420.12535 274.80344 
L 420.914952 249.254253 
L 421.730873 282.664729 
L 423.336395 237.462321 
L 424.152317 288.560695 
L 424.889278 245.323609 
L 425.705199 215.843778 
L 426.494801 239.427643 
L 427.310722 213.878456 
L 428.916245 251.219575 
L 429.732166 233.531677 
L 430.521767 213.878456 
L 431.337689 206.017168 
L 432.12729 225.670389 
L 432.943211 198.15588 
L 433.759133 145.092184 
L 434.496094 207.98249 
L 435.312015 204.051846 
L 436.101616 239.427643 
L 436.917538 207.98249 
L 437.707139 200.121202 
L 438.52306 202.086524 
L 439.338982 229.601033 
L 440.128583 200.121202 
L 440.944504 207.98249 
L 441.734106 237.462321 
L 442.550027 243.358287 
L 443.365948 198.15588 
L 444.12923 229.601033 
L 444.945151 221.739744 
L 445.734752 237.462321 
L 446.550673 243.358287 
L 447.340275 223.705067 
L 448.156196 200.121202 
L 448.972117 243.358287 
L 449.761719 257.115542 
L 450.57764 213.878456 
L 451.367241 215.843778 
L 452.183163 231.566355 
L 452.999084 223.705067 
L 453.736045 194.225235 
L 454.551967 221.739744 
L 455.341568 219.774422 
L 456.157489 188.329269 
L 456.947091 227.635711 
L 457.763012 211.913134 
L 458.578933 186.363947 
L 459.368534 170.641371 
L 460.184456 166.710727 
L 460.974057 178.502659 
L 461.789978 176.537337 
L 462.6059 119.542997 
L 463.342861 172.606693 
L 464.158782 170.641371 
L 465.764305 143.126862 
L 466.553906 156.884116 
L 467.369828 162.780082 
L 468.185749 207.98249 
L 468.97535 204.051846 
L 469.791272 198.15588 
L 470.580873 186.363947 
L 471.396794 202.086524 
L 472.212716 166.710727 
L 472.949677 229.601033 
L 473.765598 229.601033 
L 474.555199 231.566355 
L 476.160722 215.843778 
L 476.976643 229.601033 
L 477.792565 211.913134 
L 478.582166 211.913134 
L 479.398087 213.878456 
L 480.187689 206.017168 
L 481.00361 245.323609 
L 481.819531 182.433303 
L 482.582813 178.502659 
L 483.398734 180.467981 
L 484.188335 217.8091 
L 485.004256 209.947812 
L 485.793858 213.878456 
L 486.609779 211.913134 
L 487.4257 213.878456 
L 488.215302 237.462321 
L 489.031223 229.601033 
L 489.820824 237.462321 
L 490.636746 209.947812 
L 491.452667 206.017168 
L 492.189628 182.433303 
L 493.00555 194.225235 
L 493.795151 180.467981 
L 494.611072 188.329269 
L 495.400673 176.537337 
L 496.216595 200.121202 
L 497.032516 186.363947 
L 497.822117 194.225235 
L 498.638039 158.849438 
L 499.42764 188.329269 
L 500.243561 149.022828 
L 501.059483 147.057506 
L 501.796444 117.577675 
L 502.612365 182.433303 
L 503.401967 168.676049 
L 504.217888 190.294591 
L 505.007489 174.572015 
L 505.823411 188.329269 
L 506.639332 168.676049 
L 507.428933 184.398625 
L 508.244855 180.467981 
L 509.034456 211.913134 
L 509.850377 152.953472 
L 510.666298 188.329269 
L 511.40326 184.398625 
L 512.219181 188.329269 
L 513.008782 174.572015 
L 513.824704 200.121202 
L 514.614305 188.329269 
L 515.430226 166.710727 
L 516.246148 166.710727 
L 517.035749 149.022828 
L 517.85167 188.329269 
L 518.641272 149.022828 
L 519.457193 180.467981 
L 520.273114 156.884116 
L 521.036395 170.641371 
L 521.852317 174.572015 
L 522.641918 213.878456 
L 523.457839 211.913134 
L 524.247441 245.323609 
L 525.063362 207.98249 
L 525.879283 192.259913 
L 526.668885 166.710727 
L 527.484806 154.918794 
L 528.274407 194.225235 
L 529.090329 154.918794 
L 529.90625 182.433303 
L 530.643211 160.81476 
L 531.459133 160.81476 
L 532.248734 168.676049 
L 533.064655 164.745404 
L 533.854256 166.710727 
L 534.670178 172.606693 
L 535.486099 143.126862 
L 536.2757 139.196218 
L 537.091622 147.057506 
L 537.881223 162.780082 
L 538.697144 184.398625 
L 539.513066 158.849438 
L 540.250027 172.606693 
L 541.065948 198.15588 
L 541.85555 204.051846 
L 542.671471 170.641371 
L 543.461072 190.294591 
L 544.276994 154.918794 
L 545.092915 170.641371 
L 545.882516 160.81476 
L 546.698437 154.918794 
L 547.488039 145.092184 
L 548.30396 107.751064 
L 549.119881 158.849438 
L 549.856843 158.849438 
L 550.672764 147.057506 
L 552.278287 182.433303 
L 553.067888 174.572015 
L 553.883809 178.502659 
L 554.699731 170.641371 
L 555.489332 178.502659 
L 556.305253 184.398625 
L 557.094855 198.15588 
L 557.910776 249.254253 
L 558.726697 225.670389 
L 559.489978 152.953472 
L 560.3059 192.259913 
L 561.095501 196.190558 
L 561.911422 202.086524 
L 562.701024 178.502659 
L 563.516945 209.947812 
L 564.332866 168.676049 
L 565.122468 164.745404 
L 565.938389 166.710727 
L 566.72799 190.294591 
L 567.543912 174.572015 
L 568.359833 192.259913 
L 569.096794 192.259913 
L 569.912716 176.537337 
L 570.702317 168.676049 
L 571.518238 168.676049 
L 572.307839 154.918794 
L 573.123761 166.710727 
L 573.939682 158.849438 
L 574.729283 170.641371 
L 575.545205 145.092184 
L 576.334806 168.676049 
L 577.150727 152.953472 
L 577.966649 143.126862 
L 578.70361 115.612353 
L 579.519531 125.438963 
L 581.125054 170.641371 
L 581.914655 174.572015 
L 582.730577 168.676049 
L 583.546498 176.537337 
L 584.336099 156.884116 
L 585.15202 141.16154 
L 585.941622 200.121202 
L 587.573464 192.259913 
L 588.310426 170.641371 
L 589.126347 168.676049 
L 589.915948 192.259913 
L 590.73187 180.467981 
L 591.521471 152.953472 
L 592.337392 152.953472 
L 593.153314 186.363947 
L 593.942915 166.710727 
L 594.758836 186.363947 
L 595.548437 190.294591 
L 596.364359 206.017168 
L 597.18028 200.121202 
L 597.943561 182.433303 
L 598.759483 160.81476 
L 599.549084 147.057506 
L 600.365005 174.572015 
L 601.154607 184.398625 
L 601.970528 172.606693 
L 602.786449 147.057506 
L 603.576051 143.126862 
L 604.391972 149.022828 
L 605.181573 192.259913 
L 605.997495 162.780082 
L 606.813416 188.329269 
L 607.550377 166.710727 
L 608.366298 194.225235 
L 609.1559 176.537337 
L 609.971821 168.676049 
L 610.761422 180.467981 
L 611.577344 166.710727 
L 612.393265 143.126862 
L 613.182866 160.81476 
L 613.998788 137.230895 
L 614.788389 164.745404 
L 615.60431 152.953472 
L 616.420232 196.190558 
L 617.157193 145.092184 
L 617.973114 143.126862 
L 618.762716 125.438963 
L 619.578637 166.710727 
L 620.368238 184.398625 
L 621.184159 135.265573 
L 622.000081 119.542997 
L 622.789682 129.369607 
L 623.605603 164.745404 
L 624.395205 141.16154 
L 625.211126 137.230895 
L 626.764009 119.542997 
L 627.57993 150.98815 
L 628.369531 143.126862 
L 629.185453 143.126862 
L 629.975054 156.884116 
L 630.790975 143.126862 
L 631.606897 137.230895 
L 632.396498 88.097844 
L 633.212419 92.028488 
L 634.00202 78.271233 
L 634.817942 66.479301 
L 635.633863 31.103504 
L 636.397144 40.930114 
L 637.213066 82.201878 
L 638.818588 147.057506 
L 639.60819 133.300251 
L 640.424111 103.82042 
L 641.240032 125.438963 
L 642.029634 121.508319 
L 642.845555 113.647031 
L 643.635156 137.230895 
L 643.635156 137.230895 
" style="fill:none;stroke:#ff0000;stroke-linecap:square;stroke-width:1.5;"/>
   </g>
   <g id="patch_7">
    <path d="M 50.565625 383.977081 
L 50.565625 14.3 
" style="fill:none;stroke:#000000;stroke-linecap:square;stroke-linejoin:miter;stroke-width:0.8;"/>
   </g>
   <g id="patch_8">
    <path d="M 671.876562 383.977081 
L 671.876562 14.3 
" style="fill:none;stroke:#000000;stroke-linecap:square;stroke-linejoin:miter;stroke-width:0.8;"/>
   </g>
   <g id="patch_9">
    <path d="M 50.565625 383.977081 
L 671.876562 383.977081 
" style="fill:none;stroke:#000000;stroke-linecap:square;stroke-linejoin:miter;stroke-width:0.8;"/>
   </g>
   <g id="patch_10">
    <path d="M 50.565625 14.3 
L 671.876562 14.3 
" style="fill:none;stroke:#000000;stroke-linecap:square;stroke-linejoin:miter;stroke-width:0.8;"/>
   </g>
   <g id="patch_11">
    <path d="M 593.252419 324.158708 
Q 612.652737 213.008088 631.860819 102.958851 
" style="fill:none;stroke:#808080;stroke-linecap:round;"/>
    <path d="M 629.202839 106.555397 
L 631.860819 102.958851 
L 633.143268 107.243163 
" style="fill:none;stroke:#808080;stroke-linecap:round;"/>
   </g>
   <g id="text_22">
    <!-- &gt;1 degree -->
    <defs>
     <path d="M 10.59375 49.21875 
L 10.59375 58.109375 
L 73.1875 35.40625 
L 73.1875 27.296875 
L 10.59375 4.59375 
L 10.59375 13.484375 
L 60.890625 31.296875 
z
" id="DejaVuSans-3e"/>
     <path d="M 45.40625 46.390625 
L 45.40625 75.984375 
L 54.390625 75.984375 
L 54.390625 0 
L 45.40625 0 
L 45.40625 8.203125 
Q 42.578125 3.328125 38.25 0.953125 
Q 33.9375 -1.421875 27.875 -1.421875 
Q 17.96875 -1.421875 11.734375 6.484375 
Q 5.515625 14.40625 5.515625 27.296875 
Q 5.515625 40.1875 11.734375 48.09375 
Q 17.96875 56 27.875 56 
Q 33.9375 56 38.25 53.625 
Q 42.578125 51.265625 45.40625 46.390625 
z
M 14.796875 27.296875 
Q 14.796875 17.390625 18.875 11.75 
Q 22.953125 6.109375 30.078125 6.109375 
Q 37.203125 6.109375 41.296875 11.75 
Q 45.40625 17.390625 45.40625 27.296875 
Q 45.40625 37.203125 41.296875 42.84375 
Q 37.203125 48.484375 30.078125 48.484375 
Q 22.953125 48.484375 18.875 42.84375 
Q 14.796875 37.203125 14.796875 27.296875 
z
" id="DejaVuSans-64"/>
     <path d="M 45.40625 27.984375 
Q 45.40625 37.75 41.375 43.109375 
Q 37.359375 48.484375 30.078125 48.484375 
Q 22.859375 48.484375 18.828125 43.109375 
Q 14.796875 37.75 14.796875 27.984375 
Q 14.796875 18.265625 18.828125 12.890625 
Q 22.859375 7.515625 30.078125 7.515625 
Q 37.359375 7.515625 41.375 12.890625 
Q 45.40625 18.265625 45.40625 27.984375 
z
M 54.390625 6.78125 
Q 54.390625 -7.171875 48.1875 -13.984375 
Q 42 -20.796875 29.203125 -20.796875 
Q 24.46875 -20.796875 20.265625 -20.09375 
Q 16.0625 -19.390625 12.109375 -17.921875 
L 12.109375 -9.1875 
Q 16.0625 -11.328125 19.921875 -12.34375 
Q 23.78125 -13.375 27.78125 -13.375 
Q 36.625 -13.375 41.015625 -8.765625 
Q 45.40625 -4.15625 45.40625 5.171875 
L 45.40625 9.625 
Q 42.625 4.78125 38.28125 2.390625 
Q 33.9375 0 27.875 0 
Q 17.828125 0 11.671875 7.65625 
Q 5.515625 15.328125 5.515625 27.984375 
Q 5.515625 40.671875 11.671875 48.328125 
Q 17.828125 56 27.875 56 
Q 33.9375 56 38.28125 53.609375 
Q 42.625 51.21875 45.40625 46.390625 
L 45.40625 54.6875 
L 54.390625 54.6875 
z
" id="DejaVuSans-67"/>
    </defs>
    <g transform="translate(565.122468 335.728424)scale(0.1 -0.1)">
     <use xlink:href="#DejaVuSans-3e"/>
     <use x="83.789062" xlink:href="#DejaVuSans-31"/>
     <use x="147.412109" xlink:href="#DejaVuSans-20"/>
     <use x="179.199219" xlink:href="#DejaVuSans-64"/>
     <use x="242.675781" xlink:href="#DejaVuSans-65"/>
     <use x="304.199219" xlink:href="#DejaVuSans-67"/>
     <use x="367.675781" xlink:href="#DejaVuSans-72"/>
     <use x="408.757812" xlink:href="#DejaVuSans-65"/>
     <use x="470.28125" xlink:href="#DejaVuSans-65"/>
    </g>
   </g>
  </g>
 </g>
 <defs>
  <clipPath id="p829fda5e05">
   <rect height="369.677081" width="621.310937" x="50.565625" y="14.3"/>
  </clipPath>
 </defs>
</svg>
