<?xml version="1.0" encoding="utf-8" standalone="no"?>
<!DOCTYPE svg PUBLIC "-//W3C//DTD SVG 1.1//EN"
  "http://www.w3.org/Graphics/SVG/1.1/DTD/svg11.dtd">
<!-- Created with matplotlib (https://matplotlib.org/) -->
<svg height="411pt" version="1.1" viewBox="0 0 577 411" width="577pt" xmlns="http://www.w3.org/2000/svg" xmlns:xlink="http://www.w3.org/1999/xlink">
 <defs>
  <style type="text/css">
*{stroke-linecap:butt;stroke-linejoin:round;}
  </style>
 </defs>
 <g id="figure_1">
  <g id="patch_1">
   <path d="M 0 411 
L 577 411 
L 577 0 
L 0 0 
z
" style="fill:#ffffff;"/>
  </g>
  <g id="axes_1">
   <g id="patch_2">
    <path d="M 47.38125 369.84375 
L 562.7 369.84375 
L 562.7 14.3 
L 47.38125 14.3 
z
" style="fill:#ffffff;"/>
   </g>
   <g id="matplotlib.axis_1">
    <g id="xtick_1">
     <g id="line2d_1">
      <defs>
       <path d="M 0 0 
L 0 3.5 
" id="m1e7f6f105e" style="stroke:#000000;stroke-width:0.8;"/>
      </defs>
      <g>
       <use style="stroke:#000000;stroke-width:0.8;" x="70.129703" xlink:href="#m1e7f6f105e" y="369.84375"/>
      </g>
     </g>
     <g id="text_1">
      <!-- 0 -->
      <defs>
       <path d="M 31.78125 66.40625 
Q 24.171875 66.40625 20.328125 58.90625 
Q 16.5 51.421875 16.5 36.375 
Q 16.5 21.390625 20.328125 13.890625 
Q 24.171875 6.390625 31.78125 6.390625 
Q 39.453125 6.390625 43.28125 13.890625 
Q 47.125 21.390625 47.125 36.375 
Q 47.125 51.421875 43.28125 58.90625 
Q 39.453125 66.40625 31.78125 66.40625 
z
M 31.78125 74.21875 
Q 44.046875 74.21875 50.515625 64.515625 
Q 56.984375 54.828125 56.984375 36.375 
Q 56.984375 17.96875 50.515625 8.265625 
Q 44.046875 -1.421875 31.78125 -1.421875 
Q 19.53125 -1.421875 13.0625 8.265625 
Q 6.59375 17.96875 6.59375 36.375 
Q 6.59375 54.828125 13.0625 64.515625 
Q 19.53125 74.21875 31.78125 74.21875 
z
" id="DejaVuSans-48"/>
      </defs>
      <g transform="translate(66.948453 384.442187)scale(0.1 -0.1)">
       <use xlink:href="#DejaVuSans-48"/>
      </g>
     </g>
    </g>
    <g id="xtick_2">
     <g id="line2d_2">
      <g>
       <use style="stroke:#000000;stroke-width:0.8;" x="127.832842" xlink:href="#m1e7f6f105e" y="369.84375"/>
      </g>
     </g>
     <g id="text_2">
      <!-- 20000 -->
      <defs>
       <path d="M 19.1875 8.296875 
L 53.609375 8.296875 
L 53.609375 0 
L 7.328125 0 
L 7.328125 8.296875 
Q 12.9375 14.109375 22.625 23.890625 
Q 32.328125 33.6875 34.8125 36.53125 
Q 39.546875 41.84375 41.421875 45.53125 
Q 43.3125 49.21875 43.3125 52.78125 
Q 43.3125 58.59375 39.234375 62.25 
Q 35.15625 65.921875 28.609375 65.921875 
Q 23.96875 65.921875 18.8125 64.3125 
Q 13.671875 62.703125 7.8125 59.421875 
L 7.8125 69.390625 
Q 13.765625 71.78125 18.9375 73 
Q 24.125 74.21875 28.421875 74.21875 
Q 39.75 74.21875 46.484375 68.546875 
Q 53.21875 62.890625 53.21875 53.421875 
Q 53.21875 48.921875 51.53125 44.890625 
Q 49.859375 40.875 45.40625 35.40625 
Q 44.1875 33.984375 37.640625 27.21875 
Q 31.109375 20.453125 19.1875 8.296875 
z
" id="DejaVuSans-50"/>
      </defs>
      <g transform="translate(111.926592 384.442187)scale(0.1 -0.1)">
       <use xlink:href="#DejaVuSans-50"/>
       <use x="63.623047" xlink:href="#DejaVuSans-48"/>
       <use x="127.246094" xlink:href="#DejaVuSans-48"/>
       <use x="190.869141" xlink:href="#DejaVuSans-48"/>
       <use x="254.492188" xlink:href="#DejaVuSans-48"/>
      </g>
     </g>
    </g>
    <g id="xtick_3">
     <g id="line2d_3">
      <g>
       <use style="stroke:#000000;stroke-width:0.8;" x="185.535981" xlink:href="#m1e7f6f105e" y="369.84375"/>
      </g>
     </g>
     <g id="text_3">
      <!-- 40000 -->
      <defs>
       <path d="M 37.796875 64.3125 
L 12.890625 25.390625 
L 37.796875 25.390625 
z
M 35.203125 72.90625 
L 47.609375 72.90625 
L 47.609375 25.390625 
L 58.015625 25.390625 
L 58.015625 17.1875 
L 47.609375 17.1875 
L 47.609375 0 
L 37.796875 0 
L 37.796875 17.1875 
L 4.890625 17.1875 
L 4.890625 26.703125 
z
" id="DejaVuSans-52"/>
      </defs>
      <g transform="translate(169.629731 384.442187)scale(0.1 -0.1)">
       <use xlink:href="#DejaVuSans-52"/>
       <use x="63.623047" xlink:href="#DejaVuSans-48"/>
       <use x="127.246094" xlink:href="#DejaVuSans-48"/>
       <use x="190.869141" xlink:href="#DejaVuSans-48"/>
       <use x="254.492188" xlink:href="#DejaVuSans-48"/>
      </g>
     </g>
    </g>
    <g id="xtick_4">
     <g id="line2d_4">
      <g>
       <use style="stroke:#000000;stroke-width:0.8;" x="243.23912" xlink:href="#m1e7f6f105e" y="369.84375"/>
      </g>
     </g>
     <g id="text_4">
      <!-- 60000 -->
      <defs>
       <path d="M 33.015625 40.375 
Q 26.375 40.375 22.484375 35.828125 
Q 18.609375 31.296875 18.609375 23.390625 
Q 18.609375 15.53125 22.484375 10.953125 
Q 26.375 6.390625 33.015625 6.390625 
Q 39.65625 6.390625 43.53125 10.953125 
Q 47.40625 15.53125 47.40625 23.390625 
Q 47.40625 31.296875 43.53125 35.828125 
Q 39.65625 40.375 33.015625 40.375 
z
M 52.59375 71.296875 
L 52.59375 62.3125 
Q 48.875 64.0625 45.09375 64.984375 
Q 41.3125 65.921875 37.59375 65.921875 
Q 27.828125 65.921875 22.671875 59.328125 
Q 17.53125 52.734375 16.796875 39.40625 
Q 19.671875 43.65625 24.015625 45.921875 
Q 28.375 48.1875 33.59375 48.1875 
Q 44.578125 48.1875 50.953125 41.515625 
Q 57.328125 34.859375 57.328125 23.390625 
Q 57.328125 12.15625 50.6875 5.359375 
Q 44.046875 -1.421875 33.015625 -1.421875 
Q 20.359375 -1.421875 13.671875 8.265625 
Q 6.984375 17.96875 6.984375 36.375 
Q 6.984375 53.65625 15.1875 63.9375 
Q 23.390625 74.21875 37.203125 74.21875 
Q 40.921875 74.21875 44.703125 73.484375 
Q 48.484375 72.75 52.59375 71.296875 
z
" id="DejaVuSans-54"/>
      </defs>
      <g transform="translate(227.33287 384.442187)scale(0.1 -0.1)">
       <use xlink:href="#DejaVuSans-54"/>
       <use x="63.623047" xlink:href="#DejaVuSans-48"/>
       <use x="127.246094" xlink:href="#DejaVuSans-48"/>
       <use x="190.869141" xlink:href="#DejaVuSans-48"/>
       <use x="254.492188" xlink:href="#DejaVuSans-48"/>
      </g>
     </g>
    </g>
    <g id="xtick_5">
     <g id="line2d_5">
      <g>
       <use style="stroke:#000000;stroke-width:0.8;" x="300.94226" xlink:href="#m1e7f6f105e" y="369.84375"/>
      </g>
     </g>
     <g id="text_5">
      <!-- 80000 -->
      <defs>
       <path d="M 31.78125 34.625 
Q 24.75 34.625 20.71875 30.859375 
Q 16.703125 27.09375 16.703125 20.515625 
Q 16.703125 13.921875 20.71875 10.15625 
Q 24.75 6.390625 31.78125 6.390625 
Q 38.8125 6.390625 42.859375 10.171875 
Q 46.921875 13.96875 46.921875 20.515625 
Q 46.921875 27.09375 42.890625 30.859375 
Q 38.875 34.625 31.78125 34.625 
z
M 21.921875 38.8125 
Q 15.578125 40.375 12.03125 44.71875 
Q 8.5 49.078125 8.5 55.328125 
Q 8.5 64.0625 14.71875 69.140625 
Q 20.953125 74.21875 31.78125 74.21875 
Q 42.671875 74.21875 48.875 69.140625 
Q 55.078125 64.0625 55.078125 55.328125 
Q 55.078125 49.078125 51.53125 44.71875 
Q 48 40.375 41.703125 38.8125 
Q 48.828125 37.15625 52.796875 32.3125 
Q 56.78125 27.484375 56.78125 20.515625 
Q 56.78125 9.90625 50.3125 4.234375 
Q 43.84375 -1.421875 31.78125 -1.421875 
Q 19.734375 -1.421875 13.25 4.234375 
Q 6.78125 9.90625 6.78125 20.515625 
Q 6.78125 27.484375 10.78125 32.3125 
Q 14.796875 37.15625 21.921875 38.8125 
z
M 18.3125 54.390625 
Q 18.3125 48.734375 21.84375 45.5625 
Q 25.390625 42.390625 31.78125 42.390625 
Q 38.140625 42.390625 41.71875 45.5625 
Q 45.3125 48.734375 45.3125 54.390625 
Q 45.3125 60.0625 41.71875 63.234375 
Q 38.140625 66.40625 31.78125 66.40625 
Q 25.390625 66.40625 21.84375 63.234375 
Q 18.3125 60.0625 18.3125 54.390625 
z
" id="DejaVuSans-56"/>
      </defs>
      <g transform="translate(285.03601 384.442187)scale(0.1 -0.1)">
       <use xlink:href="#DejaVuSans-56"/>
       <use x="63.623047" xlink:href="#DejaVuSans-48"/>
       <use x="127.246094" xlink:href="#DejaVuSans-48"/>
       <use x="190.869141" xlink:href="#DejaVuSans-48"/>
       <use x="254.492188" xlink:href="#DejaVuSans-48"/>
      </g>
     </g>
    </g>
    <g id="xtick_6">
     <g id="line2d_6">
      <g>
       <use style="stroke:#000000;stroke-width:0.8;" x="358.645399" xlink:href="#m1e7f6f105e" y="369.84375"/>
      </g>
     </g>
     <g id="text_6">
      <!-- 100000 -->
      <defs>
       <path d="M 12.40625 8.296875 
L 28.515625 8.296875 
L 28.515625 63.921875 
L 10.984375 60.40625 
L 10.984375 69.390625 
L 28.421875 72.90625 
L 38.28125 72.90625 
L 38.28125 8.296875 
L 54.390625 8.296875 
L 54.390625 0 
L 12.40625 0 
z
" id="DejaVuSans-49"/>
      </defs>
      <g transform="translate(339.557899 384.442187)scale(0.1 -0.1)">
       <use xlink:href="#DejaVuSans-49"/>
       <use x="63.623047" xlink:href="#DejaVuSans-48"/>
       <use x="127.246094" xlink:href="#DejaVuSans-48"/>
       <use x="190.869141" xlink:href="#DejaVuSans-48"/>
       <use x="254.492188" xlink:href="#DejaVuSans-48"/>
       <use x="318.115234" xlink:href="#DejaVuSans-48"/>
      </g>
     </g>
    </g>
    <g id="xtick_7">
     <g id="line2d_7">
      <g>
       <use style="stroke:#000000;stroke-width:0.8;" x="416.348538" xlink:href="#m1e7f6f105e" y="369.84375"/>
      </g>
     </g>
     <g id="text_7">
      <!-- 120000 -->
      <g transform="translate(397.261038 384.442187)scale(0.1 -0.1)">
       <use xlink:href="#DejaVuSans-49"/>
       <use x="63.623047" xlink:href="#DejaVuSans-50"/>
       <use x="127.246094" xlink:href="#DejaVuSans-48"/>
       <use x="190.869141" xlink:href="#DejaVuSans-48"/>
       <use x="254.492188" xlink:href="#DejaVuSans-48"/>
       <use x="318.115234" xlink:href="#DejaVuSans-48"/>
      </g>
     </g>
    </g>
    <g id="xtick_8">
     <g id="line2d_8">
      <g>
       <use style="stroke:#000000;stroke-width:0.8;" x="474.051677" xlink:href="#m1e7f6f105e" y="369.84375"/>
      </g>
     </g>
     <g id="text_8">
      <!-- 140000 -->
      <g transform="translate(454.964177 384.442187)scale(0.1 -0.1)">
       <use xlink:href="#DejaVuSans-49"/>
       <use x="63.623047" xlink:href="#DejaVuSans-52"/>
       <use x="127.246094" xlink:href="#DejaVuSans-48"/>
       <use x="190.869141" xlink:href="#DejaVuSans-48"/>
       <use x="254.492188" xlink:href="#DejaVuSans-48"/>
       <use x="318.115234" xlink:href="#DejaVuSans-48"/>
      </g>
     </g>
    </g>
    <g id="xtick_9">
     <g id="line2d_9">
      <g>
       <use style="stroke:#000000;stroke-width:0.8;" x="531.754816" xlink:href="#m1e7f6f105e" y="369.84375"/>
      </g>
     </g>
     <g id="text_9">
      <!-- 160000 -->
      <g transform="translate(512.667316 384.442187)scale(0.1 -0.1)">
       <use xlink:href="#DejaVuSans-49"/>
       <use x="63.623047" xlink:href="#DejaVuSans-54"/>
       <use x="127.246094" xlink:href="#DejaVuSans-48"/>
       <use x="190.869141" xlink:href="#DejaVuSans-48"/>
       <use x="254.492188" xlink:href="#DejaVuSans-48"/>
       <use x="318.115234" xlink:href="#DejaVuSans-48"/>
      </g>
     </g>
    </g>
    <g id="text_10">
     <!-- Income (1986 USD) -->
     <defs>
      <path d="M 9.8125 72.90625 
L 19.671875 72.90625 
L 19.671875 0 
L 9.8125 0 
z
" id="DejaVuSans-73"/>
      <path d="M 54.890625 33.015625 
L 54.890625 0 
L 45.90625 0 
L 45.90625 32.71875 
Q 45.90625 40.484375 42.875 44.328125 
Q 39.84375 48.1875 33.796875 48.1875 
Q 26.515625 48.1875 22.3125 43.546875 
Q 18.109375 38.921875 18.109375 30.90625 
L 18.109375 0 
L 9.078125 0 
L 9.078125 54.6875 
L 18.109375 54.6875 
L 18.109375 46.1875 
Q 21.34375 51.125 25.703125 53.5625 
Q 30.078125 56 35.796875 56 
Q 45.21875 56 50.046875 50.171875 
Q 54.890625 44.34375 54.890625 33.015625 
z
" id="DejaVuSans-110"/>
      <path d="M 48.78125 52.59375 
L 48.78125 44.1875 
Q 44.96875 46.296875 41.140625 47.34375 
Q 37.3125 48.390625 33.40625 48.390625 
Q 24.65625 48.390625 19.8125 42.84375 
Q 14.984375 37.3125 14.984375 27.296875 
Q 14.984375 17.28125 19.8125 11.734375 
Q 24.65625 6.203125 33.40625 6.203125 
Q 37.3125 6.203125 41.140625 7.25 
Q 44.96875 8.296875 48.78125 10.40625 
L 48.78125 2.09375 
Q 45.015625 0.34375 40.984375 -0.53125 
Q 36.96875 -1.421875 32.421875 -1.421875 
Q 20.0625 -1.421875 12.78125 6.34375 
Q 5.515625 14.109375 5.515625 27.296875 
Q 5.515625 40.671875 12.859375 48.328125 
Q 20.21875 56 33.015625 56 
Q 37.15625 56 41.109375 55.140625 
Q 45.0625 54.296875 48.78125 52.59375 
z
" id="DejaVuSans-99"/>
      <path d="M 30.609375 48.390625 
Q 23.390625 48.390625 19.1875 42.75 
Q 14.984375 37.109375 14.984375 27.296875 
Q 14.984375 17.484375 19.15625 11.84375 
Q 23.34375 6.203125 30.609375 6.203125 
Q 37.796875 6.203125 41.984375 11.859375 
Q 46.1875 17.53125 46.1875 27.296875 
Q 46.1875 37.015625 41.984375 42.703125 
Q 37.796875 48.390625 30.609375 48.390625 
z
M 30.609375 56 
Q 42.328125 56 49.015625 48.375 
Q 55.71875 40.765625 55.71875 27.296875 
Q 55.71875 13.875 49.015625 6.21875 
Q 42.328125 -1.421875 30.609375 -1.421875 
Q 18.84375 -1.421875 12.171875 6.21875 
Q 5.515625 13.875 5.515625 27.296875 
Q 5.515625 40.765625 12.171875 48.375 
Q 18.84375 56 30.609375 56 
z
" id="DejaVuSans-111"/>
      <path d="M 52 44.1875 
Q 55.375 50.25 60.0625 53.125 
Q 64.75 56 71.09375 56 
Q 79.640625 56 84.28125 50.015625 
Q 88.921875 44.046875 88.921875 33.015625 
L 88.921875 0 
L 79.890625 0 
L 79.890625 32.71875 
Q 79.890625 40.578125 77.09375 44.375 
Q 74.3125 48.1875 68.609375 48.1875 
Q 61.625 48.1875 57.5625 43.546875 
Q 53.515625 38.921875 53.515625 30.90625 
L 53.515625 0 
L 44.484375 0 
L 44.484375 32.71875 
Q 44.484375 40.625 41.703125 44.40625 
Q 38.921875 48.1875 33.109375 48.1875 
Q 26.21875 48.1875 22.15625 43.53125 
Q 18.109375 38.875 18.109375 30.90625 
L 18.109375 0 
L 9.078125 0 
L 9.078125 54.6875 
L 18.109375 54.6875 
L 18.109375 46.1875 
Q 21.1875 51.21875 25.484375 53.609375 
Q 29.78125 56 35.6875 56 
Q 41.65625 56 45.828125 52.96875 
Q 50 49.953125 52 44.1875 
z
" id="DejaVuSans-109"/>
      <path d="M 56.203125 29.59375 
L 56.203125 25.203125 
L 14.890625 25.203125 
Q 15.484375 15.921875 20.484375 11.0625 
Q 25.484375 6.203125 34.421875 6.203125 
Q 39.59375 6.203125 44.453125 7.46875 
Q 49.3125 8.734375 54.109375 11.28125 
L 54.109375 2.78125 
Q 49.265625 0.734375 44.1875 -0.34375 
Q 39.109375 -1.421875 33.890625 -1.421875 
Q 20.796875 -1.421875 13.15625 6.1875 
Q 5.515625 13.8125 5.515625 26.8125 
Q 5.515625 40.234375 12.765625 48.109375 
Q 20.015625 56 32.328125 56 
Q 43.359375 56 49.78125 48.890625 
Q 56.203125 41.796875 56.203125 29.59375 
z
M 47.21875 32.234375 
Q 47.125 39.59375 43.09375 43.984375 
Q 39.0625 48.390625 32.421875 48.390625 
Q 24.90625 48.390625 20.390625 44.140625 
Q 15.875 39.890625 15.1875 32.171875 
z
" id="DejaVuSans-101"/>
      <path id="DejaVuSans-32"/>
      <path d="M 31 75.875 
Q 24.46875 64.65625 21.28125 53.65625 
Q 18.109375 42.671875 18.109375 31.390625 
Q 18.109375 20.125 21.3125 9.0625 
Q 24.515625 -2 31 -13.1875 
L 23.1875 -13.1875 
Q 15.875 -1.703125 12.234375 9.375 
Q 8.59375 20.453125 8.59375 31.390625 
Q 8.59375 42.28125 12.203125 53.3125 
Q 15.828125 64.359375 23.1875 75.875 
z
" id="DejaVuSans-40"/>
      <path d="M 10.984375 1.515625 
L 10.984375 10.5 
Q 14.703125 8.734375 18.5 7.8125 
Q 22.3125 6.890625 25.984375 6.890625 
Q 35.75 6.890625 40.890625 13.453125 
Q 46.046875 20.015625 46.78125 33.40625 
Q 43.953125 29.203125 39.59375 26.953125 
Q 35.25 24.703125 29.984375 24.703125 
Q 19.046875 24.703125 12.671875 31.3125 
Q 6.296875 37.9375 6.296875 49.421875 
Q 6.296875 60.640625 12.9375 67.421875 
Q 19.578125 74.21875 30.609375 74.21875 
Q 43.265625 74.21875 49.921875 64.515625 
Q 56.59375 54.828125 56.59375 36.375 
Q 56.59375 19.140625 48.40625 8.859375 
Q 40.234375 -1.421875 26.421875 -1.421875 
Q 22.703125 -1.421875 18.890625 -0.6875 
Q 15.09375 0.046875 10.984375 1.515625 
z
M 30.609375 32.421875 
Q 37.25 32.421875 41.125 36.953125 
Q 45.015625 41.5 45.015625 49.421875 
Q 45.015625 57.28125 41.125 61.84375 
Q 37.25 66.40625 30.609375 66.40625 
Q 23.96875 66.40625 20.09375 61.84375 
Q 16.21875 57.28125 16.21875 49.421875 
Q 16.21875 41.5 20.09375 36.953125 
Q 23.96875 32.421875 30.609375 32.421875 
z
" id="DejaVuSans-57"/>
      <path d="M 8.6875 72.90625 
L 18.609375 72.90625 
L 18.609375 28.609375 
Q 18.609375 16.890625 22.84375 11.734375 
Q 27.09375 6.59375 36.625 6.59375 
Q 46.09375 6.59375 50.34375 11.734375 
Q 54.59375 16.890625 54.59375 28.609375 
L 54.59375 72.90625 
L 64.5 72.90625 
L 64.5 27.390625 
Q 64.5 13.140625 57.4375 5.859375 
Q 50.390625 -1.421875 36.625 -1.421875 
Q 22.796875 -1.421875 15.734375 5.859375 
Q 8.6875 13.140625 8.6875 27.390625 
z
" id="DejaVuSans-85"/>
      <path d="M 53.515625 70.515625 
L 53.515625 60.890625 
Q 47.90625 63.578125 42.921875 64.890625 
Q 37.9375 66.21875 33.296875 66.21875 
Q 25.25 66.21875 20.875 63.09375 
Q 16.5 59.96875 16.5 54.203125 
Q 16.5 49.359375 19.40625 46.890625 
Q 22.3125 44.4375 30.421875 42.921875 
L 36.375 41.703125 
Q 47.40625 39.59375 52.65625 34.296875 
Q 57.90625 29 57.90625 20.125 
Q 57.90625 9.515625 50.796875 4.046875 
Q 43.703125 -1.421875 29.984375 -1.421875 
Q 24.8125 -1.421875 18.96875 -0.25 
Q 13.140625 0.921875 6.890625 3.21875 
L 6.890625 13.375 
Q 12.890625 10.015625 18.65625 8.296875 
Q 24.421875 6.59375 29.984375 6.59375 
Q 38.421875 6.59375 43.015625 9.90625 
Q 47.609375 13.234375 47.609375 19.390625 
Q 47.609375 24.75 44.3125 27.78125 
Q 41.015625 30.8125 33.5 32.328125 
L 27.484375 33.5 
Q 16.453125 35.6875 11.515625 40.375 
Q 6.59375 45.0625 6.59375 53.421875 
Q 6.59375 63.09375 13.40625 68.65625 
Q 20.21875 74.21875 32.171875 74.21875 
Q 37.3125 74.21875 42.625 73.28125 
Q 47.953125 72.359375 53.515625 70.515625 
z
" id="DejaVuSans-83"/>
      <path d="M 19.671875 64.796875 
L 19.671875 8.109375 
L 31.59375 8.109375 
Q 46.6875 8.109375 53.6875 14.9375 
Q 60.6875 21.78125 60.6875 36.53125 
Q 60.6875 51.171875 53.6875 57.984375 
Q 46.6875 64.796875 31.59375 64.796875 
z
M 9.8125 72.90625 
L 30.078125 72.90625 
Q 51.265625 72.90625 61.171875 64.09375 
Q 71.09375 55.28125 71.09375 36.53125 
Q 71.09375 17.671875 61.125 8.828125 
Q 51.171875 0 30.078125 0 
L 9.8125 0 
z
" id="DejaVuSans-68"/>
      <path d="M 8.015625 75.875 
L 15.828125 75.875 
Q 23.140625 64.359375 26.78125 53.3125 
Q 30.421875 42.28125 30.421875 31.390625 
Q 30.421875 20.453125 26.78125 9.375 
Q 23.140625 -1.703125 15.828125 -13.1875 
L 8.015625 -13.1875 
Q 14.5 -2 17.703125 9.0625 
Q 20.90625 20.125 20.90625 31.390625 
Q 20.90625 42.671875 17.703125 53.65625 
Q 14.5 64.65625 8.015625 75.875 
z
" id="DejaVuSans-41"/>
     </defs>
     <g transform="translate(256.153125 398.120312)scale(0.1 -0.1)">
      <use xlink:href="#DejaVuSans-73"/>
      <use x="29.492188" xlink:href="#DejaVuSans-110"/>
      <use x="92.871094" xlink:href="#DejaVuSans-99"/>
      <use x="147.851562" xlink:href="#DejaVuSans-111"/>
      <use x="209.033203" xlink:href="#DejaVuSans-109"/>
      <use x="306.445312" xlink:href="#DejaVuSans-101"/>
      <use x="367.96875" xlink:href="#DejaVuSans-32"/>
      <use x="399.755859" xlink:href="#DejaVuSans-40"/>
      <use x="438.769531" xlink:href="#DejaVuSans-49"/>
      <use x="502.392578" xlink:href="#DejaVuSans-57"/>
      <use x="566.015625" xlink:href="#DejaVuSans-56"/>
      <use x="629.638672" xlink:href="#DejaVuSans-54"/>
      <use x="693.261719" xlink:href="#DejaVuSans-32"/>
      <use x="725.048828" xlink:href="#DejaVuSans-85"/>
      <use x="798.242188" xlink:href="#DejaVuSans-83"/>
      <use x="861.71875" xlink:href="#DejaVuSans-68"/>
      <use x="938.720703" xlink:href="#DejaVuSans-41"/>
     </g>
    </g>
   </g>
   <g id="matplotlib.axis_2">
    <g id="ytick_1">
     <g id="line2d_10">
      <defs>
       <path d="M 0 0 
L -3.5 0 
" id="m6c8610c837" style="stroke:#000000;stroke-width:0.8;"/>
      </defs>
      <g>
       <use style="stroke:#000000;stroke-width:0.8;" x="47.38125" xlink:href="#m6c8610c837" y="353.708187"/>
      </g>
     </g>
     <g id="text_11">
      <!-- 0.0 -->
      <defs>
       <path d="M 10.6875 12.40625 
L 21 12.40625 
L 21 0 
L 10.6875 0 
z
" id="DejaVuSans-46"/>
      </defs>
      <g transform="translate(24.478125 357.507406)scale(0.1 -0.1)">
       <use xlink:href="#DejaVuSans-48"/>
       <use x="63.623047" xlink:href="#DejaVuSans-46"/>
       <use x="95.410156" xlink:href="#DejaVuSans-48"/>
      </g>
     </g>
    </g>
    <g id="ytick_2">
     <g id="line2d_11">
      <g>
       <use style="stroke:#000000;stroke-width:0.8;" x="47.38125" xlink:href="#m6c8610c837" y="289.058766"/>
      </g>
     </g>
     <g id="text_12">
      <!-- 0.2 -->
      <g transform="translate(24.478125 292.857984)scale(0.1 -0.1)">
       <use xlink:href="#DejaVuSans-48"/>
       <use x="63.623047" xlink:href="#DejaVuSans-46"/>
       <use x="95.410156" xlink:href="#DejaVuSans-50"/>
      </g>
     </g>
    </g>
    <g id="ytick_3">
     <g id="line2d_12">
      <g>
       <use style="stroke:#000000;stroke-width:0.8;" x="47.38125" xlink:href="#m6c8610c837" y="224.409344"/>
      </g>
     </g>
     <g id="text_13">
      <!-- 0.4 -->
      <g transform="translate(24.478125 228.208563)scale(0.1 -0.1)">
       <use xlink:href="#DejaVuSans-48"/>
       <use x="63.623047" xlink:href="#DejaVuSans-46"/>
       <use x="95.410156" xlink:href="#DejaVuSans-52"/>
      </g>
     </g>
    </g>
    <g id="ytick_4">
     <g id="line2d_13">
      <g>
       <use style="stroke:#000000;stroke-width:0.8;" x="47.38125" xlink:href="#m6c8610c837" y="159.759923"/>
      </g>
     </g>
     <g id="text_14">
      <!-- 0.6 -->
      <g transform="translate(24.478125 163.559141)scale(0.1 -0.1)">
       <use xlink:href="#DejaVuSans-48"/>
       <use x="63.623047" xlink:href="#DejaVuSans-46"/>
       <use x="95.410156" xlink:href="#DejaVuSans-54"/>
      </g>
     </g>
    </g>
    <g id="ytick_5">
     <g id="line2d_14">
      <g>
       <use style="stroke:#000000;stroke-width:0.8;" x="47.38125" xlink:href="#m6c8610c837" y="95.110501"/>
      </g>
     </g>
     <g id="text_15">
      <!-- 0.8 -->
      <g transform="translate(24.478125 98.90972)scale(0.1 -0.1)">
       <use xlink:href="#DejaVuSans-48"/>
       <use x="63.623047" xlink:href="#DejaVuSans-46"/>
       <use x="95.410156" xlink:href="#DejaVuSans-56"/>
      </g>
     </g>
    </g>
    <g id="ytick_6">
     <g id="line2d_15">
      <g>
       <use style="stroke:#000000;stroke-width:0.8;" x="47.38125" xlink:href="#m6c8610c837" y="30.46108"/>
      </g>
     </g>
     <g id="text_16">
      <!-- 1.0 -->
      <g transform="translate(24.478125 34.260298)scale(0.1 -0.1)">
       <use xlink:href="#DejaVuSans-49"/>
       <use x="63.623047" xlink:href="#DejaVuSans-46"/>
       <use x="95.410156" xlink:href="#DejaVuSans-48"/>
      </g>
     </g>
    </g>
    <g id="text_17">
     <!-- CDF -->
     <defs>
      <path d="M 64.40625 67.28125 
L 64.40625 56.890625 
Q 59.421875 61.53125 53.78125 63.8125 
Q 48.140625 66.109375 41.796875 66.109375 
Q 29.296875 66.109375 22.65625 58.46875 
Q 16.015625 50.828125 16.015625 36.375 
Q 16.015625 21.96875 22.65625 14.328125 
Q 29.296875 6.6875 41.796875 6.6875 
Q 48.140625 6.6875 53.78125 8.984375 
Q 59.421875 11.28125 64.40625 15.921875 
L 64.40625 5.609375 
Q 59.234375 2.09375 53.4375 0.328125 
Q 47.65625 -1.421875 41.21875 -1.421875 
Q 24.65625 -1.421875 15.125 8.703125 
Q 5.609375 18.84375 5.609375 36.375 
Q 5.609375 53.953125 15.125 64.078125 
Q 24.65625 74.21875 41.21875 74.21875 
Q 47.75 74.21875 53.53125 72.484375 
Q 59.328125 70.75 64.40625 67.28125 
z
" id="DejaVuSans-67"/>
      <path d="M 9.8125 72.90625 
L 51.703125 72.90625 
L 51.703125 64.59375 
L 19.671875 64.59375 
L 19.671875 43.109375 
L 48.578125 43.109375 
L 48.578125 34.8125 
L 19.671875 34.8125 
L 19.671875 0 
L 9.8125 0 
z
" id="DejaVuSans-70"/>
     </defs>
     <g transform="translate(18.398438 202.289062)rotate(-90)scale(0.1 -0.1)">
      <use xlink:href="#DejaVuSans-67"/>
      <use x="69.824219" xlink:href="#DejaVuSans-68"/>
      <use x="146.826172" xlink:href="#DejaVuSans-70"/>
     </g>
    </g>
   </g>
   <g id="line2d_16">
    <path clip-path="url(#p462a77367b)" d="M 70.80483 353.508124 
L 70.949809 352.341086 
L 71.032324 351.874271 
L 71.335698 350.862839 
L 71.468416 350.751693 
L 71.869452 350.040356 
L 72.74077 349.818063 
L 73.219706 348.773287 
L 73.410126 348.37316 
L 73.613818 348.295357 
L 73.966962 347.4173 
L 74.31318 347.10609 
L 74.90608 346.672619 
L 75.077747 346.472556 
L 75.360492 346.316951 
L 75.870444 345.672302 
L 76.009653 345.238831 
L 76.205843 345.227716 
L 76.270759 344.772016 
L 76.448052 344.660869 
L 76.491474 344.32743 
L 76.855004 343.816157 
L 77.08221 343.805042 
L 77.085816 343.149278 
L 77.510656 342.960329 
L 77.844613 342.582432 
L 77.905201 342.549088 
L 77.968963 341.526541 
L 78.349515 341.193101 
L 78.762092 340.859662 
L 79.150867 339.737083 
L 79.497807 339.414759 
L 79.54397 339.159122 
L 80.048872 338.481129 
L 80.172213 338.192148 
L 80.571086 336.75836 
L 80.790358 336.124825 
L 80.791079 335.880303 
L 81.061563 335.557978 
L 81.635709 334.024158 
L 81.717214 333.612916 
L 81.86378 333.457311 
L 81.883832 332.745974 
L 82.175233 332.56814 
L 82.281984 332.145784 
L 82.431291 330.856485 
L 82.602236 330.367441 
L 82.659939 330.045116 
L 82.853245 329.867282 
L 83.112909 328.555754 
L 83.727448 327.121966 
L 83.834198 326.832985 
L 84.206384 326.477317 
L 84.517981 325.087986 
L 84.86997 324.787891 
L 84.891608 323.854261 
L 85.037309 323.565281 
L 85.320054 322.131492 
L 85.482344 320.908881 
L 85.801875 320.197544 
L 85.819186 319.741844 
L 85.998066 319.430634 
L 86.034131 319.108309 
L 86.303893 318.819329 
L 86.376887 318.508119 
L 86.765518 318.063533 
L 86.880924 317.819011 
L 86.942955 317.38554 
L 87.51097 316.407452 
L 87.593558 315.82949 
L 88.020561 315.507166 
L 88.401402 314.140065 
L 88.695688 312.806308 
L 88.883223 312.517327 
L 88.955352 311.950481 
L 89.243868 311.739302 
L 89.324652 311.161341 
L 89.568448 310.794558 
L 89.578546 310.149909 
L 89.727853 309.883157 
L 89.743 309.427457 
L 89.924765 309.02733 
L 89.968042 308.427139 
L 90.204625 308.160388 
L 90.679233 306.993351 
L 90.767231 306.204211 
L 91.433702 305.426186 
L 91.713562 304.759308 
L 91.828968 304.170232 
L 92.183843 303.581156 
L 92.581994 301.958418 
L 92.737793 300.702464 
L 92.97149 300.424598 
L 93.562948 298.290587 
L 93.661043 297.134664 
L 93.943788 296.95683 
L 94.415512 295.056226 
L 94.71124 294.656099 
L 94.927627 293.911418 
L 95.045918 292.866642 
L 95.446955 291.277248 
L 96.096115 290.032408 
L 96.217292 289.687854 
L 96.508693 289.254383 
L 96.783143 286.909194 
L 97.253063 286.375691 
L 97.538694 285.364259 
L 98.15179 285.264227 
L 98.438142 284.608463 
L 98.459059 284.219451 
L 98.707182 283.852668 
L 98.842785 282.785662 
L 98.995698 281.00732 
L 99.624662 279.006684 
L 100.1714 278.573213 
L 100.239201 277.75073 
L 100.883673 275.861241 
L 101.306709 275.149904 
L 101.312479 274.627516 
L 101.453852 273.293759 
L 102.163601 272.160065 
L 102.198222 271.38204 
L 102.43192 270.61513 
L 102.587719 268.45889 
L 102.793286 268.236597 
L 102.815646 267.847585 
L 103.280156 266.513828 
L 103.705717 266.224847 
L 103.978004 265.780261 
L 104.119737 264.757714 
L 104.157244 264.113065 
L 104.393827 263.66848 
L 105.319962 262.456984 
L 105.412287 261.745647 
L 105.624346 261.278832 
L 105.850831 260.445234 
L 106.10184 258.978101 
L 106.251868 258.455713 
L 106.82349 258.077815 
L 106.981813 257.188644 
L 106.999124 256.321702 
L 107.658382 253.787564 
L 108.334951 253.209602 
L 108.49111 252.009221 
L 109.007193 251.475718 
L 109.281283 247.163237 
L 109.353412 245.307092 
L 109.800611 244.540182 
L 110.899856 243.52875 
L 111.228764 243.039706 
L 111.503575 241.917127 
L 111.80868 240.394421 
L 111.825991 239.749772 
L 112.007756 239.127352 
L 113.004217 236.893309 
L 113.623444 236.326462 
L 114.01294 234.85933 
L 114.481778 233.736751 
L 114.578431 233.258821 
L 115.192969 232.53637 
L 115.334342 231.024779 
L 115.374734 230.602422 
L 115.694987 229.791053 
L 116.075827 229.413156 
L 116.970226 228.146087 
L 117.111599 226.50112 
L 117.339526 226.045419 
L 117.916558 225.411885 
L 118.036292 223.566854 
L 118.32048 222.010805 
L 118.70132 221.632907 
L 119.16006 220.732621 
L 119.281237 220.221347 
L 119.287007 219.376635 
L 119.621685 218.59861 
L 119.773877 217.909502 
L 120.314123 216.331223 
L 120.342253 215.79772 
L 121.361435 214.275014 
L 121.72785 213.485875 
L 121.929811 212.552245 
L 122.333733 212.063201 
L 122.890568 210.985081 
L 123.144462 209.92919 
L 123.386815 209.084477 
L 123.519532 206.650371 
L 124.226396 206.205785 
L 124.517797 205.727855 
L 124.794772 204.783111 
L 124.806312 203.449354 
L 125.267937 203.004768 
L 126.173877 202.504609 
L 126.652813 201.693241 
L 127.004802 199.781522 
L 127.388528 198.77009 
L 128.067261 196.469359 
L 128.800091 195.524615 
L 128.857073 194.735475 
L 129.664917 193.801845 
L 130.054413 192.912674 
L 130.746851 191.956815 
L 130.91419 190.734205 
L 131.439288 189.95618 
L 131.580661 188.789142 
L 131.637643 187.63322 
L 132.483715 186.432838 
L 132.49237 185.899336 
L 132.619317 185.399177 
L 132.648169 184.120993 
L 133.695481 183.765325 
L 133.747414 182.998414 
L 134.734137 180.80883 
L 134.849544 180.141952 
L 135.348676 179.508417 
L 135.456869 178.808195 
L 136.254615 178.363609 
L 136.43061 177.574469 
L 137.382712 176.918706 
L 138.112656 174.495714 
L 138.184785 173.228645 
L 138.652181 172.717371 
L 139.654773 172.028264 
L 139.970697 171.03906 
L 140.513107 169.071769 
L 140.94011 168.482693 
L 140.951651 167.749127 
L 141.76815 166.459828 
L 142.076862 164.503651 
L 143.600225 161.691647 
L 143.831037 160.191171 
L 144.044539 156.834549 
L 145.187061 154.044774 
L 146.329583 153.589074 
L 146.695998 151.844075 
L 147.884683 151.266114 
L 148.484796 150.832643 
L 148.57135 149.209905 
L 149.471519 148.198473 
L 150.31687 145.375354 
L 150.997767 144.519527 
L 151.000652 143.663699 
L 151.365625 142.385516 
L 152.327825 141.040644 
L 152.78945 139.995868 
L 153.308778 139.328989 
L 154.959088 138.328672 
L 155.169704 137.172749 
L 156.468025 136.250234 
L 157.117185 135.583355 
L 158.005813 133.649408 
L 160.341348 127.803106 
L 160.619766 125.413459 
L 161.271811 123.957441 
L 161.496853 122.290244 
L 162.743241 120.57859 
L 163.897304 120.022858 
L 164.257949 118.766903 
L 164.65033 115.943784 
L 165.386045 114.2099 
L 166.107334 111.086686 
L 168.011538 110.275317 
L 168.450082 108.65258 
L 169.321399 107.196562 
L 169.418052 106.207359 
L 170.498543 105.751659 
L 172.177704 103.617647 
L 172.988434 101.99491 
L 174.324261 101.216885 
L 174.417308 100.427745 
L 174.540648 98.249276 
L 175.654319 97.560168 
L 177.532556 96.126379 
L 178.323089 95.137176 
L 178.62026 94.270234 
L 180.406172 92.880904 
L 181.061103 90.413454 
L 182.71574 87.834857 
L 185.175337 86.97903 
L 185.302283 86.245463 
L 186.762173 85.689731 
L 187.718602 84.956165 
L 188.219177 84.278172 
L 190.573465 83.833586 
L 191.363998 82.811039 
L 191.502486 81.955212 
L 191.983586 80.854862 
L 193.426885 80.376933 
L 194.70501 78.943144 
L 194.855038 78.498558 
L 195.420529 77.764992 
L 197.059298 76.986967 
L 197.592331 76.397891 
L 199.332802 75.908847 
L 199.566499 74.941873 
L 199.635743 73.963785 
L 199.961766 73.085728 
L 202.376642 72.129869 
L 202.460312 70.340412 
L 202.728631 69.906941 
L 204.309698 68.99554 
L 205.077149 68.173057 
L 205.155048 67.528408 
L 205.447171 66.3836 
L 206.597627 65.972358 
L 209.416425 64.82755 
L 210.896511 64.405194 
L 211.502394 63.293729 
L 213.849469 62.715768 
L 214.46545 62.04889 
L 216.588926 61.604304 
L 217.339066 61.137489 
L 217.95649 59.981566 
L 218.917247 59.114624 
L 219.062226 58.347714 
L 219.580833 58.00316 
L 223.201705 57.625262 
L 223.265179 57.214021 
L 224.629858 56.880581 
L 228.415184 56.44711 
L 228.813336 56.169244 
L 230.299191 55.469022 
L 231.865832 55.168927 
L 232.160118 54.879946 
L 232.866981 54.613195 
L 233.565189 52.890425 
L 233.891212 52.690362 
L 234.127795 52.345808 
L 234.150876 51.545554 
L 239.776932 51.467751 
L 240.267409 50.834217 
L 244.33548 50.567465 
L 245.879039 50.234026 
L 249.471059 50.189568 
L 250.653974 49.767211 
L 259.165187 49.233708 
L 261.184797 48.989186 
L 261.992641 48.622403 
L 268.917017 46.288329 
L 279.361285 44.843425 
L 286.170256 44.632247 
L 286.42992 44.443298 
L 299.038056 43.420751 
L 299.759345 43.209573 
L 319.684239 42.520465 
L 324.407241 41.686867 
L 330.558396 41.497918 
L 330.595903 40.875498 
L 331.876912 40.553174 
L 334.372573 40.230849 
L 338.039608 39.597315 
L 339.055183 39.141614 
L 343.463703 38.808175 
L 343.795496 37.818972 
L 356.501727 37.129864 
L 358.518452 36.32961 
L 358.610777 35.729419 
L 364.658066 35.351522 
L 385.636042 35.129229 
L 387.958593 34.818019 
L 390.079184 34.284516 
L 415.211975 33.86216 
L 439.836601 33.462033 
L 440.6837 32.684008 
L 450.037623 32.461715 
L 466.082197 31.717034 
L 484.9518 31.37248 
L 487.042723 31.105729 
L 491.805977 30.894551 
L 539.27642 30.46108 
L 539.27642 30.46108 
" style="fill:none;stroke:#1f77b4;stroke-linecap:square;stroke-width:1.5;"/>
   </g>
   <g id="line2d_17">
    <path clip-path="url(#p462a77367b)" d="M 70.80483 353.671666 
L 70.876958 353.525582 
L 71.335698 352.356911 
L 71.468416 352.283869 
L 71.653066 351.699534 
L 71.869452 351.589971 
L 72.74077 351.480408 
L 72.908109 351.18824 
L 73.069678 350.969115 
L 73.740188 350.05609 
L 73.909258 350.019569 
L 74.31318 349.617839 
L 74.85559 349.435234 
L 75.870444 348.741335 
L 76.009653 348.376126 
L 76.226905 348.083958 
L 76.479933 347.572664 
L 77.556097 347.170934 
L 77.939823 346.805724 
L 78.06677 346.440514 
L 78.762092 345.929221 
L 79.000118 345.454448 
L 79.318928 345.125759 
L 80.048872 344.687508 
L 80.058538 344.614466 
L 80.791079 342.971022 
L 81.061563 342.934501 
L 81.635709 342.204082 
L 81.86378 341.948435 
L 82.175233 341.875393 
L 82.431291 341.035411 
L 82.599351 340.889327 
L 82.659939 340.378033 
L 83.049436 339.574572 
L 83.112909 339.209362 
L 84.206384 338.515464 
L 84.517981 337.821565 
L 84.86997 337.63896 
L 85.037309 337.164188 
L 85.253696 336.908541 
L 85.482344 335.995517 
L 85.801875 335.922475 
L 85.819186 335.447702 
L 85.998066 335.192055 
L 86.034131 334.863367 
L 86.303893 334.826846 
L 86.376887 334.571199 
L 86.765518 334.24251 
L 86.880924 334.023384 
L 86.942955 333.402528 
L 87.137703 333.366007 
L 88.020561 332.306899 
L 88.401402 331.941689 
L 88.955352 330.626934 
L 89.243868 330.444329 
L 89.324652 330.225203 
L 90.438683 328.399155 
L 90.539303 328.326113 
L 90.767231 327.157442 
L 91.433702 326.865274 
L 92.682614 324.016638 
L 92.737793 323.870555 
L 92.97149 323.797513 
L 93.102765 323.578387 
L 93.164796 323.176656 
L 93.620651 322.994051 
L 93.661043 322.628842 
L 93.943788 322.519279 
L 94.415512 321.496692 
L 94.71124 321.42365 
L 94.927627 320.875835 
L 95.045918 320.035853 
L 95.187291 319.816727 
L 95.446955 318.830661 
L 95.643146 318.648056 
L 95.717439 318.282846 
L 96.096115 317.954157 
L 96.217292 317.625469 
L 96.577937 317.187217 
L 96.637082 316.383756 
L 96.783143 316.16463 
L 97.253063 315.835941 
L 97.538694 315.142043 
L 98.15179 314.959438 
L 98.438142 314.594228 
L 98.459059 314.338581 
L 98.707182 314.265539 
L 98.995698 312.40297 
L 99.098482 312.220365 
L 99.129137 311.63603 
L 99.624662 311.088215 
L 100.1714 310.759526 
L 100.438277 310.394317 
L 100.695056 310.321275 
L 100.883673 309.846502 
L 101.312479 309.298687 
L 101.433656 309.116083 
L 101.453852 308.787394 
L 102.163601 308.130016 
L 102.198222 307.034387 
L 102.457887 306.559615 
L 102.587719 305.829195 
L 104.062034 303.455332 
L 104.157244 302.61535 
L 104.393827 302.359703 
L 105.412287 300.75278 
L 105.850831 300.168445 
L 106.251868 299.072816 
L 106.82349 298.963253 
L 106.981813 298.050229 
L 106.999124 297.794582 
L 107.658382 295.968533 
L 108.334951 295.822449 
L 108.412851 295.676366 
L 108.49111 295.238114 
L 109.007193 294.836383 
L 109.353412 291.732101 
L 109.800611 291.293849 
L 110.565178 290.855597 
L 111.228764 289.942573 
L 112.007756 287.56871 
L 112.617245 285.852225 
L 112.651146 285.560057 
L 113.004217 285.194847 
L 113.623444 284.756595 
L 114.212016 283.149673 
L 114.578431 281.287103 
L 115.192969 280.483642 
L 115.374734 278.255863 
L 116.075827 276.721982 
L 116.40185 276.612419 
L 117.111599 275.480269 
L 117.339526 274.567245 
L 117.916558 274.165514 
L 118.118519 272.412507 
L 118.24258 272.302945 
L 118.32048 272.047298 
L 119.281237 271.024711 
L 119.287007 270.440375 
L 119.621685 270.038644 
L 119.773877 269.162141 
L 120.314123 268.869973 
L 120.342253 268.35868 
L 120.764207 267.664781 
L 121.305174 267.080446 
L 121.361435 266.642194 
L 121.929811 265.400481 
L 122.333733 265.327439 
L 123.029056 263.391828 
L 123.144462 262.588366 
L 123.386815 262.259678 
L 123.519532 260.652755 
L 124.226396 260.397108 
L 124.517797 260.141461 
L 124.806312 258.20585 
L 125.267937 257.804119 
L 126.173877 257.548473 
L 126.652813 257.110221 
L 126.843233 255.649382 
L 127.388528 254.736358 
L 127.653962 253.238998 
L 127.864579 252.983351 
L 128.067261 252.508579 
L 128.800091 251.230345 
L 128.857073 250.499925 
L 130.054413 249.696464 
L 130.746851 248.746919 
L 130.91419 246.51914 
L 131.439288 246.226972 
L 131.637643 243.560941 
L 132.483715 242.100102 
L 132.49237 241.698372 
L 132.648169 241.114036 
L 133.695481 240.785347 
L 133.747414 239.76276 
L 134.849544 237.644544 
L 135.348676 237.534981 
L 135.456869 236.293268 
L 136.254615 235.891537 
L 136.43061 235.343723 
L 137.601983 233.298548 
L 138.112656 230.595997 
L 138.184785 230.413392 
L 138.652181 230.084703 
L 139.654773 228.769948 
L 139.970697 228.112571 
L 140.429437 227.418672 
L 140.513107 226.98042 
L 140.94011 226.615211 
L 140.951651 226.067396 
L 141.76815 225.519582 
L 141.909523 225.154372 
L 142.076862 224.131785 
L 143.600225 223.328323 
L 143.831037 221.867485 
L 144.044539 218.069304 
L 145.187061 214.198081 
L 146.329583 213.869392 
L 146.5402 213.467661 
L 146.695998 212.372032 
L 148.484796 210.144253 
L 148.57135 206.346072 
L 149.471519 205.907821 
L 150.31687 205.213922 
L 150.997767 204.885233 
L 151.000652 204.154814 
L 151.365625 202.51137 
L 151.846003 202.073119 
L 153.308778 199.187962 
L 154.959088 198.603627 
L 155.169704 196.375847 
L 156.468025 194.732404 
L 159.110829 192.614187 
L 159.583994 190.532492 
L 160.538981 187.099521 
L 160.619766 186.332581 
L 161.271811 183.776113 
L 161.496853 182.205711 
L 162.245552 179.576201 
L 162.743241 178.882303 
L 163.897304 178.297967 
L 164.65033 174.572828 
L 165.386045 173.805888 
L 165.556269 173.14851 
L 166.107334 168.729473 
L 168.011538 168.364263 
L 168.450082 166.72082 
L 169.321399 164.237394 
L 169.418052 162.59395 
L 170.498543 161.717447 
L 171.009216 160.32965 
L 172.177704 159.014895 
L 172.988434 157.809703 
L 174.324261 157.554056 
L 174.540648 153.975001 
L 175.654319 152.03939 
L 177.532556 151.089844 
L 178.323089 149.884652 
L 178.62026 148.314251 
L 179.462726 146.305597 
L 180.406172 145.940387 
L 180.843995 142.799584 
L 181.525613 140.608326 
L 182.39116 139.731823 
L 182.71574 138.197942 
L 185.175337 135.787558 
L 185.302283 135.349306 
L 186.762173 134.436282 
L 187.718602 131.660688 
L 188.219177 131.405041 
L 190.573465 130.017244 
L 191.363998 128.118154 
L 191.983586 124.977351 
L 193.426885 123.662596 
L 194.70501 122.676529 
L 194.855038 121.325254 
L 195.420529 120.923523 
L 197.059298 120.521792 
L 197.592331 119.389642 
L 199.332802 119.170516 
L 199.635743 116.066234 
L 199.961766 115.372335 
L 202.376642 114.788 
L 202.460312 113.034993 
L 202.728631 112.231532 
L 204.309698 110.332441 
L 205.077149 108.725519 
L 205.447171 104.890817 
L 206.597627 103.539541 
L 209.416425 102.73608 
L 210.896511 102.042181 
L 211.502394 99.814402 
L 213.849469 98.244 
L 214.46545 97.550102 
L 216.588926 96.673599 
L 217.339066 96.016221 
L 217.95649 94.993634 
L 218.917247 93.934526 
L 219.062226 91.925872 
L 219.580833 91.195453 
L 223.201705 90.245908 
L 223.265179 89.807656 
L 224.629858 87.945087 
L 228.415184 86.082517 
L 228.813336 84.913846 
L 230.299191 84.000822 
L 231.865832 83.489528 
L 232.160118 82.941714 
L 232.866981 82.284336 
L 233.565189 80.567851 
L 233.891212 80.16612 
L 234.127795 78.778323 
L 234.150876 77.025317 
L 239.776932 76.440981 
L 240.267409 75.674041 
L 245.879039 73.701908 
L 249.471059 72.971489 
L 250.653974 71.912381 
L 255.529889 70.889794 
L 259.165187 70.488063 
L 261.184797 70.086332 
L 261.992641 69.063745 
L 265.890488 68.260284 
L 266.955111 66.507277 
L 268.05147 66.397714 
L 268.917017 65.48469 
L 278.521705 64.389061 
L 279.361285 63.804725 
L 284.935409 63.476037 
L 286.170256 63.147348 
L 286.42992 62.818659 
L 299.038056 62.124761 
L 299.759345 61.35782 
L 319.684239 60.335233 
L 324.407241 58.910915 
L 330.558396 58.399622 
L 330.595903 57.888328 
L 331.876912 57.230951 
L 338.039608 55.149255 
L 339.055183 54.382315 
L 343.463703 53.286686 
L 343.795496 51.131949 
L 356.501727 49.817194 
L 358.518452 47.918103 
L 358.610777 45.945971 
L 364.658066 45.105989 
L 385.636042 44.959905 
L 387.958593 44.01036 
L 390.079184 42.91473 
L 404.34917 42.403437 
L 415.211975 41.709538 
L 439.836601 41.453892 
L 440.6837 39.481759 
L 450.037623 38.495693 
L 459.099178 37.363543 
L 466.082197 35.391411 
L 477.04647 34.478386 
L 484.9518 34.149698 
L 487.042723 32.433212 
L 491.805977 31.556709 
L 517.732876 30.534121 
L 539.27642 30.46108 
L 539.27642 30.46108 
" style="fill:none;stroke:#ff7f0e;stroke-linecap:square;stroke-width:1.5;"/>
   </g>
   <g id="line2d_18">
    <path clip-path="url(#p462a77367b)" d="M 70.80483 353.68267 
L 70.902204 353.401985 
L 71.231833 352.942683 
L 71.335698 352.866132 
L 71.869452 352.432346 
L 72.83021 352.253728 
L 72.957157 352.100627 
L 73.410126 351.768909 
L 73.689987 351.666841 
L 73.740188 351.590291 
L 74.66517 351.284089 
L 76.479933 350.79927 
L 76.491474 350.773753 
L 77.08221 350.646169 
L 77.085816 350.467551 
L 77.510656 350.391 
L 77.635439 350.263416 
L 77.844613 350.237899 
L 77.968963 350.110315 
L 79.073689 349.727563 
L 79.150867 349.523428 
L 79.875763 349.395844 
L 80.790358 348.885508 
L 80.791079 348.732407 
L 81.883832 348.017936 
L 82.253132 347.941385 
L 82.305065 347.788284 
L 82.599351 347.6607 
L 82.602236 347.558633 
L 83.112909 347.328982 
L 83.669023 347.252431 
L 83.834198 346.997263 
L 84.367952 346.691061 
L 84.878625 346.359342 
L 84.891608 346.104174 
L 85.253696 346.002107 
L 85.482344 345.644871 
L 85.819186 345.49177 
L 86.034131 345.185569 
L 86.376887 345.083501 
L 88.401402 343.986278 
L 88.894042 343.16974 
L 88.955352 342.786987 
L 89.578546 342.633886 
L 89.968042 342.276651 
L 91.012469 341.613213 
L 91.433702 341.485629 
L 92.071321 340.898742 
L 92.581994 340.464956 
L 92.737793 340.107721 
L 92.97149 340.056687 
L 93.164796 339.878069 
L 94.082997 339.367733 
L 94.217878 339.189115 
L 94.927627 338.755329 
L 95.045918 338.500161 
L 95.717439 337.505005 
L 96.577937 336.969152 
L 96.637082 336.637433 
L 96.783143 336.17813 
L 97.253063 336.10158 
L 97.538694 335.795378 
L 98.707182 335.029873 
L 98.842785 334.749188 
L 98.995698 334.213335 
L 99.098482 334.136784 
L 99.129137 333.677482 
L 100.1714 333.167145 
L 100.883673 332.656809 
L 101.306709 332.146472 
L 101.312479 331.942338 
L 101.453852 331.712686 
L 102.163601 331.687169 
L 102.198222 331.457518 
L 102.815646 329.977542 
L 103.978004 329.084454 
L 104.062034 329.058937 
L 104.157244 328.727218 
L 104.393827 328.318949 
L 105.850831 327.374826 
L 106.10184 326.736906 
L 106.932765 326.30312 
L 107.261673 325.333481 
L 107.40016 325.25693 
L 107.658382 324.797627 
L 108.412851 324.69556 
L 108.49111 324.338325 
L 109.007193 323.674887 
L 109.353412 322.118361 
L 109.800611 321.96526 
L 111.228764 321.021138 
L 111.459576 320.765969 
L 111.503575 320.332183 
L 112.007756 319.643229 
L 112.617245 319.005309 
L 112.651146 318.852208 
L 113.004217 318.622556 
L 113.623444 318.469455 
L 114.578431 316.377076 
L 115.192969 316.198458 
L 115.374734 315.407437 
L 115.694987 315.101235 
L 116.075827 314.488831 
L 116.40185 314.33573 
L 116.970226 313.799877 
L 117.111599 313.366091 
L 117.339526 312.855754 
L 117.916558 312.65162 
L 118.118519 311.733014 
L 118.32048 311.60543 
L 118.70132 311.171644 
L 119.281237 310.941993 
L 119.287007 310.533724 
L 119.621685 310.431656 
L 119.773877 309.717185 
L 120.143899 309.538567 
L 120.342253 309.053748 
L 120.764207 308.262726 
L 121.929811 307.012402 
L 122.333733 306.859301 
L 123.029056 306.297931 
L 123.144462 305.608977 
L 123.386815 305.353809 
L 123.519532 304.154518 
L 124.226396 303.720732 
L 124.517797 303.363496 
L 125.267937 302.011105 
L 126.173877 301.398701 
L 126.652813 300.837331 
L 126.843233 299.689074 
L 127.235615 299.306322 
L 127.388528 299.204254 
L 127.653962 298.464267 
L 128.800091 297.418077 
L 128.857073 296.729123 
L 129.295617 296.550505 
L 129.664917 296.167752 
L 130.054413 296.091202 
L 130.746851 294.891911 
L 130.91419 293.411936 
L 131.439288 293.0547 
L 131.637643 290.630602 
L 132.483715 289.865097 
L 132.49237 289.252694 
L 132.619317 288.818908 
L 132.648169 288.129953 
L 133.695481 287.976852 
L 133.747414 286.854112 
L 134.197498 286.598944 
L 134.849544 284.8638 
L 135.348676 284.608632 
L 135.456869 283.536925 
L 136.254615 283.205207 
L 136.43061 282.541769 
L 137.382712 281.623164 
L 137.601983 281.240411 
L 138.184785 278.561145 
L 139.654773 277.412888 
L 139.774507 276.953585 
L 140.429437 276.213597 
L 140.513107 275.754294 
L 140.94011 275.422576 
L 140.951651 274.98879 
L 141.76815 273.763982 
L 142.076862 272.692276 
L 143.600225 271.620569 
L 143.831037 270.344728 
L 144.044539 267.027541 
L 144.673503 264.603443 
L 145.187061 262.766232 
L 146.329583 262.46003 
L 146.695998 261.515907 
L 147.884683 260.980054 
L 148.484796 260.342134 
L 148.57135 257.892519 
L 151.000652 255.774622 
L 151.365625 254.549815 
L 151.846003 254.294647 
L 153.308778 251.998133 
L 154.959088 251.666414 
L 155.169704 249.880236 
L 156.468025 248.783013 
L 158.005813 247.940958 
L 159.110829 246.843735 
L 159.583994 245.618927 
L 160.538981 242.30174 
L 160.619766 241.638303 
L 161.271811 240.005226 
L 161.496853 238.856969 
L 162.245552 237.045275 
L 162.743241 236.432871 
L 163.897304 235.667366 
L 164.257949 233.600504 
L 164.65033 232.375696 
L 165.386045 230.844687 
L 165.556269 229.313677 
L 165.700527 229.13506 
L 166.107334 226.940613 
L 168.011538 226.608894 
L 168.450082 225.256503 
L 169.321399 223.215157 
L 169.418052 222.0669 
L 170.498543 221.275878 
L 171.009216 219.89797 
L 172.177704 218.724196 
L 172.988434 217.882141 
L 174.324261 217.678006 
L 174.540648 214.335303 
L 175.654319 212.880844 
L 177.532556 212.34499 
L 178.323089 211.553969 
L 179.462726 208.798152 
L 180.406172 208.007131 
L 180.843995 205.276831 
L 181.061103 204.945112 
L 181.525613 202.342396 
L 182.39116 201.321723 
L 182.71574 199.127276 
L 185.175337 196.958347 
L 185.302283 196.320426 
L 186.762173 195.095618 
L 187.718602 192.926689 
L 188.219177 192.467386 
L 190.573465 191.242578 
L 191.502486 189.048132 
L 191.983586 187.21092 
L 193.426885 185.833012 
L 194.70501 184.939923 
L 194.855038 183.970284 
L 195.420529 183.000645 
L 197.059298 182.566859 
L 197.592331 181.061366 
L 199.332802 180.474479 
L 199.566499 179.249672 
L 199.635743 176.978674 
L 199.961766 176.085586 
L 202.376642 175.141463 
L 202.460312 173.789072 
L 202.728631 172.793916 
L 204.309698 171.160839 
L 205.077149 170.165683 
L 205.155048 168.405022 
L 205.447171 164.577499 
L 206.597627 162.306502 
L 210.896511 159.90792 
L 211.502394 155.723161 
L 213.849469 153.299063 
L 214.46545 152.354941 
L 216.588926 151.997705 
L 217.339066 151.181167 
L 218.917247 148.170182 
L 219.062226 146.562622 
L 219.580833 144.904029 
L 223.201705 143.475087 
L 223.265179 142.96475 
L 224.629858 141.28064 
L 228.415184 139.826181 
L 228.813336 139.137227 
L 231.865832 137.963453 
L 232.160118 136.202792 
L 232.866981 134.977985 
L 233.565189 132.885605 
L 233.891212 131.431146 
L 234.127795 129.670486 
L 234.150876 127.118803 
L 239.776932 125.689861 
L 240.267409 124.771256 
L 244.33548 122.16854 
L 245.879039 121.913371 
L 249.471059 121.147867 
L 250.653974 119.489273 
L 255.529889 118.39205 
L 259.165187 116.631389 
L 261.184797 115.304514 
L 261.992641 114.283842 
L 265.890488 112.625248 
L 266.955111 110.660453 
L 268.05147 109.818398 
L 268.917017 108.261871 
L 278.521705 106.807413 
L 279.361285 105.659156 
L 284.935409 105.250886 
L 286.170256 103.975045 
L 286.42992 103.515742 
L 299.038056 102.061284 
L 299.759345 100.683375 
L 319.684239 99.050298 
L 324.407241 97.366188 
L 330.558396 96.090347 
L 330.595903 94.329686 
L 331.876912 93.079362 
L 334.372573 91.063533 
L 338.039608 89.736658 
L 339.055183 88.613918 
L 343.463703 86.853257 
L 343.795496 81.520241 
L 356.501727 79.351312 
L 358.518452 75.243103 
L 358.610777 72.946589 
L 364.658066 71.670748 
L 385.636042 71.262479 
L 387.958593 68.608729 
L 390.079184 66.848068 
L 404.34917 64.500521 
L 415.211975 61.872288 
L 439.836601 61.208851 
L 440.6837 55.6717 
L 450.037623 52.328996 
L 466.082197 43.678794 
L 477.04647 40.514708 
L 484.9518 40.080922 
L 487.042723 36.329949 
L 491.805977 33.880334 
L 517.732876 30.716248 
L 539.27642 30.46108 
L 539.27642 30.46108 
" style="fill:none;stroke:#2ca02c;stroke-linecap:square;stroke-width:1.5;"/>
   </g>
   <g id="patch_3">
    <path d="M 47.38125 369.84375 
L 47.38125 14.3 
" style="fill:none;stroke:#000000;stroke-linecap:square;stroke-linejoin:miter;stroke-width:0.8;"/>
   </g>
   <g id="patch_4">
    <path d="M 562.7 369.84375 
L 562.7 14.3 
" style="fill:none;stroke:#000000;stroke-linecap:square;stroke-linejoin:miter;stroke-width:0.8;"/>
   </g>
   <g id="patch_5">
    <path d="M 47.38125 369.84375 
L 562.7 369.84375 
" style="fill:none;stroke:#000000;stroke-linecap:square;stroke-linejoin:miter;stroke-width:0.8;"/>
   </g>
   <g id="patch_6">
    <path d="M 47.38125 14.3 
L 562.7 14.3 
" style="fill:none;stroke:#000000;stroke-linecap:square;stroke-linejoin:miter;stroke-width:0.8;"/>
   </g>
   <g id="legend_1">
    <g id="patch_7">
     <path d="M 54.38125 66.334375 
L 144.604688 66.334375 
Q 146.604688 66.334375 146.604688 64.334375 
L 146.604688 21.3 
Q 146.604688 19.3 144.604688 19.3 
L 54.38125 19.3 
Q 52.38125 19.3 52.38125 21.3 
L 52.38125 64.334375 
Q 52.38125 66.334375 54.38125 66.334375 
z
" style="fill:#ffffff;opacity:0.8;stroke:#cccccc;stroke-linejoin:miter;"/>
    </g>
    <g id="line2d_19">
     <path d="M 56.38125 27.398438 
L 76.38125 27.398438 
" style="fill:none;stroke:#1f77b4;stroke-linecap:square;stroke-width:1.5;"/>
    </g>
    <g id="line2d_20"/>
    <g id="text_18">
     <!-- High school -->
     <defs>
      <path d="M 9.8125 72.90625 
L 19.671875 72.90625 
L 19.671875 43.015625 
L 55.515625 43.015625 
L 55.515625 72.90625 
L 65.375 72.90625 
L 65.375 0 
L 55.515625 0 
L 55.515625 34.71875 
L 19.671875 34.71875 
L 19.671875 0 
L 9.8125 0 
z
" id="DejaVuSans-72"/>
      <path d="M 9.421875 54.6875 
L 18.40625 54.6875 
L 18.40625 0 
L 9.421875 0 
z
M 9.421875 75.984375 
L 18.40625 75.984375 
L 18.40625 64.59375 
L 9.421875 64.59375 
z
" id="DejaVuSans-105"/>
      <path d="M 45.40625 27.984375 
Q 45.40625 37.75 41.375 43.109375 
Q 37.359375 48.484375 30.078125 48.484375 
Q 22.859375 48.484375 18.828125 43.109375 
Q 14.796875 37.75 14.796875 27.984375 
Q 14.796875 18.265625 18.828125 12.890625 
Q 22.859375 7.515625 30.078125 7.515625 
Q 37.359375 7.515625 41.375 12.890625 
Q 45.40625 18.265625 45.40625 27.984375 
z
M 54.390625 6.78125 
Q 54.390625 -7.171875 48.1875 -13.984375 
Q 42 -20.796875 29.203125 -20.796875 
Q 24.46875 -20.796875 20.265625 -20.09375 
Q 16.0625 -19.390625 12.109375 -17.921875 
L 12.109375 -9.1875 
Q 16.0625 -11.328125 19.921875 -12.34375 
Q 23.78125 -13.375 27.78125 -13.375 
Q 36.625 -13.375 41.015625 -8.765625 
Q 45.40625 -4.15625 45.40625 5.171875 
L 45.40625 9.625 
Q 42.625 4.78125 38.28125 2.390625 
Q 33.9375 0 27.875 0 
Q 17.828125 0 11.671875 7.65625 
Q 5.515625 15.328125 5.515625 27.984375 
Q 5.515625 40.671875 11.671875 48.328125 
Q 17.828125 56 27.875 56 
Q 33.9375 56 38.28125 53.609375 
Q 42.625 51.21875 45.40625 46.390625 
L 45.40625 54.6875 
L 54.390625 54.6875 
z
" id="DejaVuSans-103"/>
      <path d="M 54.890625 33.015625 
L 54.890625 0 
L 45.90625 0 
L 45.90625 32.71875 
Q 45.90625 40.484375 42.875 44.328125 
Q 39.84375 48.1875 33.796875 48.1875 
Q 26.515625 48.1875 22.3125 43.546875 
Q 18.109375 38.921875 18.109375 30.90625 
L 18.109375 0 
L 9.078125 0 
L 9.078125 75.984375 
L 18.109375 75.984375 
L 18.109375 46.1875 
Q 21.34375 51.125 25.703125 53.5625 
Q 30.078125 56 35.796875 56 
Q 45.21875 56 50.046875 50.171875 
Q 54.890625 44.34375 54.890625 33.015625 
z
" id="DejaVuSans-104"/>
      <path d="M 44.28125 53.078125 
L 44.28125 44.578125 
Q 40.484375 46.53125 36.375 47.5 
Q 32.28125 48.484375 27.875 48.484375 
Q 21.1875 48.484375 17.84375 46.4375 
Q 14.5 44.390625 14.5 40.28125 
Q 14.5 37.15625 16.890625 35.375 
Q 19.28125 33.59375 26.515625 31.984375 
L 29.59375 31.296875 
Q 39.15625 29.25 43.1875 25.515625 
Q 47.21875 21.78125 47.21875 15.09375 
Q 47.21875 7.46875 41.1875 3.015625 
Q 35.15625 -1.421875 24.609375 -1.421875 
Q 20.21875 -1.421875 15.453125 -0.5625 
Q 10.6875 0.296875 5.421875 2 
L 5.421875 11.28125 
Q 10.40625 8.6875 15.234375 7.390625 
Q 20.0625 6.109375 24.8125 6.109375 
Q 31.15625 6.109375 34.5625 8.28125 
Q 37.984375 10.453125 37.984375 14.40625 
Q 37.984375 18.0625 35.515625 20.015625 
Q 33.0625 21.96875 24.703125 23.78125 
L 21.578125 24.515625 
Q 13.234375 26.265625 9.515625 29.90625 
Q 5.8125 33.546875 5.8125 39.890625 
Q 5.8125 47.609375 11.28125 51.796875 
Q 16.75 56 26.8125 56 
Q 31.78125 56 36.171875 55.265625 
Q 40.578125 54.546875 44.28125 53.078125 
z
" id="DejaVuSans-115"/>
      <path d="M 9.421875 75.984375 
L 18.40625 75.984375 
L 18.40625 0 
L 9.421875 0 
z
" id="DejaVuSans-108"/>
     </defs>
     <g transform="translate(84.38125 30.898438)scale(0.1 -0.1)">
      <use xlink:href="#DejaVuSans-72"/>
      <use x="75.195312" xlink:href="#DejaVuSans-105"/>
      <use x="102.978516" xlink:href="#DejaVuSans-103"/>
      <use x="166.455078" xlink:href="#DejaVuSans-104"/>
      <use x="229.833984" xlink:href="#DejaVuSans-32"/>
      <use x="261.621094" xlink:href="#DejaVuSans-115"/>
      <use x="313.720703" xlink:href="#DejaVuSans-99"/>
      <use x="368.701172" xlink:href="#DejaVuSans-104"/>
      <use x="432.080078" xlink:href="#DejaVuSans-111"/>
      <use x="493.261719" xlink:href="#DejaVuSans-111"/>
      <use x="554.443359" xlink:href="#DejaVuSans-108"/>
     </g>
    </g>
    <g id="line2d_21">
     <path d="M 56.38125 42.076563 
L 76.38125 42.076563 
" style="fill:none;stroke:#ff7f0e;stroke-linecap:square;stroke-width:1.5;"/>
    </g>
    <g id="line2d_22"/>
    <g id="text_19">
     <!-- Associate -->
     <defs>
      <path d="M 34.1875 63.1875 
L 20.796875 26.90625 
L 47.609375 26.90625 
z
M 28.609375 72.90625 
L 39.796875 72.90625 
L 67.578125 0 
L 57.328125 0 
L 50.6875 18.703125 
L 17.828125 18.703125 
L 11.1875 0 
L 0.78125 0 
z
" id="DejaVuSans-65"/>
      <path d="M 34.28125 27.484375 
Q 23.390625 27.484375 19.1875 25 
Q 14.984375 22.515625 14.984375 16.5 
Q 14.984375 11.71875 18.140625 8.90625 
Q 21.296875 6.109375 26.703125 6.109375 
Q 34.1875 6.109375 38.703125 11.40625 
Q 43.21875 16.703125 43.21875 25.484375 
L 43.21875 27.484375 
z
M 52.203125 31.203125 
L 52.203125 0 
L 43.21875 0 
L 43.21875 8.296875 
Q 40.140625 3.328125 35.546875 0.953125 
Q 30.953125 -1.421875 24.3125 -1.421875 
Q 15.921875 -1.421875 10.953125 3.296875 
Q 6 8.015625 6 15.921875 
Q 6 25.140625 12.171875 29.828125 
Q 18.359375 34.515625 30.609375 34.515625 
L 43.21875 34.515625 
L 43.21875 35.40625 
Q 43.21875 41.609375 39.140625 45 
Q 35.0625 48.390625 27.6875 48.390625 
Q 23 48.390625 18.546875 47.265625 
Q 14.109375 46.140625 10.015625 43.890625 
L 10.015625 52.203125 
Q 14.9375 54.109375 19.578125 55.046875 
Q 24.21875 56 28.609375 56 
Q 40.484375 56 46.34375 49.84375 
Q 52.203125 43.703125 52.203125 31.203125 
z
" id="DejaVuSans-97"/>
      <path d="M 18.3125 70.21875 
L 18.3125 54.6875 
L 36.8125 54.6875 
L 36.8125 47.703125 
L 18.3125 47.703125 
L 18.3125 18.015625 
Q 18.3125 11.328125 20.140625 9.421875 
Q 21.96875 7.515625 27.59375 7.515625 
L 36.8125 7.515625 
L 36.8125 0 
L 27.59375 0 
Q 17.1875 0 13.234375 3.875 
Q 9.28125 7.765625 9.28125 18.015625 
L 9.28125 47.703125 
L 2.6875 47.703125 
L 2.6875 54.6875 
L 9.28125 54.6875 
L 9.28125 70.21875 
z
" id="DejaVuSans-116"/>
     </defs>
     <g transform="translate(84.38125 45.576563)scale(0.1 -0.1)">
      <use xlink:href="#DejaVuSans-65"/>
      <use x="68.408203" xlink:href="#DejaVuSans-115"/>
      <use x="120.507812" xlink:href="#DejaVuSans-115"/>
      <use x="172.607422" xlink:href="#DejaVuSans-111"/>
      <use x="233.789062" xlink:href="#DejaVuSans-99"/>
      <use x="288.769531" xlink:href="#DejaVuSans-105"/>
      <use x="316.552734" xlink:href="#DejaVuSans-97"/>
      <use x="377.832031" xlink:href="#DejaVuSans-116"/>
      <use x="417.041016" xlink:href="#DejaVuSans-101"/>
     </g>
    </g>
    <g id="line2d_23">
     <path d="M 56.38125 56.754687 
L 76.38125 56.754687 
" style="fill:none;stroke:#2ca02c;stroke-linecap:square;stroke-width:1.5;"/>
    </g>
    <g id="line2d_24"/>
    <g id="text_20">
     <!-- Bachelor -->
     <defs>
      <path d="M 19.671875 34.8125 
L 19.671875 8.109375 
L 35.5 8.109375 
Q 43.453125 8.109375 47.28125 11.40625 
Q 51.125 14.703125 51.125 21.484375 
Q 51.125 28.328125 47.28125 31.5625 
Q 43.453125 34.8125 35.5 34.8125 
z
M 19.671875 64.796875 
L 19.671875 42.828125 
L 34.28125 42.828125 
Q 41.5 42.828125 45.03125 45.53125 
Q 48.578125 48.25 48.578125 53.8125 
Q 48.578125 59.328125 45.03125 62.0625 
Q 41.5 64.796875 34.28125 64.796875 
z
M 9.8125 72.90625 
L 35.015625 72.90625 
Q 46.296875 72.90625 52.390625 68.21875 
Q 58.5 63.53125 58.5 54.890625 
Q 58.5 48.1875 55.375 44.234375 
Q 52.25 40.28125 46.1875 39.3125 
Q 53.46875 37.75 57.5 32.78125 
Q 61.53125 27.828125 61.53125 20.40625 
Q 61.53125 10.640625 54.890625 5.3125 
Q 48.25 0 35.984375 0 
L 9.8125 0 
z
" id="DejaVuSans-66"/>
      <path d="M 41.109375 46.296875 
Q 39.59375 47.171875 37.8125 47.578125 
Q 36.03125 48 33.890625 48 
Q 26.265625 48 22.1875 43.046875 
Q 18.109375 38.09375 18.109375 28.8125 
L 18.109375 0 
L 9.078125 0 
L 9.078125 54.6875 
L 18.109375 54.6875 
L 18.109375 46.1875 
Q 20.953125 51.171875 25.484375 53.578125 
Q 30.03125 56 36.53125 56 
Q 37.453125 56 38.578125 55.875 
Q 39.703125 55.765625 41.0625 55.515625 
z
" id="DejaVuSans-114"/>
     </defs>
     <g transform="translate(84.38125 60.254687)scale(0.1 -0.1)">
      <use xlink:href="#DejaVuSans-66"/>
      <use x="68.603516" xlink:href="#DejaVuSans-97"/>
      <use x="129.882812" xlink:href="#DejaVuSans-99"/>
      <use x="184.863281" xlink:href="#DejaVuSans-104"/>
      <use x="248.242188" xlink:href="#DejaVuSans-101"/>
      <use x="309.765625" xlink:href="#DejaVuSans-108"/>
      <use x="337.548828" xlink:href="#DejaVuSans-111"/>
      <use x="398.730469" xlink:href="#DejaVuSans-114"/>
     </g>
    </g>
   </g>
  </g>
 </g>
 <defs>
  <clipPath id="p462a77367b">
   <rect height="355.54375" width="515.31875" x="47.38125" y="14.3"/>
  </clipPath>
 </defs>
</svg>
